<?xml version="1.0" encoding="UTF-8" standalone="no"?><svg xmlns="http://www.w3.org/2000/svg" xmlns:xlink="http://www.w3.org/1999/xlink" clip-rule="evenodd" stroke-miterlimit="4.00" viewBox="0 0 1920 1080"><desc>SVG generated by Keynote</desc><defs></defs><g transform="matrix(1.00, 0.00, -0.00, -1.00, 0.0, 1080.0)"><path d="M 0.0 1080.0 L 1920.0 1080.0 L 1920.0 0.0 L 0.0 0.0 Z M 0.0 1080.0 " fill="#FEFFFF"></path><image xlink:href="../../222B70A4-C078-4EBA-973F-D1EDCF15F787/assets/F532F1E9C653A3C9E21AECA1399BA9E8.png" width="474.00" height="416.00" transform="matrix(1.00, 0.00, -0.00, -1.00, 727.8, 803.1)" opacity="0.50"></image><path d="M 397.2 59.5 C 488.1 138.9 488.1 267.6 397.2 347.0 C 306.3 426.4 159.0 426.4 68.2 347.0 C -22.7 267.6 -22.7 138.9 68.2 59.5 C 159.0 -19.8 306.3 -19.8 397.2 59.5 Z M 397.2 59.5 " fill="none" stroke="#A9A9A9" stroke-width="3.00" stroke-linecap="round" stroke-dasharray="0.0, 9.0" transform="matrix(1.00, 0.00, 0.00, -1.00, 732.3, 800.6)"></path><image xlink:href="../../15E39A30-CFD2-4125-A656-7FF89387015F/assets/5A9BE551D8A0E7B06129D968FC312C20.png" width="531.00" height="150.00" transform="matrix(1.00, 0.00, -0.00, -1.00, 215.2, 581.2)" opacity="0.75"></image><image xlink:href="../../FF504BC0-BF27-4D31-B50D-488800008DD3/assets/8A70A800DFE6045869C5C277B878B13D.png" width="258.00" height="137.00" transform="matrix(1.13, 0.00, -0.00, -1.12, 335.0, 660.0)"></image><g opacity="0.10"><g><clipPath id="clip-65"><path d="M 708.0 212.0 L 1267.0 212.0 L 1267.0 506.0 L 708.0 506.0 Z M 708.0 212.0 "></path></clipPath><g clip-path="url(#clip-65)"><image xlink:href="../../15E39A30-CFD2-4125-A656-7FF89387015F/assets/3D606FBD45F228542677E3DAD75A1BB4.png" width="557.00" height="150.00" transform="matrix(1.00, 0.00, -0.00, -1.00, 709.1, 363.4)" opacity="0.75"></image><image xlink:href="../../FF504BC0-BF27-4D31-B50D-488800008DD3/assets/995E3908DCE47C67D2B743DB57FC0FD0.png" width="225.00" height="100.00" transform="matrix(1.41, 0.00, -0.00, -1.41, 829.0, 429.0)"></image></g></g></g><image xlink:href="../../15E39A30-CFD2-4125-A656-7FF89387015F/assets/09ABF267E221836AAC48363B6C847800.png" width="582.00" height="150.00" transform="matrix(1.00, 0.00, -0.00, -1.00, 710.8, 886.5)" opacity="0.75"></image><image xlink:href="../../FF504BC0-BF27-4D31-B50D-488800008DD3/assets/BE4A473FFC0FB541261C97546482937E.png" width="342.00" height="104.00" transform="matrix(1.00, 0.00, -0.00, -1.00, 831.0, 916.0)"></image><g opacity="0.10"><g><clipPath id="clip-66"><path d="M 1320.0 312.0 L 1626.0 312.0 L 1626.0 405.0 L 1320.0 405.0 Z M 1320.0 312.0 "></path></clipPath><g clip-path="url(#clip-66)"><image xlink:href="../../FF504BC0-BF27-4D31-B50D-488800008DD3/assets/E87589F767B205C5B2D8869B1FFB9FBB.png" width="304.00" height="90.00" transform="matrix(1.00, 0.00, -0.00, -1.00, 1321.0, 404.0)"></image></g></g></g><g opacity="0.10"><g><clipPath id="clip-67"><path d="M 1183.0 324.0 L 1226.0 324.0 L 1226.0 393.0 L 1183.0 393.0 Z M 1183.0 324.0 "></path></clipPath><g clip-path="url(#clip-67)"><text xml:space="preserve" font-family="Helvetica-Light" font-size="50.0" fill="#000000" transform="matrix(1.00, 0.00, -0.00, -1.00, 1188.0, 340.0)">+</text></g></g></g><g opacity="0.36"><g><clipPath id="clip-68"><path d="M 670.0 418.0 L 752.0 418.0 L 752.0 499.0 L 670.0 499.0 Z M 670.0 418.0 "></path></clipPath><g clip-path="url(#clip-68)"><path d="M 0.0 0.0 L 80.0 0.0 L 81.5 0.0 " fill="none" stroke="#A9A9A9" stroke-width="3.00" stroke-linecap="round" stroke-dasharray="0.0, 9.0" transform="matrix(0.71, -0.71, -0.71, -0.71, 678.5, 491.1)"></path><path d="M 730.4 429.9 L 744.4 425.2 L 739.7 439.2 Z M 730.4 429.9 " fill="#A9A9A9"></path></g></g></g><path d="M 0.0 0.0 L 80.0 0.0 L 81.5 0.0 " fill="none" stroke="#A9A9A9" stroke-width="3.00" stroke-linecap="round" stroke-dasharray="0.0, 9.0" transform="matrix(0.71, 0.71, 0.71, -0.71, 672.5, 675.4)"></path><path d="M 733.7 727.3 L 738.4 741.3 L 724.4 736.6 Z M 733.7 727.3 " fill="#A9A9A9"></path><g opacity="0.47"><g><clipPath id="clip-69"><path d="M 79.0 513.0 L 255.0 513.0 L 255.0 613.0 L 79.0 613.0 Z M 79.0 513.0 "></path></clipPath><g clip-path="url(#clip-69)"><image xlink:href="../../FF504BC0-BF27-4D31-B50D-488800008DD3/assets/B33BC9647A8864636F0568DA8B7F317B.png" width="300.00" height="169.00" transform="matrix(0.58, 0.00, -0.00, -0.57, 80.0, 611.0)"></image></g></g></g><g opacity="0.47"><g><clipPath id="clip-70"><path d="M 124.0 751.0 L 209.0 751.0 L 209.0 690.0 L 124.0 690.0 Z M 124.1 751.2 "></path></clipPath><g clip-path="url(#clip-70)"><g><clipPath id="clip-71"><path d="M 123.0 688.0 L 211.0 688.0 L 211.0 753.0 L 123.0 753.0 Z M 123.0 688.0 "></path></clipPath><g clip-path="url(#clip-71)"><image xlink:href="../../888894D1-95A4-4E41-BA9D-750E4FF7C803/assets/E22F4878CC6F752CA7A9C70AD8314AAF.png" width="240.00" height="245.00" transform="matrix(0.35, 0.00, -0.00, -0.36, 124.0, 751.0)"></image></g></g></g></g></g><g opacity="0.47"><g><clipPath id="clip-72"><path d="M 159.0 585.0 L 175.0 585.0 L 175.0 669.0 L 159.0 669.0 Z M 159.0 585.0 "></path></clipPath><g clip-path="url(#clip-72)"><path d="M 0.0 0.0 L 63.6 0.0 L 65.1 0.0 " fill="none" stroke="#A9A9A9" stroke-width="3.00" stroke-linecap="round" stroke-dasharray="0.0, 9.0" transform="matrix(0.00, -1.00, -1.00, 0.00, 166.8, 665.3)"></path><path d="M 160.2 601.7 L 166.8 588.5 L 173.4 601.7 Z M 160.2 601.7 " fill="#A9A9A9"></path></g></g></g><g opacity="0.47"><g><clipPath id="clip-73"><path d="M 263.0 551.0 L 328.0 551.0 L 328.0 567.0 L 263.0 567.0 Z M 263.0 551.0 "></path></clipPath><g clip-path="url(#clip-73)"><path d="M 0.0 0.0 L 44.2 0.0 L 45.7 0.0 " fill="none" stroke="#A9A9A9" stroke-width="3.00" stroke-linecap="round" stroke-dasharray="0.0, 9.0" transform="matrix(1.00, 0.00, 0.00, -1.00, 266.5, 559.1)"></path><path d="M 310.7 552.5 L 323.9 559.1 L 310.7 565.7 Z M 310.7 552.5 " fill="#A9A9A9"></path></g></g></g><g><clipPath id="clip-74"><path d="M 109.3 498.0 L 224.2 498.0 L 224.2 516.0 L 109.3 516.0 Z M 109.3 498.0 "></path></clipPath><g clip-path="url(#clip-74)"><text xml:space="preserve" font-family="Helvetica-Light" font-size="10.0" fill="#52575F" transform="matrix(1.00, 0.00, -0.00, -1.00, 128.0, 498.0)">1</text><text xml:space="preserve" font-family="Helvetica-Light" font-size="10.0" fill="#52575F" transform="matrix(1.00, 0.00, -0.00, -1.00, 133.6, 498.0)">1</text><text xml:space="preserve" font-family="Helvetica-Light" font-size="10.0" fill="#52575F" transform="matrix(1.00, 0.00, -0.00, -1.00, 139.1, 498.0)"> </text><text xml:space="preserve" font-family="Helvetica-Light" font-size="10.0" fill="#52575F" transform="matrix(1.00, 0.00, -0.00, -1.00, 141.9, 498.0)">m</text><text xml:space="preserve" font-family="Helvetica-Light" font-size="10.0" fill="#52575F" transform="matrix(1.00, 0.00, -0.00, -1.00, 150.2, 498.0)">i</text><text xml:space="preserve" font-family="Helvetica-Light" font-size="10.0" fill="#52575F" transform="matrix(1.00, 0.00, -0.00, -1.00, 152.4, 498.0)">l</text><text xml:space="preserve" font-family="Helvetica-Light" font-size="10.0" fill="#52575F" transform="matrix(1.00, 0.00, -0.00, -1.00, 154.7, 498.0)">l</text><text xml:space="preserve" font-family="Helvetica-Light" font-size="10.0" fill="#52575F" transform="matrix(1.00, 0.00, -0.00, -1.00, 156.9, 498.0)">i</text><text xml:space="preserve" font-family="Helvetica-Light" font-size="10.0" fill="#52575F" transform="matrix(1.00, 0.00, -0.00, -1.00, 159.1, 498.0)">o</text><text xml:space="preserve" font-family="Helvetica-Light" font-size="10.0" fill="#52575F" transform="matrix(1.00, 0.00, -0.00, -1.00, 164.7, 498.0)">n</text><text xml:space="preserve" font-family="Helvetica-Light" font-size="10.0" fill="#52575F" transform="matrix(1.00, 0.00, -0.00, -1.00, 170.2, 498.0)"> </text><text xml:space="preserve" font-family="Helvetica-Light" font-size="10.0" fill="#52575F" transform="matrix(1.00, 0.00, -0.00, -1.00, 173.0, 498.0)">a</text><text xml:space="preserve" font-family="Helvetica-Light" font-size="10.0" fill="#52575F" transform="matrix(1.00, 0.00, -0.00, -1.00, 178.6, 498.0)">r</text><text xml:space="preserve" font-family="Helvetica-Light" font-size="10.0" fill="#52575F" transform="matrix(1.00, 0.00, -0.00, -1.00, 182.1, 498.0)">t</text><text xml:space="preserve" font-family="Helvetica-Light" font-size="10.0" fill="#52575F" transform="matrix(1.00, 0.00, -0.00, -1.00, 184.9, 498.0)">i</text><text xml:space="preserve" font-family="Helvetica-Light" font-size="10.0" fill="#52575F" transform="matrix(1.00, 0.00, -0.00, -1.00, 187.1, 498.0)">c</text><text xml:space="preserve" font-family="Helvetica-Light" font-size="10.0" fill="#52575F" transform="matrix(1.00, 0.00, -0.00, -1.00, 192.6, 498.0)">l</text><text xml:space="preserve" font-family="Helvetica-Light" font-size="10.0" fill="#52575F" transform="matrix(1.00, 0.00, -0.00, -1.00, 194.9, 498.0)">e</text><text xml:space="preserve" font-family="Helvetica-Light" font-size="10.0" fill="#52575F" transform="matrix(1.00, 0.00, -0.00, -1.00, 200.4, 498.0)">s</text></g></g><g><clipPath id="clip-75"><path d="M 111.8 516.0 L 221.7 516.0 L 221.7 498.2 L 111.8 498.2 Z M 111.8 516.0 "></path></clipPath><g clip-path="url(#clip-75)"><path d="M 4.0 4.5 L 113.9 4.5 " fill="none" stroke="#000000" stroke-width="1.00" stroke-dasharray="2.0, 2.0" transform="matrix(1.00, 0.00, 0.00, -1.00, 107.8, 520.0)"></path><path d="M 4.0 31.5 L 113.9 31.5 " fill="none" stroke="#000000" stroke-width="1.00" stroke-dasharray="2.0, 2.0" transform="matrix(1.00, 0.00, 0.00, -1.00, 107.8, 520.0)"></path></g></g><image xlink:href="../../222B70A4-C078-4EBA-973F-D1EDCF15F787/assets/B848B1746B32FB874FFE4A04FE47BDBE.png" width="380.00" height="46.00" transform="matrix(1.00, 0.00, -0.00, -1.00, 780.0, 689.0)"></image><image xlink:href="../../15E39A30-CFD2-4125-A656-7FF89387015F/assets/EBEA74EA1D4883E520D5228E0159AB56.png" width="152.00" height="45.00" transform="matrix(1.84, 0.00, -0.00, -1.84, 810.0, 563.0)"></image><text xml:space="preserve" font-family="Helvetica-Light" font-size="50.0" fill="#000000" transform="matrix(1.00, 0.00, -0.00, -1.00, 933.0, 568.0)">+</text><path d="M 866.5 457.5 C 865.6 457.2 864.7 455.3 863.9 455.2 M 866.5 457.5 C 866.5 457.5 866.5 457.5 866.5 457.5 C 867.4 457.7 866.1 454.3 866.3 453.7 C 866.5 453.1 865.6 453.0 865.3 452.7 C 864.5 452.0 866.6 452.0 864.7 450.8 C 863.3 449.9 862.7 448.3 861.7 447.1 C 860.8 446.0 860.0 445.4 859.1 446.6 C 859.6 449.0 858.4 449.7 858.4 449.7 C 857.1 448.7 854.4 446.4 854.0 445.0 C 853.9 444.6 857.4 442.5 857.2 442.3 C 856.8 441.4 855.6 442.0 854.9 441.3 C 854.1 440.5 853.6 440.2 853.4 439.0 C 853.4 438.8 852.0 437.3 852.1 438.3 C 851.7 437.7 851.0 436.7 850.3 436.3 C 849.6 436.1 848.5 436.9 849.1 437.6 C 848.8 437.6 851.3 440.6 851.6 440.4 C 850.7 441.2 849.6 437.9 847.9 438.5 C 845.5 439.3 847.4 439.9 847.7 441.1 C 848.0 442.4 845.2 441.2 844.5 440.4 C 843.0 439.0 845.2 444.1 843.3 443.1 C 841.3 442.0 842.5 444.0 842.9 446.0 C 843.3 447.4 842.4 447.7 841.3 447.4 C 842.4 448.2 842.8 449.1 842.5 450.7 C 843.3 451.8 843.6 450.8 843.9 450.2 C 845.4 448.0 846.6 453.5 846.8 453.7 C 847.4 454.1 848.3 454.0 848.7 454.7 C 849.0 455.3 848.0 456.0 848.4 456.4 C 848.9 456.9 849.4 457.4 849.9 457.9 C 850.3 458.3 849.8 457.0 851.0 457.0 C 852.1 457.1 852.4 455.3 852.4 455.0 C 853.1 454.4 852.9 459.6 854.3 461.0 C 855.8 462.3 855.5 460.8 856.5 461.7 C 857.4 462.4 856.3 463.0 856.9 463.6 C 857.5 464.2 858.1 463.9 858.5 464.7 C 859.2 466.3 860.5 465.0 860.6 463.2 C 860.7 462.3 860.4 461.2 861.7 460.8 C 863.1 460.4 863.9 462.3 863.9 461.0 C 863.8 459.7 860.1 457.8 860.2 456.9 C 860.4 455.9 863.3 459.2 863.6 458.0 C 863.9 456.8 862.9 457.5 862.3 456.1 C 862.7 455.8 862.8 456.6 863.4 456.2 C 864.0 455.8 863.1 455.1 863.9 455.2 C 864.7 455.3 865.6 457.2 866.5 457.5 C 866.5 457.5 866.5 457.5 866.5 457.5 Z M 854.6 442.2 C 854.6 442.2 854.6 442.2 854.6 442.2 C 854.6 441.9 855.1 442.0 855.3 442.4 C 855.6 442.9 854.5 442.5 854.6 442.2 C 854.6 442.2 854.6 442.2 854.6 442.2 Z M 853.6 461.7 C 853.6 461.7 853.6 461.7 853.6 461.7 C 853.7 461.3 854.2 461.4 854.4 461.9 C 854.6 462.3 853.6 462.0 853.6 461.7 C 853.6 461.7 853.6 461.7 853.6 461.7 Z M 844.5 450.9 C 844.5 450.9 844.5 450.9 844.5 450.9 C 844.5 450.6 845.0 450.7 845.3 451.1 C 845.5 451.6 844.5 451.3 844.5 450.9 C 844.5 450.9 844.5 450.9 844.5 450.9 Z M 857.6 446.2 C 857.6 446.2 857.6 446.2 857.6 446.2 C 858.1 446.7 858.3 447.6 857.0 447.0 C 856.4 446.7 856.1 446.4 855.9 445.9 C 855.5 445.5 855.1 445.0 855.2 444.5 C 856.2 445.2 857.7 445.2 857.6 446.2 C 857.6 446.2 857.6 446.2 857.6 446.2 Z M 853.5 451.0 C 853.5 451.0 853.5 451.0 853.5 451.0 C 853.9 450.8 854.9 451.6 854.0 452.3 C 853.3 451.9 853.1 451.1 853.5 451.0 C 853.5 451.0 853.5 451.0 853.5 451.0 Z M 846.0 437.2 C 846.0 437.2 846.0 437.2 846.0 437.2 C 846.4 437.1 847.4 437.9 846.6 438.6 C 845.8 438.2 845.6 437.3 846.0 437.2 C 846.0 437.2 846.0 437.2 846.0 437.2 Z M 858.0 450.7 C 858.0 450.7 858.0 450.7 858.0 450.7 C 858.4 451.4 857.9 452.3 857.2 451.7 C 857.2 451.1 855.9 449.4 858.0 450.7 C 858.0 450.7 858.0 450.7 858.0 450.7 Z M 863.9 451.5 C 863.9 451.5 863.9 451.5 863.9 451.5 C 864.1 452.0 864.4 452.1 863.7 452.7 C 863.2 452.2 863.3 452.4 862.8 451.9 C 862.2 451.0 860.5 452.1 860.9 450.9 C 861.6 449.2 864.1 450.8 863.9 451.5 C 863.9 451.5 863.9 451.5 863.9 451.5 Z M 858.0 452.8 C 858.0 452.8 858.0 452.8 858.0 452.8 C 858.1 453.0 858.1 453.4 858.1 453.5 C 857.6 453.7 857.7 452.8 858.0 452.8 C 858.0 452.8 858.0 452.8 858.0 452.8 Z M 841.8 444.3 C 841.8 444.3 841.8 444.3 841.8 444.3 C 842.0 444.5 842.0 444.9 841.9 445.1 C 841.4 445.2 841.5 444.3 841.8 444.3 C 841.8 444.3 841.8 444.3 841.8 444.3 Z M 847.3 454.5 C 847.3 454.5 847.3 454.5 847.3 454.5 C 847.4 454.7 847.4 455.1 847.4 455.2 C 846.9 455.4 847.0 454.5 847.3 454.5 C 847.3 454.5 847.3 454.5 847.3 454.5 Z M 852.1 443.8 C 852.1 443.8 852.1 443.8 852.1 443.8 C 851.5 443.8 851.2 442.0 851.5 441.9 C 852.5 441.7 852.8 443.9 852.1 443.8 C 852.1 443.8 852.1 443.8 852.1 443.8 Z M 868.2 455.5 C 868.2 455.5 868.2 455.5 868.2 455.5 C 867.6 455.4 867.3 453.7 867.6 453.6 C 868.6 453.3 868.9 455.5 868.2 455.5 C 868.2 455.5 868.2 455.5 868.2 455.5 Z M 1132.7 721.3 C 1132.7 721.3 1132.7 721.3 1132.7 721.3 C 1133.0 721.6 1133.3 721.8 1133.7 721.9 C 1133.6 721.7 1133.6 721.5 1133.5 721.4 C 1133.3 721.2 1133.1 721.0 1133.0 720.8 C 1132.1 720.0 1134.3 720.1 1132.3 718.8 C 1131.0 717.8 1131.3 717.4 1130.3 716.1 C 1130.0 715.8 1129.4 717.8 1129.3 718.0 C 1128.6 719.0 1126.8 719.1 1126.7 718.8 C 1126.2 718.5 1124.9 717.7 1124.6 716.4 C 1123.5 715.5 1125.7 714.4 1125.7 714.4 C 1124.3 713.3 1125.0 713.5 1124.3 712.3 C 1123.5 711.7 1122.7 712.9 1122.0 712.2 C 1121.6 712.1 1123.3 709.9 1121.7 708.3 C 1120.9 707.5 1120.4 707.2 1120.2 705.9 C 1120.1 705.7 1118.7 704.1 1118.8 705.1 C 1118.5 704.8 1118.1 704.2 1117.6 704.3 C 1115.8 704.8 1118.1 706.2 1117.9 706.6 C 1117.8 706.8 1116.5 705.9 1116.2 706.5 C 1115.8 707.3 1112.1 702.9 1112.8 705.0 C 1113.7 707.3 1111.3 708.7 1110.7 708.6 C 1110.5 708.3 1111.4 707.3 1110.3 707.3 C 1109.3 707.4 1109.9 709.3 1109.5 709.7 C 1107.1 712.1 1108.7 710.7 1109.2 712.8 C 1109.5 713.8 1107.9 713.4 1107.2 713.5 C 1107.2 713.7 1108.4 714.8 1108.4 715.0 C 1108.9 715.7 1109.0 715.3 1108.9 716.5 C 1108.9 717.1 1110.2 717.6 1110.3 717.7 C 1110.7 717.8 1110.0 717.1 1110.2 716.7 C 1111.4 714.9 1111.0 718.1 1112.1 719.0 C 1113.1 720.0 1113.5 720.3 1113.7 720.5 C 1113.8 720.6 1114.8 719.5 1114.9 719.9 C 1115.5 720.0 1115.3 720.8 1115.2 721.4 C 1115.2 722.0 1116.8 722.1 1117.2 722.6 C 1117.6 723.1 1117.0 723.6 1117.7 724.9 C 1118.4 726.3 1119.9 724.7 1120.1 724.2 C 1121.0 722.3 1119.6 726.4 1120.4 727.0 C 1121.2 727.7 1121.7 727.0 1122.2 727.5 C 1122.3 727.9 1122.3 728.3 1122.4 728.6 C 1122.9 728.6 1123.1 729.1 1123.8 729.8 C 1124.0 729.9 1124.0 730.0 1124.1 730.1 C 1124.3 730.0 1123.8 728.2 1124.1 728.1 C 1125.0 728.0 1124.9 729.4 1124.8 730.0 C 1125.7 729.9 1126.5 730.2 1126.9 731.1 C 1127.6 732.9 1129.0 731.6 1129.2 729.7 C 1129.2 728.8 1128.9 727.2 1130.3 727.2 C 1131.6 727.3 1132.3 729.3 1132.5 727.5 C 1132.4 727.5 1133.2 727.1 1131.6 726.3 C 1129.9 725.5 1129.8 724.2 1129.9 724.1 C 1129.2 723.4 1128.6 723.8 1128.6 723.0 C 1128.6 722.3 1129.6 723.2 1130.2 724.0 C 1130.6 723.8 1130.6 723.1 1131.3 723.7 C 1131.9 724.3 1131.4 724.9 1132.0 724.8 C 1132.7 724.8 1132.2 724.6 1132.2 724.4 C 1132.8 724.8 1133.3 725.3 1133.7 725.8 C 1134.5 726.9 1134.1 724.2 1133.8 723.7 C 1133.2 722.8 1131.6 722.9 1132.7 721.3 C 1132.7 721.3 1132.7 721.3 1132.7 721.3 Z M 1129.5 725.9 C 1129.5 725.9 1129.5 725.9 1129.5 725.9 C 1129.1 725.8 1128.4 724.6 1129.0 724.8 C 1129.7 724.9 1129.9 726.0 1129.5 725.9 C 1129.5 725.9 1129.5 725.9 1129.5 725.9 Z M 1116.8 725.2 C 1116.8 725.2 1116.8 725.2 1116.8 725.2 C 1116.4 725.1 1115.8 724.0 1116.4 724.2 C 1117.1 724.3 1117.2 725.4 1116.8 725.2 C 1116.8 725.2 1116.8 725.2 1116.8 725.2 Z M 1127.7 714.9 C 1127.7 714.9 1127.7 714.9 1127.7 714.9 C 1126.8 715.2 1126.9 713.5 1127.5 713.6 C 1127.7 714.0 1127.8 714.6 1127.7 714.9 C 1127.7 714.9 1127.7 714.9 1127.7 714.9 Z M 1122.1 726.1 C 1122.1 726.1 1122.1 726.1 1122.1 726.1 C 1122.0 726.0 1121.9 725.9 1121.7 725.8 C 1122.2 725.7 1123.0 726.1 1123.3 726.2 C 1122.8 726.8 1122.4 726.4 1122.1 726.1 C 1122.1 726.1 1122.1 726.1 1122.1 726.1 Z M 1124.5 711.8 C 1124.5 711.8 1124.5 711.8 1124.5 711.8 C 1123.8 711.8 1123.5 711.2 1123.2 710.8 C 1124.6 709.1 1125.3 711.8 1124.5 711.8 C 1124.5 711.8 1124.5 711.8 1124.5 711.8 Z M 1116.4 708.9 C 1116.4 708.9 1116.4 708.9 1116.4 708.9 C 1116.6 710.1 1114.2 709.3 1114.3 708.5 C 1114.5 707.7 1115.3 708.2 1115.8 708.6 C 1115.9 708.5 1116.3 707.8 1116.4 708.9 C 1116.4 708.9 1116.4 708.9 1116.4 708.9 Z M 1114.2 718.8 C 1114.2 718.8 1114.2 718.8 1114.2 718.8 C 1114.4 718.9 1114.8 718.7 1114.7 719.0 C 1114.7 719.2 1114.2 719.2 1114.2 718.8 C 1114.2 718.8 1114.2 718.8 1114.2 718.8 Z M 1125.8 731.1 C 1125.8 731.1 1125.8 731.1 1125.8 731.1 C 1125.9 731.2 1126.3 731.0 1126.2 731.3 C 1126.2 731.5 1125.7 731.5 1125.8 731.1 C 1125.8 731.1 1125.8 731.1 1125.8 731.1 Z M 1111.1 715.1 C 1111.1 715.1 1111.1 715.1 1111.1 715.1 C 1111.4 714.5 1111.6 715.3 1111.9 715.3 C 1111.7 715.8 1110.8 715.8 1111.1 715.1 C 1111.1 715.1 1111.1 715.1 1111.1 715.1 Z M 1126.0 715.5 C 1126.0 715.5 1126.0 715.5 1126.0 715.5 C 1127.2 715.4 1128.8 716.8 1127.5 718.1 C 1127.0 717.7 1126.4 717.5 1126.1 717.0 C 1125.8 716.7 1126.0 716.0 1126.0 715.5 C 1126.0 715.5 1126.0 715.5 1126.0 715.5 Z M 1130.7 719.8 C 1130.7 719.8 1130.7 719.8 1130.7 719.8 C 1131.2 719.8 1131.8 720.5 1130.9 720.7 C 1130.5 720.7 1130.1 720.7 1129.8 720.4 C 1129.4 720.3 1128.5 720.1 1128.7 719.7 C 1128.7 719.4 1130.2 719.0 1130.7 719.8 C 1130.7 719.8 1130.7 719.8 1130.7 719.8 Z M 1123.2 713.1 C 1123.2 713.1 1123.2 713.1 1123.2 713.1 C 1123.7 712.9 1124.8 714.0 1124.6 714.2 C 1124.4 714.4 1122.7 713.4 1123.2 713.1 C 1123.2 713.1 1123.2 713.1 1123.2 713.1 Z M 1128.7 716.3 C 1128.7 716.3 1128.7 716.3 1128.7 716.3 C 1128.9 716.5 1128.9 716.7 1128.7 716.7 C 1128.6 716.7 1128.4 716.5 1128.4 716.3 C 1128.4 716.2 1128.6 716.1 1128.7 716.3 C 1128.7 716.3 1128.7 716.3 1128.7 716.3 Z M 1122.1 707.5 C 1122.1 707.5 1122.1 707.5 1122.1 707.5 C 1122.2 707.7 1122.3 707.9 1122.1 707.9 C 1121.9 707.9 1121.7 707.7 1121.7 707.5 C 1121.7 707.4 1121.9 707.3 1122.1 707.5 C 1122.1 707.5 1122.1 707.5 1122.1 707.5 Z M 1134.0 720.8 C 1134.0 720.8 1134.0 720.8 1134.0 720.8 C 1134.1 721.0 1134.2 721.2 1134.0 721.1 C 1133.8 721.1 1133.7 720.9 1133.7 720.8 C 1133.6 720.7 1133.8 720.6 1134.0 720.8 C 1134.0 720.8 1134.0 720.8 1134.0 720.8 Z M 1121.3 709.6 C 1121.3 709.6 1121.3 709.6 1121.3 709.6 C 1121.4 710.2 1120.9 710.6 1120.3 710.0 C 1122.3 714.6 1117.2 710.2 1117.8 708.8 C 1118.7 706.6 1121.6 708.8 1121.3 709.6 C 1121.3 709.6 1121.3 709.6 1121.3 709.6 Z M 874.4 465.4 C 874.1 463.6 871.4 462.3 870.7 460.8 C 869.9 459.2 870.1 457.3 868.2 458.2 C 866.9 458.8 864.0 455.9 863.3 457.1 C 862.8 458.0 862.8 458.9 861.9 459.7 C 860.5 460.9 859.0 460.0 859.5 462.4 C 860.0 464.4 861.5 462.6 860.8 465.2 C 860.2 467.1 861.7 468.8 863.6 468.2 C 865.3 467.7 867.0 468.0 866.1 470.4 C 865.7 471.6 865.5 471.9 866.1 473.0 C 866.2 473.4 869.1 474.7 869.1 474.7 C 869.2 474.3 868.8 472.1 870.0 473.1 C 870.8 473.7 871.1 475.5 870.0 476.0 C 868.3 476.7 873.7 480.1 873.7 479.4 C 873.7 479.7 873.3 482.0 874.7 481.4 C 874.7 481.4 876.8 483.1 877.1 483.3 C 881.3 486.9 877.0 478.5 881.2 482.6 C 884.0 485.3 880.4 485.3 880.2 485.8 C 879.8 486.9 882.1 489.0 882.8 489.9 C 883.4 490.7 884.9 490.5 885.7 490.5 C 886.9 490.6 888.2 492.3 888.2 493.4 C 888.2 493.9 887.9 495.0 888.2 495.5 C 888.2 495.5 889.5 496.9 889.4 496.5 C 889.4 496.2 888.8 494.6 889.6 494.7 C 890.2 494.9 890.2 497.2 890.5 497.8 C 891.2 498.8 893.2 496.7 893.8 499.2 C 894.2 501.0 893.6 500.2 895.3 500.0 C 896.3 499.9 896.7 502.7 896.4 503.2 C 898.0 500.7 897.8 504.2 898.2 504.0 C 897.9 504.1 897.0 503.4 896.8 503.7 C 896.7 503.9 902.9 510.7 903.8 510.3 C 904.7 509.8 904.4 508.3 905.9 510.2 C 906.4 510.9 906.8 512.2 906.5 512.4 C 905.3 511.7 905.8 511.8 904.3 511.2 C 904.2 511.2 906.1 513.5 906.5 513.9 C 907.6 515.0 908.4 515.0 909.9 515.5 C 910.9 515.9 910.5 517.4 911.3 518.2 C 912.2 519.2 913.0 520.1 914.1 520.9 C 915.2 521.6 915.4 521.9 916.1 521.2 C 916.9 520.6 918.7 522.3 919.4 522.4 C 920.2 522.4 920.3 522.6 920.6 523.6 C 921.1 525.3 920.2 524.6 919.9 525.1 C 919.1 526.8 922.1 529.5 923.3 530.2 C 924.6 531.1 923.5 528.7 923.8 528.8 C 924.6 529.0 925.0 530.1 925.6 530.7 C 926.4 531.5 925.1 531.2 925.2 531.7 C 925.4 534.1 928.3 532.3 929.1 533.4 C 930.1 535.0 928.9 537.0 931.2 537.8 C 933.6 538.6 933.4 541.5 935.7 542.4 C 937.6 543.2 937.8 547.2 940.2 546.3 C 941.3 545.8 943.6 546.3 944.4 545.5 C 944.7 545.2 946.2 542.0 945.4 542.0 C 945.9 542.0 946.8 543.0 947.3 542.7 C 947.6 542.5 946.6 540.6 946.6 540.3 C 946.7 540.0 949.0 541.2 949.3 541.0 C 949.8 540.8 947.4 537.2 948.5 536.1 C 948.9 535.6 948.1 534.0 947.5 534.6 C 947.3 534.9 946.3 536.8 946.8 537.1 C 946.6 537.0 945.4 535.1 945.4 535.1 C 945.4 535.5 945.2 535.8 945.0 536.2 C 944.7 536.2 941.3 532.8 941.4 532.5 C 941.5 531.7 943.2 530.9 943.0 530.1 C 942.9 529.7 941.4 529.7 941.0 529.3 C 940.3 528.5 941.8 528.6 941.2 527.7 C 941.1 527.4 936.7 524.1 936.4 524.3 C 936.3 524.3 936.2 526.6 935.8 527.0 C 935.1 527.9 934.3 526.4 933.9 525.9 C 933.3 525.2 931.3 521.8 932.3 520.7 C 932.7 520.4 934.7 522.2 935.1 522.3 C 934.5 522.2 933.9 517.8 931.9 518.4 C 931.6 518.5 932.5 519.5 932.5 519.7 C 932.4 520.0 930.5 520.5 930.1 519.9 C 929.9 519.5 930.1 517.9 929.5 517.9 C 929.7 517.9 927.4 517.9 927.7 517.4 C 927.5 517.7 927.6 519.5 927.2 519.6 C 927.1 519.6 925.3 517.4 925.2 517.2 C 924.1 515.5 924.2 516.3 923.0 516.1 C 921.8 515.9 919.6 514.6 921.2 513.6 C 923.1 512.4 921.9 510.3 920.8 511.5 C 919.6 512.7 919.6 512.2 918.7 510.7 C 917.8 509.2 916.0 508.4 915.9 506.5 C 915.8 504.1 918.0 505.8 918.0 505.0 C 918.1 504.1 916.9 503.1 916.3 502.6 C 915.2 501.9 915.2 503.5 914.7 503.2 C 913.8 502.7 914.3 500.8 913.3 500.3 C 913.3 500.2 911.4 499.9 911.7 500.1 C 908.8 497.0 911.3 500.7 910.6 502.2 C 910.3 502.7 909.3 500.1 908.4 501.9 C 907.4 503.7 904.9 501.1 905.4 500.3 C 905.8 500.4 906.1 500.4 906.4 500.4 C 906.8 499.4 904.0 497.0 904.5 496.3 C 904.7 496.0 909.2 498.7 909.4 497.4 C 909.5 496.6 908.0 496.5 907.6 496.5 C 906.9 496.6 907.7 495.6 907.6 495.3 C 907.7 495.5 906.1 494.0 905.3 494.3 C 905.1 494.4 906.0 496.0 905.4 495.7 C 903.2 494.6 905.2 494.4 905.1 493.0 C 905.0 492.1 902.8 488.9 902.8 489.1 C 902.7 489.3 903.4 490.3 903.0 490.5 C 902.4 490.7 901.8 489.4 901.2 489.6 C 901.0 489.7 901.6 490.7 901.4 490.7 C 900.7 490.8 899.0 488.7 898.5 489.1 C 898.1 489.4 900.2 491.0 899.7 491.5 C 899.4 491.9 897.8 491.5 898.3 490.7 C 898.9 489.8 896.2 488.9 896.1 487.9 C 895.9 486.9 898.2 488.0 897.0 486.3 C 895.6 484.5 896.1 486.3 895.3 486.4 C 893.2 486.6 895.0 480.9 893.5 481.3 C 893.0 481.4 893.2 484.5 891.9 482.7 C 891.4 481.8 886.9 480.1 888.1 478.8 C 888.4 478.6 890.4 480.3 890.4 480.0 C 890.7 479.1 889.3 478.0 888.9 477.4 C 888.2 476.4 889.2 476.3 889.1 475.4 C 888.9 474.2 887.1 475.0 886.6 474.4 C 886.1 473.7 884.7 476.2 884.6 476.5 C 885.1 475.5 882.4 474.8 882.6 473.6 C 883.2 471.0 882.4 471.3 881.5 469.5 C 881.8 469.8 881.9 470.1 881.8 470.4 C 881.5 470.4 880.5 469.5 880.4 469.4 C 880.7 469.9 880.8 470.4 880.7 470.9 C 880.7 471.0 874.3 468.6 875.5 466.4 C 875.6 466.1 878.2 463.1 876.5 463.1 C 876.0 463.1 874.4 465.5 874.4 465.4 M 891.8 480.6 C 892.1 480.8 892.2 481.1 892.1 481.5 C 891.5 481.4 891.2 481.1 891.0 480.6 C 891.2 480.2 891.4 480.2 891.8 480.6 M 892.6 479.5 C 892.9 479.8 892.9 480.1 892.8 480.4 C 890.4 479.2 892.3 477.1 893.1 479.3 C 893.1 479.4 892.4 479.2 892.6 479.5 M 907.1 493.8 C 907.0 494.1 905.2 493.1 906.0 492.9 C 906.3 492.7 907.2 493.5 907.1 493.8 M 907.7 498.8 C 907.7 499.7 906.5 498.7 906.6 498.2 C 906.7 497.6 907.7 498.6 907.7 498.8 M 940.3 530.0 C 939.5 531.3 935.0 530.1 936.3 528.3 C 937.9 526.2 941.5 528.2 940.3 530.0 M 920.2 507.8 C 919.7 508.1 918.8 506.5 919.3 506.1 C 920.3 505.5 920.9 507.5 920.2 507.8 M 917.8 508.0 C 917.2 508.3 916.7 507.2 916.9 506.9 C 917.2 506.6 918.4 507.6 917.8 508.0 M 934.2 523.9 C 934.7 523.7 935.2 525.2 934.8 525.1 C 934.4 525.0 933.8 524.1 934.2 523.9 C 934.2 523.9 934.2 523.9 934.2 523.9 Z M 943.5 533.5 C 943.4 533.2 943.9 533.0 944.0 533.4 C 944.0 533.7 943.6 533.8 943.5 533.5 C 943.5 533.5 943.5 533.5 943.5 533.5 Z M 924.5 515.3 C 923.6 514.2 925.7 514.1 926.2 515.7 C 926.7 517.1 925.7 516.5 924.5 515.3 C 924.5 515.3 924.5 515.3 924.5 515.3 Z M 931.2 536.8 C 931.3 537.1 930.6 537.0 930.5 536.6 C 930.2 535.8 931.1 536.5 931.2 536.8 C 931.2 536.8 931.2 536.8 931.2 536.8 Z M 886.7 480.2 C 886.8 480.9 886.1 480.4 886.1 480.0 C 886.1 479.6 886.5 479.5 886.7 480.2 C 886.7 480.2 886.7 480.2 886.7 480.2 Z M 877.8 467.5 C 878.0 468.2 877.0 467.2 877.0 466.8 C 877.0 466.4 877.7 466.8 877.8 467.5 C 877.8 467.5 877.8 467.5 877.8 467.5 Z M 863.3 464.7 C 863.5 465.4 862.6 464.9 862.6 464.5 C 862.7 464.1 863.1 464.0 863.3 464.7 C 863.3 464.7 863.3 464.7 863.3 464.7 Z M 880.4 479.3 C 880.5 480.0 879.7 479.5 879.7 479.1 C 879.7 478.7 880.2 478.6 880.4 479.3 C 880.4 479.3 880.4 479.3 880.4 479.3 Z M 885.7 477.0 C 885.8 476.1 887.5 475.1 887.4 477.2 C 887.3 479.4 885.7 477.9 885.7 477.0 C 885.7 477.0 885.7 477.0 885.7 477.0 Z M 913.8 518.8 C 913.8 518.8 915.0 518.8 915.0 519.1 C 915.1 520.7 913.8 518.8 913.8 518.8 C 913.8 518.8 913.8 518.8 913.8 518.8 Z M 907.0 500.3 C 907.0 500.3 907.8 500.6 907.8 500.7 C 908.2 501.9 907.0 500.3 907.0 500.3 C 907.0 500.3 907.0 500.3 907.0 500.3 Z M 904.9 490.5 C 904.9 490.5 905.7 490.8 905.7 491.0 C 906.1 492.2 904.9 490.5 904.9 490.5 C 904.9 490.5 904.9 490.5 904.9 490.5 Z M 878.8 466.9 C 877.8 465.5 879.4 466.0 880.0 467.1 C 880.6 468.0 879.8 468.2 878.8 466.9 C 878.8 466.9 878.8 466.9 878.8 466.9 Z M 880.5 472.9 C 880.3 471.0 881.7 471.7 881.7 473.2 C 881.8 474.5 880.7 474.7 880.5 472.9 C 880.5 472.9 880.5 472.9 880.5 472.9 Z M 875.2 469.1 C 875.5 469.3 875.5 469.5 875.2 469.6 C 874.6 469.7 873.8 468.5 873.9 468.0 C 874.0 467.1 875.2 469.1 875.2 469.1 M 873.7 475.8 C 877.0 476.4 872.0 477.8 872.0 477.2 C 872.1 476.5 873.0 475.6 873.7 475.8 C 873.7 475.8 873.7 475.8 873.7 475.8 Z M 889.3 493.4 C 890.0 493.4 890.2 494.5 889.5 494.4 C 889.1 494.3 888.5 493.4 889.3 493.4 C 889.3 493.4 889.3 493.4 889.3 493.4 Z M 895.3 483.9 C 895.7 483.9 896.6 485.1 895.9 484.9 C 895.5 484.9 894.5 483.8 895.3 483.9 C 895.3 483.9 895.3 483.9 895.3 483.9 Z M 870.9 458.3 C 871.3 458.4 872.2 459.5 871.6 459.4 C 871.1 459.3 870.2 458.3 870.9 458.3 C 870.9 458.3 870.9 458.3 870.9 458.3 Z M 901.5 500.4 C 902.8 500.8 902.8 502.1 901.9 501.7 C 901.0 501.3 900.2 500.1 901.5 500.4 C 901.5 500.4 901.5 500.4 901.5 500.4 Z M 921.8 514.7 C 922.5 514.7 922.4 515.6 922.1 515.3 C 921.6 515.0 921.5 514.6 921.8 514.7 C 921.8 514.7 921.8 514.7 921.8 514.7 Z M 926.2 516.8 C 926.6 516.9 926.7 517.5 926.3 517.2 C 925.9 516.9 925.9 516.7 926.2 516.8 C 926.2 516.8 926.2 516.8 926.2 516.8 Z M 936.8 532.9 C 937.7 533.2 938.0 534.5 937.2 533.9 C 936.2 533.2 936.1 532.7 936.8 532.9 C 936.8 532.9 936.8 532.9 936.8 532.9 Z M 930.4 518.4 C 930.7 518.5 930.9 519.1 930.5 518.9 C 930.1 518.6 930.0 518.3 930.4 518.4 C 930.4 518.4 930.4 518.4 930.4 518.4 Z M 938.9 528.4 C 939.8 528.5 939.8 529.7 939.2 529.3 C 938.7 528.9 938.5 528.3 938.9 528.4 C 938.9 528.4 938.9 528.4 938.9 528.4 Z M 939.9 524.8 C 940.8 524.9 940.8 526.1 940.2 525.7 C 939.7 525.3 939.5 524.7 939.9 524.8 C 939.9 524.8 939.9 524.8 939.9 524.8 Z M 907.7 515.8 C 908.6 515.9 908.5 517.0 908.0 516.6 C 907.4 516.2 907.3 515.7 907.7 515.8 C 907.7 515.8 907.7 515.8 907.7 515.8 Z M 884.8 471.1 C 885.8 472.0 885.7 472.7 884.8 472.5 C 883.9 472.3 883.7 470.2 884.8 471.1 C 884.8 471.1 884.8 471.1 884.8 471.1 Z M 937.2 528.7 C 937.7 528.7 937.6 529.3 937.3 529.2 C 936.9 529.0 936.7 528.6 937.2 528.7 C 937.2 528.7 937.2 528.7 937.2 528.7 Z M 912.4 508.1 C 912.4 508.5 912.2 508.7 911.8 508.7 C 911.3 508.1 911.4 506.6 912.2 506.2 C 912.9 505.8 914.1 508.5 913.1 508.6 C 912.9 508.6 912.6 507.6 912.4 508.1 M 911.7 514.9 C 911.9 515.5 911.1 515.4 911.1 514.8 C 911.0 514.0 911.5 514.3 911.7 514.9 C 911.7 514.9 911.7 514.9 911.7 514.9 Z M 900.0 506.0 C 900.2 506.7 899.5 506.5 899.4 505.9 C 899.4 505.2 899.9 505.4 900.0 506.0 C 900.0 506.0 900.0 506.0 900.0 506.0 Z M 929.2 516.3 C 929.6 516.9 929.4 516.1 929.7 516.1 C 930.0 516.4 930.2 516.8 930.2 517.3 C 929.8 518.2 928.7 516.2 928.7 516.0 C 928.9 516.1 929.0 516.2 929.2 516.3 M 933.0 537.0 C 933.4 537.6 933.2 536.7 933.5 536.7 C 933.8 537.0 934.0 537.4 934.0 537.9 C 933.6 538.8 932.5 536.8 932.5 536.6 C 932.6 536.7 932.8 536.9 933.0 537.0 M 866.8 455.9 C 866.7 456.2 864.9 455.2 865.7 455.0 C 866.0 454.8 866.9 455.6 866.8 455.9 M 896.6 505.0 C 896.5 505.2 894.7 504.3 895.4 504.0 C 895.8 503.9 896.7 504.6 896.6 505.0 M 904.2 506.9 C 904.7 507.5 904.4 506.6 904.7 506.6 C 905.1 506.9 905.2 507.3 905.2 507.8 C 904.9 508.7 903.7 506.8 903.8 506.5 C 903.9 506.6 904.1 506.8 904.2 506.9 M 926.0 529.8 C 926.2 529.5 926.9 530.3 926.4 530.3 C 926.0 530.3 925.8 530.1 926.0 529.8 C 926.0 529.8 926.0 529.8 926.0 529.8 Z M 899.4 488.5 C 899.6 488.2 900.3 489.3 899.7 489.0 C 899.4 488.9 899.2 488.8 899.4 488.5 C 899.4 488.5 899.4 488.5 899.4 488.5 Z M 909.3 503.8 C 908.5 503.6 909.1 503.0 909.5 503.0 C 910.6 502.8 909.9 504.9 909.7 504.7 C 909.5 504.5 909.4 503.8 909.3 503.8 M 892.7 487.9 C 891.4 487.7 894.1 485.4 894.0 488.1 C 893.8 490.8 893.0 488.0 892.7 487.9 M 937.8 542.8 C 938.3 542.9 936.9 540.8 937.3 540.8 C 938.3 540.7 938.6 543.2 938.1 543.8 C 938.0 543.9 936.8 542.7 937.8 542.8 M 930.5 522.5 C 931.0 522.6 929.6 520.6 930.0 520.5 C 931.0 520.4 931.4 522.9 930.8 523.5 C 930.7 523.6 929.5 522.4 930.5 522.5 M 900.8 492.2 C 900.5 491.7 902.2 491.9 902.1 492.8 C 901.8 494.5 901.1 492.5 900.8 492.2 M 873.5 462.2 C 873.2 462.0 873.0 461.8 873.1 461.3 C 873.2 460.8 874.7 462.1 874.4 462.2 C 874.1 462.2 873.8 462.2 873.5 462.2 M 919.1 523.1 C 919.8 522.9 919.7 524.1 919.2 523.8 C 918.7 523.6 918.4 523.3 919.1 523.1 C 919.1 523.1 919.1 523.1 919.1 523.1 Z M 872.2 480.8 C 872.9 480.5 872.8 481.7 872.4 481.5 C 871.8 481.2 871.6 481.0 872.2 480.8 C 872.2 480.8 872.2 480.8 872.2 480.8 Z M 949.8 537.9 C 950.4 537.7 950.5 538.8 950.0 538.5 C 949.5 538.2 949.3 538.0 949.8 537.9 C 949.8 537.9 949.8 537.9 949.8 537.9 Z M 927.6 522.0 C 927.9 522.1 928.5 523.3 927.4 522.9 C 926.8 522.6 927.3 522.0 927.6 522.0 C 927.6 522.0 927.6 522.0 927.6 522.0 Z M 944.9 532.2 C 945.2 532.3 946.2 533.8 944.8 533.2 C 944.0 532.8 944.5 532.1 944.9 532.2 C 944.9 532.2 944.9 532.2 944.9 532.2 Z M 916.9 515.4 C 917.3 515.4 917.3 515.9 916.9 515.7 C 916.5 515.6 916.5 515.4 916.9 515.4 C 916.9 515.4 916.9 515.4 916.9 515.4 Z M 921.8 507.0 C 922.2 507.0 922.2 507.6 921.7 507.4 C 921.3 507.2 921.3 507.0 921.8 507.0 C 921.8 507.0 921.8 507.0 921.8 507.0 Z M 909.4 500.3 C 909.8 500.4 909.9 500.9 909.4 500.7 C 909.0 500.5 909.0 500.3 909.4 500.3 C 909.4 500.3 909.4 500.3 909.4 500.3 Z M 925.6 511.9 C 927.3 512.8 927.8 514.1 925.4 513.3 C 923.9 512.7 925.1 511.6 925.6 511.9 C 925.6 511.9 925.6 511.9 925.6 511.9 Z M 909.2 508.7 C 909.6 508.8 909.5 509.2 909.1 509.0 C 908.8 508.9 908.7 508.5 909.2 508.7 C 909.2 508.7 909.2 508.7 909.2 508.7 Z M 913.0 503.2 C 912.7 501.7 916.9 505.1 914.9 505.9 C 912.4 506.9 913.2 503.8 913.0 503.2 M 898.8 485.8 C 898.8 485.2 900.0 486.2 899.4 486.7 C 898.4 487.6 898.8 486.0 898.8 485.8 M 883.8 488.2 C 883.8 488.2 883.6 489.0 883.4 488.5 C 883.0 487.8 883.8 488.2 883.8 488.2 C 883.8 488.2 883.8 488.2 883.8 488.2 Z M 886.1 489.2 C 886.7 489.1 887.2 490.5 886.5 490.0 C 886.1 489.7 885.6 489.3 886.1 489.2 C 886.1 489.2 886.1 489.2 886.1 489.2 Z M 895.3 481.6 C 895.6 481.6 895.8 482.1 895.5 481.9 C 895.3 481.8 895.1 481.6 895.3 481.6 C 895.3 481.6 895.3 481.6 895.3 481.6 Z M 883.9 491.9 C 884.3 491.9 885.0 493.1 884.3 492.6 C 883.9 492.4 883.5 491.9 883.9 491.9 C 883.9 491.9 883.9 491.9 883.9 491.9 Z M 919.4 505.0 C 919.7 505.0 919.9 505.6 919.6 505.4 C 919.4 505.3 919.2 505.1 919.4 505.0 C 919.4 505.0 919.4 505.0 919.4 505.0 Z M 948.6 534.0 C 948.8 534.0 949.0 534.5 948.7 534.3 C 948.5 534.2 948.3 534.0 948.6 534.0 C 948.6 534.0 948.6 534.0 948.6 534.0 Z M 867.4 470.0 C 868.0 469.8 868.4 471.2 867.6 470.8 C 867.2 470.5 866.8 470.1 867.4 470.0 C 867.4 470.0 867.4 470.0 867.4 470.0 Z M 919.8 510.7 C 920.4 510.5 920.7 511.7 919.8 511.2 C 919.4 511.0 919.2 510.8 919.8 510.7 C 919.8 510.7 919.8 510.7 919.8 510.7 Z M 880.1 483.7 C 880.7 483.6 880.9 484.8 880.1 484.3 C 879.6 484.0 879.5 483.8 880.1 483.7 C 880.1 483.7 880.1 483.7 880.1 483.7 Z M 918.5 508.2 C 918.9 508.2 919.1 508.8 918.6 508.5 C 918.4 508.4 918.2 508.3 918.5 508.2 C 918.5 508.2 918.5 508.2 918.5 508.2 Z M 917.7 522.8 C 918.0 522.7 918.3 523.4 917.8 523.1 C 917.5 522.9 917.3 522.9 917.7 522.8 C 917.7 522.8 917.7 522.8 917.7 522.8 Z M 922.4 530.5 C 922.8 530.4 923.0 531.1 922.5 530.8 C 922.3 530.6 922.1 530.6 922.4 530.5 C 922.4 530.5 922.4 530.5 922.4 530.5 Z M 921.8 517.7 C 922.2 517.7 922.5 518.5 922.0 518.2 C 921.8 518.0 921.5 517.8 921.8 517.7 C 921.8 517.7 921.8 517.7 921.8 517.7 Z M 880.9 478.8 C 880.2 478.3 880.1 476.7 880.6 475.9 C 880.2 476.5 882.6 478.0 882.8 478.3 C 882.9 478.6 881.6 479.4 880.9 478.8 M 923.2 520.2 C 919.1 516.8 923.4 516.5 925.1 519.7 C 925.3 520.0 923.9 520.7 923.2 520.2 C 925.3 520.0 923.9 520.7 923.2 520.2 C 925.3 520.0 923.9 520.7 923.2 520.2 C 925.3 520.0 923.9 520.7 923.2 520.2 M 953.7 539.6 C 951.3 537.7 952.7 539.3 950.6 539.4 C 950.2 539.5 947.6 538.7 947.5 539.1 C 947.3 539.9 949.0 540.5 948.9 541.2 C 948.6 542.8 946.5 541.0 945.9 541.2 C 944.3 541.6 944.4 543.7 944.6 545.0 C 944.9 546.9 946.0 545.2 946.8 545.7 C 947.5 546.0 946.0 547.0 945.7 547.2 C 944.4 548.1 943.9 546.0 942.6 548.1 C 941.9 549.3 941.5 549.8 943.1 550.6 C 944.3 551.2 945.3 550.0 946.4 549.6 C 947.0 549.4 949.7 552.6 948.1 552.8 C 947.0 552.9 946.1 553.2 947.3 554.2 C 947.8 554.5 948.3 554.6 948.9 554.6 C 949.8 554.8 949.6 555.8 950.5 556.2 C 952.5 556.9 952.3 560.9 954.8 562.0 C 955.2 562.1 958.8 561.6 957.7 564.2 C 958.1 564.8 959.3 563.8 959.5 564.1 C 960.5 565.1 959.5 565.6 959.6 566.1 C 960.2 567.0 964.4 568.0 963.5 569.1 C 962.0 570.7 965.5 572.7 965.9 572.5 C 966.2 572.4 968.1 575.2 969.6 576.2 C 969.6 576.0 969.5 575.7 969.4 575.5 C 969.6 575.7 970.1 575.9 970.3 576.0 C 969.8 575.5 968.7 573.3 968.7 572.6 C 968.7 572.4 972.9 574.8 971.6 575.7 C 970.9 576.2 970.4 576.5 971.5 577.1 C 973.0 577.9 971.2 577.6 971.8 578.6 C 972.8 580.3 974.6 578.9 974.7 580.9 C 974.8 582.2 975.4 581.7 976.3 582.3 C 978.1 583.4 977.0 584.7 978.3 585.8 C 978.5 585.9 981.2 588.4 981.1 587.2 C 981.0 586.3 979.9 585.0 980.1 584.0 C 980.6 582.2 982.6 587.0 982.3 586.6 C 982.9 587.5 986.1 587.8 986.2 588.6 C 986.3 589.2 983.2 588.5 982.8 588.4 C 981.3 588.3 984.9 591.4 984.8 591.4 C 985.2 591.9 986.5 592.0 986.6 592.6 C 986.9 593.5 986.7 593.7 987.5 594.4 C 988.1 594.8 988.4 595.2 988.9 595.7 C 989.5 596.4 990.8 595.5 991.7 595.7 C 993.2 596.0 992.0 597.1 992.3 597.8 C 993.0 599.3 996.8 600.6 996.3 601.9 C 995.7 603.4 999.9 602.5 999.8 604.7 C 999.8 605.4 1000.7 606.9 1001.2 606.8 C 1000.0 607.0 1002.3 609.2 1002.7 609.7 C 1003.2 610.3 1004.1 610.2 1004.8 610.4 C 1005.7 610.8 1005.5 612.0 1005.8 612.8 C 1006.4 614.6 1007.7 611.9 1007.9 613.5 C 1008.4 616.2 1010.3 612.4 1011.0 612.7 C 1011.3 612.9 1010.3 615.7 1010.3 616.2 C 1010.4 616.9 1011.3 615.8 1011.3 616.5 C 1011.3 617.4 1011.3 618.8 1012.6 618.7 C 1013.2 618.6 1013.9 616.9 1014.3 617.6 C 1014.3 617.7 1014.6 619.1 1014.9 618.9 C 1017.2 617.0 1014.6 622.5 1013.9 620.3 C 1014.2 621.3 1017.7 625.3 1018.7 624.5 C 1019.1 624.0 1017.5 622.2 1018.3 622.0 C 1019.8 621.6 1021.3 626.0 1019.9 625.5 C 1020.9 625.9 1021.0 628.8 1022.6 629.2 C 1022.9 629.2 1023.4 630.3 1023.6 630.1 C 1024.0 629.9 1024.7 628.9 1025.2 629.0 C 1026.2 629.0 1028.2 629.8 1028.8 628.6 C 1029.0 628.3 1030.8 623.3 1030.5 623.4 C 1031.0 623.3 1031.9 624.3 1032.4 623.9 C 1033.3 623.2 1029.5 621.2 1030.9 620.5 C 1030.9 620.5 1030.1 619.3 1030.4 618.9 C 1031.1 617.9 1031.2 618.6 1030.3 617.4 C 1029.5 616.4 1029.9 617.4 1029.0 617.5 C 1028.5 617.6 1029.4 615.2 1027.3 614.8 C 1028.2 616.1 1027.3 616.0 1027.2 617.3 C 1027.1 619.0 1025.3 617.3 1024.8 617.0 C 1022.6 615.4 1022.4 614.0 1021.7 611.8 C 1021.3 610.4 1026.1 610.2 1022.8 610.0 C 1021.3 610.0 1018.7 606.1 1017.2 605.4 C 1017.3 605.5 1017.6 606.8 1017.5 607.0 C 1015.8 608.9 1013.5 603.5 1013.4 602.6 C 1013.1 601.1 1012.7 601.9 1012.5 602.9 C 1012.2 604.4 1011.0 603.4 1010.4 602.8 C 1010.1 602.4 1009.3 601.1 1008.8 601.1 C 1008.0 601.1 1009.2 597.4 1009.0 596.8 C 1008.5 595.5 1007.3 596.4 1006.7 594.9 C 1006.7 594.7 1005.6 591.2 1005.2 591.7 C 1004.1 592.8 1007.5 597.3 1003.8 594.4 C 1003.5 594.2 999.4 590.6 1000.4 590.5 C 1001.0 590.4 1001.3 591.1 1001.7 591.2 C 1000.0 590.5 1002.1 587.4 999.6 586.2 C 998.4 585.7 994.9 580.9 995.0 583.7 C 995.0 586.2 992.6 585.0 992.2 583.2 C 991.9 581.5 991.8 581.0 990.1 580.6 C 989.8 580.5 987.0 578.5 987.9 578.0 C 988.5 577.8 989.1 578.9 990.0 578.3 C 990.4 577.9 990.3 577.0 989.7 576.8 C 989.0 576.5 988.3 577.1 987.7 577.1 C 987.5 577.1 986.9 575.6 986.8 575.4 C 986.2 574.7 985.1 573.9 984.8 573.0 C 984.6 572.3 985.9 572.6 985.8 572.1 C 985.1 569.3 983.8 574.2 984.0 574.0 C 983.9 574.1 980.9 572.8 980.6 572.6 C 978.9 571.3 979.0 570.1 979.9 568.5 C 980.1 568.2 982.6 570.1 982.6 570.1 C 983.0 567.2 980.0 566.8 978.8 565.2 C 978.4 564.7 976.6 561.2 975.7 563.2 C 975.1 564.4 974.5 563.0 974.1 562.7 C 974.3 562.8 974.4 565.6 974.5 566.1 C 973.3 565.2 972.0 564.3 970.9 563.2 C 970.3 562.6 969.4 561.8 969.1 561.0 C 968.9 560.6 969.8 559.2 968.7 558.9 C 969.4 559.1 970.1 559.6 970.8 559.9 C 970.3 559.2 971.0 556.2 969.3 556.3 C 968.8 556.3 968.9 557.2 968.1 556.8 C 967.5 556.3 966.8 555.6 966.0 555.3 C 965.3 555.0 963.6 557.3 962.6 554.5 C 962.7 554.7 963.3 552.4 963.3 552.5 C 963.8 551.6 964.0 551.1 963.2 550.2 C 963.7 550.8 961.2 553.0 959.9 552.1 C 958.5 551.1 956.2 548.5 958.0 546.9 C 957.5 545.7 957.8 544.0 955.7 543.9 C 954.4 543.8 952.5 542.4 952.3 540.9 C 952.3 540.4 953.8 541.4 954.1 541.4 C 954.5 541.2 954.0 539.8 953.7 539.6 M 955.5 542.3 C 955.4 543.0 954.0 541.2 955.1 541.2 C 955.4 541.5 955.6 541.8 955.5 542.3 M 953.8 542.2 C 953.3 542.1 953.6 541.8 953.7 541.8 C 954.0 541.9 954.2 542.2 953.8 542.2 C 953.8 542.2 953.8 542.2 953.8 542.2 Z M 965.0 554.6 C 964.3 554.0 964.5 553.9 965.1 554.0 C 965.8 554.2 965.7 555.1 965.0 554.6 C 965.0 554.6 965.0 554.6 965.0 554.6 Z M 964.8 573.4 C 964.1 572.9 964.3 572.7 964.9 572.8 C 965.6 573.0 965.5 573.9 964.8 573.4 C 964.8 573.4 964.8 573.4 964.8 573.4 Z M 972.7 562.7 C 972.5 562.8 972.2 562.5 972.4 562.3 C 972.6 562.2 972.8 562.5 972.7 562.7 C 972.7 562.7 972.7 562.7 972.7 562.7 Z M 960.2 551.0 C 960.1 551.1 959.8 550.8 959.9 550.6 C 960.1 550.5 960.3 550.8 960.2 551.0 C 960.2 551.0 960.2 551.0 960.2 551.0 Z M 973.3 560.5 C 973.5 561.0 971.7 561.1 972.5 559.1 C 972.7 558.7 973.7 560.3 973.7 560.5 C 973.7 560.6 973.2 560.1 973.3 560.5 M 984.1 570.2 C 984.3 570.6 984.2 570.8 983.8 570.9 C 983.8 571.0 983.2 569.6 984.1 570.2 M 995.6 604.0 C 995.8 604.4 995.7 604.6 995.3 604.7 C 995.2 604.7 994.7 603.4 995.6 604.0 M 1008.7 594.6 C 1009.2 594.7 1009.2 595.8 1009.0 595.8 C 1008.4 595.8 1007.9 594.5 1008.7 594.6 M 992.9 581.9 C 993.1 581.9 994.7 583.6 994.1 583.5 C 993.5 583.5 992.7 581.8 992.9 581.9 M 1016.2 603.7 C 1016.0 603.2 1015.7 602.6 1015.5 602.1 C 1015.4 601.9 1018.5 603.9 1017.8 604.5 C 1017.4 605.0 1016.3 603.9 1016.2 603.7 M 1020.8 606.7 C 1021.2 606.7 1021.9 607.9 1021.5 608.1 C 1020.9 608.5 1020.2 606.6 1020.8 606.7 M 1002.5 589.4 C 1002.7 589.7 1002.2 589.8 1002.0 589.5 C 1001.6 589.0 1002.3 589.1 1002.5 589.4 C 1002.5 589.4 1002.5 589.4 1002.5 589.4 Z M 992.2 580.0 C 992.0 579.8 991.2 578.4 991.8 578.4 C 993.3 578.5 995.3 582.1 992.2 580.0 M 967.8 554.6 C 967.7 554.6 969.1 555.0 968.5 555.9 C 967.6 557.1 967.7 554.7 967.8 554.6 M 962.3 550.7 C 962.5 551.1 962.1 551.2 961.9 550.8 C 961.8 550.4 962.1 550.4 962.3 550.7 C 962.3 550.7 962.3 550.7 962.3 550.7 Z M 1009.9 597.2 C 1010.1 597.8 1009.2 597.1 1009.4 596.9 C 1009.6 596.7 1009.8 596.7 1009.9 597.2 C 1009.9 597.2 1009.9 597.2 1009.9 597.2 Z M 1014.7 601.5 C 1014.9 602.1 1014.0 601.4 1014.2 601.2 C 1014.4 601.0 1014.6 601.0 1014.7 601.5 C 1014.7 601.5 1014.7 601.5 1014.7 601.5 Z M 1011.9 619.5 C 1012.0 620.1 1011.1 619.4 1011.3 619.2 C 1011.5 619.0 1011.7 619.0 1011.9 619.5 C 1011.9 619.5 1011.9 619.5 1011.9 619.5 Z M 961.4 558.5 C 961.0 558.4 960.8 558.1 961.0 557.7 C 961.3 557.6 961.6 557.6 961.9 557.8 C 961.5 557.5 960.1 555.7 961.5 556.0 C 962.7 556.2 962.7 557.9 963.6 558.4 C 964.0 558.5 964.9 558.2 965.0 558.0 C 965.0 558.1 965.4 559.0 964.8 560.2 C 964.1 561.6 962.0 558.6 961.4 558.5 M 986.0 580.1 C 986.1 580.3 987.3 581.8 987.1 581.9 C 985.0 583.1 983.4 578.0 985.4 577.2 C 987.9 576.1 986.3 580.8 986.0 580.1 M 1019.1 609.6 C 1018.0 608.5 1019.7 611.7 1019.2 612.0 C 1018.2 612.6 1017.5 609.3 1017.6 608.9 C 1017.9 606.1 1021.0 609.3 1020.4 610.4 C 1019.8 610.3 1019.4 610.1 1019.1 609.6 M 1026.0 615.0 C 1026.1 615.9 1023.4 613.6 1023.3 613.2 C 1023.1 612.6 1024.0 612.2 1024.5 612.2 C 1026.1 612.4 1025.8 613.9 1026.0 615.0 M 982.6 572.1 C 982.7 573.5 979.3 570.8 980.4 570.1 C 980.9 569.8 982.5 571.6 982.6 572.1 M 995.5 596.9 C 995.6 596.0 997.8 598.4 998.1 598.5 C 998.5 598.7 998.3 596.6 998.5 596.8 C 999.4 598.2 1004.5 603.6 999.4 600.3 C 998.4 599.7 996.6 600.1 995.6 599.5 C 993.5 598.1 995.4 598.3 995.5 596.9 M 954.4 545.2 C 955.0 546.1 955.5 544.6 956.1 544.9 C 956.8 545.2 956.3 547.1 955.6 547.1 C 952.5 547.0 952.5 542.2 954.4 545.2 M 966.1 557.4 C 965.6 556.7 966.3 556.6 966.6 557.1 C 967.0 557.5 966.6 558.2 966.1 557.4 C 966.1 557.4 966.1 557.4 966.1 557.4 Z M 971.3 561.6 C 971.6 561.8 971.7 562.9 971.2 563.1 C 970.5 563.3 970.2 560.7 971.3 561.6 M 959.1 544.3 C 959.4 544.6 959.6 545.6 959.1 545.8 C 958.3 546.0 958.0 543.4 959.1 544.3 M 998.7 593.5 C 999.0 593.7 999.2 594.8 998.7 594.9 C 997.9 595.2 997.6 592.6 998.7 593.5 M 991.2 581.8 C 992.1 582.5 991.3 585.0 990.6 584.0 C 990.1 583.4 989.5 580.4 991.2 581.8 M 973.9 576.5 C 974.1 576.8 974.2 577.0 974.3 577.1 C 973.9 579.4 970.9 573.8 973.9 576.5 M 999.9 588.2 C 1001.5 589.6 998.2 590.9 997.4 590.0 C 995.7 588.0 998.4 586.9 999.9 588.2 M 989.2 579.2 C 989.1 578.7 990.1 579.1 989.9 579.9 C 989.9 580.2 989.3 579.7 989.2 579.2 C 989.2 579.2 989.2 579.2 989.2 579.2 Z M 996.4 598.4 C 996.3 598.7 995.9 598.6 996.0 598.3 C 996.1 598.0 996.5 598.1 996.4 598.4 C 996.4 598.4 996.4 598.4 996.4 598.4 Z M 998.0 599.6 C 998.1 600.0 997.3 599.8 997.3 599.4 C 997.1 598.8 997.8 599.3 998.0 599.6 C 998.0 599.6 998.0 599.6 998.0 599.6 Z M 1004.3 591.8 C 1004.4 592.2 1003.7 592.0 1003.6 591.6 C 1003.4 591.0 1004.1 591.5 1004.3 591.8 C 1004.3 591.8 1004.3 591.8 1004.3 591.8 Z M 953.8 558.6 C 955.3 559.7 954.7 560.2 953.7 559.0 C 953.1 558.3 952.4 557.4 953.8 558.6 C 953.8 558.6 953.8 558.6 953.8 558.6 Z M 977.0 564.3 C 979.4 566.0 976.7 568.7 975.3 566.0 C 975.3 566.0 974.7 562.6 977.0 564.3 C 977.0 564.3 977.0 564.3 977.0 564.3 Z M 979.3 574.3 C 979.6 574.3 979.2 575.0 978.8 574.8 C 978.4 574.6 978.9 574.3 979.3 574.3 C 979.3 574.3 979.3 574.3 979.3 574.3 Z M 999.7 584.3 C 1000.0 584.3 999.6 585.0 999.1 584.8 C 998.8 584.6 999.3 584.2 999.7 584.3 C 999.7 584.3 999.7 584.3 999.7 584.3 Z M 955.1 560.6 C 955.5 560.6 955.0 561.3 954.6 561.1 C 954.2 561.0 954.7 560.6 955.1 560.6 C 955.1 560.6 955.1 560.6 955.1 560.6 Z M 1011.9 602.7 C 1012.3 602.7 1011.9 603.4 1011.4 603.2 C 1011.1 603.1 1011.5 602.7 1011.9 602.7 C 1011.9 602.7 1011.9 602.7 1011.9 602.7 Z M 987.1 590.0 C 987.4 589.3 988.8 591.0 987.8 590.6 C 986.8 590.1 986.9 590.8 987.1 590.0 C 987.1 590.0 987.1 590.0 987.1 590.0 Z M 992.0 594.9 C 992.2 594.5 992.9 595.1 992.4 595.3 C 992.1 595.4 991.7 595.3 992.0 594.9 C 992.0 594.9 992.0 594.9 992.0 594.9 Z M 1022.3 607.6 C 1022.5 607.2 1023.2 607.8 1022.7 608.0 C 1022.4 608.1 1022.1 608.1 1022.3 607.6 C 1022.3 607.6 1022.3 607.6 1022.3 607.6 Z M 1001.6 610.1 C 1001.8 609.7 1002.5 610.3 1002.0 610.5 C 1001.7 610.6 1001.4 610.5 1001.6 610.1 C 1001.6 610.1 1001.6 610.1 1001.6 610.1 Z M 1009.1 610.7 C 1009.5 611.4 1008.8 611.4 1008.8 610.7 C 1008.8 610.2 1008.8 610.1 1009.1 610.7 C 1009.1 610.7 1009.1 610.7 1009.1 610.7 Z M 1002.7 591.7 C 1003.0 591.4 1005.8 594.6 1004.0 593.6 C 1003.1 593.0 1001.9 592.2 1002.7 591.7 C 1002.7 591.7 1002.7 591.7 1002.7 591.7 Z M 1022.1 621.8 C 1022.7 621.9 1022.5 622.7 1022.0 622.8 C 1022.0 622.8 1021.6 621.8 1022.1 621.8 C 1022.1 621.8 1022.1 621.8 1022.1 621.8 Z M 1028.7 620.3 C 1029.2 620.3 1029.0 621.1 1028.5 621.2 C 1028.5 621.2 1028.1 620.2 1028.7 620.3 C 1028.7 620.3 1028.7 620.3 1028.7 620.3 Z M 1032.0 619.3 C 1032.6 619.4 1032.4 620.2 1031.9 620.3 C 1031.9 620.3 1031.5 619.3 1032.0 619.3 C 1032.0 619.3 1032.0 619.3 1032.0 619.3 Z M 966.9 565.9 C 965.9 565.6 966.9 565.1 966.9 565.1 C 967.8 566.2 967.8 566.1 966.9 565.9 C 966.9 565.9 966.9 565.9 966.9 565.9 Z M 971.5 557.4 C 971.1 557.3 971.5 557.1 971.5 557.1 C 971.9 557.5 971.9 557.5 971.5 557.4 C 971.5 557.4 971.5 557.4 971.5 557.4 Z M 978.4 563.7 C 978.1 563.6 978.5 563.3 978.5 563.3 C 978.8 563.8 978.8 563.8 978.4 563.7 C 978.4 563.7 978.4 563.7 978.4 563.7 Z M 961.7 568.7 C 961.1 568.5 961.7 568.2 961.7 568.2 C 962.3 568.8 962.3 568.8 961.7 568.7 C 961.7 568.7 961.7 568.7 961.7 568.7 Z M 992.0 587.8 C 991.2 587.6 992.1 587.1 992.1 587.1 C 992.9 588.1 992.9 588.1 992.0 587.8 C 992.0 587.8 992.0 587.8 992.0 587.8 Z M 991.7 592.8 C 990.8 592.5 991.7 592.0 991.7 592.0 C 992.5 593.0 992.5 593.0 991.7 592.8 C 991.7 592.8 991.7 592.8 991.7 592.8 Z M 982.4 590.6 C 982.0 590.5 982.4 590.3 982.4 590.3 C 982.8 590.7 982.8 590.7 982.4 590.6 C 982.4 590.6 982.4 590.6 982.4 590.6 Z M 991.2 596.9 C 990.8 596.8 991.2 596.6 991.2 596.6 C 991.5 597.0 991.5 597.0 991.2 596.9 C 991.2 596.9 991.2 596.9 991.2 596.9 Z M 946.4 550.9 C 946.8 551.3 946.5 551.6 946.1 551.0 C 945.8 550.7 945.9 550.5 946.4 550.9 C 946.4 550.9 946.4 550.9 946.4 550.9 Z M 950.9 545.3 C 951.7 546.0 951.0 546.7 950.1 545.5 C 949.6 544.9 950.1 544.7 950.9 545.3 C 950.9 545.3 950.9 545.3 950.9 545.3 Z M 996.4 584.9 C 996.3 584.6 997.3 585.2 997.3 585.3 C 997.6 585.7 997.2 586.4 997.2 586.5 C 997.0 586.0 996.7 585.4 996.4 584.9 M 986.4 576.1 C 986.6 576.6 986.1 576.5 986.0 576.2 C 985.8 575.9 986.1 575.7 986.4 576.1 C 986.4 576.1 986.4 576.1 986.4 576.1 Z M 1012.1 600.9 C 1012.0 602.3 1009.9 600.5 1010.2 599.5 C 1010.3 599.2 1012.2 599.5 1012.1 600.9 C 1012.1 600.9 1012.1 600.9 1012.1 600.9 Z M 998.7 604.4 C 998.9 604.3 999.2 604.9 998.8 604.7 C 998.4 604.5 998.4 604.4 998.7 604.4 C 998.7 604.4 998.7 604.4 998.7 604.4 Z M 1002.0 606.0 C 1002.7 606.2 1002.2 607.6 1001.9 607.1 C 1001.4 606.2 1001.3 605.7 1002.0 606.0 C 1002.0 606.0 1002.0 606.0 1002.0 606.0 Z M 1021.0 614.1 C 1021.4 614.6 1021.4 615.0 1021.2 615.5 C 1020.9 616.4 1019.9 612.8 1021.0 614.1 M 986.9 573.1 C 987.4 573.4 987.6 573.9 987.5 574.4 C 987.1 575.8 985.7 571.7 986.9 573.1 M 1015.2 604.2 C 1015.5 604.8 1014.6 604.4 1014.6 603.9 C 1014.6 603.4 1014.8 603.6 1015.2 604.2 C 1015.2 604.2 1015.2 604.2 1015.2 604.2 Z M 1025.2 616.0 C 1025.5 616.6 1024.6 616.3 1024.6 615.8 C 1024.6 615.3 1024.9 615.5 1025.2 616.0 C 1025.2 616.0 1025.2 616.0 1025.2 616.0 Z M 978.9 567.8 C 980.2 568.6 977.8 569.4 977.2 569.2 C 975.7 568.7 977.9 568.0 977.9 567.9 C 977.9 567.8 977.3 568.6 977.7 568.6 C 978.5 568.6 978.5 567.5 978.9 567.8 M 959.4 549.8 C 960.1 550.7 959.2 551.2 959.0 550.4 C 958.7 549.6 958.8 548.9 959.4 549.8 C 959.4 549.8 959.4 549.8 959.4 549.8 Z M 1041.9 629.2 C 1042.1 627.2 1040.2 626.4 1038.9 624.7 C 1038.7 624.4 1036.9 623.8 1037.0 624.4 C 1037.5 626.3 1034.8 627.6 1035.5 625.3 C 1036.0 623.9 1038.1 623.1 1036.0 621.9 C 1034.6 621.1 1034.8 623.8 1033.2 623.1 C 1032.9 622.9 1031.2 622.0 1031.0 622.4 C 1030.7 622.9 1031.6 623.4 1031.2 623.9 C 1030.7 624.4 1029.6 624.5 1029.0 624.8 C 1027.9 625.3 1026.8 627.3 1027.0 628.5 C 1027.2 629.2 1028.8 630.9 1027.3 631.0 C 1024.4 631.0 1027.9 637.1 1029.1 636.5 C 1030.1 636.0 1031.1 636.2 1032.1 636.4 C 1033.8 636.6 1032.8 638.8 1033.3 639.6 C 1036.4 644.0 1035.8 638.3 1037.1 638.2 C 1037.7 638.2 1039.1 639.7 1039.4 640.2 C 1040.9 642.1 1038.6 642.0 1037.3 643.4 C 1036.9 643.8 1040.9 648.4 1041.7 646.5 C 1043.3 648.2 1041.0 647.9 1043.4 650.0 C 1044.1 650.7 1044.1 649.0 1045.0 649.9 C 1047.2 652.1 1044.9 651.5 1045.7 652.3 C 1046.5 653.1 1047.7 653.5 1048.8 653.5 C 1049.7 653.4 1049.5 654.0 1049.7 654.6 C 1050.3 655.8 1051.4 654.4 1052.1 655.3 C 1054.9 658.5 1049.6 656.4 1050.6 657.4 C 1054.4 661.5 1054.9 659.4 1057.1 661.7 C 1057.9 662.5 1056.8 666.3 1060.0 665.9 C 1064.1 665.3 1061.1 668.5 1062.9 670.0 C 1063.6 670.6 1064.0 670.9 1064.5 671.6 C 1065.0 672.0 1065.3 670.0 1065.8 669.9 C 1066.1 669.8 1069.1 670.2 1069.0 669.4 C 1068.9 667.2 1067.4 669.4 1065.9 667.8 C 1064.3 666.0 1066.1 666.7 1066.7 666.7 C 1067.0 666.9 1067.6 667.3 1068.0 667.4 C 1068.6 667.3 1068.2 665.9 1068.7 665.6 C 1069.1 665.4 1072.2 668.8 1072.0 669.1 C 1071.6 669.7 1070.3 668.0 1070.0 669.8 C 1069.7 671.5 1069.4 671.4 1067.8 670.9 C 1065.7 670.3 1066.8 674.0 1067.6 674.9 C 1068.1 675.4 1069.3 676.8 1070.0 677.2 C 1071.4 678.0 1070.3 675.3 1072.9 678.4 C 1074.2 680.1 1079.4 681.9 1079.5 683.4 C 1079.5 684.0 1076.5 683.3 1078.6 685.5 C 1079.8 686.6 1080.7 687.9 1081.7 688.9 C 1085.1 692.4 1082.8 689.1 1083.9 689.6 C 1085.5 690.4 1085.7 692.7 1087.1 693.6 C 1088.1 694.4 1089.4 693.9 1090.0 695.3 C 1090.6 696.9 1090.4 697.3 1091.7 698.5 C 1091.9 698.7 1094.7 700.7 1094.8 700.5 C 1094.9 700.0 1093.0 698.9 1093.5 698.6 C 1095.3 697.5 1096.3 700.1 1096.8 701.3 C 1097.1 701.9 1099.3 702.9 1098.6 703.8 C 1098.1 704.4 1096.3 703.0 1096.5 703.3 C 1099.7 707.1 1102.1 707.2 1103.3 708.5 C 1104.8 710.3 1102.4 709.0 1104.1 710.9 C 1104.8 711.6 1105.7 711.7 1106.5 711.8 C 1107.6 711.9 1108.5 711.2 1109.6 710.9 C 1111.0 710.6 1111.9 710.7 1113.0 709.5 C 1113.6 709.0 1114.2 708.2 1114.5 707.4 C 1114.8 706.7 1113.9 706.1 1114.4 705.4 C 1114.8 704.9 1117.3 705.4 1117.2 705.0 C 1116.4 702.1 1114.9 703.8 1114.5 703.6 C 1114.0 703.4 1114.3 702.5 1114.1 702.0 C 1113.8 701.2 1113.4 700.2 1112.7 702.0 C 1112.9 701.9 1110.0 700.2 1110.2 698.7 C 1110.4 697.7 1107.5 696.0 1106.3 694.6 C 1106.0 695.2 1106.5 698.3 1104.6 696.7 C 1103.5 695.9 1103.2 695.6 1103.3 694.1 C 1103.3 693.6 1104.8 694.4 1104.8 694.0 C 1104.6 693.7 1104.3 693.3 1104.1 693.0 C 1104.0 692.8 1105.9 693.2 1105.8 693.0 C 1104.7 690.3 1101.2 687.0 1100.7 689.4 C 1100.6 689.9 1102.7 693.1 1101.2 692.0 C 1099.6 690.7 1098.4 689.3 1097.3 688.3 C 1097.6 688.5 1096.4 689.9 1095.1 688.0 C 1094.8 687.9 1093.8 687.0 1094.0 687.4 C 1094.1 687.7 1095.8 689.0 1095.4 689.4 C 1095.0 689.9 1093.8 687.9 1092.6 686.4 C 1091.4 684.9 1092.1 686.9 1091.3 686.2 C 1089.1 684.0 1094.1 684.6 1090.4 681.2 C 1090.2 681.0 1090.4 683.1 1090.4 683.1 C 1090.1 684.1 1087.6 677.9 1090.0 679.9 C 1090.7 680.5 1091.8 680.8 1091.4 679.4 C 1090.9 677.7 1090.4 678.6 1089.2 678.2 C 1089.7 678.4 1088.9 676.2 1088.8 676.1 C 1088.4 675.6 1087.4 676.2 1087.2 675.6 C 1087.1 675.3 1086.2 671.5 1085.5 673.8 C 1085.3 674.4 1085.8 676.7 1085.4 677.0 C 1084.9 677.3 1083.0 674.8 1082.8 674.5 C 1082.1 673.6 1082.8 672.6 1082.8 672.8 C 1082.2 671.5 1078.8 672.0 1081.2 670.1 C 1081.6 669.7 1082.4 669.2 1082.6 668.6 C 1082.8 668.0 1081.0 666.9 1080.8 667.1 C 1080.3 667.9 1080.8 668.8 1079.6 669.4 C 1078.4 669.9 1079.3 670.0 1078.9 670.5 C 1078.7 670.7 1076.7 669.0 1077.4 668.6 C 1077.9 668.3 1079.0 668.3 1078.8 667.5 C 1078.8 667.3 1077.7 664.7 1077.5 665.1 C 1076.5 667.1 1075.9 664.9 1076.6 665.1 C 1077.6 665.3 1077.6 662.6 1076.4 662.8 C 1075.9 662.9 1076.1 665.5 1074.2 663.9 C 1074.1 663.8 1073.9 660.9 1072.8 662.4 C 1072.2 663.3 1072.5 664.8 1071.2 663.7 C 1070.8 663.3 1068.0 661.3 1068.4 660.4 C 1068.7 659.7 1071.3 661.2 1071.4 660.1 C 1071.5 659.1 1069.9 660.1 1069.8 659.2 C 1069.6 656.2 1069.1 659.0 1067.8 658.0 C 1066.4 656.8 1067.9 655.2 1069.2 656.3 C 1069.0 656.2 1071.5 659.0 1071.3 658.0 C 1071.2 656.6 1067.3 652.3 1066.8 654.3 C 1066.6 655.3 1065.7 657.4 1064.6 655.6 C 1064.9 656.1 1066.1 651.3 1064.9 652.2 C 1063.6 653.1 1064.7 655.1 1062.7 654.5 C 1060.2 653.8 1059.6 651.9 1057.8 650.4 C 1057.5 650.1 1056.4 648.8 1056.8 648.0 C 1057.2 647.3 1058.2 647.9 1058.4 648.0 C 1059.5 649.1 1056.9 643.9 1059.6 646.2 C 1060.0 646.5 1057.8 644.2 1057.5 643.9 C 1056.0 642.4 1057.1 647.7 1055.6 646.4 C 1054.8 645.6 1052.2 643.5 1053.1 642.1 C 1054.7 639.9 1050.3 641.4 1049.7 641.5 C 1049.2 641.7 1047.0 639.3 1046.7 638.6 C 1045.7 636.5 1047.9 637.0 1047.4 636.0 C 1047.0 635.4 1045.7 634.2 1047.2 634.2 C 1048.6 634.2 1047.0 632.8 1046.6 632.6 C 1045.7 632.0 1043.4 634.5 1042.3 633.5 C 1040.4 631.8 1041.6 631.3 1041.9 629.2 M 1047.1 637.6 C 1047.5 637.3 1048.7 638.4 1048.3 638.7 C 1047.7 639.2 1046.8 638.0 1047.1 637.6 M 1033.2 620.7 C 1033.6 620.3 1034.8 621.5 1034.4 621.7 C 1033.8 622.2 1032.9 621.0 1033.2 620.7 M 1054.4 643.0 C 1054.9 642.5 1055.8 644.0 1055.6 644.4 C 1055.1 645.2 1053.9 643.6 1054.4 643.0 M 1094.3 686.0 C 1093.8 685.7 1093.4 685.5 1093.3 684.9 C 1093.3 684.3 1095.4 686.1 1094.3 686.0 M 1039.6 626.6 C 1040.0 626.2 1041.4 627.5 1040.8 628.0 C 1039.9 628.8 1039.1 627.1 1039.6 626.6 M 1034.2 626.3 C 1034.5 626.4 1034.6 626.6 1034.5 626.9 C 1034.4 627.3 1033.7 626.4 1034.2 626.3 M 1101.0 687.5 C 1101.2 687.6 1101.3 687.7 1101.3 688.0 C 1101.2 688.4 1100.5 687.6 1101.0 687.5 M 1089.9 676.3 C 1090.3 676.5 1090.5 676.8 1090.6 677.3 C 1090.5 677.4 1089.1 676.5 1089.9 676.3 M 1078.8 686.7 C 1079.2 686.9 1079.4 687.2 1079.4 687.6 C 1079.3 687.7 1077.9 686.9 1078.8 686.7 M 1107.2 693.4 C 1107.7 693.1 1108.6 694.4 1108.4 694.8 C 1108.1 695.4 1106.7 693.7 1107.2 693.4 M 1111.0 701.9 C 1111.5 701.7 1112.7 703.0 1112.5 703.4 C 1112.1 704.2 1110.6 702.1 1111.0 701.9 M 1042.0 640.0 C 1042.9 640.9 1041.6 640.7 1041.5 640.3 C 1041.4 639.7 1041.1 639.1 1042.0 640.0 C 1042.0 640.0 1042.0 640.0 1042.0 640.0 Z M 1059.7 663.0 C 1059.5 662.8 1058.7 662.4 1059.1 661.9 C 1059.5 661.5 1060.8 663.9 1060.4 664.2 C 1059.5 664.9 1059.7 663.1 1059.7 663.0 M 1063.0 652.2 C 1063.2 654.3 1062.3 653.2 1061.3 652.7 C 1060.5 652.4 1062.7 650.2 1063.0 652.2 C 1063.0 652.2 1063.0 652.2 1063.0 652.2 Z M 1058.4 649.7 C 1058.8 650.1 1057.9 649.8 1057.9 649.8 C 1057.8 649.2 1058.1 649.2 1058.4 649.7 C 1058.4 649.7 1058.4 649.7 1058.4 649.7 Z M 1069.8 661.3 C 1069.7 661.5 1069.0 661.1 1069.3 661.0 C 1069.6 660.8 1069.8 661.0 1069.8 661.3 C 1069.8 661.3 1069.8 661.3 1069.8 661.3 Z M 1067.2 659.1 C 1067.2 659.3 1066.0 658.3 1066.3 658.2 C 1066.5 658.0 1067.2 658.9 1067.2 659.1 C 1067.2 659.1 1067.2 659.1 1067.2 659.1 Z M 1077.0 682.7 C 1076.9 683.0 1075.7 682.0 1076.0 681.8 C 1076.3 681.6 1077.0 682.5 1077.0 682.7 C 1077.0 682.7 1077.0 682.7 1077.0 682.7 Z M 1062.9 656.2 C 1062.6 656.9 1060.7 656.3 1061.7 655.6 C 1062.6 654.9 1063.1 655.5 1062.9 656.2 C 1062.9 656.2 1062.9 656.2 1062.9 656.2 Z M 1070.0 673.8 C 1071.0 673.7 1070.3 675.6 1070.5 675.7 C 1070.3 675.6 1069.2 673.8 1070.0 673.8 M 1102.9 690.2 C 1104.0 690.1 1103.3 692.0 1103.5 692.1 C 1103.3 692.0 1102.1 690.3 1102.9 690.2 M 1079.2 665.3 C 1080.3 665.2 1079.6 667.1 1079.8 667.2 C 1079.6 667.1 1078.5 665.3 1079.2 665.3 M 1049.4 638.0 C 1050.0 637.8 1049.8 639.6 1049.5 639.5 C 1048.9 639.4 1048.9 638.2 1049.4 638.0 M 1053.4 661.0 C 1053.7 660.5 1054.7 661.9 1054.4 662.0 C 1053.9 662.3 1053.1 661.4 1053.4 661.0 M 1031.3 637.4 C 1031.6 636.8 1032.6 638.3 1032.3 638.4 C 1031.8 638.7 1031.0 637.8 1031.3 637.4 M 1089.4 696.9 C 1089.7 696.3 1090.7 698.0 1090.4 697.9 C 1090.0 697.9 1089.3 697.0 1089.4 696.9 M 1078.6 671.6 C 1078.2 670.9 1081.9 675.9 1078.6 674.2 C 1077.9 673.9 1077.4 673.2 1077.2 672.8 C 1075.9 671.0 1078.6 673.2 1078.8 672.9 C 1079.0 672.6 1078.2 672.0 1078.2 671.9 C 1078.2 671.9 1079.1 672.4 1078.6 671.6 C 1078.6 671.6 1078.6 671.6 1078.6 671.6 Z M 1081.3 684.3 C 1081.7 684.1 1081.8 685.8 1081.6 685.8 C 1081.1 685.7 1080.6 684.6 1081.3 684.3 M 1084.4 673.4 C 1084.8 673.2 1085.0 674.9 1084.7 674.9 C 1084.2 674.8 1083.8 673.7 1084.4 673.4 M 1096.6 686.0 C 1097.5 685.9 1097.0 688.0 1096.5 687.8 C 1095.7 687.4 1095.5 686.2 1096.6 686.0 M 1098.8 687.0 C 1098.9 687.3 1098.4 687.4 1098.4 687.1 C 1098.4 686.8 1098.7 686.6 1098.8 687.0 C 1098.8 687.0 1098.8 687.0 1098.8 687.0 Z M 1113.4 699.7 C 1113.5 700.1 1113.0 700.2 1112.9 699.9 C 1112.9 699.5 1113.2 699.3 1113.4 699.7 C 1113.4 699.7 1113.4 699.7 1113.4 699.7 Z M 1092.4 682.3 C 1092.5 682.7 1092.0 682.8 1092.0 682.5 C 1092.0 682.1 1092.3 682.0 1092.4 682.3 C 1092.4 682.3 1092.4 682.3 1092.4 682.3 Z M 1095.3 701.9 C 1095.6 702.2 1095.3 702.5 1095.1 702.3 C 1094.8 701.9 1095.0 701.7 1095.3 701.9 C 1095.3 701.9 1095.3 701.9 1095.3 701.9 Z M 1095.2 699.2 C 1095.5 699.4 1095.2 699.7 1095.0 699.5 C 1094.7 699.2 1094.9 699.0 1095.2 699.2 C 1095.2 699.2 1095.2 699.2 1095.2 699.2 Z M 1042.9 630.3 C 1043.1 629.4 1044.3 630.8 1043.8 632.0 C 1043.5 632.9 1043.4 632.9 1042.7 632.4 C 1041.3 631.2 1042.7 631.4 1042.9 630.3 M 1101.2 705.3 C 1102.1 706.7 1100.8 706.3 1100.0 705.3 C 1100.0 705.3 1100.3 703.9 1101.2 705.3 C 1101.2 705.3 1101.2 705.3 1101.2 705.3 Z M 1089.1 682.7 C 1089.9 683.0 1090.0 684.6 1088.7 684.1 C 1088.0 683.8 1088.4 682.5 1089.1 682.7 M 1099.4 688.0 C 1100.2 688.2 1100.3 689.8 1099.1 689.3 C 1098.3 689.0 1098.7 687.7 1099.4 688.0 M 1064.9 650.1 C 1065.7 650.4 1065.8 652.0 1064.5 651.5 C 1063.7 651.2 1064.2 649.9 1064.9 650.1 M 1108.5 698.0 C 1110.0 698.6 1110.8 701.8 1108.3 700.5 C 1107.0 699.8 1107.2 697.3 1108.5 698.0 M 1060.1 649.6 C 1059.6 649.4 1059.5 648.4 1060.3 648.6 C 1060.8 648.8 1060.5 649.7 1060.1 649.6 M 1069.1 666.7 C 1069.7 667.0 1070.1 667.4 1070.3 668.0 C 1070.6 669.8 1067.7 666.2 1069.1 666.7 M 1081.7 673.8 C 1081.9 674.0 1081.1 674.2 1081.1 673.9 C 1081.1 673.5 1081.6 673.6 1081.7 673.8 C 1081.7 673.8 1081.7 673.8 1081.7 673.8 Z M 1076.0 668.1 C 1075.6 668.2 1074.4 666.5 1074.7 666.5 C 1075.0 666.5 1076.3 667.9 1076.0 668.1 C 1076.0 668.1 1076.0 668.1 1076.0 668.1 Z M 1043.7 635.1 C 1044.8 636.7 1042.9 635.4 1043.0 635.2 C 1043.4 634.7 1043.4 634.7 1043.7 635.1 C 1043.7 635.1 1043.7 635.1 1043.7 635.1 Z M 1100.8 700.4 C 1101.2 701.0 1099.8 700.7 1100.0 700.5 C 1100.4 699.8 1100.4 699.7 1100.8 700.4 C 1100.8 700.4 1100.8 700.4 1100.8 700.4 Z M 1093.2 680.1 C 1093.6 680.8 1092.0 679.7 1092.2 679.4 C 1092.7 678.8 1092.8 679.5 1093.2 680.1 C 1093.2 680.1 1093.2 680.1 1093.2 680.1 Z M 1115.4 701.8 C 1115.7 702.4 1114.2 701.3 1114.4 701.1 C 1114.8 700.4 1115.0 701.1 1115.4 701.8 C 1115.4 701.8 1115.4 701.8 1115.4 701.8 Z M 1039.6 630.3 C 1040.5 631.9 1036.9 631.4 1037.4 630.7 C 1038.6 628.9 1038.8 628.7 1039.6 630.3 C 1039.6 630.3 1039.6 630.3 1039.6 630.3 Z M 1079.8 668.9 C 1080.0 669.3 1079.0 669.2 1079.1 669.0 C 1079.5 668.5 1079.6 668.4 1079.8 668.9 C 1079.8 668.9 1079.8 668.9 1079.8 668.9 Z M 1056.5 642.5 C 1056.7 643.0 1055.7 642.9 1055.8 642.7 C 1056.2 642.2 1056.3 642.1 1056.5 642.5 C 1056.5 642.5 1056.5 642.5 1056.5 642.5 Z M 1050.2 640.3 C 1050.4 640.7 1049.6 640.6 1049.7 640.4 C 1050.0 640.0 1050.0 640.0 1050.2 640.3 C 1050.2 640.3 1050.2 640.3 1050.2 640.3 Z M 1042.9 650.0 C 1043.0 650.4 1042.2 650.3 1042.4 650.2 C 1042.7 649.7 1042.7 649.7 1042.9 650.0 C 1042.9 650.0 1042.9 650.0 1042.9 650.0 Z M 1048.2 647.6 C 1048.8 648.6 1046.5 648.3 1046.8 647.8 C 1047.6 646.7 1047.7 646.6 1048.2 647.6 C 1048.2 647.6 1048.2 647.6 1048.2 647.6 Z M 1038.1 640.4 C 1038.4 640.9 1037.1 640.8 1037.3 640.5 C 1037.8 639.9 1037.8 639.8 1038.1 640.4 C 1038.1 640.4 1038.1 640.4 1038.1 640.4 Z M 1037.1 641.7 C 1037.2 641.9 1036.6 641.9 1036.7 641.8 C 1037.0 641.5 1037.0 641.4 1037.1 641.7 C 1037.1 641.7 1037.1 641.7 1037.1 641.7 Z M 1097.0 690.4 C 1097.3 691.0 1095.9 690.9 1096.1 690.6 C 1096.6 689.8 1096.7 689.8 1097.0 690.4 C 1097.0 690.4 1097.0 690.4 1097.0 690.4 Z M 1088.8 689.3 C 1090.4 689.0 1090.8 692.1 1089.3 690.6 C 1087.9 689.3 1087.1 689.6 1088.8 689.3 C 1088.8 689.3 1088.8 689.3 1088.8 689.3 Z M 1062.7 659.8 C 1063.7 659.5 1063.7 661.3 1063.0 660.5 C 1062.2 659.8 1061.8 660.0 1062.7 659.8 C 1062.7 659.8 1062.7 659.8 1062.7 659.8 Z M 1061.2 667.5 C 1061.6 667.4 1061.6 668.1 1061.3 667.8 C 1061.0 667.5 1060.8 667.6 1061.2 667.5 C 1061.2 667.5 1061.2 667.5 1061.2 667.5 Z M 1052.3 638.3 C 1052.4 639.1 1051.1 639.2 1051.3 638.6 C 1051.6 637.8 1052.2 637.4 1052.3 638.3 C 1052.3 638.3 1052.3 638.3 1052.3 638.3 Z M 1045.6 634.4 C 1045.4 634.5 1044.5 634.8 1044.5 634.5 C 1044.6 632.8 1046.1 634.3 1045.6 634.4 M 1073.2 660.0 C 1074.3 660.8 1073.3 661.9 1072.6 660.7 C 1071.8 659.5 1072.6 659.5 1073.2 660.0 C 1073.2 660.0 1073.2 660.0 1073.2 660.0 Z M 1087.3 679.7 C 1087.8 680.0 1087.2 680.3 1086.7 680.0 C 1086.4 679.7 1086.8 679.4 1087.3 679.7 C 1087.3 679.7 1087.3 679.7 1087.3 679.7 Z M 1105.2 695.3 C 1105.9 695.7 1104.9 696.3 1104.2 695.8 C 1103.7 695.4 1104.4 694.9 1105.2 695.3 C 1105.2 695.3 1105.2 695.3 1105.2 695.3 Z M 1083.5 670.7 C 1084.3 671.2 1083.3 671.8 1082.5 671.2 C 1082.0 670.8 1082.6 670.2 1083.5 670.7 C 1083.5 670.7 1083.5 670.7 1083.5 670.7 Z M 1073.9 664.4 C 1074.7 664.9 1073.7 665.5 1072.9 664.9 C 1072.3 664.5 1073.0 663.9 1073.9 664.4 C 1073.9 664.4 1073.9 664.4 1073.9 664.4 Z M 1106.3 701.5 C 1106.4 702.4 1105.5 702.2 1105.6 701.4 C 1105.6 700.6 1106.2 700.6 1106.3 701.5 C 1106.3 701.5 1106.3 701.5 1106.3 701.5 Z M 1085.6 672.4 C 1085.6 672.8 1085.2 672.7 1085.3 672.3 C 1085.3 671.9 1085.6 671.9 1085.6 672.4 C 1085.6 672.4 1085.6 672.4 1085.6 672.4 Z M 1084.8 682.9 C 1085.6 683.4 1084.1 684.0 1083.8 682.9 C 1083.5 681.9 1084.5 682.7 1084.8 682.9 C 1084.8 682.9 1084.8 682.9 1084.8 682.9 Z M 1048.9 632.6 C 1049.3 632.8 1048.5 633.2 1048.4 632.7 C 1048.3 632.2 1048.8 632.6 1048.9 632.6 C 1048.9 632.6 1048.9 632.6 1048.9 632.6 Z M 1108.9 699.2 C 1109.2 699.4 1108.5 699.8 1108.4 699.3 C 1108.3 698.8 1108.7 699.2 1108.9 699.2 C 1108.9 699.2 1108.9 699.2 1108.9 699.2 Z M 1111.5 698.7 C 1111.9 698.9 1111.1 699.2 1111.0 698.8 C 1110.9 698.3 1111.4 698.6 1111.5 698.7 C 1111.5 698.7 1111.5 698.7 1111.5 698.7 Z M 1091.1 695.4 C 1090.5 695.2 1088.6 693.2 1089.8 693.0 C 1091.6 692.7 1091.3 694.5 1092.2 695.4 C 1093.0 696.2 1092.0 693.4 1094.2 695.8 C 1094.8 696.5 1094.0 694.6 1094.4 694.0 C 1094.8 693.6 1099.1 698.5 1097.3 698.5 C 1096.7 698.5 1095.0 697.6 1094.6 697.2 C 1093.3 696.3 1093.5 696.9 1092.0 696.4 C 1091.7 696.1 1091.4 695.7 1091.1 695.4 C 1091.1 695.4 1091.1 695.4 1091.1 695.4 Z M 1091.1 695.4 " fill="#EB5C56"></path><image xlink:href="../../222B70A4-C078-4EBA-973F-D1EDCF15F787/assets/2301FC2BD9C92A00E6984331CAEB4847.png" width="240.00" height="44.00" transform="matrix(1.00, 0.00, -0.00, -1.00, 917.0, 499.0)"></image></g></svg>