<?xml version="1.0" encoding="UTF-8" standalone="no"?><svg xmlns="http://www.w3.org/2000/svg" xmlns:xlink="http://www.w3.org/1999/xlink" clip-rule="evenodd" stroke-miterlimit="4.00" viewBox="0 0 1920 1080"><desc>SVG generated by Keynote</desc><defs></defs><g transform="matrix(1.00, 0.00, -0.00, -1.00, 0.0, 1080.0)"><path d="M 0.0 1080.0 L 1920.0 1080.0 L 1920.0 0.0 L 0.0 0.0 Z M 0.0 1080.0 " fill="#FEFFFF"></path><text xml:space="preserve" font-family="Helvetica-Light" font-size="128.0" fill="#000000" transform="matrix(1.00, 0.00, -0.00, -1.00, 384.0, 566.0)">K</text><text xml:space="preserve" font-family="Helvetica-Light" font-size="128.0" fill="#000000" transform="matrix(1.00, 0.00, -0.00, -1.00, 469.4, 566.0)">n</text><text xml:space="preserve" font-family="Helvetica-Light" font-size="128.0" fill="#000000" transform="matrix(1.00, 0.00, -0.00, -1.00, 540.5, 566.0)">o</text><text xml:space="preserve" font-family="Helvetica-Light" font-size="128.0" fill="#000000" transform="matrix(1.00, 0.00, -0.00, -1.00, 611.7, 566.0)">w</text><text xml:space="preserve" font-family="Helvetica-Light" font-size="128.0" fill="#000000" transform="matrix(1.00, 0.00, -0.00, -1.00, 704.1, 566.0)">l</text><text xml:space="preserve" font-family="Helvetica-Light" font-size="128.0" fill="#000000" transform="matrix(1.00, 0.00, -0.00, -1.00, 732.5, 566.0)">e</text><text xml:space="preserve" font-family="Helvetica-Light" font-size="128.0" fill="#000000" transform="matrix(1.00, 0.00, -0.00, -1.00, 803.7, 566.0)">d</text><text xml:space="preserve" font-family="Helvetica-Light" font-size="128.0" fill="#000000" transform="matrix(1.00, 0.00, -0.00, -1.00, 881.9, 566.0)">g</text><text xml:space="preserve" font-family="Helvetica-Light" font-size="128.0" fill="#000000" transform="matrix(1.00, 0.00, -0.00, -1.00, 960.1, 566.0)">e</text><text xml:space="preserve" font-family="Helvetica-Light" font-size="128.0" fill="#000000" transform="matrix(1.00, 0.00, -0.00, -1.00, 1031.3, 566.0)"> </text><text xml:space="preserve" font-family="Helvetica-Light" font-size="128.0" fill="#000000" transform="matrix(1.00, 0.00, -0.00, -1.00, 1066.9, 566.0)">N</text><text xml:space="preserve" font-family="Helvetica-Light" font-size="128.0" fill="#000000" transform="matrix(1.00, 0.00, -0.00, -1.00, 1159.3, 566.0)">e</text><text xml:space="preserve" font-family="Helvetica-Light" font-size="128.0" fill="#000000" transform="matrix(1.00, 0.00, -0.00, -1.00, 1230.5, 566.0)">t</text><text xml:space="preserve" font-family="Helvetica-Light" font-size="128.0" fill="#000000" transform="matrix(1.00, 0.00, -0.00, -1.00, 1266.0, 566.0)">w</text><text xml:space="preserve" font-family="Helvetica-Light" font-size="128.0" fill="#000000" transform="matrix(1.00, 0.00, -0.00, -1.00, 1358.5, 566.0)">o</text><text xml:space="preserve" font-family="Helvetica-Light" font-size="128.0" fill="#000000" transform="matrix(1.00, 0.00, -0.00, -1.00, 1429.6, 566.0)">r</text><text xml:space="preserve" font-family="Helvetica-Light" font-size="128.0" fill="#000000" transform="matrix(1.00, 0.00, -0.00, -1.00, 1472.3, 566.0)">k</text><text xml:space="preserve" font-family="Helvetica-Light" font-size="44.0" fill="#000000" transform="matrix(1.00, 0.00, -0.00, -1.00, 441.0, 476.0)">a</text><text xml:space="preserve" font-family="Helvetica-Light" font-size="44.0" fill="#000000" transform="matrix(1.00, 0.00, -0.00, -1.00, 465.5, 476.0)"> </text><text xml:space="preserve" font-family="Helvetica-Light" font-size="44.0" fill="#000000" transform="matrix(1.00, 0.00, -0.00, -1.00, 477.7, 476.0)">g</text><text xml:space="preserve" font-family="Helvetica-Light" font-size="44.0" fill="#000000" transform="matrix(1.00, 0.00, -0.00, -1.00, 504.6, 476.0)">r</text><text xml:space="preserve" font-family="Helvetica-Light" font-size="44.0" fill="#000000" transform="matrix(1.00, 0.00, -0.00, -1.00, 519.2, 476.0)">a</text><text xml:space="preserve" font-family="Helvetica-Light" font-size="44.0" fill="#000000" transform="matrix(1.00, 0.00, -0.00, -1.00, 543.7, 476.0)">p</text><text xml:space="preserve" font-family="Helvetica-Light" font-size="44.0" fill="#000000" transform="matrix(1.00, 0.00, -0.00, -1.00, 570.6, 476.0)">h</text><text xml:space="preserve" font-family="Helvetica-Light" font-size="44.0" fill="#000000" transform="matrix(1.00, 0.00, -0.00, -1.00, 595.0, 476.0)">-</text><text xml:space="preserve" font-family="Helvetica-Light" font-size="44.0" fill="#000000" transform="matrix(1.00, 0.00, -0.00, -1.00, 609.7, 476.0)">b</text><text xml:space="preserve" font-family="Helvetica-Light" font-size="44.0" fill="#000000" transform="matrix(1.00, 0.00, -0.00, -1.00, 636.6, 476.0)">a</text><text xml:space="preserve" font-family="Helvetica-Light" font-size="44.0" fill="#000000" transform="matrix(1.00, 0.00, -0.00, -1.00, 661.0, 476.0)">s</text><text xml:space="preserve" font-family="Helvetica-Light" font-size="44.0" fill="#000000" transform="matrix(1.00, 0.00, -0.00, -1.00, 683.0, 476.0)">e</text><text xml:space="preserve" font-family="Helvetica-Light" font-size="44.0" fill="#000000" transform="matrix(1.00, 0.00, -0.00, -1.00, 707.5, 476.0)">d</text><text xml:space="preserve" font-family="Helvetica-Light" font-size="44.0" fill="#000000" transform="matrix(1.00, 0.00, -0.00, -1.00, 734.4, 476.0)"> </text><text xml:space="preserve" font-family="Helvetica-Light" font-size="44.0" fill="#000000" transform="matrix(1.00, 0.00, -0.00, -1.00, 746.6, 476.0)">s</text><text xml:space="preserve" font-family="Helvetica-Light" font-size="44.0" fill="#000000" transform="matrix(1.00, 0.00, -0.00, -1.00, 768.6, 476.0)">e</text><text xml:space="preserve" font-family="Helvetica-Light" font-size="44.0" fill="#000000" transform="matrix(1.00, 0.00, -0.00, -1.00, 793.1, 476.0)">a</text><text xml:space="preserve" font-family="Helvetica-Light" font-size="44.0" fill="#000000" transform="matrix(1.00, 0.00, -0.00, -1.00, 817.6, 476.0)">r</text><text xml:space="preserve" font-family="Helvetica-Light" font-size="44.0" fill="#000000" transform="matrix(1.00, 0.00, -0.00, -1.00, 831.4, 476.0)">c</text><text xml:space="preserve" font-family="Helvetica-Light" font-size="44.0" fill="#000000" transform="matrix(1.00, 0.00, -0.00, -1.00, 855.9, 476.0)">h</text><text xml:space="preserve" font-family="Helvetica-Light" font-size="44.0" fill="#000000" transform="matrix(1.00, 0.00, -0.00, -1.00, 880.3, 476.0)"> </text><text xml:space="preserve" font-family="Helvetica-Light" font-size="44.0" fill="#000000" transform="matrix(1.00, 0.00, -0.00, -1.00, 892.6, 476.0)">e</text><text xml:space="preserve" font-family="Helvetica-Light" font-size="44.0" fill="#000000" transform="matrix(1.00, 0.00, -0.00, -1.00, 917.0, 476.0)">n</text><text xml:space="preserve" font-family="Helvetica-Light" font-size="44.0" fill="#000000" transform="matrix(1.00, 0.00, -0.00, -1.00, 941.5, 476.0)">g</text><text xml:space="preserve" font-family="Helvetica-Light" font-size="44.0" fill="#000000" transform="matrix(1.00, 0.00, -0.00, -1.00, 968.4, 476.0)">i</text><text xml:space="preserve" font-family="Helvetica-Light" font-size="44.0" fill="#000000" transform="matrix(1.00, 0.00, -0.00, -1.00, 978.2, 476.0)">n</text><text xml:space="preserve" font-family="Helvetica-Light" font-size="44.0" fill="#000000" transform="matrix(1.00, 0.00, -0.00, -1.00, 1002.6, 476.0)">e</text><text xml:space="preserve" font-family="Helvetica-Light" font-size="44.0" fill="#000000" transform="matrix(1.00, 0.00, -0.00, -1.00, 1027.1, 476.0)"> </text><text xml:space="preserve" font-family="Helvetica-Light" font-size="44.0" fill="#000000" transform="matrix(1.00, 0.00, -0.00, -1.00, 1039.3, 476.0)">p</text><text xml:space="preserve" font-family="Helvetica-Light" font-size="44.0" fill="#000000" transform="matrix(1.00, 0.00, -0.00, -1.00, 1066.2, 476.0)">o</text><text xml:space="preserve" font-family="Helvetica-Light" font-size="44.0" fill="#000000" transform="matrix(1.00, 0.00, -0.00, -1.00, 1090.7, 476.0)">w</text><text xml:space="preserve" font-family="Helvetica-Light" font-size="44.0" fill="#000000" transform="matrix(1.00, 0.00, -0.00, -1.00, 1122.4, 476.0)">e</text><text xml:space="preserve" font-family="Helvetica-Light" font-size="44.0" fill="#000000" transform="matrix(1.00, 0.00, -0.00, -1.00, 1146.9, 476.0)">r</text><text xml:space="preserve" font-family="Helvetica-Light" font-size="44.0" fill="#000000" transform="matrix(1.00, 0.00, -0.00, -1.00, 1160.8, 476.0)">e</text><text xml:space="preserve" font-family="Helvetica-Light" font-size="44.0" fill="#000000" transform="matrix(1.00, 0.00, -0.00, -1.00, 1185.2, 476.0)">d</text><text xml:space="preserve" font-family="Helvetica-Light" font-size="44.0" fill="#000000" transform="matrix(1.00, 0.00, -0.00, -1.00, 1212.1, 476.0)"> </text><text xml:space="preserve" font-family="Helvetica-Light" font-size="44.0" fill="#000000" transform="matrix(1.00, 0.00, -0.00, -1.00, 1224.3, 476.0)">b</text><text xml:space="preserve" font-family="Helvetica-Light" font-size="44.0" fill="#000000" transform="matrix(1.00, 0.00, -0.00, -1.00, 1251.2, 476.0)">y</text><text xml:space="preserve" font-family="Helvetica-Light" font-size="44.0" fill="#000000" transform="matrix(1.00, 0.00, -0.00, -1.00, 1273.2, 476.0)"> </text><text xml:space="preserve" font-family="Helvetica-Light" font-size="44.0" fill="#000000" transform="matrix(1.00, 0.00, -0.00, -1.00, 1285.4, 476.0)">W</text><text xml:space="preserve" font-family="Helvetica-Light" font-size="44.0" fill="#000000" transform="matrix(1.00, 0.00, -0.00, -1.00, 1324.6, 476.0)">i</text><text xml:space="preserve" font-family="Helvetica-Light" font-size="44.0" fill="#000000" transform="matrix(1.00, 0.00, -0.00, -1.00, 1334.3, 476.0)">k</text><text xml:space="preserve" font-family="Helvetica-Light" font-size="44.0" fill="#000000" transform="matrix(1.00, 0.00, -0.00, -1.00, 1356.3, 476.0)">i</text><text xml:space="preserve" font-family="Helvetica-Light" font-size="44.0" fill="#000000" transform="matrix(1.00, 0.00, -0.00, -1.00, 1366.1, 476.0)">p</text><text xml:space="preserve" font-family="Helvetica-Light" font-size="44.0" fill="#000000" transform="matrix(1.00, 0.00, -0.00, -1.00, 1393.0, 476.0)">e</text><text xml:space="preserve" font-family="Helvetica-Light" font-size="44.0" fill="#000000" transform="matrix(1.00, 0.00, -0.00, -1.00, 1417.4, 476.0)">d</text><text xml:space="preserve" font-family="Helvetica-Light" font-size="44.0" fill="#000000" transform="matrix(1.00, 0.00, -0.00, -1.00, 1444.3, 476.0)">i</text><text xml:space="preserve" font-family="Helvetica-Light" font-size="44.0" fill="#000000" transform="matrix(1.00, 0.00, -0.00, -1.00, 1454.1, 476.0)">a</text><text xml:space="preserve" font-family="Helvetica-Light" font-size="26.0" fill="#797979" transform="matrix(1.00, 0.00, -0.00, -1.00, 888.0, 372.0)">(</text><text xml:space="preserve" font-family="Helvetica-Light" font-size="26.0" fill="#797979" transform="matrix(1.00, 0.00, -0.00, -1.00, 896.7, 372.0)">M</text><text xml:space="preserve" font-family="Helvetica-Light" font-size="26.0" fill="#797979" transform="matrix(1.00, 0.00, -0.00, -1.00, 918.3, 372.0)">a</text><text xml:space="preserve" font-family="Helvetica-Light" font-size="26.0" fill="#797979" transform="matrix(1.00, 0.00, -0.00, -1.00, 932.8, 372.0)">r</text><text xml:space="preserve" font-family="Helvetica-Light" font-size="26.0" fill="#797979" transform="matrix(1.00, 0.00, -0.00, -1.00, 941.4, 372.0)">k</text><text xml:space="preserve" font-family="Helvetica-Light" font-size="26.0" fill="#797979" transform="matrix(1.00, 0.00, -0.00, -1.00, 954.4, 372.0)"> </text><text xml:space="preserve" font-family="Helvetica-Light" font-size="26.0" fill="#797979" transform="matrix(1.00, 0.00, -0.00, -1.00, 961.7, 372.0)">I</text><text xml:space="preserve" font-family="Helvetica-Light" font-size="26.0" fill="#797979" transform="matrix(1.00, 0.00, -0.00, -1.00, 968.9, 372.0)">b</text><text xml:space="preserve" font-family="Helvetica-Light" font-size="26.0" fill="#797979" transform="matrix(1.00, 0.00, -0.00, -1.00, 984.8, 372.0)">r</text><text xml:space="preserve" font-family="Helvetica-Light" font-size="26.0" fill="#797979" transform="matrix(1.00, 0.00, -0.00, -1.00, 993.4, 372.0)">a</text><text xml:space="preserve" font-family="Helvetica-Light" font-size="26.0" fill="#797979" transform="matrix(1.00, 0.00, -0.00, -1.00, 1007.9, 372.0)">h</text><text xml:space="preserve" font-family="Helvetica-Light" font-size="26.0" fill="#797979" transform="matrix(1.00, 0.00, -0.00, -1.00, 1022.3, 372.0)">i</text><text xml:space="preserve" font-family="Helvetica-Light" font-size="26.0" fill="#797979" transform="matrix(1.00, 0.00, -0.00, -1.00, 1028.1, 372.0)">m</text><text xml:space="preserve" font-family="Helvetica-Light" font-size="26.0" fill="#797979" transform="matrix(1.00, 0.00, -0.00, -1.00, 1049.8, 372.0)">)</text><image xlink:href="96E07E2FABC736FFDF35DA948E52B6D6.png" width="373.00" height="301.00" transform="matrix(1.00, 0.00, -0.00, -1.00, 1164.0, 949.0)"></image></g></svg>