<?xml version="1.0" encoding="UTF-8" standalone="no"?><svg xmlns="http://www.w3.org/2000/svg" xmlns:xlink="http://www.w3.org/1999/xlink" clip-rule="evenodd" stroke-miterlimit="4.00" viewBox="0 0 1920 1080"><desc>SVG generated by Keynote</desc><defs></defs><g transform="matrix(1.00, 0.00, -0.00, -1.00, 0.0, 1080.0)"><path d="M 0.0 1080.0 L 1920.0 1080.0 L 1920.0 0.0 L 0.0 0.0 Z M 0.0 1080.0 " fill="#FEFFFF"></path><image xlink:href="../../FF504BC0-BF27-4D31-B50D-488800008DD3/assets/B33BC9647A8864636F0568DA8B7F317B.png" width="300.00" height="169.00" transform="matrix(1.14, 0.00, -0.00, -1.14, 32.0, 645.0)"></image><g><clipPath id="clip-64"><path d="M 119.0 922.0 L 288.0 922.0 L 288.0 800.0 L 119.0 800.0 Z M 118.7 922.2 "></path></clipPath><g clip-path="url(#clip-64)"><image xlink:href="../../888894D1-95A4-4E41-BA9D-750E4FF7C803/assets/E22F4878CC6F752CA7A9C70AD8314AAF.png" width="240.00" height="245.00" transform="matrix(0.70, 0.00, -0.00, -0.70, 119.0, 922.0)"></image></g></g><image xlink:href="../../1E16A9FA-0340-4ADD-88D0-A2527F188A1D/assets/EE2FB463820EA251E640972146B268FB.png" width="531.00" height="150.00" transform="matrix(1.00, 0.00, -0.00, -1.00, 395.0, 560.9)" opacity="0.75"></image><image xlink:href="../../FF504BC0-BF27-4D31-B50D-488800008DD3/assets/8A70A800DFE6045869C5C277B878B13D.png" width="258.00" height="137.00" transform="matrix(1.12, 0.00, -0.00, -1.12, 515.0, 640.0)"></image><image xlink:href="../../1E16A9FA-0340-4ADD-88D0-A2527F188A1D/assets/155F27ED70CD4EE4227ADECF9C1EBEF5.png" width="557.00" height="150.00" transform="matrix(1.00, 0.00, -0.00, -1.00, 1400.6, 551.7)" opacity="0.75"></image><image xlink:href="../../FF504BC0-BF27-4D31-B50D-488800008DD3/assets/995E3908DCE47C67D2B743DB57FC0FD0.png" width="225.00" height="100.00" transform="matrix(1.40, 0.00, -0.00, -1.40, 1521.0, 617.0)"></image><path d="M 0.0 0.0 L 138.8 0.0 L 140.3 0.0 " fill="none" stroke="#A9A9A9" stroke-width="3.00" stroke-linecap="round" stroke-dasharray="0.0, 9.0" transform="matrix(0.00, -1.00, -1.00, 0.00, 203.2, 752.1)"></path><path d="M 196.6 613.3 L 203.2 600.1 L 209.8 613.3 Z M 196.6 613.3 " fill="#A9A9A9"></path><path d="M 0.0 0.0 L 76.6 0.0 L 78.1 0.0 " fill="none" stroke="#A9A9A9" stroke-width="3.00" stroke-linecap="round" stroke-dasharray="0.0, 9.0" transform="matrix(1.00, 0.00, 0.00, -1.00, 400.7, 541.9)"></path><path d="M 477.3 535.3 L 490.5 541.9 L 477.3 548.5 Z M 477.3 535.3 " fill="#A9A9A9"></path><path d="M 0.0 0.0 L 76.6 0.0 L 78.1 0.0 " fill="none" stroke="#A9A9A9" stroke-width="3.00" stroke-linecap="round" stroke-dasharray="0.0, 9.0" transform="matrix(1.00, 0.00, 0.00, -1.00, 831.8, 541.9)"></path><path d="M 908.4 535.3 L 921.6 541.9 L 908.4 548.5 Z M 908.4 535.3 " fill="#A9A9A9"></path><text xml:space="preserve" font-family="Helvetica-Light" font-size="29.0" fill="#52575F" transform="matrix(1.00, 0.00, -0.00, -1.00, 91.0, 424.0)">1</text><text xml:space="preserve" font-family="Helvetica-Light" font-size="29.0" fill="#52575F" transform="matrix(1.00, 0.00, -0.00, -1.00, 107.1, 424.0)">1</text><text xml:space="preserve" font-family="Helvetica-Light" font-size="29.0" fill="#52575F" transform="matrix(1.00, 0.00, -0.00, -1.00, 123.2, 424.0)"> </text><text xml:space="preserve" font-family="Helvetica-Light" font-size="29.0" fill="#52575F" transform="matrix(1.00, 0.00, -0.00, -1.00, 131.3, 424.0)">m</text><text xml:space="preserve" font-family="Helvetica-Light" font-size="29.0" fill="#52575F" transform="matrix(1.00, 0.00, -0.00, -1.00, 155.5, 424.0)">i</text><text xml:space="preserve" font-family="Helvetica-Light" font-size="29.0" fill="#52575F" transform="matrix(1.00, 0.00, -0.00, -1.00, 161.9, 424.0)">l</text><text xml:space="preserve" font-family="Helvetica-Light" font-size="29.0" fill="#52575F" transform="matrix(1.00, 0.00, -0.00, -1.00, 168.3, 424.0)">l</text><text xml:space="preserve" font-family="Helvetica-Light" font-size="29.0" fill="#52575F" transform="matrix(1.00, 0.00, -0.00, -1.00, 174.8, 424.0)">i</text><text xml:space="preserve" font-family="Helvetica-Light" font-size="29.0" fill="#52575F" transform="matrix(1.00, 0.00, -0.00, -1.00, 181.2, 424.0)">o</text><text xml:space="preserve" font-family="Helvetica-Light" font-size="29.0" fill="#52575F" transform="matrix(1.00, 0.00, -0.00, -1.00, 197.3, 424.0)">n</text><text xml:space="preserve" font-family="Helvetica-Light" font-size="29.0" fill="#52575F" transform="matrix(1.00, 0.00, -0.00, -1.00, 213.5, 424.0)"> </text><text xml:space="preserve" font-family="Helvetica-Light" font-size="29.0" fill="#52575F" transform="matrix(1.00, 0.00, -0.00, -1.00, 221.5, 424.0)">a</text><text xml:space="preserve" font-family="Helvetica-Light" font-size="29.0" fill="#52575F" transform="matrix(1.00, 0.00, -0.00, -1.00, 237.7, 424.0)">r</text><text xml:space="preserve" font-family="Helvetica-Light" font-size="29.0" fill="#52575F" transform="matrix(1.00, 0.00, -0.00, -1.00, 247.8, 424.0)">t</text><text xml:space="preserve" font-family="Helvetica-Light" font-size="29.0" fill="#52575F" transform="matrix(1.00, 0.00, -0.00, -1.00, 255.9, 424.0)">i</text><text xml:space="preserve" font-family="Helvetica-Light" font-size="29.0" fill="#52575F" transform="matrix(1.00, 0.00, -0.00, -1.00, 262.3, 424.0)">c</text><text xml:space="preserve" font-family="Helvetica-Light" font-size="29.0" fill="#52575F" transform="matrix(1.00, 0.00, -0.00, -1.00, 278.5, 424.0)">l</text><text xml:space="preserve" font-family="Helvetica-Light" font-size="29.0" fill="#52575F" transform="matrix(1.00, 0.00, -0.00, -1.00, 284.9, 424.0)">e</text><text xml:space="preserve" font-family="Helvetica-Light" font-size="29.0" fill="#52575F" transform="matrix(1.00, 0.00, -0.00, -1.00, 301.0, 424.0)">s</text><g><clipPath id="clip-65"><path d="M 90.4 460.4 L 315.9 460.4 L 315.9 417.4 L 90.4 417.4 Z M 90.4 460.4 "></path></clipPath><g clip-path="url(#clip-65)"><path d="M 4.0 4.5 L 229.5 4.5 " fill="none" stroke="#000000" stroke-width="1.00" stroke-dasharray="2.0, 2.0" transform="matrix(1.00, 0.00, 0.00, -1.00, 86.4, 464.4)"></path><path d="M 4.0 54.5 L 229.5 54.5 " fill="none" stroke="#000000" stroke-width="1.00" stroke-dasharray="2.0, 2.0" transform="matrix(1.00, 0.00, 0.00, -1.00, 86.4, 464.4)"></path></g></g><image xlink:href="../../1E16A9FA-0340-4ADD-88D0-A2527F188A1D/assets/17C46F5AD2BAC87F9108A8584506A830.png" width="86.00" height="86.00" transform="matrix(1.00, 0.00, -0.00, -1.00, 1210.4, 580.8)" opacity="0.50"></image><path d="M 1281.8 568.2 C 1297.5 552.6 1297.5 527.4 1281.8 511.8 C 1266.1 496.3 1240.8 496.3 1225.1 511.8 C 1209.5 527.4 1209.5 552.6 1225.1 568.2 C 1240.8 583.7 1266.1 583.7 1281.8 568.2 Z M 1281.8 568.2 " fill="#51A7F9"></path><g><clipPath id="clip-66"><path d="M 1213.4 500.2 L 1293.5 500.2 L 1293.5 579.8 L 1213.4 579.8 Z M 1213.4 500.2 "></path></clipPath><g clip-path="url(#clip-66)"><text xml:space="preserve" font-family="Helvetica" font-size="16.0" fill="#FEFFFE" transform="matrix(1.00, 0.00, -0.00, -1.00, 1226.0, 534.0)">ﬁ</text><text xml:space="preserve" font-family="Helvetica" font-size="16.0" fill="#FEFFFE" transform="matrix(1.00, 0.00, -0.00, -1.00, 1234.0, 534.0)">r</text><text xml:space="preserve" font-family="Helvetica" font-size="16.0" fill="#FEFFFE" transform="matrix(1.00, 0.00, -0.00, -1.00, 1239.3, 534.0)">s</text><text xml:space="preserve" font-family="Helvetica" font-size="16.0" fill="#FEFFFE" transform="matrix(1.00, 0.00, -0.00, -1.00, 1247.3, 534.0)">t</text><text xml:space="preserve" font-family="Helvetica" font-size="16.0" fill="#FEFFFE" transform="matrix(1.00, 0.00, -0.00, -1.00, 1251.8, 534.0)"> </text><text xml:space="preserve" font-family="Helvetica" font-size="16.0" fill="#FEFFFE" transform="matrix(1.00, 0.00, -0.00, -1.00, 1256.2, 534.0)">l</text><text xml:space="preserve" font-family="Helvetica" font-size="16.0" fill="#FEFFFE" transform="matrix(1.00, 0.00, -0.00, -1.00, 1259.8, 534.0)">i</text><text xml:space="preserve" font-family="Helvetica" font-size="16.0" fill="#FEFFFE" transform="matrix(1.00, 0.00, -0.00, -1.00, 1263.3, 534.0)">n</text><text xml:space="preserve" font-family="Helvetica" font-size="16.0" fill="#FEFFFE" transform="matrix(1.00, 0.00, -0.00, -1.00, 1272.2, 534.0)">k</text></g></g><path d="M 1127.2 539.1 C 1127.0 539.2 1126.8 538.7 1126.2 538.5 C 1125.6 538.4 1124.8 538.3 1125.0 538.7 C 1125.1 539.0 1125.3 539.2 1125.0 539.6 C 1124.7 540.0 1124.3 540.7 1124.8 540.9 C 1125.2 541.2 1126.9 541.9 1127.4 541.5 C 1127.9 541.2 1128.1 541.0 1128.5 540.8 C 1128.9 540.5 1128.6 541.3 1128.6 541.3 C 1128.6 541.3 1129.5 541.4 1130.2 541.5 C 1130.9 541.5 1131.6 541.6 1131.7 541.4 C 1131.8 541.3 1132.0 541.0 1132.0 541.0 C 1132.0 541.0 1132.4 541.4 1132.9 541.5 C 1133.4 541.5 1133.2 541.3 1133.1 541.1 C 1133.1 541.0 1132.5 540.4 1132.7 540.4 C 1132.9 540.4 1133.5 541.2 1133.9 541.3 C 1134.2 541.4 1135.0 541.3 1135.0 541.3 C 1135.0 541.3 1134.9 540.9 1135.0 540.8 C 1135.1 540.7 1135.9 540.6 1135.9 540.8 C 1135.9 540.9 1135.9 541.4 1136.3 541.5 C 1137.5 541.5 1137.3 540.7 1137.4 540.6 C 1137.5 540.6 1137.5 541.3 1137.8 541.4 C 1138.1 541.5 1140.5 541.4 1140.6 541.2 C 1140.7 541.1 1141.5 541.7 1141.9 541.3 C 1142.2 540.8 1142.4 540.7 1142.4 540.6 C 1142.5 540.5 1143.0 539.8 1143.2 540.1 C 1143.4 540.3 1142.5 541.1 1142.7 541.3 C 1143.0 541.5 1144.5 541.6 1144.8 541.4 C 1145.1 541.1 1145.2 540.4 1145.4 540.4 C 1145.6 540.4 1146.5 541.3 1146.6 541.1 C 1146.6 541.0 1146.7 540.3 1146.7 540.2 C 1146.7 540.0 1147.0 538.8 1146.9 538.6 C 1146.7 538.4 1145.8 538.0 1145.9 538.3 C 1146.0 538.7 1146.2 539.1 1145.9 539.3 C 1145.6 539.5 1145.4 539.5 1145.3 539.3 C 1145.3 539.2 1145.4 539.1 1144.9 538.8 C 1144.4 538.6 1144.7 538.3 1144.2 538.3 C 1143.7 538.3 1143.2 538.4 1143.3 538.7 C 1143.3 539.0 1142.8 539.4 1142.4 539.3 C 1142.1 539.3 1142.7 538.7 1141.6 538.5 C 1140.4 538.2 1139.7 538.2 1139.4 538.4 C 1139.1 538.6 1139.0 539.4 1138.5 539.1 C 1138.0 538.7 1138.2 538.5 1137.5 538.6 C 1136.8 538.6 1136.5 539.2 1136.1 539.2 C 1135.6 539.2 1135.5 539.2 1135.5 539.2 C 1135.5 539.2 1135.7 538.3 1134.7 538.3 C 1133.7 538.3 1133.5 538.2 1133.7 538.8 C 1133.9 539.4 1133.1 539.4 1133.1 539.0 C 1133.0 538.6 1132.4 538.4 1132.1 538.3 C 1131.7 538.3 1131.6 539.3 1131.5 539.3 C 1131.3 539.3 1130.9 539.3 1131.1 538.9 C 1131.2 538.6 1130.8 538.6 1130.5 538.4 C 1130.2 538.3 1129.2 538.4 1129.3 538.6 C 1129.3 538.8 1129.7 539.4 1129.1 539.1 C 1128.5 538.8 1128.3 538.3 1127.7 538.3 C 1127.1 538.3 1127.6 538.9 1127.2 539.1 C 1127.2 539.1 1127.2 539.1 1127.2 539.1 Z M 1147.2 538.3 C 1146.1 538.3 1146.9 541.0 1147.3 541.5 C 1147.7 542.0 1148.4 541.7 1149.2 541.8 C 1149.9 541.9 1149.7 541.1 1150.1 540.8 C 1150.5 540.6 1150.4 541.1 1150.6 541.5 C 1150.7 541.9 1151.9 541.5 1152.5 541.6 C 1153.2 541.6 1153.9 540.7 1154.5 540.7 C 1155.0 540.6 1154.0 540.2 1155.0 540.3 C 1155.9 540.3 1155.5 540.8 1154.3 541.1 C 1153.2 541.4 1154.8 541.6 1155.4 541.7 C 1156.0 541.8 1157.0 541.4 1157.5 541.4 C 1158.0 541.5 1157.4 540.8 1158.1 540.8 C 1158.8 540.9 1158.5 541.5 1159.2 541.6 C 1159.9 541.7 1159.8 541.1 1160.2 541.0 C 1160.5 540.8 1160.5 541.2 1160.8 541.2 C 1161.1 541.3 1161.6 541.5 1162.2 541.4 C 1162.9 541.2 1162.7 541.0 1163.0 541.0 C 1163.3 540.9 1163.9 540.9 1163.9 540.9 C 1163.9 541.1 1164.0 541.4 1164.0 541.6 C 1164.0 541.6 1165.2 541.6 1165.6 541.7 C 1165.9 541.7 1166.8 541.4 1166.6 541.3 C 1166.3 541.2 1167.2 540.7 1167.3 540.8 C 1167.5 540.9 1168.1 541.2 1168.6 541.4 C 1169.0 541.5 1168.9 539.8 1168.9 539.6 C 1168.9 539.3 1169.1 538.4 1168.8 538.3 C 1168.4 538.2 1168.1 538.6 1168.1 538.3 C 1168.2 538.1 1167.1 538.3 1166.8 538.3 C 1166.5 538.3 1166.1 539.0 1166.1 539.0 C 1166.1 539.0 1165.8 539.5 1165.3 539.5 C 1164.8 539.5 1164.7 538.4 1164.7 538.4 C 1164.7 538.4 1164.1 538.2 1163.4 538.3 C 1162.8 538.3 1162.2 539.2 1162.0 539.4 C 1161.9 539.6 1161.9 538.8 1161.5 538.7 C 1161.1 538.6 1160.5 538.3 1160.3 538.4 C 1160.1 538.4 1159.8 539.0 1159.8 539.0 C 1159.8 539.0 1159.0 539.3 1158.8 539.3 C 1158.6 539.3 1158.9 538.5 1158.9 538.5 C 1158.9 538.5 1157.3 538.3 1156.9 538.2 C 1156.6 538.1 1156.1 538.4 1155.8 538.4 C 1155.6 538.5 1155.2 539.4 1154.8 539.3 C 1154.5 539.2 1155.2 538.7 1154.8 538.6 C 1154.5 538.5 1153.8 538.3 1153.6 538.3 C 1153.4 538.3 1153.2 538.7 1152.9 538.7 C 1152.6 538.8 1152.2 539.5 1151.7 539.5 C 1151.2 539.5 1150.9 539.0 1150.8 539.0 C 1150.6 538.9 1150.5 538.2 1150.1 538.2 C 1149.7 538.2 1150.0 538.6 1149.6 538.6 C 1149.2 538.6 1149.2 539.1 1148.9 539.0 C 1148.5 538.9 1148.7 538.1 1148.3 538.2 C 1148.1 538.3 1148.3 538.2 1147.2 538.3 C 1147.2 538.3 1147.2 538.3 1147.2 538.3 Z M 1169.7 538.4 C 1169.1 538.0 1168.7 538.5 1168.7 538.9 C 1168.8 539.2 1169.0 540.2 1168.8 540.5 C 1168.6 540.8 1168.0 541.5 1168.9 541.6 C 1169.8 541.7 1170.0 541.5 1170.0 541.2 C 1170.0 541.0 1170.2 540.0 1170.5 540.1 C 1170.7 540.2 1171.0 540.4 1171.0 540.6 C 1171.1 540.7 1171.4 541.7 1171.9 541.6 C 1172.3 541.4 1172.8 541.1 1172.8 541.1 C 1173.0 541.1 1173.2 541.1 1173.4 541.1 C 1173.4 541.1 1174.1 541.7 1174.5 541.6 C 1175.0 541.4 1175.6 541.4 1176.0 541.5 C 1176.3 541.5 1176.7 541.4 1176.8 541.2 C 1176.8 541.0 1177.3 540.1 1177.3 540.1 C 1177.3 540.1 1177.9 539.9 1178.1 540.0 C 1178.4 540.2 1178.4 540.6 1178.4 540.8 C 1178.3 541.0 1178.4 541.5 1178.7 541.6 C 1179.1 541.6 1180.7 542.1 1181.0 541.8 C 1181.2 541.6 1181.2 541.2 1181.3 541.1 C 1181.5 541.0 1182.6 540.9 1182.7 541.2 C 1182.8 541.4 1182.7 541.9 1183.0 541.9 C 1183.3 541.8 1183.9 542.0 1183.9 541.8 C 1183.9 541.7 1184.1 541.6 1184.2 541.3 C 1184.2 541.0 1184.8 540.8 1184.9 540.6 C 1185.1 540.5 1185.5 540.4 1185.5 540.4 C 1185.7 540.6 1186.0 540.7 1186.2 540.9 C 1186.2 540.9 1185.8 541.4 1185.6 541.5 C 1185.4 541.6 1185.7 541.9 1185.9 542.0 C 1186.1 542.0 1187.3 541.9 1187.3 541.9 C 1187.3 541.5 1187.3 541.2 1187.3 540.8 C 1187.6 540.7 1187.9 540.6 1188.2 540.5 C 1188.2 540.5 1188.1 541.9 1188.6 541.9 C 1189.2 541.9 1189.9 541.9 1189.9 541.9 C 1189.9 541.9 1190.5 541.4 1190.6 541.3 C 1190.7 541.3 1190.8 540.1 1190.8 540.1 C 1190.8 539.6 1190.7 539.2 1190.7 538.7 C 1190.7 538.7 1190.0 538.2 1189.6 538.4 C 1189.3 538.6 1189.6 539.1 1189.5 539.3 C 1189.4 539.6 1188.9 539.8 1188.9 539.8 C 1188.6 539.5 1188.4 539.3 1188.1 539.0 C 1188.1 539.0 1187.9 538.8 1187.7 538.5 C 1187.4 538.3 1186.5 538.2 1186.3 538.3 C 1186.0 538.4 1185.8 538.7 1185.5 538.9 C 1185.2 539.1 1185.2 539.6 1184.9 539.2 C 1184.5 538.9 1184.3 538.5 1184.1 538.5 C 1183.9 538.5 1183.1 539.0 1183.1 539.0 C 1182.9 539.1 1182.7 539.2 1182.5 539.3 C 1182.5 539.3 1181.9 539.6 1181.8 539.3 C 1181.7 539.0 1180.5 539.3 1180.5 539.3 C 1180.5 539.3 1180.6 538.5 1180.3 538.4 C 1180.0 538.2 1179.5 538.0 1179.0 538.2 C 1178.5 538.3 1178.1 539.1 1178.1 539.1 C 1178.0 538.9 1177.8 538.7 1177.7 538.5 C 1177.2 538.4 1176.7 538.4 1176.3 538.3 C 1176.3 538.3 1175.2 538.4 1175.2 538.5 C 1175.2 538.6 1175.3 539.3 1175.3 539.5 C 1175.2 539.7 1174.7 539.9 1174.6 539.7 C 1174.5 539.5 1174.1 538.8 1174.1 538.8 C 1174.1 538.8 1173.6 538.4 1173.3 538.4 C 1173.0 538.3 1172.5 538.5 1172.4 538.7 C 1172.3 538.8 1171.8 539.3 1171.8 539.3 C 1171.6 539.1 1171.5 538.9 1171.4 538.7 C 1171.4 538.7 1170.5 539.0 1169.7 538.4 C 1169.7 538.4 1169.7 538.4 1169.7 538.4 Z M 1169.7 538.4 " fill="#51A7F9"></path><path d="M 1189.7 549.3 C 1189.6 549.7 1188.5 550.0 1189.3 549.3 C 1189.3 549.3 1189.8 549.1 1189.7 549.3 Z M 1191.4 548.3 C 1191.3 548.4 1191.2 548.4 1191.0 548.4 C 1190.7 548.2 1191.8 548.0 1191.4 548.3 Z M 1188.7 549.4 C 1188.7 549.5 1188.2 549.8 1188.2 549.6 C 1188.3 549.5 1188.8 549.4 1188.7 549.4 Z M 1192.5 546.7 C 1192.6 546.9 1192.0 547.2 1191.9 547.2 C 1191.5 547.2 1192.4 546.4 1192.5 546.7 Z M 1187.9 543.9 C 1187.9 543.9 1187.9 543.8 1187.9 543.8 C 1187.9 543.8 1187.9 543.9 1187.9 543.9 Z M 1200.5 542.5 C 1200.5 542.5 1200.2 542.5 1200.1 542.4 C 1200.1 542.2 1200.8 542.2 1200.5 542.5 Z M 1187.6 532.9 C 1187.6 532.9 1187.5 533.1 1187.4 533.0 C 1187.3 532.9 1187.5 532.8 1187.6 532.9 Z M 1187.4 532.9 C 1187.3 532.9 1187.2 532.7 1187.3 532.7 C 1187.5 532.8 1187.5 532.8 1187.4 532.9 Z M 1196.4 535.2 C 1196.4 535.2 1196.5 535.2 1196.4 535.3 C 1196.3 535.3 1196.2 535.2 1196.4 535.2 Z M 1196.0 535.2 C 1195.9 535.3 1195.8 535.0 1196.0 535.1 C 1196.1 535.1 1196.2 535.2 1196.0 535.2 Z M 1194.8 533.5 C 1194.9 533.5 1194.9 533.5 1194.8 533.6 C 1194.8 533.6 1194.7 533.5 1194.8 533.5 Z M 1187.1 537.4 C 1187.1 537.3 1187.2 537.0 1187.3 537.0 C 1187.5 537.1 1187.3 537.5 1187.1 537.4 Z M 1187.0 537.0 C 1186.9 537.0 1186.9 536.7 1187.0 536.8 C 1187.1 536.9 1187.2 536.9 1187.0 537.0 Z M 1187.3 538.4 C 1187.5 538.4 1187.5 538.7 1187.5 538.8 C 1187.4 538.9 1187.4 539.1 1187.3 539.2 C 1187.3 539.3 1187.1 538.4 1187.3 538.4 Z M 1187.5 541.3 C 1187.4 541.3 1187.4 541.3 1187.5 541.1 C 1187.5 541.0 1187.6 541.3 1187.5 541.3 Z M 1187.4 539.6 C 1187.3 539.6 1187.3 539.6 1187.4 539.5 C 1187.4 539.3 1187.5 539.6 1187.4 539.6 Z M 1195.9 545.2 C 1196.0 545.3 1195.5 545.5 1195.5 545.5 C 1195.4 545.5 1195.6 545.3 1195.5 545.4 C 1195.3 545.4 1195.4 544.9 1195.9 545.2 Z M 1192.3 547.7 C 1192.2 547.7 1192.2 547.7 1192.1 547.6 C 1192.1 547.6 1192.5 547.5 1192.3 547.7 Z M 1195.0 545.0 C 1195.1 545.1 1195.0 545.1 1194.9 545.1 C 1194.9 545.1 1195.0 545.0 1195.0 545.0 Z M 1195.3 544.8 C 1195.2 544.9 1194.9 544.9 1194.9 544.7 C 1194.9 544.5 1195.6 544.5 1195.3 544.8 Z M 1196.5 545.1 C 1196.4 545.1 1196.4 545.1 1196.4 545.0 C 1196.5 545.0 1196.5 545.1 1196.5 545.1 Z M 1194.5 546.6 C 1194.3 546.6 1194.3 546.6 1194.4 546.5 C 1194.4 546.4 1194.5 546.6 1194.5 546.6 Z M 1197.3 544.2 C 1197.3 544.2 1197.2 544.5 1196.9 544.3 C 1196.7 544.1 1197.3 544.2 1197.3 544.2 Z M 1198.6 543.0 C 1198.5 543.0 1198.5 542.9 1198.6 542.9 C 1198.8 542.9 1198.8 542.9 1198.6 543.0 Z M 1198.9 542.1 C 1199.1 542.1 1199.3 542.2 1199.0 542.3 C 1198.8 542.4 1198.7 542.2 1198.9 542.1 Z M 1198.7 542.4 C 1198.7 542.4 1198.8 542.3 1198.8 542.4 C 1198.8 542.4 1198.7 542.5 1198.7 542.4 Z M 1197.6 543.6 C 1197.6 543.7 1197.3 543.7 1197.5 543.5 C 1197.7 543.3 1197.7 543.4 1197.6 543.6 Z M 1187.2 545.4 C 1187.2 545.5 1187.0 545.5 1187.0 545.4 C 1186.9 545.4 1187.1 545.3 1187.2 545.4 Z M 1187.8 539.1 C 1187.7 539.1 1187.7 539.1 1187.8 538.9 C 1187.8 538.7 1187.9 539.0 1187.8 539.1 Z M 1188.2 535.0 C 1188.1 535.1 1188.0 535.0 1188.1 534.9 C 1188.2 534.7 1188.3 534.9 1188.2 535.0 Z M 1187.8 540.7 C 1187.8 540.7 1187.5 540.3 1187.7 540.1 C 1188.0 539.8 1188.1 540.5 1187.8 540.7 Z M 1191.0 544.7 C 1191.1 544.7 1191.0 544.7 1191.0 544.7 C 1191.0 544.6 1191.0 544.6 1191.0 544.7 Z M 1188.3 539.8 C 1188.4 539.9 1188.2 539.8 1188.1 539.8 C 1188.1 539.7 1188.3 539.6 1188.3 539.8 Z M 1187.9 535.7 C 1187.8 535.9 1187.6 535.8 1187.5 535.7 C 1187.2 535.4 1187.6 535.1 1187.7 534.9 C 1187.9 534.7 1188.0 535.6 1187.9 535.7 Z M 1187.8 546.4 C 1187.8 546.3 1187.8 546.2 1187.9 546.1 C 1187.8 546.1 1187.8 546.1 1187.9 546.0 C 1187.8 545.6 1187.5 545.3 1187.4 545.1 C 1187.1 544.5 1187.9 544.3 1187.9 543.9 C 1187.9 544.0 1187.9 544.1 1188.0 544.1 C 1188.2 544.3 1188.1 542.9 1188.1 542.8 C 1187.9 541.6 1187.7 543.0 1187.3 543.0 C 1187.1 543.0 1187.6 542.2 1187.6 542.2 C 1187.8 541.8 1187.4 541.7 1187.6 541.4 C 1187.6 541.3 1188.6 540.8 1188.4 540.6 C 1188.3 540.5 1188.4 540.2 1188.4 540.0 C 1188.4 539.8 1188.4 539.4 1188.1 539.6 C 1187.8 539.8 1187.6 539.8 1187.8 539.5 C 1188.0 539.3 1188.5 537.9 1187.9 538.0 C 1187.8 538.0 1187.6 538.3 1187.6 538.3 C 1187.5 537.9 1187.7 536.7 1187.4 536.4 C 1186.8 535.8 1187.8 536.6 1188.0 536.3 C 1188.3 535.7 1188.5 535.5 1188.3 534.8 C 1188.3 534.6 1188.3 533.9 1187.9 534.3 C 1187.7 534.5 1187.5 534.3 1187.4 534.7 C 1187.1 534.3 1187.7 534.0 1187.6 533.9 C 1187.4 533.7 1187.3 534.0 1187.4 533.7 C 1187.4 533.3 1187.3 533.4 1187.6 533.4 C 1187.7 533.4 1187.8 533.0 1187.8 533.0 C 1187.9 533.0 1187.9 533.0 1187.9 533.0 C 1187.9 532.7 1187.2 532.2 1187.4 532.1 C 1187.5 532.0 1187.9 532.2 1188.1 532.2 C 1188.1 532.1 1188.1 532.1 1188.1 532.1 C 1188.1 532.0 1187.8 531.6 1187.9 531.6 C 1187.9 531.5 1188.5 531.8 1188.3 531.6 C 1188.2 531.5 1188.4 530.7 1188.6 530.7 C 1188.8 530.7 1189.6 530.5 1189.6 530.3 C 1189.7 530.2 1190.0 530.5 1190.2 530.5 C 1190.3 530.6 1190.4 530.9 1190.4 531.0 C 1190.4 531.0 1190.8 531.2 1190.8 531.2 C 1190.8 531.2 1190.9 531.2 1191.2 531.3 C 1191.4 531.4 1191.5 531.7 1191.7 531.9 C 1192.0 532.2 1192.2 532.1 1192.5 532.2 C 1192.8 532.3 1192.8 532.9 1193.0 533.1 C 1193.2 533.3 1193.4 533.0 1193.7 533.1 C 1194.0 533.3 1194.1 533.4 1194.0 533.4 C 1193.9 533.5 1193.9 533.6 1194.0 533.6 C 1194.1 533.7 1194.4 534.0 1194.5 534.0 C 1194.7 534.0 1194.0 533.2 1195.1 533.9 C 1195.6 534.3 1195.8 534.9 1195.7 534.8 C 1195.2 534.6 1195.8 535.6 1195.9 535.5 C 1196.0 535.3 1196.9 535.9 1196.9 535.5 C 1196.9 535.3 1197.9 535.8 1198.0 535.9 C 1198.1 536.1 1198.6 536.3 1198.5 536.6 C 1198.5 536.8 1199.3 536.7 1199.4 536.8 C 1199.5 536.9 1200.3 537.4 1200.4 537.6 C 1200.5 537.7 1200.1 537.5 1200.0 537.4 C 1199.8 537.3 1199.6 537.0 1199.5 537.0 C 1199.3 536.9 1199.5 537.2 1199.7 537.4 C 1199.9 537.5 1199.8 537.7 1200.0 537.8 C 1200.1 537.9 1200.2 537.9 1200.3 538.1 C 1200.4 538.1 1200.5 538.1 1200.5 538.0 C 1200.6 537.9 1200.5 537.8 1200.5 537.8 C 1200.6 537.7 1200.8 537.7 1201.0 537.9 C 1201.2 538.0 1201.4 538.2 1201.7 538.5 C 1201.9 538.7 1202.1 538.7 1202.3 538.8 C 1202.5 538.9 1202.7 539.0 1202.6 539.1 C 1202.6 539.2 1202.3 539.1 1202.3 539.1 C 1202.2 539.1 1202.4 539.5 1202.5 539.6 C 1203.0 540.0 1202.3 540.2 1202.8 540.6 C 1203.1 540.8 1202.7 540.8 1202.4 540.9 C 1202.4 540.9 1202.4 541.0 1202.2 541.2 C 1202.2 541.3 1201.8 541.4 1201.6 541.5 C 1201.5 541.6 1200.9 542.2 1201.2 541.7 C 1201.3 541.7 1201.3 541.7 1201.3 541.6 C 1201.3 541.6 1201.3 541.6 1201.3 541.6 C 1201.3 541.6 1201.3 541.2 1201.3 541.2 C 1201.3 541.2 1201.3 541.6 1201.3 541.6 C 1201.1 541.6 1201.0 541.5 1200.9 541.5 C 1200.9 541.5 1200.8 541.6 1200.8 541.6 C 1200.8 541.6 1200.8 541.6 1200.8 541.7 C 1200.8 541.7 1200.8 541.7 1200.8 541.7 C 1200.9 541.8 1200.9 541.8 1200.7 541.8 C 1200.6 542.1 1199.9 542.2 1199.6 542.3 C 1199.9 541.3 1198.7 542.0 1198.4 542.3 C 1198.1 542.6 1198.6 543.4 1198.7 543.2 C 1198.5 543.4 1198.3 543.3 1198.1 543.2 C 1198.2 543.2 1197.6 542.9 1197.6 542.9 C 1196.8 543.0 1197.3 543.6 1197.2 543.7 C 1197.1 543.9 1196.9 544.1 1196.7 544.2 C 1196.6 544.4 1196.8 544.4 1196.8 544.5 C 1196.8 545.0 1196.0 544.7 1195.8 544.7 C 1195.9 544.6 1196.0 544.4 1196.1 544.2 C 1196.0 544.5 1195.7 544.2 1195.5 544.3 C 1195.3 544.3 1195.1 544.5 1194.9 544.6 C 1194.5 544.9 1194.2 545.2 1193.9 545.4 C 1194.0 545.4 1194.8 545.5 1194.8 545.5 C 1194.7 545.6 1194.3 545.7 1194.6 545.9 C 1195.1 546.2 1194.1 546.5 1193.9 546.6 C 1193.4 546.8 1193.2 547.5 1192.4 547.3 C 1192.4 547.3 1193.1 546.8 1193.0 546.7 C 1192.6 546.4 1192.3 546.3 1191.8 546.7 C 1191.8 546.8 1191.3 547.5 1191.3 547.5 C 1191.3 547.4 1192.5 548.0 1191.7 548.0 C 1191.6 548.0 1191.7 547.7 1191.5 547.8 C 1191.3 547.8 1191.0 548.0 1190.8 548.1 C 1190.7 548.2 1190.3 548.3 1190.3 548.3 C 1190.3 548.5 1190.4 548.7 1190.3 548.8 C 1190.2 549.0 1189.9 549.0 1189.9 548.8 C 1189.8 548.8 1189.8 548.8 1189.8 548.8 C 1189.8 548.8 1189.7 548.8 1189.7 548.7 C 1189.6 548.7 1189.5 548.8 1189.4 548.7 C 1189.3 548.7 1189.5 548.6 1189.6 548.6 C 1189.6 548.5 1189.6 548.5 1189.6 548.4 C 1189.4 548.6 1189.2 548.7 1189.2 548.8 C 1189.0 549.2 1189.1 549.3 1188.4 549.2 C 1187.9 549.1 1187.5 547.8 1187.7 547.0 C 1187.6 546.8 1187.7 546.7 1187.8 546.4 Z M 1200.6 538.5 C 1200.6 538.5 1200.5 538.5 1200.5 538.5 C 1200.5 538.5 1200.4 538.6 1200.4 538.7 C 1200.5 538.8 1200.4 538.5 1200.6 538.6 C 1200.8 538.8 1200.8 538.7 1200.6 538.5 Z M 1200.4 540.3 C 1200.6 540.3 1200.6 540.3 1200.5 540.2 C 1200.5 540.2 1200.4 540.3 1200.4 540.3 Z M 1200.8 541.1 C 1201.0 540.9 1200.5 540.8 1200.2 541.1 C 1200.5 541.1 1200.7 541.1 1200.8 541.1 Z M 1200.5 541.7 C 1200.4 541.7 1200.4 541.6 1200.4 541.6 C 1200.4 541.5 1200.2 541.7 1200.2 541.6 C 1200.2 541.5 1200.4 541.3 1200.2 541.3 C 1200.1 541.3 1200.1 541.3 1200.0 541.3 C 1200.0 541.4 1200.0 541.4 1200.0 541.4 C 1199.9 541.6 1200.3 541.8 1200.5 541.7 Z M 1199.2 538.4 C 1199.4 538.4 1199.3 538.3 1199.2 538.3 C 1199.1 538.3 1199.1 538.4 1199.2 538.4 Z M 1198.3 537.0 C 1198.4 537.1 1198.5 537.1 1198.5 537.0 C 1198.4 536.8 1198.2 536.8 1198.3 537.0 Z M 1196.3 539.1 C 1196.4 539.0 1196.3 539.0 1196.3 539.0 C 1196.1 538.9 1196.2 539.1 1196.3 539.1 Z M 1196.2 540.5 C 1196.1 540.6 1196.3 540.8 1196.3 540.7 C 1196.4 540.6 1196.3 540.5 1196.2 540.5 Z M 1196.4 537.1 C 1196.3 537.1 1196.3 537.2 1196.4 537.2 C 1196.5 537.2 1196.5 537.2 1196.4 537.1 Z M 1196.7 539.2 C 1196.6 539.0 1196.6 539.1 1196.5 539.1 C 1196.5 539.1 1196.5 539.3 1196.6 539.3 C 1196.8 539.4 1196.8 539.3 1196.7 539.2 Z M 1196.8 540.4 C 1196.5 540.6 1196.6 540.8 1197.0 540.5 C 1197.3 540.1 1197.1 540.3 1196.8 540.4 Z M 1197.5 535.9 C 1197.6 536.0 1197.8 536.1 1197.8 536.1 C 1197.8 536.1 1197.3 535.7 1197.5 535.9 Z M 1196.7 543.8 C 1196.9 543.7 1196.9 543.6 1196.7 543.7 C 1196.4 543.7 1196.6 543.9 1196.7 543.8 Z M 1196.0 543.2 C 1196.3 543.4 1196.5 543.3 1196.6 543.4 C 1196.5 543.3 1196.5 543.1 1196.5 543.0 C 1196.7 542.8 1197.2 542.9 1197.3 542.5 C 1197.4 542.2 1196.9 542.5 1196.8 542.6 C 1196.8 542.5 1196.9 542.4 1196.8 542.3 C 1196.7 542.3 1196.6 542.3 1196.6 542.4 C 1196.5 542.6 1195.6 542.9 1196.0 543.2 Z M 1196.0 539.6 C 1196.2 539.7 1196.3 539.6 1196.2 539.4 C 1196.1 539.3 1195.9 539.2 1195.9 539.2 C 1195.8 539.3 1195.9 539.6 1196.0 539.6 Z M 1195.9 538.5 C 1196.0 538.5 1196.0 538.4 1195.8 538.4 C 1195.6 538.3 1195.7 538.6 1195.9 538.5 Z M 1193.8 533.8 C 1193.7 533.8 1193.9 534.0 1193.9 533.9 C 1194.0 533.8 1193.9 533.8 1193.8 533.8 Z M 1193.9 535.6 C 1193.6 535.6 1193.8 535.9 1193.9 535.9 C 1193.9 535.9 1194.1 535.7 1193.9 535.6 Z M 1195.0 536.8 C 1194.8 536.7 1195.0 536.9 1195.0 536.9 C 1195.1 536.8 1195.0 536.8 1195.0 536.8 Z M 1195.1 537.5 C 1195.0 537.4 1195.0 537.6 1195.2 537.6 C 1195.3 537.6 1195.2 537.5 1195.1 537.5 Z M 1194.5 543.5 C 1194.5 543.5 1194.5 543.2 1194.3 543.5 C 1194.2 543.7 1194.2 543.7 1194.5 543.5 Z M 1195.0 541.4 C 1195.2 541.2 1195.4 541.1 1195.2 540.5 C 1195.0 539.9 1194.9 540.1 1194.8 540.5 C 1194.7 540.8 1194.4 539.8 1194.3 540.5 C 1194.2 540.8 1194.9 541.5 1195.0 541.4 Z M 1194.0 537.5 C 1194.2 537.9 1194.7 537.8 1194.4 537.6 C 1194.1 537.3 1193.8 537.2 1194.0 537.5 Z M 1194.0 537.3 C 1194.0 537.3 1194.0 537.2 1193.9 537.2 C 1193.8 537.1 1193.9 537.3 1194.0 537.3 Z M 1194.3 546.1 C 1194.8 545.6 1193.9 545.6 1193.9 545.6 C 1193.1 545.9 1193.7 546.7 1194.3 546.1 Z M 1188.2 533.3 C 1188.2 533.4 1188.2 533.4 1188.2 533.4 C 1188.2 533.4 1188.2 533.4 1188.2 533.4 C 1188.3 533.6 1188.5 533.3 1188.5 533.3 C 1188.4 533.3 1188.3 533.3 1188.2 533.3 Z M 1188.0 537.2 C 1188.1 537.0 1188.0 536.9 1187.9 536.8 C 1187.6 536.9 1187.6 538.0 1188.2 537.6 C 1188.3 537.5 1188.8 536.8 1188.5 536.7 C 1188.3 536.7 1188.0 537.6 1188.0 537.2 Z M 1188.5 536.0 C 1188.5 536.4 1189.0 535.6 1188.8 535.7 C 1188.6 535.7 1188.5 535.8 1188.5 536.0 Z M 1189.6 532.6 C 1189.4 532.0 1188.4 532.1 1188.9 533.0 C 1189.4 534.0 1189.8 534.0 1189.7 533.6 C 1189.5 533.1 1190.0 533.5 1189.6 532.6 Z M 1189.6 537.6 C 1188.9 537.5 1189.1 537.8 1189.6 537.9 C 1189.7 538.0 1190.0 537.6 1189.6 537.6 Z M 1189.7 539.0 C 1189.6 539.2 1189.7 539.1 1189.8 539.0 C 1189.9 538.9 1189.8 538.8 1189.7 539.0 Z M 1190.5 531.6 C 1190.4 531.3 1190.2 531.2 1190.3 531.2 C 1190.5 531.2 1190.4 531.1 1190.3 531.0 C 1190.1 530.8 1190.1 531.1 1190.2 531.3 C 1190.2 531.4 1190.6 531.8 1190.5 531.6 Z M 1192.7 536.9 C 1192.6 536.9 1192.7 537.0 1192.8 537.0 C 1192.9 537.0 1192.9 537.0 1192.7 536.9 Z M 1193.5 542.2 C 1193.5 542.2 1193.4 542.1 1193.3 542.2 C 1193.2 542.3 1193.2 542.3 1193.5 542.2 Z M 1193.2 546.5 C 1193.3 546.4 1193.0 546.3 1193.1 546.1 C 1193.1 546.0 1193.2 546.2 1193.2 546.2 C 1193.2 546.1 1193.1 545.6 1192.9 546.0 C 1192.8 546.1 1192.9 546.7 1193.2 546.5 Z M 1192.6 538.4 C 1192.8 538.6 1193.0 537.7 1193.1 537.9 C 1193.3 538.0 1193.3 537.9 1193.1 537.7 C 1192.9 537.5 1192.4 538.2 1192.6 538.4 Z M 1192.4 536.1 C 1192.5 536.3 1192.9 536.7 1192.8 536.4 C 1192.7 536.2 1192.4 536.0 1192.6 536.0 C 1192.7 536.0 1192.7 536.0 1192.6 535.8 C 1192.4 535.7 1192.4 536.0 1192.4 536.1 Z M 1192.3 532.4 C 1192.3 532.5 1192.6 532.6 1192.5 532.4 C 1192.4 532.3 1192.2 532.3 1192.3 532.4 Z M 1192.0 542.8 C 1192.1 542.7 1192.1 542.6 1191.9 542.8 C 1191.7 542.9 1192.0 543.0 1192.0 542.8 Z M 1191.6 532.7 C 1191.8 533.0 1191.7 532.6 1191.9 532.7 C 1192.0 532.9 1192.1 532.8 1191.8 532.6 C 1191.7 532.4 1191.4 532.5 1191.6 532.7 Z M 1191.5 546.3 C 1191.5 546.2 1191.4 546.0 1191.3 546.1 C 1191.3 546.2 1191.4 546.4 1191.5 546.3 Z M 1190.9 544.9 C 1191.0 544.8 1191.0 544.8 1191.1 544.8 C 1192.0 544.2 1190.3 544.6 1190.9 544.9 Z M 1191.0 542.7 C 1191.1 543.0 1191.3 542.6 1191.2 542.6 C 1191.2 542.6 1191.1 542.6 1191.0 542.7 Z M 1191.0 540.3 C 1190.9 540.3 1190.9 540.5 1191.1 540.5 C 1191.2 540.4 1191.1 540.4 1191.0 540.3 Z M 1190.6 548.0 C 1190.7 548.0 1190.7 547.9 1190.6 547.9 C 1190.5 547.9 1190.5 548.0 1190.6 548.0 Z M 1190.5 542.1 C 1190.6 542.1 1190.6 542.1 1190.6 542.0 C 1190.5 541.9 1190.5 542.0 1190.5 542.1 Z M 1190.5 534.8 C 1190.5 534.9 1190.6 534.9 1190.7 535.0 C 1190.8 534.9 1190.8 534.5 1191.0 534.5 C 1191.0 534.5 1191.0 534.5 1191.0 534.5 C 1191.0 534.5 1191.0 534.5 1191.0 534.5 C 1191.1 534.5 1191.2 534.6 1191.1 534.6 C 1191.2 534.7 1191.2 534.7 1191.2 534.8 C 1191.3 534.7 1191.4 534.5 1191.3 534.4 C 1191.2 534.3 1190.9 534.2 1190.6 534.2 C 1190.6 534.3 1190.5 534.4 1190.5 534.5 C 1190.5 534.5 1190.5 534.5 1190.5 534.5 C 1190.7 534.6 1190.8 534.8 1190.7 534.8 C 1190.6 534.8 1190.5 534.7 1190.5 534.7 C 1190.5 534.7 1190.5 534.8 1190.5 534.8 Z M 1190.2 541.2 C 1190.3 541.3 1190.3 541.2 1190.4 541.0 C 1190.4 540.8 1190.1 541.0 1190.2 541.2 Z M 1190.4 547.7 C 1190.4 547.6 1190.3 547.6 1190.3 547.5 C 1190.3 547.6 1190.3 547.6 1190.3 547.7 C 1190.2 547.8 1190.2 547.9 1190.2 548.0 C 1190.3 548.0 1190.4 548.0 1190.4 547.7 Z M 1189.7 545.7 C 1189.7 545.7 1189.7 546.6 1189.9 546.4 C 1190.2 546.2 1190.5 546.6 1190.4 545.9 C 1190.3 545.6 1189.9 545.4 1189.8 545.1 C 1189.4 543.5 1189.4 545.5 1189.3 545.9 C 1189.3 546.0 1189.6 545.5 1189.7 545.7 Z M 1189.2 543.6 C 1189.1 543.6 1188.9 543.8 1188.9 543.9 C 1189.0 544.3 1189.4 543.7 1189.2 543.6 Z M 1189.0 547.9 C 1189.0 547.9 1189.0 547.9 1189.1 547.9 C 1189.1 547.9 1189.0 547.9 1189.0 547.8 C 1189.0 547.9 1189.0 547.9 1189.0 547.9 Z M 1188.8 549.0 C 1189.3 548.6 1188.5 548.6 1188.3 548.7 C 1188.0 548.9 1188.6 549.2 1188.8 549.0 Z M 1188.5 544.8 C 1188.5 544.5 1187.6 544.1 1187.7 544.7 C 1187.7 545.2 1188.5 545.5 1188.5 544.8 Z M 1187.4 541.6 C 1187.5 541.7 1187.3 542.0 1187.2 541.9 C 1187.1 541.8 1187.3 541.5 1187.4 541.6 Z M 1186.9 546.3 C 1186.9 546.2 1187.0 546.4 1187.0 546.4 C 1186.8 546.4 1186.8 546.4 1186.9 546.3 Z M 1187.5 545.9 C 1187.5 546.0 1187.4 546.2 1187.4 546.4 C 1187.4 546.5 1187.3 546.1 1187.3 546.1 C 1187.3 546.0 1187.5 545.9 1187.5 545.9 Z M 1187.6 543.4 C 1187.5 543.5 1187.5 543.3 1187.5 543.2 C 1187.5 543.1 1187.7 543.3 1187.6 543.4 Z M 1187.4 544.0 C 1187.4 543.9 1187.5 543.9 1187.5 544.1 C 1187.5 544.2 1187.4 544.1 1187.4 544.0 Z M 1187.9 542.9 C 1188.0 543.2 1188.1 543.6 1187.8 543.5 C 1187.7 543.5 1187.8 542.4 1187.9 542.9 Z M 1187.9 542.9 " fill="#51A7F9"></path><image xlink:href="../../1E16A9FA-0340-4ADD-88D0-A2527F188A1D/assets/5F262D91C92BDD68532E8A4A226BC0AA.png" width="88.00" height="88.00" transform="matrix(1.00, 0.00, -0.00, -1.00, 1029.6, 583.8)" opacity="0.50"></image><path d="M 1101.0 568.2 C 1116.6 552.6 1116.6 527.4 1101.0 511.8 C 1085.3 496.3 1059.9 496.3 1044.3 511.8 C 1028.6 527.4 1028.6 552.6 1044.3 568.2 C 1059.9 583.7 1085.3 583.7 1101.0 568.2 Z M 1101.0 568.2 " fill="#EB5C56"></path><g><clipPath id="clip-67"><path d="M 1032.6 500.2 L 1112.7 500.2 L 1112.7 579.8 L 1032.6 579.8 Z M 1032.6 500.2 "></path></clipPath><g clip-path="url(#clip-67)"><text xml:space="preserve" font-family="Helvetica" font-size="16.0" fill="#FEFFFE" transform="matrix(1.00, 0.00, -0.00, -1.00, 1051.0, 535.0)">a</text><text xml:space="preserve" font-family="Helvetica" font-size="16.0" fill="#FEFFFE" transform="matrix(1.00, 0.00, -0.00, -1.00, 1059.9, 535.0)">r</text><text xml:space="preserve" font-family="Helvetica" font-size="16.0" fill="#FEFFFE" transform="matrix(1.00, 0.00, -0.00, -1.00, 1065.2, 535.0)">t</text><text xml:space="preserve" font-family="Helvetica" font-size="16.0" fill="#FEFFFE" transform="matrix(1.00, 0.00, -0.00, -1.00, 1069.7, 535.0)">i</text><text xml:space="preserve" font-family="Helvetica" font-size="16.0" fill="#FEFFFE" transform="matrix(1.00, 0.00, -0.00, -1.00, 1073.2, 535.0)">c</text><text xml:space="preserve" font-family="Helvetica" font-size="16.0" fill="#FEFFFE" transform="matrix(1.00, 0.00, -0.00, -1.00, 1081.2, 535.0)">l</text><text xml:space="preserve" font-family="Helvetica" font-size="16.0" fill="#FEFFFE" transform="matrix(1.00, 0.00, -0.00, -1.00, 1084.8, 535.0)">e</text></g></g><image xlink:href="../../1E16A9FA-0340-4ADD-88D0-A2527F188A1D/assets/17C46F5AD2BAC87F9108A8584506A830.png" width="86.00" height="86.00" transform="matrix(1.00, 0.00, -0.00, -1.00, 1210.1, 479.7)" opacity="0.50"></image><path d="M 1281.5 467.1 C 1297.2 451.5 1297.2 426.3 1281.5 410.7 C 1265.9 395.2 1240.5 395.2 1224.8 410.7 C 1209.2 426.3 1209.2 451.5 1224.8 467.1 C 1240.5 482.6 1265.9 482.6 1281.5 467.1 Z M 1281.5 467.1 " fill="#51A7F9"></path><g><clipPath id="clip-68"><path d="M 1213.1 399.0 L 1293.3 399.0 L 1293.3 478.7 L 1213.1 478.7 Z M 1213.1 399.0 "></path></clipPath><g clip-path="url(#clip-68)"><text xml:space="preserve" font-family="Helvetica" font-size="16.0" fill="#FEFFFE" transform="matrix(1.00, 0.00, -0.00, -1.00, 1226.0, 433.0)">ﬁ</text><text xml:space="preserve" font-family="Helvetica" font-size="16.0" fill="#FEFFFE" transform="matrix(1.00, 0.00, -0.00, -1.00, 1234.0, 433.0)">r</text><text xml:space="preserve" font-family="Helvetica" font-size="16.0" fill="#FEFFFE" transform="matrix(1.00, 0.00, -0.00, -1.00, 1239.3, 433.0)">s</text><text xml:space="preserve" font-family="Helvetica" font-size="16.0" fill="#FEFFFE" transform="matrix(1.00, 0.00, -0.00, -1.00, 1247.3, 433.0)">t</text><text xml:space="preserve" font-family="Helvetica" font-size="16.0" fill="#FEFFFE" transform="matrix(1.00, 0.00, -0.00, -1.00, 1251.8, 433.0)"> </text><text xml:space="preserve" font-family="Helvetica" font-size="16.0" fill="#FEFFFE" transform="matrix(1.00, 0.00, -0.00, -1.00, 1256.2, 433.0)">l</text><text xml:space="preserve" font-family="Helvetica" font-size="16.0" fill="#FEFFFE" transform="matrix(1.00, 0.00, -0.00, -1.00, 1259.8, 433.0)">i</text><text xml:space="preserve" font-family="Helvetica" font-size="16.0" fill="#FEFFFE" transform="matrix(1.00, 0.00, -0.00, -1.00, 1263.3, 433.0)">n</text><text xml:space="preserve" font-family="Helvetica" font-size="16.0" fill="#FEFFFE" transform="matrix(1.00, 0.00, -0.00, -1.00, 1272.2, 433.0)">k</text></g></g><path d="M 1126.9 438.0 C 1126.7 438.1 1126.5 437.6 1125.9 437.4 C 1125.3 437.3 1124.5 437.2 1124.7 437.5 C 1124.8 437.9 1125.0 438.1 1124.7 438.5 C 1124.4 438.9 1124.0 439.6 1124.5 439.8 C 1124.9 440.1 1126.6 440.8 1127.1 440.4 C 1127.6 440.1 1127.8 439.9 1128.2 439.7 C 1128.6 439.4 1128.3 440.2 1128.3 440.2 C 1128.3 440.2 1129.2 440.3 1129.9 440.4 C 1130.6 440.4 1131.4 440.5 1131.4 440.3 C 1131.5 440.2 1131.7 439.9 1131.7 439.9 C 1131.7 439.9 1132.1 440.3 1132.6 440.4 C 1133.1 440.4 1132.9 440.2 1132.8 440.0 C 1132.8 439.8 1132.2 439.3 1132.4 439.3 C 1132.6 439.3 1133.2 440.1 1133.6 440.2 C 1133.9 440.3 1134.7 440.2 1134.7 440.2 C 1134.7 440.2 1134.7 439.8 1134.7 439.7 C 1134.8 439.6 1135.6 439.5 1135.6 439.7 C 1135.6 439.8 1135.6 440.3 1136.0 440.4 C 1137.2 440.4 1137.0 439.6 1137.1 439.5 C 1137.2 439.5 1137.2 440.2 1137.5 440.3 C 1137.8 440.4 1140.2 440.3 1140.3 440.1 C 1140.4 440.0 1141.2 440.6 1141.6 440.2 C 1142.0 439.7 1142.1 439.6 1142.1 439.5 C 1142.2 439.4 1142.7 438.7 1142.9 439.0 C 1143.1 439.2 1142.2 440.0 1142.4 440.2 C 1142.7 440.4 1144.2 440.5 1144.5 440.3 C 1144.8 440.0 1144.9 439.3 1145.2 439.3 C 1145.4 439.3 1146.2 440.2 1146.3 440.0 C 1146.4 439.9 1146.5 439.2 1146.5 439.0 C 1146.5 438.9 1146.7 437.7 1146.6 437.5 C 1146.4 437.3 1145.5 436.9 1145.6 437.2 C 1145.7 437.6 1145.9 438.0 1145.6 438.2 C 1145.3 438.3 1145.1 438.4 1145.0 438.2 C 1145.0 438.1 1145.2 437.9 1144.6 437.7 C 1144.1 437.5 1144.4 437.2 1143.9 437.2 C 1143.4 437.2 1142.9 437.3 1143.0 437.6 C 1143.0 437.9 1142.5 438.3 1142.1 438.2 C 1141.8 438.2 1142.4 437.6 1141.3 437.4 C 1140.1 437.1 1139.4 437.1 1139.1 437.3 C 1138.8 437.5 1138.7 438.3 1138.2 437.9 C 1137.7 437.6 1138.0 437.4 1137.2 437.4 C 1136.5 437.5 1136.2 438.0 1135.8 438.1 C 1135.3 438.1 1135.2 438.1 1135.2 438.1 C 1135.2 438.1 1135.4 437.2 1134.4 437.2 C 1133.4 437.2 1133.2 437.1 1133.4 437.7 C 1133.6 438.3 1132.8 438.3 1132.8 437.9 C 1132.7 437.5 1132.1 437.3 1131.8 437.2 C 1131.4 437.2 1131.3 438.2 1131.2 438.2 C 1131.0 438.2 1130.6 438.2 1130.8 437.8 C 1130.9 437.5 1130.5 437.5 1130.2 437.3 C 1129.9 437.2 1129.0 437.3 1129.0 437.5 C 1129.0 437.7 1129.4 438.3 1128.8 438.0 C 1128.2 437.7 1128.0 437.2 1127.4 437.2 C 1126.8 437.2 1127.3 437.8 1126.9 438.0 C 1126.9 438.0 1126.9 438.0 1126.9 438.0 Z M 1146.9 437.2 C 1145.8 437.2 1146.6 439.9 1147.0 440.4 C 1147.4 440.9 1148.2 440.6 1148.9 440.7 C 1149.6 440.8 1149.4 439.9 1149.8 439.7 C 1150.2 439.5 1150.1 440.0 1150.3 440.4 C 1150.4 440.8 1151.6 440.4 1152.3 440.5 C 1152.9 440.5 1153.6 439.6 1154.2 439.6 C 1154.7 439.5 1153.7 439.1 1154.7 439.2 C 1155.7 439.2 1155.2 439.7 1154.1 440.0 C 1152.9 440.2 1154.5 440.5 1155.1 440.6 C 1155.7 440.7 1156.8 440.3 1157.2 440.3 C 1157.7 440.4 1157.1 439.7 1157.8 439.7 C 1158.5 439.8 1158.2 440.4 1158.9 440.5 C 1159.6 440.6 1159.5 440.0 1159.9 439.9 C 1160.2 439.7 1160.2 440.1 1160.5 440.1 C 1160.8 440.2 1161.3 440.4 1161.9 440.2 C 1162.6 440.1 1162.4 439.9 1162.7 439.9 C 1163.0 439.8 1163.6 439.8 1163.6 439.8 C 1163.6 440.0 1163.7 440.3 1163.7 440.5 C 1163.7 440.5 1164.9 440.5 1165.3 440.6 C 1165.7 440.6 1166.5 440.3 1166.3 440.2 C 1166.0 440.0 1166.9 439.6 1167.1 439.7 C 1167.2 439.8 1167.9 440.1 1168.3 440.3 C 1168.7 440.4 1168.6 438.7 1168.6 438.5 C 1168.6 438.2 1168.8 437.3 1168.5 437.2 C 1168.1 437.1 1167.8 437.5 1167.9 437.2 C 1167.9 437.0 1166.8 437.2 1166.5 437.2 C 1166.2 437.2 1165.8 437.8 1165.8 437.8 C 1165.8 437.8 1165.5 438.4 1165.1 438.4 C 1164.6 438.4 1164.4 437.3 1164.4 437.3 C 1164.4 437.3 1163.8 437.1 1163.2 437.2 C 1162.6 437.2 1161.9 438.1 1161.8 438.3 C 1161.6 438.5 1161.7 437.7 1161.2 437.6 C 1160.8 437.5 1160.2 437.2 1160.0 437.3 C 1159.8 437.3 1159.5 437.8 1159.5 437.8 C 1159.5 437.8 1158.7 438.2 1158.5 438.2 C 1158.3 438.2 1158.7 437.4 1158.7 437.4 C 1158.7 437.4 1157.0 437.2 1156.7 437.1 C 1156.3 437.0 1155.8 437.2 1155.5 437.3 C 1155.3 437.3 1154.9 438.3 1154.6 438.2 C 1154.2 438.1 1154.9 437.6 1154.6 437.5 C 1154.2 437.4 1153.5 437.2 1153.3 437.2 C 1153.2 437.2 1152.9 437.6 1152.6 437.6 C 1152.3 437.7 1151.9 438.4 1151.4 438.4 C 1150.9 438.4 1150.7 437.9 1150.5 437.8 C 1150.3 437.7 1150.2 437.1 1149.8 437.1 C 1149.4 437.1 1149.7 437.5 1149.3 437.5 C 1149.0 437.5 1149.0 438.0 1148.6 437.9 C 1148.2 437.8 1148.4 437.0 1148.0 437.1 C 1147.9 437.2 1148.0 437.1 1146.9 437.2 C 1146.9 437.2 1146.9 437.2 1146.9 437.2 Z M 1169.4 437.3 C 1168.9 436.9 1168.4 437.4 1168.5 437.8 C 1168.5 438.1 1168.7 439.1 1168.5 439.4 C 1168.3 439.7 1167.7 440.4 1168.6 440.5 C 1169.6 440.6 1169.8 440.4 1169.8 440.1 C 1169.8 439.9 1169.9 438.9 1170.2 439.0 C 1170.4 439.1 1170.7 439.3 1170.7 439.5 C 1170.8 439.6 1171.2 440.6 1171.6 440.4 C 1172.1 440.3 1172.5 440.0 1172.5 440.0 C 1172.7 440.0 1172.9 440.0 1173.2 440.0 C 1173.2 440.0 1173.8 440.6 1174.3 440.4 C 1174.8 440.3 1175.3 440.3 1175.7 440.4 C 1176.1 440.4 1176.4 440.3 1176.5 440.1 C 1176.6 439.8 1177.0 439.0 1177.0 439.0 C 1177.0 439.0 1177.6 438.8 1177.8 438.9 C 1178.1 439.1 1178.2 439.5 1178.1 439.7 C 1178.0 439.9 1178.1 440.4 1178.5 440.4 C 1178.8 440.5 1180.4 441.0 1180.7 440.7 C 1180.9 440.4 1180.9 440.1 1181.1 440.0 C 1181.2 439.9 1182.3 439.8 1182.4 440.1 C 1182.5 440.3 1182.4 440.8 1182.7 440.8 C 1183.0 440.7 1183.7 440.9 1183.7 440.7 C 1183.7 440.6 1183.9 440.4 1183.9 440.2 C 1183.9 439.9 1184.5 439.7 1184.6 439.5 C 1184.8 439.4 1185.3 439.3 1185.3 439.3 C 1185.5 439.5 1185.7 439.6 1185.9 439.8 C 1185.9 439.8 1185.5 440.3 1185.3 440.4 C 1185.1 440.5 1185.4 440.8 1185.6 440.9 C 1185.8 440.9 1187.0 440.8 1187.0 440.8 C 1187.0 440.4 1187.0 440.1 1187.1 439.7 C 1187.3 439.6 1187.6 439.5 1187.9 439.4 C 1187.9 439.4 1187.8 440.8 1188.4 440.8 C 1188.9 440.8 1189.6 440.8 1189.6 440.8 C 1189.6 440.8 1190.2 440.3 1190.3 440.2 C 1190.5 440.2 1190.5 439.0 1190.5 439.0 C 1190.5 438.5 1190.4 438.0 1190.4 437.6 C 1190.4 437.6 1189.7 437.1 1189.3 437.3 C 1189.0 437.5 1189.3 438.0 1189.2 438.2 C 1189.2 438.5 1188.6 438.7 1188.6 438.7 C 1188.3 438.4 1188.1 438.2 1187.8 437.9 C 1187.8 437.9 1187.6 437.7 1187.4 437.4 C 1187.1 437.2 1186.3 437.1 1186.0 437.2 C 1185.8 437.3 1185.5 437.6 1185.2 437.8 C 1184.9 438.0 1185.0 438.5 1184.6 438.1 C 1184.2 437.8 1184.0 437.4 1183.8 437.4 C 1183.7 437.4 1182.9 437.9 1182.9 437.9 C 1182.6 438.0 1182.4 438.1 1182.2 438.2 C 1182.2 438.2 1181.6 438.5 1181.5 438.2 C 1181.4 437.9 1180.2 438.2 1180.2 438.2 C 1180.2 438.2 1180.3 437.4 1180.0 437.3 C 1179.7 437.1 1179.2 436.9 1178.7 437.1 C 1178.2 437.2 1177.8 438.0 1177.8 438.0 C 1177.7 437.8 1177.5 437.6 1177.4 437.4 C 1176.9 437.3 1176.5 437.3 1176.0 437.2 C 1176.0 437.2 1174.9 437.3 1174.9 437.4 C 1174.9 437.5 1175.1 438.2 1175.0 438.4 C 1174.9 438.6 1174.4 438.8 1174.3 438.6 C 1174.3 438.4 1173.8 437.7 1173.8 437.7 C 1173.8 437.7 1173.3 437.3 1173.0 437.3 C 1172.7 437.2 1172.2 437.4 1172.1 437.6 C 1172.0 437.7 1171.5 438.2 1171.5 438.2 C 1171.3 438.0 1171.2 437.8 1171.1 437.6 C 1171.1 437.6 1170.2 437.9 1169.4 437.3 C 1169.4 437.3 1169.4 437.3 1169.4 437.3 Z M 1169.4 437.3 " fill="#51A7F9"></path><path d="M 1189.4 448.2 C 1189.3 448.6 1188.3 448.9 1189.0 448.2 C 1189.0 448.2 1189.5 448.0 1189.4 448.2 Z M 1191.1 447.2 C 1191.0 447.3 1190.9 447.3 1190.7 447.3 C 1190.4 447.1 1191.6 446.9 1191.1 447.2 Z M 1188.5 448.3 C 1188.4 448.4 1187.9 448.7 1187.9 448.5 C 1188.0 448.4 1188.5 448.3 1188.5 448.3 Z M 1192.2 445.6 C 1192.3 445.8 1191.7 446.1 1191.6 446.1 C 1191.2 446.1 1192.1 445.3 1192.2 445.6 Z M 1187.6 442.8 C 1187.6 442.7 1187.6 442.7 1187.6 442.7 C 1187.6 442.7 1187.7 442.8 1187.6 442.8 Z M 1200.2 441.3 C 1200.2 441.4 1199.9 441.4 1199.9 441.3 C 1199.8 441.1 1200.6 441.1 1200.2 441.3 Z M 1187.3 431.7 C 1187.3 431.7 1187.2 432.0 1187.1 431.9 C 1187.0 431.8 1187.2 431.7 1187.3 431.7 Z M 1187.1 431.8 C 1187.0 431.8 1186.9 431.6 1187.0 431.6 C 1187.2 431.7 1187.3 431.7 1187.1 431.8 Z M 1196.1 434.1 C 1196.1 434.1 1196.2 434.1 1196.1 434.2 C 1196.0 434.2 1195.9 434.0 1196.1 434.1 Z M 1195.7 434.1 C 1195.6 434.2 1195.5 433.9 1195.7 434.0 C 1195.8 434.0 1195.9 434.1 1195.7 434.1 Z M 1194.5 432.4 C 1194.6 432.4 1194.6 432.4 1194.5 432.5 C 1194.5 432.5 1194.4 432.3 1194.5 432.4 Z M 1186.9 436.3 C 1186.8 436.2 1186.9 435.9 1187.0 435.9 C 1187.2 435.9 1187.0 436.4 1186.9 436.3 Z M 1186.8 435.8 C 1186.6 435.9 1186.6 435.6 1186.7 435.7 C 1186.8 435.7 1186.9 435.8 1186.8 435.8 Z M 1187.0 437.2 C 1187.2 437.2 1187.2 437.6 1187.2 437.7 C 1187.1 437.8 1187.1 438.0 1187.0 438.1 C 1187.0 438.2 1186.8 437.2 1187.0 437.2 Z M 1187.2 440.2 C 1187.2 440.2 1187.1 440.2 1187.2 440.0 C 1187.2 439.9 1187.3 440.2 1187.2 440.2 Z M 1187.1 438.5 C 1187.0 438.5 1187.0 438.5 1187.1 438.4 C 1187.1 438.2 1187.2 438.5 1187.1 438.5 Z M 1195.6 444.1 C 1195.7 444.2 1195.2 444.4 1195.2 444.3 C 1195.1 444.3 1195.3 444.2 1195.2 444.3 C 1195.0 444.3 1195.1 443.8 1195.6 444.1 Z M 1192.0 446.6 C 1191.9 446.6 1191.9 446.6 1191.9 446.5 C 1191.9 446.5 1192.2 446.4 1192.0 446.6 Z M 1194.7 443.9 C 1194.8 444.0 1194.7 444.0 1194.6 444.0 C 1194.6 444.0 1194.7 443.9 1194.7 443.9 Z M 1195.0 443.7 C 1194.9 443.8 1194.6 443.8 1194.6 443.6 C 1194.6 443.4 1195.3 443.4 1195.0 443.7 Z M 1196.2 444.0 C 1196.1 444.0 1196.1 444.0 1196.1 443.9 C 1196.2 443.8 1196.2 444.0 1196.2 444.0 Z M 1194.2 445.4 C 1194.0 445.5 1194.0 445.5 1194.1 445.4 C 1194.1 445.3 1194.2 445.4 1194.2 445.4 Z M 1197.1 443.1 C 1197.1 443.1 1196.9 443.4 1196.7 443.2 C 1196.4 443.0 1197.0 443.1 1197.1 443.1 Z M 1198.4 441.9 C 1198.3 441.9 1198.2 441.8 1198.4 441.8 C 1198.5 441.8 1198.5 441.8 1198.4 441.9 Z M 1198.6 441.0 C 1198.8 441.0 1199.0 441.1 1198.7 441.2 C 1198.5 441.3 1198.4 441.1 1198.6 441.0 Z M 1198.4 441.3 C 1198.4 441.3 1198.5 441.2 1198.5 441.3 C 1198.5 441.3 1198.4 441.4 1198.4 441.3 Z M 1197.3 442.5 C 1197.3 442.6 1197.0 442.5 1197.2 442.4 C 1197.4 442.2 1197.4 442.3 1197.3 442.5 Z M 1186.9 444.3 C 1186.9 444.4 1186.8 444.4 1186.7 444.3 C 1186.6 444.3 1186.8 444.2 1186.9 444.3 Z M 1187.6 437.9 C 1187.4 438.0 1187.4 438.0 1187.5 437.8 C 1187.5 437.6 1187.6 437.9 1187.6 437.9 Z M 1187.9 433.9 C 1187.8 434.0 1187.8 433.9 1187.8 433.8 C 1187.9 433.6 1188.0 433.8 1187.9 433.9 Z M 1187.5 439.6 C 1187.5 439.6 1187.2 439.2 1187.5 439.0 C 1187.7 438.7 1187.8 439.4 1187.5 439.6 Z M 1190.8 443.5 C 1190.8 443.6 1190.7 443.6 1190.7 443.6 C 1190.7 443.5 1190.7 443.5 1190.8 443.5 Z M 1188.0 438.7 C 1188.1 438.8 1187.9 438.7 1187.8 438.7 C 1187.8 438.6 1188.0 438.5 1188.0 438.7 Z M 1187.6 434.6 C 1187.6 434.8 1187.3 434.7 1187.2 434.6 C 1186.9 434.3 1187.3 434.0 1187.5 433.8 C 1187.6 433.6 1187.7 434.5 1187.6 434.6 Z M 1187.5 445.3 C 1187.5 445.2 1187.6 445.1 1187.6 445.0 C 1187.5 445.0 1187.5 444.9 1187.6 444.9 C 1187.5 444.5 1187.2 444.2 1187.1 444.0 C 1186.8 443.4 1187.6 443.2 1187.6 442.8 C 1187.7 442.9 1187.7 443.0 1187.7 443.0 C 1188.0 443.2 1187.8 441.8 1187.8 441.7 C 1187.6 440.5 1187.5 441.9 1187.0 441.9 C 1186.9 441.9 1187.3 441.1 1187.3 441.1 C 1187.5 440.7 1187.1 440.6 1187.3 440.3 C 1187.4 440.2 1188.3 439.7 1188.1 439.5 C 1188.0 439.4 1188.1 439.0 1188.1 438.9 C 1188.1 438.7 1188.1 438.3 1187.8 438.5 C 1187.5 438.7 1187.3 438.7 1187.5 438.4 C 1187.7 438.2 1188.3 436.8 1187.6 436.9 C 1187.5 436.9 1187.3 437.2 1187.3 437.2 C 1187.2 436.8 1187.4 435.6 1187.1 435.3 C 1186.5 434.7 1187.5 435.5 1187.7 435.2 C 1188.0 434.6 1188.2 434.3 1188.1 433.6 C 1188.0 433.5 1188.0 432.8 1187.7 433.2 C 1187.4 433.4 1187.2 433.2 1187.2 433.6 C 1186.8 433.2 1187.5 432.9 1187.3 432.8 C 1187.1 432.6 1187.0 432.9 1187.1 432.6 C 1187.1 432.2 1187.0 432.3 1187.4 432.3 C 1187.5 432.2 1187.5 431.9 1187.5 431.9 C 1187.6 431.9 1187.6 431.9 1187.6 431.9 C 1187.6 431.6 1187.0 431.1 1187.1 431.0 C 1187.2 430.9 1187.7 431.1 1187.8 431.1 C 1187.8 431.0 1187.8 431.0 1187.8 431.0 C 1187.8 430.8 1187.5 430.5 1187.6 430.5 C 1187.6 430.4 1188.2 430.7 1188.1 430.5 C 1187.9 430.4 1188.1 429.6 1188.3 429.6 C 1188.5 429.6 1189.3 429.4 1189.3 429.2 C 1189.4 429.1 1189.8 429.4 1189.9 429.4 C 1190.0 429.5 1190.1 429.8 1190.1 429.9 C 1190.2 429.9 1190.5 430.0 1190.5 430.0 C 1190.5 430.0 1190.6 430.0 1190.9 430.2 C 1191.1 430.3 1191.2 430.6 1191.5 430.8 C 1191.7 431.1 1191.9 431.0 1192.2 431.1 C 1192.5 431.2 1192.5 431.8 1192.7 432.0 C 1192.9 432.2 1193.1 431.9 1193.4 432.0 C 1193.7 432.2 1193.9 432.3 1193.7 432.3 C 1193.6 432.3 1193.6 432.5 1193.7 432.5 C 1193.8 432.6 1194.1 432.9 1194.3 432.9 C 1194.4 432.9 1193.7 432.1 1194.8 432.8 C 1195.4 433.2 1195.5 433.8 1195.4 433.7 C 1195.0 433.5 1195.5 434.5 1195.6 434.4 C 1195.7 434.2 1196.6 434.8 1196.6 434.4 C 1196.6 434.2 1197.6 434.7 1197.7 434.8 C 1197.8 435.0 1198.3 435.1 1198.3 435.5 C 1198.2 435.7 1199.0 435.6 1199.1 435.7 C 1199.3 435.8 1200.0 436.3 1200.1 436.5 C 1200.2 436.6 1199.8 436.4 1199.7 436.3 C 1199.5 436.2 1199.4 435.9 1199.2 435.9 C 1199.0 435.8 1199.2 436.1 1199.4 436.3 C 1199.6 436.4 1199.6 436.6 1199.7 436.7 C 1199.8 436.7 1199.9 436.8 1200.0 437.0 C 1200.1 437.0 1200.2 437.0 1200.2 436.9 C 1200.3 436.8 1200.2 436.7 1200.3 436.7 C 1200.3 436.6 1200.5 436.6 1200.7 436.8 C 1201.0 436.9 1201.1 437.1 1201.4 437.3 C 1201.6 437.6 1201.8 437.6 1202.0 437.7 C 1202.2 437.8 1202.4 437.9 1202.4 438.0 C 1202.3 438.1 1202.0 438.0 1202.0 438.0 C 1201.9 438.0 1202.1 438.4 1202.2 438.5 C 1202.8 438.9 1202.0 439.1 1202.5 439.5 C 1202.8 439.7 1202.4 439.7 1202.1 439.8 C 1202.1 439.8 1202.1 439.9 1201.9 440.1 C 1201.9 440.2 1201.5 440.3 1201.4 440.4 C 1201.3 440.5 1200.6 441.1 1200.9 440.6 C 1201.0 440.6 1201.0 440.6 1201.0 440.5 C 1201.0 440.5 1201.0 440.5 1201.0 440.5 C 1201.0 440.5 1201.0 440.1 1201.0 440.1 C 1201.0 440.1 1201.0 440.5 1201.0 440.5 C 1200.8 440.4 1200.7 440.4 1200.6 440.4 C 1200.6 440.4 1200.6 440.4 1200.5 440.5 C 1200.5 440.5 1200.5 440.5 1200.5 440.5 C 1200.5 440.6 1200.5 440.6 1200.5 440.6 C 1200.6 440.7 1200.6 440.7 1200.5 440.7 C 1200.3 441.0 1199.6 441.1 1199.3 441.2 C 1199.6 440.2 1198.5 440.9 1198.1 441.2 C 1197.8 441.5 1198.3 442.2 1198.5 442.1 C 1198.2 442.3 1198.1 442.2 1197.8 442.1 C 1197.9 442.1 1197.3 441.8 1197.3 441.8 C 1196.5 441.9 1197.1 442.5 1196.9 442.6 C 1196.8 442.8 1196.6 442.9 1196.4 443.1 C 1196.3 443.3 1196.5 443.3 1196.5 443.4 C 1196.5 443.9 1195.7 443.5 1195.5 443.6 C 1195.6 443.5 1195.8 443.3 1195.8 443.1 C 1195.7 443.4 1195.4 443.1 1195.2 443.2 C 1195.0 443.2 1194.8 443.4 1194.6 443.5 C 1194.2 443.8 1193.9 444.0 1193.6 444.3 C 1193.7 444.3 1194.5 444.4 1194.6 444.4 C 1194.4 444.5 1194.0 444.5 1194.3 444.7 C 1194.8 445.1 1193.8 445.4 1193.6 445.4 C 1193.1 445.7 1192.9 446.4 1192.1 446.2 C 1192.1 446.2 1192.8 445.7 1192.7 445.6 C 1192.3 445.3 1192.0 445.2 1191.5 445.6 C 1191.5 445.7 1191.0 446.4 1191.0 446.4 C 1191.0 446.3 1192.2 446.9 1191.5 446.9 C 1191.3 446.9 1191.5 446.6 1191.2 446.6 C 1191.0 446.7 1190.7 446.9 1190.5 447.0 C 1190.4 447.1 1190.0 447.2 1190.0 447.2 C 1190.0 447.4 1190.1 447.6 1190.0 447.7 C 1189.9 447.9 1189.6 447.9 1189.6 447.7 C 1189.6 447.7 1189.5 447.7 1189.5 447.7 C 1189.5 447.7 1189.4 447.7 1189.4 447.6 C 1189.4 447.6 1189.2 447.7 1189.1 447.6 C 1189.1 447.6 1189.2 447.5 1189.4 447.5 C 1189.3 447.4 1189.3 447.4 1189.3 447.3 C 1189.1 447.5 1188.9 447.6 1188.9 447.6 C 1188.7 448.1 1188.8 448.2 1188.1 448.1 C 1187.6 448.0 1187.2 446.7 1187.4 445.9 C 1187.4 445.7 1187.4 445.5 1187.5 445.3 Z M 1200.3 437.4 C 1200.3 437.4 1200.2 437.4 1200.2 437.3 C 1200.2 437.4 1200.1 437.5 1200.1 437.6 C 1200.3 437.7 1200.1 437.4 1200.3 437.5 C 1200.5 437.7 1200.5 437.6 1200.3 437.4 Z M 1200.2 439.2 C 1200.3 439.2 1200.3 439.2 1200.2 439.1 C 1200.2 439.1 1200.2 439.2 1200.2 439.2 Z M 1200.5 440.0 C 1200.7 439.8 1200.2 439.7 1199.9 440.0 C 1200.2 440.0 1200.4 440.0 1200.5 440.0 Z M 1200.2 440.6 C 1200.2 440.6 1200.2 440.5 1200.1 440.5 C 1200.1 440.3 1199.9 440.6 1199.9 440.5 C 1199.9 440.4 1200.1 440.2 1199.9 440.2 C 1199.8 440.2 1199.8 440.2 1199.7 440.2 C 1199.7 440.2 1199.7 440.3 1199.7 440.3 C 1199.7 440.5 1200.0 440.7 1200.2 440.6 Z M 1198.9 437.3 C 1199.1 437.3 1199.0 437.2 1198.9 437.2 C 1198.8 437.2 1198.8 437.3 1198.9 437.3 Z M 1198.0 435.9 C 1198.1 436.0 1198.2 436.0 1198.2 435.9 C 1198.1 435.7 1197.9 435.7 1198.0 435.9 Z M 1196.0 437.9 C 1196.1 437.9 1196.1 437.9 1196.0 437.9 C 1195.9 437.8 1195.9 438.0 1196.0 437.9 Z M 1195.9 439.4 C 1195.9 439.5 1196.0 439.7 1196.1 439.6 C 1196.1 439.5 1196.0 439.4 1195.9 439.4 Z M 1196.1 436.0 C 1196.0 436.0 1196.0 436.1 1196.1 436.1 C 1196.2 436.1 1196.2 436.1 1196.1 436.0 Z M 1196.4 438.1 C 1196.3 437.9 1196.3 437.9 1196.2 438.0 C 1196.2 438.0 1196.2 438.2 1196.3 438.2 C 1196.5 438.3 1196.6 438.2 1196.4 438.1 Z M 1196.6 439.3 C 1196.2 439.5 1196.3 439.7 1196.7 439.4 C 1197.1 439.0 1196.8 439.2 1196.6 439.3 Z M 1197.2 434.8 C 1197.3 434.9 1197.5 435.0 1197.5 435.0 C 1197.5 435.0 1197.0 434.6 1197.2 434.8 Z M 1196.4 442.7 C 1196.6 442.6 1196.6 442.5 1196.4 442.5 C 1196.2 442.6 1196.3 442.8 1196.4 442.7 Z M 1195.7 442.1 C 1196.0 442.3 1196.3 442.2 1196.3 442.3 C 1196.2 442.2 1196.2 442.0 1196.2 441.9 C 1196.4 441.6 1196.9 441.7 1197.0 441.4 C 1197.1 441.1 1196.6 441.4 1196.5 441.4 C 1196.6 441.4 1196.6 441.3 1196.5 441.2 C 1196.4 441.2 1196.4 441.2 1196.3 441.3 C 1196.2 441.4 1195.4 441.8 1195.7 442.1 Z M 1195.7 438.5 C 1195.9 438.6 1196.0 438.5 1195.9 438.3 C 1195.8 438.2 1195.7 438.1 1195.6 438.1 C 1195.5 438.2 1195.6 438.5 1195.7 438.5 Z M 1195.6 437.4 C 1195.7 437.3 1195.7 437.3 1195.6 437.3 C 1195.3 437.2 1195.4 437.5 1195.6 437.4 Z M 1193.5 432.7 C 1193.4 432.7 1193.6 432.8 1193.6 432.8 C 1193.7 432.7 1193.6 432.7 1193.5 432.7 Z M 1193.6 434.5 C 1193.3 434.5 1193.5 434.7 1193.6 434.7 C 1193.7 434.7 1193.8 434.6 1193.6 434.5 Z M 1194.7 435.6 C 1194.5 435.6 1194.7 435.8 1194.8 435.8 C 1194.8 435.7 1194.8 435.7 1194.7 435.6 Z M 1194.8 436.4 C 1194.7 436.3 1194.7 436.5 1194.9 436.5 C 1195.0 436.5 1194.9 436.4 1194.8 436.4 Z M 1194.3 442.4 C 1194.3 442.4 1194.2 442.1 1194.0 442.4 C 1193.9 442.6 1193.9 442.6 1194.3 442.4 Z M 1194.8 440.3 C 1194.9 440.1 1195.1 439.9 1194.9 439.3 C 1194.7 438.7 1194.6 439.0 1194.5 439.4 C 1194.4 439.7 1194.1 438.7 1194.0 439.4 C 1193.9 439.7 1194.6 440.4 1194.8 440.3 Z M 1193.7 436.4 C 1193.9 436.8 1194.5 436.7 1194.2 436.5 C 1193.8 436.2 1193.5 436.1 1193.7 436.4 Z M 1193.7 436.2 C 1193.8 436.2 1193.7 436.1 1193.6 436.1 C 1193.5 436.0 1193.6 436.2 1193.7 436.2 Z M 1194.0 445.0 C 1194.5 444.5 1193.6 444.5 1193.6 444.5 C 1192.8 444.8 1193.4 445.6 1194.0 445.0 Z M 1187.9 432.2 C 1187.9 432.2 1187.9 432.3 1187.9 432.3 C 1187.9 432.3 1187.9 432.3 1187.9 432.3 C 1188.0 432.4 1188.2 432.2 1188.2 432.2 C 1188.1 432.1 1188.0 432.2 1187.9 432.2 Z M 1187.8 436.1 C 1187.8 435.9 1187.8 435.8 1187.7 435.7 C 1187.3 435.8 1187.3 436.9 1187.9 436.5 C 1188.0 436.4 1188.5 435.7 1188.2 435.6 C 1188.1 435.6 1187.8 436.5 1187.8 436.1 Z M 1188.3 434.9 C 1188.2 435.3 1188.7 434.5 1188.5 434.6 C 1188.3 434.6 1188.3 434.7 1188.3 434.9 Z M 1189.3 431.5 C 1189.1 430.8 1188.2 431.0 1188.6 431.9 C 1189.1 432.9 1189.5 432.9 1189.4 432.4 C 1189.2 432.0 1189.7 432.4 1189.3 431.5 Z M 1189.3 436.5 C 1188.7 436.3 1188.8 436.6 1189.3 436.8 C 1189.4 436.9 1189.7 436.5 1189.3 436.5 Z M 1189.4 437.9 C 1189.4 438.0 1189.4 438.0 1189.5 437.9 C 1189.6 437.8 1189.5 437.7 1189.4 437.9 Z M 1190.2 430.5 C 1190.1 430.2 1189.9 430.1 1190.0 430.1 C 1190.2 430.0 1190.1 430.0 1190.0 429.9 C 1189.9 429.7 1189.9 430.0 1189.9 430.2 C 1189.9 430.3 1190.3 430.7 1190.2 430.5 Z M 1192.5 435.8 C 1192.4 435.8 1192.4 435.9 1192.5 435.9 C 1192.6 435.9 1192.6 435.9 1192.5 435.8 Z M 1193.2 441.1 C 1193.2 441.1 1193.1 441.0 1193.0 441.1 C 1193.0 441.2 1193.0 441.2 1193.2 441.1 Z M 1192.9 445.4 C 1193.0 445.3 1192.8 445.2 1192.8 445.0 C 1192.8 444.9 1192.9 445.1 1193.0 445.1 C 1192.9 445.0 1192.9 444.5 1192.6 444.9 C 1192.6 445.0 1192.7 445.6 1192.9 445.4 Z M 1192.3 437.3 C 1192.5 437.5 1192.7 436.6 1192.8 436.8 C 1193.0 436.9 1193.0 436.8 1192.8 436.6 C 1192.6 436.4 1192.1 437.1 1192.3 437.3 Z M 1192.1 435.0 C 1192.2 435.2 1192.6 435.6 1192.5 435.3 C 1192.4 435.1 1192.1 434.9 1192.3 434.9 C 1192.5 434.9 1192.4 434.9 1192.3 434.7 C 1192.1 434.6 1192.1 434.9 1192.1 435.0 Z M 1192.0 431.3 C 1192.0 431.3 1192.3 431.5 1192.2 431.3 C 1192.1 431.2 1191.9 431.2 1192.0 431.3 Z M 1191.8 441.7 C 1191.8 441.6 1191.8 441.5 1191.6 441.7 C 1191.4 441.8 1191.7 441.9 1191.8 441.7 Z M 1191.4 431.6 C 1191.6 431.8 1191.4 431.5 1191.6 431.6 C 1191.8 431.8 1191.8 431.7 1191.6 431.5 C 1191.4 431.3 1191.2 431.4 1191.4 431.6 Z M 1191.2 445.2 C 1191.2 445.1 1191.1 444.9 1191.1 445.0 C 1191.0 445.1 1191.1 445.3 1191.2 445.2 Z M 1190.6 443.8 C 1190.7 443.7 1190.8 443.7 1190.8 443.7 C 1191.7 443.0 1190.0 443.5 1190.6 443.8 Z M 1190.8 441.6 C 1190.8 441.9 1191.0 441.5 1191.0 441.5 C 1190.9 441.5 1190.8 441.5 1190.8 441.6 Z M 1190.7 439.2 C 1190.6 439.2 1190.7 439.4 1190.8 439.4 C 1190.9 439.3 1190.8 439.3 1190.7 439.2 Z M 1190.3 446.9 C 1190.5 446.9 1190.4 446.8 1190.3 446.8 C 1190.2 446.8 1190.2 446.9 1190.3 446.9 Z M 1190.2 441.0 C 1190.3 441.0 1190.3 441.0 1190.3 440.9 C 1190.2 440.8 1190.2 440.9 1190.2 441.0 Z M 1190.2 433.7 C 1190.3 433.8 1190.3 433.8 1190.4 433.9 C 1190.5 433.8 1190.5 433.4 1190.7 433.4 C 1190.7 433.4 1190.7 433.4 1190.7 433.4 C 1190.7 433.4 1190.7 433.4 1190.8 433.4 C 1190.8 433.4 1190.9 433.5 1190.8 433.5 C 1190.9 433.5 1190.9 433.6 1190.9 433.7 C 1191.1 433.6 1191.1 433.4 1191.0 433.3 C 1190.9 433.2 1190.6 433.1 1190.3 433.1 C 1190.3 433.2 1190.2 433.3 1190.2 433.4 C 1190.2 433.4 1190.2 433.4 1190.2 433.4 C 1190.4 433.5 1190.5 433.6 1190.4 433.6 C 1190.3 433.6 1190.2 433.6 1190.2 433.6 C 1190.2 433.6 1190.2 433.7 1190.2 433.7 Z M 1189.9 440.1 C 1190.0 440.2 1190.1 440.1 1190.1 439.9 C 1190.2 439.7 1189.8 439.9 1189.9 440.1 Z M 1190.1 446.6 C 1190.1 446.5 1190.0 446.5 1190.0 446.4 C 1190.0 446.5 1190.0 446.5 1190.0 446.5 C 1189.9 446.7 1189.9 446.8 1189.9 446.9 C 1190.0 446.9 1190.2 446.8 1190.1 446.6 Z M 1189.4 444.5 C 1189.4 444.6 1189.4 445.5 1189.6 445.3 C 1189.9 445.1 1190.2 445.4 1190.1 444.8 C 1190.0 444.5 1189.6 444.3 1189.5 444.0 C 1189.1 442.4 1189.1 444.4 1189.0 444.8 C 1189.0 444.9 1189.4 444.4 1189.4 444.5 Z M 1188.9 442.5 C 1188.8 442.5 1188.6 442.7 1188.6 442.8 C 1188.7 443.2 1189.1 442.6 1188.9 442.5 Z M 1188.7 446.8 C 1188.7 446.8 1188.8 446.8 1188.8 446.8 C 1188.8 446.8 1188.7 446.8 1188.7 446.7 C 1188.7 446.8 1188.7 446.8 1188.7 446.8 Z M 1188.6 447.9 C 1189.0 447.5 1188.2 447.5 1188.0 447.6 C 1187.7 447.7 1188.3 448.1 1188.6 447.9 Z M 1188.2 443.7 C 1188.3 443.4 1187.4 443.0 1187.4 443.6 C 1187.4 444.1 1188.2 444.4 1188.2 443.7 Z M 1187.1 440.5 C 1187.2 440.6 1187.0 440.9 1186.9 440.8 C 1186.8 440.7 1187.0 440.4 1187.1 440.5 Z M 1186.6 445.2 C 1186.7 445.1 1186.7 445.3 1186.7 445.3 C 1186.6 445.3 1186.6 445.3 1186.6 445.2 Z M 1187.3 444.8 C 1187.2 444.9 1187.1 445.1 1187.1 445.2 C 1187.1 445.3 1187.0 445.0 1187.0 445.0 C 1187.0 444.9 1187.2 444.8 1187.3 444.8 Z M 1187.3 442.3 C 1187.2 442.4 1187.2 442.2 1187.2 442.1 C 1187.3 442.0 1187.4 442.2 1187.3 442.3 Z M 1187.1 442.9 C 1187.1 442.8 1187.3 442.8 1187.2 442.9 C 1187.2 443.1 1187.1 443.0 1187.1 442.9 Z M 1187.6 441.8 C 1187.7 442.1 1187.8 442.4 1187.5 442.4 C 1187.4 442.4 1187.5 441.3 1187.6 441.8 Z M 1187.6 441.8 " fill="#51A7F9"></path><image xlink:href="../../1E16A9FA-0340-4ADD-88D0-A2527F188A1D/assets/5F262D91C92BDD68532E8A4A226BC0AA.png" width="88.00" height="88.00" transform="matrix(1.00, 0.00, -0.00, -1.00, 1029.3, 482.7)" opacity="0.50"></image><path d="M 1100.7 467.1 C 1116.3 451.5 1116.3 426.3 1100.7 410.7 C 1085.0 395.2 1059.7 395.2 1044.0 410.7 C 1028.4 426.3 1028.4 451.5 1044.0 467.1 C 1059.7 482.6 1085.0 482.6 1100.7 467.1 Z M 1100.7 467.1 " fill="#EB5C56"></path><g><clipPath id="clip-69"><path d="M 1032.3 399.0 L 1112.4 399.0 L 1112.4 478.7 L 1032.3 478.7 Z M 1032.3 399.0 "></path></clipPath><g clip-path="url(#clip-69)"><text xml:space="preserve" font-family="Helvetica" font-size="16.0" fill="#FEFFFE" transform="matrix(1.00, 0.00, -0.00, -1.00, 1051.0, 433.0)">a</text><text xml:space="preserve" font-family="Helvetica" font-size="16.0" fill="#FEFFFE" transform="matrix(1.00, 0.00, -0.00, -1.00, 1059.9, 433.0)">r</text><text xml:space="preserve" font-family="Helvetica" font-size="16.0" fill="#FEFFFE" transform="matrix(1.00, 0.00, -0.00, -1.00, 1065.2, 433.0)">t</text><text xml:space="preserve" font-family="Helvetica" font-size="16.0" fill="#FEFFFE" transform="matrix(1.00, 0.00, -0.00, -1.00, 1069.7, 433.0)">i</text><text xml:space="preserve" font-family="Helvetica" font-size="16.0" fill="#FEFFFE" transform="matrix(1.00, 0.00, -0.00, -1.00, 1073.2, 433.0)">c</text><text xml:space="preserve" font-family="Helvetica" font-size="16.0" fill="#FEFFFE" transform="matrix(1.00, 0.00, -0.00, -1.00, 1081.2, 433.0)">l</text><text xml:space="preserve" font-family="Helvetica" font-size="16.0" fill="#FEFFFE" transform="matrix(1.00, 0.00, -0.00, -1.00, 1084.8, 433.0)">e</text></g></g><path d="M 0.0 0.0 L -266.4 -1775.8 L 11.5 -3628.4 L 277.9 -1852.6 Z M 0.0 0.0 " fill="none" stroke="#85878C" stroke-width="1.00" stroke-linecap="round" stroke-linejoin="round" transform="matrix(-0.71, -0.71, -0.11, 0.11, 991.0, 590.4)"></path><image xlink:href="../../1E16A9FA-0340-4ADD-88D0-A2527F188A1D/assets/17C46F5AD2BAC87F9108A8584506A830.png" width="86.00" height="86.00" transform="matrix(1.00, 0.00, -0.00, -1.00, 1210.2, 378.6)" opacity="0.50"></image><path d="M 1281.7 366.0 C 1297.3 350.4 1297.3 325.2 1281.7 309.6 C 1266.0 294.0 1240.6 294.0 1225.0 309.6 C 1209.3 325.2 1209.3 350.4 1225.0 366.0 C 1240.6 381.5 1266.0 381.5 1281.7 366.0 Z M 1281.7 366.0 " fill="#51A7F9"></path><g><clipPath id="clip-70"><path d="M 1213.2 297.9 L 1293.4 297.9 L 1293.4 377.6 L 1213.2 377.6 Z M 1213.2 297.9 "></path></clipPath><g clip-path="url(#clip-70)"><text xml:space="preserve" font-family="Helvetica" font-size="16.0" fill="#FEFFFE" transform="matrix(1.00, 0.00, -0.00, -1.00, 1226.0, 332.0)">ﬁ</text><text xml:space="preserve" font-family="Helvetica" font-size="16.0" fill="#FEFFFE" transform="matrix(1.00, 0.00, -0.00, -1.00, 1234.0, 332.0)">r</text><text xml:space="preserve" font-family="Helvetica" font-size="16.0" fill="#FEFFFE" transform="matrix(1.00, 0.00, -0.00, -1.00, 1239.3, 332.0)">s</text><text xml:space="preserve" font-family="Helvetica" font-size="16.0" fill="#FEFFFE" transform="matrix(1.00, 0.00, -0.00, -1.00, 1247.3, 332.0)">t</text><text xml:space="preserve" font-family="Helvetica" font-size="16.0" fill="#FEFFFE" transform="matrix(1.00, 0.00, -0.00, -1.00, 1251.8, 332.0)"> </text><text xml:space="preserve" font-family="Helvetica" font-size="16.0" fill="#FEFFFE" transform="matrix(1.00, 0.00, -0.00, -1.00, 1256.2, 332.0)">l</text><text xml:space="preserve" font-family="Helvetica" font-size="16.0" fill="#FEFFFE" transform="matrix(1.00, 0.00, -0.00, -1.00, 1259.8, 332.0)">i</text><text xml:space="preserve" font-family="Helvetica" font-size="16.0" fill="#FEFFFE" transform="matrix(1.00, 0.00, -0.00, -1.00, 1263.3, 332.0)">n</text><text xml:space="preserve" font-family="Helvetica" font-size="16.0" fill="#FEFFFE" transform="matrix(1.00, 0.00, -0.00, -1.00, 1272.2, 332.0)">k</text></g></g><path d="M 1127.1 336.9 C 1126.8 337.0 1126.6 336.5 1126.0 336.3 C 1125.4 336.1 1124.7 336.1 1124.8 336.4 C 1125.0 336.8 1125.2 337.0 1124.9 337.4 C 1124.5 337.8 1124.2 338.5 1124.6 338.7 C 1125.0 339.0 1126.7 339.7 1127.2 339.3 C 1127.8 339.0 1127.9 338.8 1128.3 338.6 C 1128.7 338.3 1128.5 339.1 1128.5 339.1 C 1128.5 339.1 1129.4 339.2 1130.0 339.3 C 1130.7 339.3 1131.5 339.4 1131.6 339.2 C 1131.6 339.1 1131.9 338.8 1131.9 338.8 C 1131.9 338.8 1132.2 339.2 1132.7 339.3 C 1133.2 339.3 1133.1 339.1 1133.0 338.9 C 1132.9 338.7 1132.3 338.2 1132.5 338.2 C 1132.7 338.2 1133.4 339.0 1133.7 339.1 C 1134.1 339.2 1134.9 339.1 1134.9 339.1 C 1134.9 339.1 1134.8 338.7 1134.9 338.6 C 1134.9 338.5 1135.7 338.4 1135.8 338.6 C 1135.8 338.7 1135.7 339.2 1136.1 339.2 C 1137.3 339.3 1137.2 338.4 1137.3 338.4 C 1137.4 338.4 1137.4 339.1 1137.7 339.2 C 1138.0 339.3 1140.3 339.2 1140.5 339.0 C 1140.6 338.9 1141.4 339.5 1141.7 339.0 C 1142.1 338.6 1142.2 338.5 1142.3 338.4 C 1142.3 338.3 1142.8 337.6 1143.0 337.9 C 1143.2 338.1 1142.3 338.9 1142.6 339.1 C 1142.9 339.3 1144.4 339.4 1144.6 339.1 C 1145.0 338.9 1145.1 338.2 1145.3 338.2 C 1145.5 338.2 1146.4 339.1 1146.4 338.9 C 1146.5 338.8 1146.6 338.1 1146.6 337.9 C 1146.6 337.8 1146.9 336.5 1146.7 336.4 C 1146.5 336.2 1145.6 335.7 1145.7 336.1 C 1145.9 336.5 1146.1 336.9 1145.8 337.1 C 1145.4 337.2 1145.3 337.3 1145.2 337.1 C 1145.1 337.0 1145.3 336.8 1144.8 336.6 C 1144.2 336.4 1144.5 336.1 1144.0 336.1 C 1143.5 336.1 1143.1 336.2 1143.1 336.5 C 1143.2 336.8 1142.6 337.2 1142.3 337.1 C 1141.9 337.1 1142.5 336.5 1141.4 336.3 C 1140.3 336.0 1139.6 336.0 1139.3 336.2 C 1138.9 336.4 1138.9 337.2 1138.3 336.8 C 1137.8 336.5 1138.1 336.3 1137.4 336.3 C 1136.7 336.4 1136.4 336.9 1135.9 337.0 C 1135.5 337.0 1135.3 337.0 1135.3 337.0 C 1135.3 337.0 1135.6 336.1 1134.6 336.1 C 1133.5 336.0 1133.3 336.0 1133.5 336.6 C 1133.7 337.2 1133.0 337.2 1132.9 336.8 C 1132.9 336.4 1132.3 336.2 1131.9 336.1 C 1131.6 336.1 1131.5 337.1 1131.3 337.1 C 1131.2 337.1 1130.8 337.1 1130.9 336.7 C 1131.1 336.4 1130.7 336.4 1130.4 336.2 C 1130.0 336.1 1129.1 336.2 1129.1 336.4 C 1129.1 336.5 1129.6 337.2 1128.9 336.9 C 1128.3 336.5 1128.1 336.0 1127.5 336.1 C 1126.9 336.1 1127.5 336.7 1127.1 336.9 C 1127.1 336.9 1127.1 336.9 1127.1 336.9 Z M 1147.1 336.1 C 1146.0 336.1 1146.7 338.7 1147.1 339.3 C 1147.6 339.8 1148.3 339.5 1149.0 339.6 C 1149.8 339.7 1149.5 338.8 1150.0 338.6 C 1150.4 338.4 1150.2 338.9 1150.4 339.3 C 1150.6 339.7 1151.7 339.3 1152.4 339.4 C 1153.1 339.4 1153.8 338.5 1154.3 338.5 C 1154.9 338.4 1153.9 338.0 1154.8 338.1 C 1155.8 338.1 1155.3 338.6 1154.2 338.9 C 1153.1 339.1 1154.6 339.4 1155.3 339.5 C 1155.9 339.6 1156.9 339.2 1157.4 339.2 C 1157.9 339.3 1157.3 338.6 1158.0 338.6 C 1158.7 338.6 1158.3 339.3 1159.0 339.4 C 1159.8 339.5 1159.7 338.9 1160.0 338.7 C 1160.4 338.6 1160.3 339.0 1160.6 339.0 C 1160.9 339.1 1161.4 339.3 1162.1 339.1 C 1162.8 339.0 1162.6 338.8 1162.9 338.7 C 1163.2 338.7 1163.7 338.7 1163.7 338.7 C 1163.8 338.9 1163.8 339.1 1163.9 339.4 C 1163.9 339.4 1165.1 339.4 1165.4 339.5 C 1165.8 339.5 1166.6 339.2 1166.4 339.1 C 1166.2 338.9 1167.0 338.5 1167.2 338.6 C 1167.4 338.7 1168.0 339.0 1168.4 339.2 C 1168.8 339.3 1168.7 337.6 1168.7 337.4 C 1168.7 337.1 1169.0 336.2 1168.6 336.1 C 1168.2 336.0 1167.9 336.3 1168.0 336.1 C 1168.1 335.9 1167.0 336.1 1166.7 336.1 C 1166.4 336.1 1166.0 336.7 1166.0 336.7 C 1166.0 336.7 1165.7 337.3 1165.2 337.3 C 1164.7 337.3 1164.5 336.2 1164.5 336.2 C 1164.5 336.2 1163.9 336.0 1163.3 336.1 C 1162.7 336.1 1162.0 337.0 1161.9 337.2 C 1161.8 337.4 1161.8 336.6 1161.4 336.5 C 1160.9 336.4 1160.3 336.1 1160.1 336.2 C 1160.0 336.2 1159.6 336.7 1159.6 336.7 C 1159.6 336.7 1158.9 337.1 1158.7 337.1 C 1158.5 337.1 1158.8 336.3 1158.8 336.3 C 1158.8 336.3 1157.1 336.1 1156.8 336.0 C 1156.5 335.9 1155.9 336.1 1155.7 336.2 C 1155.4 336.2 1155.1 337.2 1154.7 337.1 C 1154.3 337.0 1155.1 336.5 1154.7 336.4 C 1154.3 336.3 1153.7 336.1 1153.5 336.1 C 1153.3 336.1 1153.1 336.4 1152.8 336.5 C 1152.5 336.5 1152.0 337.3 1151.5 337.3 C 1151.1 337.3 1150.8 336.8 1150.6 336.7 C 1150.4 336.6 1150.3 336.0 1149.9 336.0 C 1149.5 336.0 1149.8 336.4 1149.5 336.4 C 1149.1 336.4 1149.1 336.9 1148.7 336.8 C 1148.4 336.7 1148.6 335.9 1148.2 336.0 C 1148.0 336.1 1148.2 336.0 1147.1 336.1 C 1147.1 336.1 1147.1 336.1 1147.1 336.1 Z M 1169.5 336.2 C 1169.0 335.8 1168.5 336.3 1168.6 336.7 C 1168.7 337.0 1168.8 338.0 1168.7 338.3 C 1168.5 338.5 1167.9 339.2 1168.8 339.4 C 1169.7 339.5 1169.9 339.2 1169.9 339.0 C 1169.9 338.8 1170.1 337.8 1170.3 337.9 C 1170.6 337.9 1170.8 338.2 1170.9 338.4 C 1170.9 338.5 1171.3 339.5 1171.7 339.3 C 1172.2 339.2 1172.6 338.9 1172.6 338.9 C 1172.8 338.9 1173.1 338.9 1173.3 338.9 C 1173.3 338.9 1173.9 339.5 1174.4 339.3 C 1174.9 339.2 1175.5 339.2 1175.8 339.2 C 1176.2 339.3 1176.6 339.2 1176.6 339.0 C 1176.7 338.7 1177.2 337.9 1177.2 337.9 C 1177.2 337.9 1177.7 337.7 1178.0 337.8 C 1178.2 337.9 1178.3 338.4 1178.2 338.6 C 1178.2 338.8 1178.2 339.2 1178.6 339.3 C 1179.0 339.4 1180.6 339.9 1180.8 339.6 C 1181.1 339.3 1181.0 339.0 1181.2 338.9 C 1181.4 338.8 1182.5 338.7 1182.5 339.0 C 1182.6 339.2 1182.6 339.7 1182.9 339.7 C 1183.2 339.6 1183.8 339.8 1183.8 339.6 C 1183.8 339.5 1184.0 339.3 1184.0 339.1 C 1184.0 338.8 1184.7 338.5 1184.8 338.4 C 1184.9 338.3 1185.4 338.2 1185.4 338.2 C 1185.6 338.4 1185.8 338.5 1186.0 338.7 C 1186.0 338.7 1185.6 339.2 1185.5 339.3 C 1185.3 339.4 1185.6 339.7 1185.8 339.8 C 1186.0 339.8 1187.1 339.7 1187.1 339.7 C 1187.2 339.3 1187.2 338.9 1187.2 338.6 C 1187.5 338.5 1187.8 338.4 1188.1 338.3 C 1188.1 338.3 1187.9 339.7 1188.5 339.7 C 1189.0 339.7 1189.7 339.7 1189.7 339.7 C 1189.7 339.7 1190.3 339.2 1190.5 339.1 C 1190.6 339.1 1190.7 337.9 1190.7 337.9 C 1190.6 337.4 1190.6 336.9 1190.5 336.5 C 1190.5 336.5 1189.9 336.0 1189.5 336.2 C 1189.1 336.4 1189.4 336.9 1189.4 337.1 C 1189.3 337.3 1188.7 337.6 1188.7 337.6 C 1188.5 337.3 1188.2 337.1 1188.0 336.8 C 1188.0 336.8 1187.7 336.6 1187.5 336.3 C 1187.3 336.1 1186.4 336.0 1186.1 336.1 C 1185.9 336.1 1185.6 336.5 1185.3 336.7 C 1185.0 336.9 1185.1 337.3 1184.7 337.0 C 1184.4 336.7 1184.2 336.3 1184.0 336.3 C 1183.8 336.3 1183.0 336.8 1183.0 336.8 C 1182.8 336.9 1182.5 337.0 1182.3 337.1 C 1182.3 337.1 1181.7 337.3 1181.6 337.1 C 1181.6 336.8 1180.3 337.1 1180.3 337.1 C 1180.3 337.1 1180.5 336.3 1180.1 336.1 C 1179.8 336.0 1179.3 335.8 1178.9 336.0 C 1178.4 336.1 1178.0 336.9 1178.0 336.9 C 1177.8 336.7 1177.7 336.5 1177.5 336.3 C 1177.1 336.2 1176.6 336.2 1176.1 336.1 C 1176.1 336.1 1175.1 336.1 1175.1 336.3 C 1175.1 336.4 1175.2 337.1 1175.1 337.3 C 1175.1 337.5 1174.5 337.7 1174.5 337.5 C 1174.4 337.3 1173.9 336.6 1173.9 336.6 C 1173.9 336.6 1173.5 336.2 1173.2 336.1 C 1172.9 336.1 1172.4 336.3 1172.2 336.5 C 1172.1 336.6 1171.6 337.1 1171.6 337.1 C 1171.5 336.9 1171.4 336.7 1171.2 336.5 C 1171.2 336.5 1170.4 336.8 1169.5 336.2 C 1169.5 336.2 1169.5 336.2 1169.5 336.2 Z M 1169.5 336.2 " fill="#51A7F9"></path><path d="M 1189.6 347.1 C 1189.5 347.5 1188.4 347.8 1189.1 347.1 C 1189.2 347.1 1189.6 346.9 1189.6 347.1 Z M 1191.2 346.1 C 1191.1 346.2 1191.0 346.2 1190.9 346.2 C 1190.5 346.0 1191.7 345.8 1191.2 346.1 Z M 1188.6 347.2 C 1188.6 347.3 1188.0 347.6 1188.1 347.4 C 1188.1 347.3 1188.6 347.2 1188.6 347.2 Z M 1192.4 344.5 C 1192.5 344.7 1191.9 345.0 1191.7 345.0 C 1191.4 345.0 1192.2 344.2 1192.4 344.5 Z M 1187.8 341.7 C 1187.8 341.6 1187.8 341.6 1187.8 341.5 C 1187.8 341.6 1187.8 341.6 1187.8 341.7 Z M 1200.4 340.2 C 1200.3 340.3 1200.0 340.3 1200.0 340.2 C 1200.0 340.0 1200.7 340.0 1200.4 340.2 Z M 1187.5 330.6 C 1187.5 330.6 1187.3 330.9 1187.3 330.8 C 1187.2 330.7 1187.4 330.6 1187.5 330.6 Z M 1187.3 330.7 C 1187.1 330.7 1187.1 330.5 1187.2 330.5 C 1187.3 330.6 1187.4 330.6 1187.3 330.7 Z M 1196.2 333.0 C 1196.3 333.0 1196.4 333.0 1196.3 333.1 C 1196.2 333.1 1196.1 332.9 1196.2 333.0 Z M 1195.9 333.0 C 1195.7 333.1 1195.7 332.8 1195.8 332.9 C 1196.0 332.9 1196.0 333.0 1195.9 333.0 Z M 1194.6 331.3 C 1194.7 331.3 1194.8 331.3 1194.7 331.4 C 1194.6 331.4 1194.5 331.2 1194.6 331.3 Z M 1187.0 335.2 C 1186.9 335.1 1187.0 334.8 1187.2 334.8 C 1187.3 334.8 1187.1 335.3 1187.0 335.2 Z M 1186.9 334.7 C 1186.8 334.8 1186.8 334.5 1186.9 334.6 C 1187.0 334.6 1187.0 334.7 1186.9 334.7 Z M 1187.2 336.1 C 1187.4 336.1 1187.4 336.5 1187.3 336.6 C 1187.3 336.7 1187.2 336.9 1187.2 337.0 C 1187.1 337.1 1186.9 336.1 1187.2 336.1 Z M 1187.4 339.1 C 1187.3 339.1 1187.3 339.1 1187.3 338.9 C 1187.4 338.8 1187.4 339.1 1187.4 339.1 Z M 1187.3 337.4 C 1187.2 337.4 1187.1 337.4 1187.2 337.3 C 1187.3 337.1 1187.3 337.4 1187.3 337.4 Z M 1195.7 343.0 C 1195.9 343.1 1195.4 343.2 1195.3 343.2 C 1195.3 343.2 1195.4 343.1 1195.3 343.1 C 1195.2 343.2 1195.2 342.7 1195.7 343.0 Z M 1192.2 345.5 C 1192.1 345.5 1192.0 345.5 1192.0 345.4 C 1192.0 345.4 1192.4 345.3 1192.2 345.5 Z M 1194.9 342.8 C 1194.9 342.9 1194.8 342.9 1194.8 342.9 C 1194.8 342.8 1194.9 342.8 1194.9 342.8 Z M 1195.1 342.6 C 1195.0 342.7 1194.8 342.6 1194.7 342.5 C 1194.7 342.3 1195.4 342.3 1195.1 342.6 Z M 1196.3 342.9 C 1196.2 342.9 1196.2 342.9 1196.3 342.8 C 1196.3 342.7 1196.3 342.9 1196.3 342.9 Z M 1194.3 344.3 C 1194.2 344.4 1194.2 344.4 1194.2 344.3 C 1194.3 344.2 1194.3 344.3 1194.3 344.3 Z M 1197.2 342.0 C 1197.2 342.0 1197.0 342.3 1196.8 342.1 C 1196.5 341.8 1197.2 342.0 1197.2 342.0 Z M 1198.5 340.8 C 1198.4 340.8 1198.4 340.7 1198.5 340.7 C 1198.6 340.6 1198.6 340.7 1198.5 340.8 Z M 1198.8 339.9 C 1199.0 339.9 1199.2 340.0 1198.9 340.1 C 1198.6 340.2 1198.5 340.0 1198.8 339.9 Z M 1198.5 340.2 C 1198.5 340.2 1198.6 340.1 1198.7 340.2 C 1198.7 340.2 1198.6 340.3 1198.5 340.2 Z M 1197.5 341.4 C 1197.4 341.5 1197.2 341.4 1197.3 341.3 C 1197.5 341.1 1197.6 341.2 1197.5 341.4 Z M 1187.0 343.2 C 1187.1 343.3 1186.9 343.3 1186.8 343.2 C 1186.8 343.2 1187.0 343.1 1187.0 343.2 Z M 1187.7 336.8 C 1187.6 336.9 1187.6 336.9 1187.6 336.7 C 1187.7 336.5 1187.8 336.8 1187.7 336.8 Z M 1188.0 332.8 C 1187.9 332.9 1187.9 332.8 1188.0 332.7 C 1188.0 332.5 1188.1 332.7 1188.0 332.8 Z M 1187.7 338.5 C 1187.6 338.5 1187.3 338.1 1187.6 337.9 C 1187.9 337.6 1187.9 338.3 1187.7 338.5 Z M 1190.9 342.4 C 1191.0 342.5 1190.8 342.5 1190.8 342.5 C 1190.9 342.4 1190.9 342.4 1190.9 342.4 Z M 1188.2 337.6 C 1188.2 337.6 1188.0 337.6 1188.0 337.6 C 1187.9 337.5 1188.1 337.4 1188.2 337.6 Z M 1187.8 333.5 C 1187.7 333.7 1187.4 333.6 1187.4 333.5 C 1187.1 333.2 1187.4 332.9 1187.6 332.7 C 1187.7 332.5 1187.8 333.4 1187.8 333.5 Z M 1187.6 344.2 C 1187.7 344.1 1187.7 344.0 1187.7 343.9 C 1187.6 343.9 1187.7 343.8 1187.7 343.8 C 1187.7 343.4 1187.3 343.1 1187.2 342.9 C 1187.0 342.3 1187.8 342.1 1187.8 341.7 C 1187.8 341.8 1187.8 341.9 1187.9 341.9 C 1188.1 342.1 1188.0 340.7 1188.0 340.6 C 1187.8 339.4 1187.6 340.8 1187.2 340.8 C 1187.0 340.8 1187.5 340.0 1187.5 340.0 C 1187.7 339.6 1187.3 339.5 1187.4 339.2 C 1187.5 339.0 1188.4 338.6 1188.3 338.4 C 1188.2 338.3 1188.3 337.9 1188.3 337.8 C 1188.3 337.6 1188.3 337.2 1187.9 337.4 C 1187.7 337.6 1187.4 337.6 1187.7 337.3 C 1187.8 337.1 1188.4 335.7 1187.7 335.8 C 1187.7 335.8 1187.5 336.1 1187.5 336.1 C 1187.3 335.7 1187.5 334.5 1187.3 334.2 C 1186.6 333.6 1187.6 334.4 1187.8 334.1 C 1188.1 333.5 1188.3 333.2 1188.2 332.5 C 1188.2 332.4 1188.2 331.7 1187.8 332.0 C 1187.5 332.3 1187.4 332.1 1187.3 332.5 C 1187.0 332.0 1187.6 331.8 1187.5 331.7 C 1187.3 331.5 1187.2 331.8 1187.2 331.5 C 1187.3 331.1 1187.2 331.2 1187.5 331.2 C 1187.6 331.1 1187.7 330.8 1187.7 330.8 C 1187.7 330.8 1187.7 330.8 1187.8 330.8 C 1187.7 330.5 1187.1 330.0 1187.3 329.9 C 1187.4 329.8 1187.8 330.0 1187.9 330.0 C 1187.9 329.9 1188.0 329.9 1188.0 329.9 C 1187.9 329.7 1187.7 329.4 1187.7 329.4 C 1187.8 329.3 1188.4 329.6 1188.2 329.4 C 1188.0 329.2 1188.2 328.5 1188.4 328.5 C 1188.6 328.4 1189.4 328.3 1189.5 328.1 C 1189.5 328.0 1189.9 328.3 1190.0 328.3 C 1190.1 328.3 1190.2 328.7 1190.3 328.8 C 1190.3 328.8 1190.6 328.9 1190.6 328.9 C 1190.6 328.9 1190.8 328.9 1191.0 329.1 C 1191.3 329.2 1191.3 329.4 1191.6 329.7 C 1191.8 330.0 1192.1 329.9 1192.4 330.0 C 1192.6 330.1 1192.6 330.7 1192.8 330.9 C 1193.0 331.1 1193.2 330.7 1193.6 330.9 C 1193.9 331.0 1194.0 331.2 1193.9 331.2 C 1193.7 331.2 1193.8 331.4 1193.9 331.4 C 1193.9 331.5 1194.2 331.8 1194.4 331.8 C 1194.6 331.8 1193.8 331.0 1195.0 331.7 C 1195.5 332.1 1195.7 332.7 1195.5 332.6 C 1195.1 332.4 1195.6 333.4 1195.7 333.3 C 1195.9 333.1 1196.8 333.7 1196.7 333.3 C 1196.7 333.1 1197.8 333.6 1197.9 333.7 C 1198.0 333.9 1198.5 334.0 1198.4 334.4 C 1198.4 334.6 1199.1 334.5 1199.3 334.6 C 1199.4 334.7 1200.1 335.2 1200.2 335.4 C 1200.3 335.5 1200.0 335.3 1199.8 335.2 C 1199.6 335.1 1199.5 334.8 1199.3 334.8 C 1199.2 334.7 1199.4 335.0 1199.6 335.2 C 1199.7 335.3 1199.7 335.5 1199.8 335.6 C 1199.9 335.6 1200.0 335.7 1200.2 335.8 C 1200.3 335.9 1200.3 335.9 1200.4 335.8 C 1200.4 335.7 1200.4 335.6 1200.4 335.6 C 1200.5 335.5 1200.6 335.5 1200.9 335.7 C 1201.1 335.8 1201.3 336.0 1201.5 336.2 C 1201.8 336.5 1201.9 336.5 1202.1 336.6 C 1202.4 336.7 1202.5 336.8 1202.5 336.9 C 1202.5 337.0 1202.2 336.8 1202.1 336.9 C 1202.1 336.9 1202.3 337.3 1202.4 337.4 C 1202.9 337.8 1202.2 338.0 1202.7 338.4 C 1203.0 338.6 1202.5 338.6 1202.2 338.7 C 1202.3 338.7 1202.3 338.8 1202.0 339.0 C 1202.1 339.1 1201.7 339.2 1201.5 339.3 C 1201.4 339.4 1200.8 340.0 1201.1 339.5 C 1201.1 339.5 1201.1 339.4 1201.2 339.4 C 1201.2 339.4 1201.1 339.4 1201.1 339.4 C 1201.1 339.4 1201.2 339.0 1201.2 339.0 C 1201.2 339.0 1201.1 339.4 1201.1 339.4 C 1201.0 339.3 1200.8 339.3 1200.7 339.2 C 1200.7 339.3 1200.7 339.3 1200.7 339.4 C 1200.7 339.4 1200.7 339.4 1200.7 339.4 C 1200.7 339.4 1200.7 339.4 1200.7 339.4 C 1200.8 339.6 1200.7 339.6 1200.6 339.6 C 1200.4 339.9 1199.7 340.0 1199.4 340.1 C 1199.7 339.1 1198.6 339.8 1198.3 340.1 C 1197.9 340.4 1198.4 341.1 1198.6 341.0 C 1198.3 341.2 1198.2 341.1 1198.0 340.9 C 1198.0 341.0 1197.4 340.7 1197.5 340.7 C 1196.7 340.8 1197.2 341.4 1197.1 341.5 C 1197.0 341.7 1196.8 341.8 1196.6 342.0 C 1196.4 342.2 1196.7 342.2 1196.7 342.3 C 1196.6 342.7 1195.8 342.4 1195.6 342.5 C 1195.7 342.4 1195.9 342.2 1196.0 342.0 C 1195.9 342.3 1195.5 342.0 1195.4 342.0 C 1195.2 342.1 1194.9 342.3 1194.7 342.4 C 1194.4 342.7 1194.1 342.9 1193.7 343.2 C 1193.9 343.2 1194.7 343.3 1194.7 343.3 C 1194.6 343.4 1194.2 343.4 1194.5 343.6 C 1195.0 344.0 1193.9 344.3 1193.8 344.3 C 1193.3 344.6 1193.1 345.3 1192.3 345.1 C 1192.3 345.1 1192.9 344.5 1192.8 344.5 C 1192.4 344.2 1192.1 344.1 1191.7 344.5 C 1191.6 344.5 1191.1 345.3 1191.1 345.3 C 1191.1 345.2 1192.4 345.8 1191.6 345.8 C 1191.4 345.8 1191.6 345.5 1191.4 345.5 C 1191.1 345.6 1190.9 345.8 1190.6 345.9 C 1190.6 346.0 1190.1 346.0 1190.1 346.1 C 1190.1 346.2 1190.2 346.5 1190.1 346.6 C 1190.0 346.7 1189.8 346.7 1189.7 346.6 C 1189.7 346.6 1189.7 346.6 1189.7 346.5 C 1189.6 346.6 1189.6 346.5 1189.5 346.5 C 1189.5 346.5 1189.4 346.6 1189.3 346.5 C 1189.2 346.5 1189.4 346.4 1189.5 346.4 C 1189.5 346.3 1189.5 346.3 1189.4 346.2 C 1189.3 346.3 1189.1 346.5 1189.1 346.5 C 1188.9 347.0 1189.0 347.1 1188.3 347.0 C 1187.7 346.9 1187.4 345.6 1187.6 344.8 C 1187.5 344.6 1187.5 344.4 1187.6 344.2 Z M 1200.4 336.3 C 1200.4 336.3 1200.4 336.3 1200.4 336.2 C 1200.3 336.3 1200.3 336.4 1200.3 336.5 C 1200.4 336.6 1200.3 336.3 1200.5 336.4 C 1200.6 336.6 1200.6 336.5 1200.4 336.3 Z M 1200.3 338.1 C 1200.4 338.1 1200.4 338.1 1200.4 338.0 C 1200.3 338.0 1200.3 338.1 1200.3 338.1 Z M 1200.7 338.9 C 1200.9 338.7 1200.3 338.6 1200.0 338.9 C 1200.4 338.9 1200.6 338.9 1200.7 338.9 Z M 1200.3 339.5 C 1200.3 339.5 1200.3 339.4 1200.3 339.4 C 1200.3 339.2 1200.1 339.5 1200.1 339.4 C 1200.0 339.3 1200.2 339.1 1200.0 339.1 C 1200.0 339.1 1199.9 339.1 1199.9 339.1 C 1199.9 339.1 1199.8 339.2 1199.8 339.2 C 1199.8 339.4 1200.1 339.6 1200.3 339.5 Z M 1199.1 336.2 C 1199.2 336.2 1199.2 336.1 1199.1 336.1 C 1199.0 336.1 1199.0 336.2 1199.1 336.2 Z M 1198.2 334.7 C 1198.2 334.9 1198.4 334.9 1198.3 334.8 C 1198.3 334.6 1198.1 334.6 1198.2 334.7 Z M 1196.2 336.8 C 1196.3 336.8 1196.2 336.8 1196.1 336.8 C 1196.0 336.7 1196.1 336.9 1196.2 336.8 Z M 1196.1 338.3 C 1196.0 338.4 1196.2 338.6 1196.2 338.5 C 1196.2 338.4 1196.1 338.2 1196.1 338.3 Z M 1196.3 334.9 C 1196.1 334.9 1196.2 335.0 1196.3 335.0 C 1196.4 335.0 1196.4 335.0 1196.3 334.9 Z M 1196.6 337.0 C 1196.5 336.8 1196.4 336.8 1196.4 336.9 C 1196.3 336.9 1196.4 337.0 1196.5 337.1 C 1196.7 337.2 1196.7 337.1 1196.6 337.0 Z M 1196.7 338.2 C 1196.3 338.4 1196.4 338.6 1196.8 338.3 C 1197.2 337.9 1196.9 338.1 1196.7 338.2 Z M 1197.4 333.7 C 1197.4 333.8 1197.7 333.8 1197.7 333.8 C 1197.7 333.8 1197.2 333.5 1197.4 333.7 Z M 1196.6 341.6 C 1196.7 341.5 1196.7 341.4 1196.5 341.4 C 1196.3 341.5 1196.4 341.7 1196.6 341.6 Z M 1195.8 341.0 C 1196.1 341.2 1196.4 341.1 1196.4 341.1 C 1196.4 341.1 1196.3 340.9 1196.4 340.8 C 1196.6 340.5 1197.0 340.6 1197.1 340.3 C 1197.3 340.0 1196.7 340.3 1196.6 340.3 C 1196.7 340.3 1196.7 340.2 1196.7 340.1 C 1196.6 340.1 1196.5 340.1 1196.4 340.2 C 1196.4 340.3 1195.5 340.7 1195.8 341.0 Z M 1195.9 337.4 C 1196.0 337.5 1196.2 337.4 1196.0 337.2 C 1195.9 337.1 1195.8 337.0 1195.7 337.0 C 1195.7 337.1 1195.7 337.4 1195.9 337.4 Z M 1195.7 336.3 C 1195.9 336.2 1195.8 336.2 1195.7 336.2 C 1195.5 336.1 1195.6 336.4 1195.7 336.3 Z M 1193.7 331.6 C 1193.5 331.6 1193.8 331.7 1193.8 331.7 C 1193.8 331.6 1193.8 331.5 1193.7 331.6 Z M 1193.7 333.4 C 1193.4 333.4 1193.7 333.6 1193.7 333.6 C 1193.8 333.6 1193.9 333.5 1193.7 333.4 Z M 1194.8 334.5 C 1194.7 334.5 1194.8 334.7 1194.9 334.7 C 1195.0 334.6 1194.9 334.6 1194.8 334.5 Z M 1194.9 335.3 C 1194.8 335.2 1194.9 335.4 1195.0 335.4 C 1195.1 335.4 1195.1 335.3 1194.9 335.3 Z M 1194.4 341.3 C 1194.4 341.3 1194.3 341.0 1194.2 341.3 C 1194.1 341.5 1194.1 341.5 1194.4 341.3 Z M 1194.9 339.1 C 1195.1 339.0 1195.2 338.8 1195.0 338.2 C 1194.8 337.6 1194.7 337.9 1194.6 338.2 C 1194.5 338.6 1194.3 337.6 1194.1 338.3 C 1194.0 338.6 1194.7 339.3 1194.9 339.1 Z M 1193.8 335.3 C 1194.1 335.7 1194.6 335.6 1194.3 335.4 C 1194.0 335.1 1193.7 335.0 1193.8 335.3 Z M 1193.8 335.1 C 1193.9 335.1 1193.9 335.0 1193.8 335.0 C 1193.7 334.9 1193.7 335.0 1193.8 335.1 Z M 1194.1 343.9 C 1194.7 343.4 1193.8 343.4 1193.8 343.4 C 1193.0 343.7 1193.6 344.5 1194.1 343.9 Z M 1188.1 331.1 C 1188.1 331.1 1188.1 331.2 1188.1 331.2 C 1188.1 331.2 1188.1 331.2 1188.1 331.2 C 1188.2 331.3 1188.3 331.1 1188.3 331.1 C 1188.2 331.0 1188.1 331.1 1188.1 331.1 Z M 1187.9 335.0 C 1187.9 334.8 1187.9 334.7 1187.8 334.6 C 1187.5 334.7 1187.5 335.8 1188.1 335.4 C 1188.1 335.3 1188.7 334.6 1188.4 334.5 C 1188.2 334.4 1187.9 335.4 1187.9 335.0 Z M 1188.4 333.8 C 1188.4 334.2 1188.9 333.4 1188.6 333.5 C 1188.5 333.5 1188.4 333.6 1188.4 333.8 Z M 1189.5 330.4 C 1189.2 329.7 1188.3 329.9 1188.8 330.8 C 1189.3 331.8 1189.6 331.8 1189.5 331.3 C 1189.4 330.9 1189.8 331.2 1189.5 330.4 Z M 1189.5 335.4 C 1188.8 335.2 1189.0 335.5 1189.5 335.7 C 1189.6 335.8 1189.9 335.4 1189.5 335.4 Z M 1189.6 336.8 C 1189.5 336.9 1189.5 336.9 1189.6 336.8 C 1189.8 336.7 1189.6 336.6 1189.6 336.8 Z M 1190.4 329.4 C 1190.3 329.1 1190.0 329.0 1190.2 328.9 C 1190.3 328.9 1190.3 328.9 1190.1 328.8 C 1190.0 328.6 1190.0 328.9 1190.0 329.1 C 1190.0 329.2 1190.5 329.6 1190.4 329.4 Z M 1192.6 334.7 C 1192.5 334.7 1192.6 334.8 1192.7 334.8 C 1192.7 334.8 1192.7 334.8 1192.6 334.7 Z M 1193.3 340.0 C 1193.3 340.0 1193.3 339.9 1193.2 340.0 C 1193.1 340.1 1193.1 340.1 1193.3 340.0 Z M 1193.1 344.3 C 1193.2 344.2 1192.9 344.1 1192.9 343.9 C 1192.9 343.8 1193.1 343.9 1193.1 344.0 C 1193.1 343.9 1193.0 343.4 1192.8 343.8 C 1192.7 343.9 1192.8 344.5 1193.1 344.3 Z M 1192.4 336.2 C 1192.6 336.4 1192.8 335.5 1193.0 335.7 C 1193.1 335.8 1193.2 335.7 1193.0 335.5 C 1192.8 335.3 1192.2 335.9 1192.4 336.2 Z M 1192.3 333.9 C 1192.3 334.1 1192.8 334.4 1192.6 334.2 C 1192.5 334.0 1192.3 333.8 1192.4 333.8 C 1192.6 333.8 1192.5 333.8 1192.4 333.6 C 1192.3 333.5 1192.3 333.8 1192.3 333.9 Z M 1192.1 330.2 C 1192.2 330.2 1192.5 330.4 1192.3 330.2 C 1192.3 330.1 1192.1 330.1 1192.1 330.2 Z M 1191.9 340.6 C 1192.0 340.5 1191.9 340.4 1191.8 340.6 C 1191.6 340.7 1191.8 340.8 1191.9 340.6 Z M 1191.5 330.5 C 1191.7 330.7 1191.6 330.4 1191.7 330.5 C 1191.9 330.7 1191.9 330.6 1191.7 330.4 C 1191.5 330.2 1191.3 330.3 1191.5 330.5 Z M 1191.3 344.1 C 1191.3 344.0 1191.3 343.8 1191.2 343.9 C 1191.1 344.0 1191.3 344.1 1191.3 344.1 Z M 1190.8 342.6 C 1190.8 342.6 1190.9 342.6 1191.0 342.6 C 1191.9 341.9 1190.2 342.4 1190.8 342.6 Z M 1190.9 340.5 C 1191.0 340.8 1191.1 340.4 1191.1 340.4 C 1191.0 340.4 1190.9 340.4 1190.9 340.5 Z M 1190.9 338.1 C 1190.8 338.0 1190.8 338.3 1190.9 338.2 C 1191.0 338.2 1191.0 338.1 1190.9 338.1 Z M 1190.5 345.8 C 1190.6 345.7 1190.6 345.7 1190.5 345.7 C 1190.4 345.7 1190.3 345.8 1190.5 345.8 Z M 1190.4 339.9 C 1190.4 339.9 1190.5 339.9 1190.4 339.8 C 1190.4 339.7 1190.3 339.8 1190.4 339.9 Z M 1190.3 332.6 C 1190.4 332.7 1190.5 332.7 1190.5 332.8 C 1190.6 332.7 1190.7 332.3 1190.8 332.3 C 1190.9 332.3 1190.9 332.3 1190.9 332.3 C 1190.9 332.3 1190.9 332.3 1190.9 332.3 C 1191.0 332.3 1191.0 332.4 1191.0 332.4 C 1191.0 332.4 1191.0 332.5 1191.1 332.6 C 1191.2 332.5 1191.3 332.3 1191.2 332.2 C 1191.1 332.0 1190.7 332.0 1190.5 332.0 C 1190.4 332.1 1190.4 332.2 1190.4 332.3 C 1190.4 332.3 1190.4 332.3 1190.4 332.3 C 1190.6 332.4 1190.6 332.5 1190.5 332.5 C 1190.4 332.5 1190.4 332.5 1190.3 332.5 C 1190.3 332.5 1190.3 332.6 1190.3 332.6 Z M 1190.0 338.9 C 1190.1 339.1 1190.2 339.0 1190.3 338.8 C 1190.3 338.6 1189.9 338.8 1190.0 338.9 Z M 1190.2 345.5 C 1190.2 345.4 1190.2 345.4 1190.1 345.3 C 1190.1 345.4 1190.1 345.4 1190.1 345.4 C 1190.1 345.6 1190.1 345.7 1190.0 345.8 C 1190.2 345.8 1190.3 345.7 1190.2 345.5 Z M 1189.5 343.4 C 1189.6 343.5 1189.5 344.4 1189.7 344.2 C 1190.0 344.0 1190.4 344.3 1190.2 343.7 C 1190.2 343.4 1189.7 343.2 1189.6 342.9 C 1189.3 341.3 1189.2 343.3 1189.1 343.7 C 1189.1 343.7 1189.5 343.3 1189.5 343.4 Z M 1189.1 341.4 C 1188.9 341.4 1188.8 341.6 1188.8 341.7 C 1188.8 342.1 1189.3 341.5 1189.1 341.4 Z M 1188.9 345.7 C 1188.9 345.7 1188.9 345.7 1189.0 345.7 C 1188.9 345.7 1188.9 345.7 1188.8 345.6 C 1188.8 345.7 1188.8 345.7 1188.9 345.7 Z M 1188.7 346.8 C 1189.1 346.4 1188.3 346.4 1188.1 346.5 C 1187.8 346.6 1188.5 347.0 1188.7 346.8 Z M 1188.4 342.6 C 1188.4 342.3 1187.5 341.9 1187.5 342.5 C 1187.6 343.0 1188.3 343.2 1188.4 342.6 Z M 1187.2 339.4 C 1187.3 339.5 1187.2 339.8 1187.0 339.6 C 1187.0 339.5 1187.2 339.3 1187.2 339.4 Z M 1186.7 344.1 C 1186.8 344.0 1186.8 344.1 1186.8 344.1 C 1186.7 344.2 1186.7 344.2 1186.7 344.1 Z M 1187.4 343.7 C 1187.3 343.8 1187.3 344.0 1187.2 344.1 C 1187.2 344.2 1187.1 343.9 1187.1 343.9 C 1187.2 343.8 1187.4 343.7 1187.4 343.7 Z M 1187.5 341.1 C 1187.4 341.3 1187.4 341.1 1187.4 341.0 C 1187.4 340.9 1187.5 341.1 1187.5 341.1 Z M 1187.3 341.7 C 1187.3 341.7 1187.4 341.7 1187.4 341.8 C 1187.4 342.0 1187.2 341.8 1187.3 341.7 Z M 1187.8 340.7 C 1187.9 341.0 1187.9 341.3 1187.7 341.3 C 1187.6 341.3 1187.6 340.2 1187.8 340.7 Z M 1187.8 340.7 " fill="#51A7F9"></path><image xlink:href="../../1E16A9FA-0340-4ADD-88D0-A2527F188A1D/assets/5F262D91C92BDD68532E8A4A226BC0AA.png" width="88.00" height="88.00" transform="matrix(1.00, 0.00, -0.00, -1.00, 1029.4, 381.6)" opacity="0.50"></image><path d="M 1100.8 366.0 C 1116.5 350.4 1116.5 325.2 1100.8 309.6 C 1085.2 294.0 1059.8 294.0 1044.2 309.6 C 1028.5 325.2 1028.5 350.4 1044.2 366.0 C 1059.8 381.5 1085.2 381.5 1100.8 366.0 Z M 1100.8 366.0 " fill="#EB5C56"></path><g><clipPath id="clip-71"><path d="M 1032.4 297.9 L 1112.6 297.9 L 1112.6 377.6 L 1032.4 377.6 Z M 1032.4 297.9 "></path></clipPath><g clip-path="url(#clip-71)"><text xml:space="preserve" font-family="Helvetica" font-size="16.0" fill="#FEFFFE" transform="matrix(1.00, 0.00, -0.00, -1.00, 1051.0, 332.0)">a</text><text xml:space="preserve" font-family="Helvetica" font-size="16.0" fill="#FEFFFE" transform="matrix(1.00, 0.00, -0.00, -1.00, 1059.9, 332.0)">r</text><text xml:space="preserve" font-family="Helvetica" font-size="16.0" fill="#FEFFFE" transform="matrix(1.00, 0.00, -0.00, -1.00, 1065.2, 332.0)">t</text><text xml:space="preserve" font-family="Helvetica" font-size="16.0" fill="#FEFFFE" transform="matrix(1.00, 0.00, -0.00, -1.00, 1069.7, 332.0)">i</text><text xml:space="preserve" font-family="Helvetica" font-size="16.0" fill="#FEFFFE" transform="matrix(1.00, 0.00, -0.00, -1.00, 1073.2, 332.0)">c</text><text xml:space="preserve" font-family="Helvetica" font-size="16.0" fill="#FEFFFE" transform="matrix(1.00, 0.00, -0.00, -1.00, 1081.2, 332.0)">l</text><text xml:space="preserve" font-family="Helvetica" font-size="16.0" fill="#FEFFFE" transform="matrix(1.00, 0.00, -0.00, -1.00, 1084.8, 332.0)">e</text></g></g><path d="M 0.0 0.0 L 76.6 0.0 L 78.1 0.0 " fill="none" stroke="#A9A9A9" stroke-width="3.00" stroke-linecap="round" stroke-dasharray="0.0, 9.0" transform="matrix(1.00, 0.00, 0.00, -1.00, 1396.0, 547.1)"></path><path d="M 1472.7 540.5 L 1485.9 547.1 L 1472.7 553.7 Z M 1472.7 540.5 " fill="#A9A9A9"></path></g></svg>