<?xml version="1.0" encoding="UTF-8" standalone="no"?><svg xmlns="http://www.w3.org/2000/svg" xmlns:xlink="http://www.w3.org/1999/xlink" clip-rule="evenodd" stroke-miterlimit="4.00" viewBox="0 0 1920 1080"><desc>SVG generated by Keynote</desc><defs><pattern id="6FD5500D-B416-4354-A9AC-A2A28A60401C" patternUnits="userSpaceOnUse" width="540" height="540" viewBox="0 0 540 540" patternTransform="matrix(0.555556, 0.000000, 0.000000, -0.555556, 1146.168000, 317.363200)"><image xlink:href="../../A9A52B9C-8668-4C2E-9ACA-4FFFF59EDAF1/assets/BF3B3AD179BCF3F9DC8641406A1304C5.jpeg" width="540.00" height="540.00"></image></pattern></defs><g transform="matrix(1.00, 0.00, -0.00, -1.00, 0.0, 1080.0)"><path d="M 0.0 1080.0 L 1920.0 1080.0 L 1920.0 0.0 L 0.0 0.0 Z M 0.0 1080.0 " fill="#FEFFFF"></path><image xlink:href="../../03E86B4A-DD99-4CCA-9F90-5C62FD73758B/assets/995E3908DCE47C67D2B743DB57FC0FD0.png" width="225.00" height="100.00" transform="matrix(1.41, 0.00, -0.00, -1.40, 329.0, 994.0)"></image><image xlink:href="../../A9A52B9C-8668-4C2E-9ACA-4FFFF59EDAF1/assets/849992000FD2C41B913AEDB837BCFDA1.png" width="752.00" height="70.00" transform="matrix(1.00, 0.00, -0.00, -1.01, 242.0, 311.0)"></image><image xlink:href="../../A9A52B9C-8668-4C2E-9ACA-4FFFF59EDAF1/assets/71FE6797FCDFF56B04781D598D6F50BE.png" width="105.00" height="62.00" transform="matrix(0.99, 0.00, -0.00, -0.98, 324.0, 223.0)"></image><image xlink:href="../../A9A52B9C-8668-4C2E-9ACA-4FFFF59EDAF1/assets/7468CB4739307F5F2C33F2679A2EF1EE.png" width="435.00" height="107.00" transform="matrix(0.24, 0.00, -0.00, -0.24, 324.1, 161.7)"></image><image xlink:href="../../A9A52B9C-8668-4C2E-9ACA-4FFFF59EDAF1/assets/9205B8C52D3F0C25DB54876B881757F2.png" width="727.00" height="61.00" transform="matrix(1.01, 0.00, -0.00, -1.02, 242.0, 742.0)"></image><image xlink:href="../../A9A52B9C-8668-4C2E-9ACA-4FFFF59EDAF1/assets/71FE6797FCDFF56B04781D598D6F50BE.png" width="105.00" height="62.00" transform="matrix(0.99, 0.00, -0.00, -1.00, 324.0, 674.0)"></image><image xlink:href="../../A9A52B9C-8668-4C2E-9ACA-4FFFF59EDAF1/assets/1EE562DB2B26DDC946A4532F04E27FE4.png" width="435.00" height="107.00" transform="matrix(0.24, 0.00, -0.00, -0.24, 324.1, 612.3)"></image><image xlink:href="../../A9A52B9C-8668-4C2E-9ACA-4FFFF59EDAF1/assets/79923EC1D8D51E77CA6E22A752D7237A.png" width="417.00" height="91.00" transform="matrix(1.00, 0.00, -0.00, -1.00, 1135.3, 754.4)" opacity="0.50"></image><g><clipPath id="clip-250"><path d="M 1139.3 752.4 L 1548.5 752.4 L 1548.5 669.1 L 1139.3 669.1 Z M 1139.3 752.4 "></path></clipPath><g clip-path="url(#clip-250)"><image xlink:href="../../A9A52B9C-8668-4C2E-9ACA-4FFFF59EDAF1/assets/BF3B3AD179BCF3F9DC8641406A1304C5.jpeg" width="540.00" height="540.00" transform="matrix(1.00, 0.00, -0.00, -1.00, 1139.3, 752.4)"></image><path d="M 1139.3 752.4 L 1548.5 752.4 L 1548.5 669.1 L 1139.3 669.1 Z M 1139.3 752.4 " fill="#FF2A05" fill-opacity="0.50"></path></g></g><g><clipPath id="clip-251"><path d="M 1130.0 659.7 L 1558.9 659.7 L 1558.9 761.7 L 1130.0 761.7 Z M 1130.0 659.7 "></path></clipPath><g clip-path="url(#clip-251)"><text xml:space="preserve" font-family="Helvetica-Light" font-size="60.0" fill="#FEFFFE" transform="matrix(1.00, 0.00, -0.00, -1.00, 1145.0, 689.0)">2</text><text xml:space="preserve" font-family="Helvetica-Light" font-size="60.0" fill="#FEFFFE" transform="matrix(1.00, 0.00, -0.00, -1.00, 1178.4, 689.0)">1</text><text xml:space="preserve" font-family="Helvetica-Light" font-size="60.0" fill="#FEFFFE" transform="matrix(1.00, 0.00, -0.00, -1.00, 1211.7, 689.0)">.</text><text xml:space="preserve" font-family="Helvetica-Light" font-size="60.0" fill="#FEFFFE" transform="matrix(1.00, 0.00, -0.00, -1.00, 1228.4, 689.0)">6</text><text xml:space="preserve" font-family="Helvetica-Light" font-size="60.0" fill="#FEFFFE" transform="matrix(1.00, 0.00, -0.00, -1.00, 1261.8, 689.0)">0</text><text xml:space="preserve" font-family="Helvetica-Light" font-size="60.0" fill="#FEFFFE" transform="matrix(1.00, 0.00, -0.00, -1.00, 1295.1, 689.0)"> </text><text xml:space="preserve" font-family="Helvetica-Light" font-size="60.0" fill="#FEFFFE" transform="matrix(1.00, 0.00, -0.00, -1.00, 1311.8, 689.0)">s</text><text xml:space="preserve" font-family="Helvetica-Light" font-size="60.0" fill="#FEFFFE" transform="matrix(1.00, 0.00, -0.00, -1.00, 1341.8, 689.0)">e</text><text xml:space="preserve" font-family="Helvetica-Light" font-size="60.0" fill="#FEFFFE" transform="matrix(1.00, 0.00, -0.00, -1.00, 1375.2, 689.0)">c</text><text xml:space="preserve" font-family="Helvetica-Light" font-size="60.0" fill="#FEFFFE" transform="matrix(1.00, 0.00, -0.00, -1.00, 1408.5, 689.0)">o</text><text xml:space="preserve" font-family="Helvetica-Light" font-size="60.0" fill="#FEFFFE" transform="matrix(1.00, 0.00, -0.00, -1.00, 1441.9, 689.0)">n</text><text xml:space="preserve" font-family="Helvetica-Light" font-size="60.0" fill="#FEFFFE" transform="matrix(1.00, 0.00, -0.00, -1.00, 1475.2, 689.0)">d</text><text xml:space="preserve" font-family="Helvetica-Light" font-size="60.0" fill="#FEFFFE" transform="matrix(1.00, 0.00, -0.00, -1.00, 1511.9, 689.0)">s</text></g></g><image xlink:href="../../A9A52B9C-8668-4C2E-9ACA-4FFFF59EDAF1/assets/4CAD4022281F0F9FE7682BFDC55898F3.png" width="386.00" height="93.00" transform="matrix(1.00, 0.00, -0.00, -1.00, 1142.2, 322.4)" opacity="0.50"></image><g><clipPath id="clip-252"><path d="M 1146.2 317.4 L 1522.0 317.4 L 1522.0 234.1 L 1146.2 234.1 Z M 1146.2 317.4 "></path></clipPath><g clip-path="url(#clip-252)"><path d="M 1146.2 234.1 L 1522.0 234.1 L 1522.0 317.4 L 1146.2 317.4 Z M 1146.2 234.1 " fill="url(#6FD5500D-B416-4354-A9AC-A2A28A60401C)"></path><path d="M 1146.2 317.4 L 1522.0 317.4 L 1522.0 234.1 L 1146.2 234.1 Z M 1146.2 317.4 " fill="#00D026" fill-opacity="0.50"></path></g></g><g><clipPath id="clip-253"><path d="M 1136.8 224.7 L 1532.3 224.7 L 1532.3 326.7 L 1136.8 326.7 Z M 1136.8 224.7 "></path></clipPath><g clip-path="url(#clip-253)"><text xml:space="preserve" font-family="Helvetica-Light" font-size="60.0" fill="#FEFFFE" transform="matrix(1.00, 0.00, -0.00, -1.00, 1152.0, 254.0)">0</text><text xml:space="preserve" font-family="Helvetica-Light" font-size="60.0" fill="#FEFFFE" transform="matrix(1.00, 0.00, -0.00, -1.00, 1185.4, 254.0)">.</text><text xml:space="preserve" font-family="Helvetica-Light" font-size="60.0" fill="#FEFFFE" transform="matrix(1.00, 0.00, -0.00, -1.00, 1202.0, 254.0)">5</text><text xml:space="preserve" font-family="Helvetica-Light" font-size="60.0" fill="#FEFFFE" transform="matrix(1.00, 0.00, -0.00, -1.00, 1235.4, 254.0)">3</text><text xml:space="preserve" font-family="Helvetica-Light" font-size="60.0" fill="#FEFFFE" transform="matrix(1.00, 0.00, -0.00, -1.00, 1268.8, 254.0)"> </text><text xml:space="preserve" font-family="Helvetica-Light" font-size="60.0" fill="#FEFFFE" transform="matrix(1.00, 0.00, -0.00, -1.00, 1285.4, 254.0)">s</text><text xml:space="preserve" font-family="Helvetica-Light" font-size="60.0" fill="#FEFFFE" transform="matrix(1.00, 0.00, -0.00, -1.00, 1315.4, 254.0)">e</text><text xml:space="preserve" font-family="Helvetica-Light" font-size="60.0" fill="#FEFFFE" transform="matrix(1.00, 0.00, -0.00, -1.00, 1348.8, 254.0)">c</text><text xml:space="preserve" font-family="Helvetica-Light" font-size="60.0" fill="#FEFFFE" transform="matrix(1.00, 0.00, -0.00, -1.00, 1382.2, 254.0)">o</text><text xml:space="preserve" font-family="Helvetica-Light" font-size="60.0" fill="#FEFFFE" transform="matrix(1.00, 0.00, -0.00, -1.00, 1415.5, 254.0)">n</text><text xml:space="preserve" font-family="Helvetica-Light" font-size="60.0" fill="#FEFFFE" transform="matrix(1.00, 0.00, -0.00, -1.00, 1448.9, 254.0)">d</text><text xml:space="preserve" font-family="Helvetica-Light" font-size="60.0" fill="#FEFFFE" transform="matrix(1.00, 0.00, -0.00, -1.00, 1485.5, 254.0)">s</text></g></g></g></svg>