<?xml version="1.0" encoding="UTF-8" standalone="no"?><svg xmlns="http://www.w3.org/2000/svg" xmlns:xlink="http://www.w3.org/1999/xlink" clip-rule="evenodd" stroke-miterlimit="4.00" viewBox="0 0 1024 768"><desc>SVG generated by Keynote</desc><defs></defs><g transform="matrix(1.00, 0.00, -0.00, -1.00, 0.0, 768.0)"><path d="M 0.0 768.0 L 1024.0 768.0 L 1024.0 0.0 L 0.0 0.0 Z M 0.0 768.0 " fill="#FEFFFF"></path><image xlink:href="B56E414611A48402BDFEC1955A858961.png" width="323.00" height="73.00" transform="matrix(1.00, 0.00, -0.00, -1.00, 95.0, 675.2)" opacity="0.70"></image><image xlink:href="../../0F274F3A-AE78-4F9E-A533-79FC40367925/assets/F436709B1C5DBBBD67A0D9864B87D889.png" width="640.00" height="75.00" transform="matrix(0.44, 0.00, -0.00, -0.44, 115.0, 665.0)"></image><text xml:space="preserve" font-family="Helvetica-Light" font-size="27.0" fill="#000000" transform="matrix(1.00, 0.00, -0.00, -1.00, 198.0, 641.0)">b</text><text xml:space="preserve" font-family="Helvetica-Light" font-size="27.0" fill="#000000" transform="matrix(1.00, 0.00, -0.00, -1.00, 214.5, 641.0)">a</text><text xml:space="preserve" font-family="Helvetica-Light" font-size="27.0" fill="#000000" transform="matrix(1.00, 0.00, -0.00, -1.00, 229.5, 641.0)">n</text><text xml:space="preserve" font-family="Helvetica-Light" font-size="27.0" fill="#000000" transform="matrix(1.00, 0.00, -0.00, -1.00, 244.5, 641.0)">a</text><text xml:space="preserve" font-family="Helvetica-Light" font-size="27.0" fill="#000000" transform="matrix(1.00, 0.00, -0.00, -1.00, 259.5, 641.0)">n</text><text xml:space="preserve" font-family="Helvetica-Light" font-size="27.0" fill="#000000" transform="matrix(1.00, 0.00, -0.00, -1.00, 274.5, 641.0)">a</text><image xlink:href="E818F33F92804D6FFC87AB1A6174423F.png" width="138.00" height="42.00" transform="matrix(0.99, 0.00, -0.00, -1.00, 45.0, 566.0)"></image><g><clipPath id="clip-196"><path d="M 192.0 438.6 L 434.6 438.6 L 434.6 571.9 L 192.0 571.9 Z M 192.0 438.6 "></path></clipPath><g clip-path="url(#clip-196)"><image xlink:href="2D2B153255BFAC88B9A140BC3052E6E1.png" width="243.00" height="133.00" transform="matrix(1.00, 0.00, -0.00, -1.00, 192.0, 572.0)"></image></g></g><g><clipPath id="clip-197"><path d="M 218.2 452.6 L 393.3 452.6 L 393.3 540.2 L 218.2 540.2 Z M 218.2 452.6 "></path></clipPath><g clip-path="url(#clip-197)"><image xlink:href="4FD6EDA707721FDDCDC5DC89817D6D0B.png" width="173.00" height="86.00" transform="matrix(1.00, 0.00, -0.00, -1.00, 219.2, 539.2)" opacity="0.50"></image><path d="M 10.7 0.0 L 153.4 0.0 C 156.5 0.0 158.0 0.0 159.7 0.5 C 161.5 1.2 162.9 2.6 163.6 4.4 C 164.1 6.1 164.1 7.6 164.1 10.7 L 164.1 65.9 C 164.1 69.0 164.1 70.6 163.6 72.2 C 162.9 74.0 161.5 75.5 159.7 76.1 C 158.0 76.6 156.5 76.6 153.3 76.6 L 10.7 76.6 C 7.6 76.6 6.1 76.6 4.4 76.1 C 2.6 75.5 1.2 74.0 0.5 72.2 C 0.0 70.6 0.0 69.0 0.0 65.9 L 0.0 10.7 C 0.0 7.6 0.0 6.1 0.5 4.4 C 1.2 2.6 2.6 1.2 4.4 0.5 C 6.1 0.0 7.6 0.0 10.7 0.0 Z M 10.7 0.0 " fill="none" stroke="#FF2600" stroke-width="3.00" stroke-dasharray="6.0, 6.0" transform="matrix(1.00, 0.00, 0.00, -1.00, 223.7, 536.7)"></path></g></g><image xlink:href="A21245CB9BD432750201CA96D3C53153.png" width="348.00" height="105.00" transform="matrix(1.00, 0.00, -0.00, -1.01, 25.0, 232.0)"></image><text xml:space="preserve" font-family="Helvetica-Light" font-size="50.0" fill="#005392" transform="matrix(1.00, 0.00, -0.00, -1.00, 21.0, 707.0)">I</text><text xml:space="preserve" font-family="Helvetica-Light" font-size="50.0" fill="#005392" transform="matrix(1.00, 0.00, -0.00, -1.00, 34.9, 707.0)">n</text><text xml:space="preserve" font-family="Helvetica-Light" font-size="50.0" fill="#005392" transform="matrix(1.00, 0.00, -0.00, -1.00, 62.7, 707.0)">t</text><text xml:space="preserve" font-family="Helvetica-Light" font-size="50.0" fill="#005392" transform="matrix(1.00, 0.00, -0.00, -1.00, 76.6, 707.0)">e</text><text xml:space="preserve" font-family="Helvetica-Light" font-size="50.0" fill="#005392" transform="matrix(1.00, 0.00, -0.00, -1.00, 104.4, 707.0)">l</text><text xml:space="preserve" font-family="Helvetica-Light" font-size="50.0" fill="#005392" transform="matrix(1.00, 0.00, -0.00, -1.00, 115.5, 707.0)">l</text><text xml:space="preserve" font-family="Helvetica-Light" font-size="50.0" fill="#005392" transform="matrix(1.00, 0.00, -0.00, -1.00, 126.6, 707.0)">i</text><text xml:space="preserve" font-family="Helvetica-Light" font-size="50.0" fill="#005392" transform="matrix(1.00, 0.00, -0.00, -1.00, 137.7, 707.0)">g</text><text xml:space="preserve" font-family="Helvetica-Light" font-size="50.0" fill="#005392" transform="matrix(1.00, 0.00, -0.00, -1.00, 168.2, 707.0)">e</text><text xml:space="preserve" font-family="Helvetica-Light" font-size="50.0" fill="#005392" transform="matrix(1.00, 0.00, -0.00, -1.00, 196.1, 707.0)">n</text><text xml:space="preserve" font-family="Helvetica-Light" font-size="50.0" fill="#005392" transform="matrix(1.00, 0.00, -0.00, -1.00, 223.9, 707.0)">t</text><text xml:space="preserve" font-family="Helvetica-Light" font-size="50.0" fill="#005392" transform="matrix(1.00, 0.00, -0.00, -1.00, 237.8, 707.0)"> </text><text xml:space="preserve" font-family="Helvetica-Light" font-size="50.0" fill="#005392" transform="matrix(1.00, 0.00, -0.00, -1.00, 251.7, 707.0)">S</text><text xml:space="preserve" font-family="Helvetica-Light" font-size="50.0" fill="#005392" transform="matrix(1.00, 0.00, -0.00, -1.00, 282.2, 707.0)">e</text><text xml:space="preserve" font-family="Helvetica-Light" font-size="50.0" fill="#005392" transform="matrix(1.00, 0.00, -0.00, -1.00, 310.0, 707.0)">a</text><text xml:space="preserve" font-family="Helvetica-Light" font-size="50.0" fill="#005392" transform="matrix(1.00, 0.00, -0.00, -1.00, 337.8, 707.0)">r</text><text xml:space="preserve" font-family="Helvetica-Light" font-size="50.0" fill="#005392" transform="matrix(1.00, 0.00, -0.00, -1.00, 353.6, 707.0)">c</text><text xml:space="preserve" font-family="Helvetica-Light" font-size="50.0" fill="#005392" transform="matrix(1.00, 0.00, -0.00, -1.00, 381.4, 707.0)">h</text><image xlink:href="57B013EC0E51150A7C78E878E1F63968.png" width="509.00" height="101.00" transform="matrix(1.00, 0.00, -0.00, -1.00, 6.0, 111.0)"></image><image xlink:href="E96906F403F0A238FC353B6AE600EC14.png" width="535.00" height="356.00" transform="matrix(1.00, 0.00, -0.00, -1.00, 488.0, 358.0)"></image><g><clipPath id="clip-198"><path d="M 4.4 144.3 L 679.4 144.3 L 679.4 291.8 L 4.4 291.8 Z M 4.4 144.3 "></path></clipPath><g clip-path="url(#clip-198)"><text xml:space="preserve" font-family="Helvetica-Light" font-size="51.0" fill="#005392" transform="matrix(1.00, 0.00, -0.00, -1.00, 25.0, 230.0)">D</text><text xml:space="preserve" font-family="Helvetica-Light" font-size="51.0" fill="#005392" transform="matrix(1.00, 0.00, -0.00, -1.00, 61.8, 230.0)">a</text><text xml:space="preserve" font-family="Helvetica-Light" font-size="51.0" fill="#005392" transform="matrix(1.00, 0.00, -0.00, -1.00, 90.2, 230.0)">i</text><text xml:space="preserve" font-family="Helvetica-Light" font-size="51.0" fill="#005392" transform="matrix(1.00, 0.00, -0.00, -1.00, 101.5, 230.0)">l</text><text xml:space="preserve" font-family="Helvetica-Light" font-size="51.0" fill="#005392" transform="matrix(1.00, 0.00, -0.00, -1.00, 112.8, 230.0)">y</text><text xml:space="preserve" font-family="Helvetica-Light" font-size="51.0" fill="#005392" transform="matrix(1.00, 0.00, -0.00, -1.00, 138.3, 230.0)"> </text><text xml:space="preserve" font-family="Helvetica-Light" font-size="51.0" fill="#005392" transform="matrix(1.00, 0.00, -0.00, -1.00, 152.5, 230.0)">u</text><text xml:space="preserve" font-family="Helvetica-Light" font-size="51.0" fill="#005392" transform="matrix(1.00, 0.00, -0.00, -1.00, 180.9, 230.0)">p</text><text xml:space="preserve" font-family="Helvetica-Light" font-size="51.0" fill="#005392" transform="matrix(1.00, 0.00, -0.00, -1.00, 212.0, 230.0)">d</text><text xml:space="preserve" font-family="Helvetica-Light" font-size="51.0" fill="#005392" transform="matrix(1.00, 0.00, -0.00, -1.00, 243.2, 230.0)">a</text><text xml:space="preserve" font-family="Helvetica-Light" font-size="51.0" fill="#005392" transform="matrix(1.00, 0.00, -0.00, -1.00, 271.5, 230.0)">t</text><text xml:space="preserve" font-family="Helvetica-Light" font-size="51.0" fill="#005392" transform="matrix(1.00, 0.00, -0.00, -1.00, 285.7, 230.0)">e</text><text xml:space="preserve" font-family="Helvetica-Light" font-size="51.0" fill="#005392" transform="matrix(1.00, 0.00, -0.00, -1.00, 314.1, 230.0)">s</text><text xml:space="preserve" font-family="Helvetica-Light" font-size="51.0" fill="#005392" transform="matrix(1.00, 0.00, -0.00, -1.00, 339.6, 230.0)"> </text></g></g><g><clipPath id="clip-199"><path d="M 68.1 222.3 L 349.5 222.3 L 349.5 369.1 L 68.1 369.1 Z M 68.1 222.3 "></path></clipPath><g clip-path="url(#clip-199)"><text xml:space="preserve" font-family="Noteworthy-Light" font-size="36.0" fill="#FF7D78" transform="matrix(1.00, 0.00, -0.00, -1.00, 88.0, 308.0)">r</text><text xml:space="preserve" font-family="Noteworthy-Light" font-size="36.0" fill="#FF7D78" transform="matrix(1.00, 0.00, -0.00, -1.00, 98.8, 308.0)">e</text><text xml:space="preserve" font-family="Noteworthy-Light" font-size="36.0" fill="#FF7D78" transform="matrix(1.00, 0.00, -0.00, -1.00, 113.6, 308.0)">a</text><text xml:space="preserve" font-family="Noteworthy-Light" font-size="36.0" fill="#FF7D78" transform="matrix(1.00, 0.00, -0.00, -1.00, 130.8, 308.0)">l</text><text xml:space="preserve" font-family="Noteworthy-Light" font-size="36.0" fill="#FF7D78" transform="matrix(1.00, 0.00, -0.00, -1.00, 136.4, 308.0)">-</text><text xml:space="preserve" font-family="Noteworthy-Light" font-size="36.0" fill="#FF7D78" transform="matrix(1.00, 0.00, -0.00, -1.00, 149.2, 308.0)">t</text><text xml:space="preserve" font-family="Noteworthy-Light" font-size="36.0" fill="#FF7D78" transform="matrix(1.00, 0.00, -0.00, -1.00, 161.4, 308.0)">i</text><text xml:space="preserve" font-family="Noteworthy-Light" font-size="36.0" fill="#FF7D78" transform="matrix(1.00, 0.00, -0.00, -1.00, 167.8, 308.0)">m</text><text xml:space="preserve" font-family="Noteworthy-Light" font-size="36.0" fill="#FF7D78" transform="matrix(1.00, 0.00, -0.00, -1.00, 191.3, 308.0)">e</text><text xml:space="preserve" font-family="Noteworthy-Light" font-size="36.0" fill="#FF7D78" transform="matrix(1.00, 0.00, -0.00, -1.00, 206.5, 308.0)"> </text><text xml:space="preserve" font-family="Noteworthy-Light" font-size="36.0" fill="#FF7D78" transform="matrix(1.00, 0.00, -0.00, -1.00, 136.0, 249.0)">V</text></g></g><image xlink:href="D7BDB1BC267E2F95BB025716D83FD59D.png" width="535.00" height="353.00" transform="matrix(1.00, 0.00, -0.00, -1.00, 487.0, 765.0)"></image><g opacity="0.54"><g><clipPath id="clip-200"><path d="M 0.0 367.0 L 1024.0 367.0 L 1024.0 405.0 L 0.0 405.0 Z M 0.0 367.0 "></path></clipPath><g clip-path="url(#clip-200)"><path d="M 934.6 393.6 C 936.7 393.8 945.8 393.9 945.9 393.5 C 942.5 393.5 935.3 393.2 934.6 393.6 C 934.6 393.6 934.6 393.6 934.6 393.6 Z M 916.4 393.8 C 919.7 394.2 926.9 394.0 929.2 393.7 C 925.4 393.8 917.6 393.5 916.4 393.8 C 916.4 393.8 916.4 393.8 916.4 393.8 Z M 944.3 392.5 C 949.1 392.4 958.1 392.7 960.3 392.3 C 955.4 392.4 946.5 392.1 944.3 392.5 C 944.3 392.5 944.3 392.5 944.3 392.5 Z M 688.7 400.4 C 690.8 400.6 699.8 400.7 699.8 400.3 C 696.5 400.3 689.3 400.0 688.7 400.4 C 688.7 400.4 688.7 400.4 688.7 400.4 Z M 739.2 399.3 C 742.5 399.6 749.7 399.4 752.0 399.1 C 748.2 399.2 740.4 398.9 739.2 399.3 C 739.2 399.3 739.2 399.3 739.2 399.3 Z M 768.5 399.5 C 775.4 399.5 782.7 399.5 781.3 399.0 C 779.1 399.4 769.3 399.0 768.5 399.5 C 768.5 399.5 768.5 399.5 768.5 399.5 Z M 938.5 373.5 C 931.1 373.7 925.8 373.4 920.9 373.4 C 896.2 373.5 933.6 374.3 938.5 373.5 C 938.5 373.5 938.5 373.5 938.5 373.5 Z M 820.2 398.0 C 815.3 398.0 811.4 398.1 809.0 398.4 C 813.6 398.3 820.0 398.5 820.2 398.0 C 820.2 398.0 820.2 398.0 820.2 398.0 Z M 862.7 397.5 C 863.8 397.8 889.0 397.7 903.0 397.3 C 891.1 397.2 861.6 397.3 862.7 397.5 C 862.7 397.5 862.7 397.5 862.7 397.5 Z M 879.3 373.4 C 863.0 373.7 836.9 373.7 825.0 373.9 C 813.2 374.1 846.0 374.3 876.1 374.2 C 906.4 374.1 881.4 373.2 893.8 373.0 C 906.0 372.8 882.0 372.6 869.8 372.9 C 857.6 373.1 877.9 373.0 879.3 373.4 C 879.3 373.4 879.3 373.4 879.3 373.4 Z M 880.1 371.7 C 886.0 371.7 891.1 371.6 894.5 371.4 C 888.4 371.2 882.5 371.1 880.1 371.7 C 880.1 371.7 880.1 371.7 880.1 371.7 Z M 4.0 383.6 C 6.0 388.3 20.2 392.1 35.8 394.9 C 39.7 395.5 43.6 396.1 47.6 396.8 C 76.2 398.8 105.0 399.9 133.8 400.4 C 139.5 400.5 145.2 400.6 151.0 400.7 C 168.7 401.0 186.4 401.1 204.2 401.2 C 210.1 401.2 216.0 401.3 222.1 401.3 C 243.5 401.9 264.0 401.3 285.0 401.3 C 295.5 401.4 306.2 401.6 317.1 402.2 C 322.6 402.5 346.1 402.4 354.4 402.0 C 346.4 403.0 384.9 402.6 383.2 402.6 C 387.5 402.2 392.0 402.0 396.4 401.9 C 400.9 401.8 395.2 401.6 389.6 401.5 C 394.6 401.3 399.6 401.2 404.7 401.2 C 410.1 401.2 415.5 401.3 421.0 401.3 C 439.0 401.7 458.4 401.4 475.1 400.9 C 520.8 401.0 646.1 400.6 623.5 400.4 C 597.9 400.1 611.0 399.7 617.9 399.6 C 621.9 399.6 627.3 399.6 633.3 399.5 C 633.1 399.7 632.7 399.9 631.8 400.0 C 643.2 400.1 659.3 400.7 675.0 400.1 C 672.1 400.0 668.3 400.0 666.9 399.8 C 674.9 399.8 668.6 399.3 673.8 399.1 C 688.3 399.0 695.3 398.9 678.5 398.9 C 694.1 398.5 704.0 397.7 719.5 397.1 C 725.3 397.2 722.1 397.1 720.4 397.4 C 730.6 397.6 754.1 397.5 756.3 397.8 C 758.5 398.1 692.7 397.9 704.4 398.2 C 709.1 398.4 719.0 398.3 722.8 398.4 C 714.4 398.5 704.2 398.5 698.9 398.7 C 704.7 398.8 712.8 398.8 717.3 398.9 C 711.7 398.9 707.9 399.0 706.2 399.2 C 714.4 399.2 720.5 399.3 730.2 399.2 C 734.5 399.1 726.5 398.8 735.6 398.8 C 737.3 398.6 729.6 398.7 730.2 398.5 C 737.6 398.4 752.3 398.4 755.9 398.3 C 759.5 398.1 747.0 398.3 746.7 398.1 C 775.3 398.0 807.8 397.9 817.9 397.7 C 828.0 397.6 818.5 397.6 814.2 397.5 C 826.0 397.3 834.9 397.3 848.8 397.3 C 857.8 397.2 854.2 397.1 850.8 397.0 C 853.2 397.0 855.3 396.9 856.7 396.9 C 857.7 396.8 860.3 396.8 862.0 396.7 C 856.5 396.6 846.3 396.7 841.8 396.5 C 850.0 396.2 869.6 396.5 876.7 396.2 C 865.4 395.9 853.2 396.0 840.5 395.8 C 865.3 395.6 890.7 396.6 910.6 395.8 C 907.0 395.7 905.5 395.4 902.6 395.2 C 910.1 395.5 921.4 395.8 928.1 395.2 C 931.9 395.2 939.3 395.0 946.7 394.9 C 933.7 394.7 925.0 394.7 916.0 394.8 C 916.2 394.7 917.0 394.7 918.5 394.6 C 898.3 393.9 886.7 395.2 872.2 395.4 C 871.1 395.4 870.0 395.4 868.8 395.3 C 864.2 394.9 880.6 395.0 882.3 394.7 C 860.9 394.6 837.6 394.9 827.1 394.4 C 852.5 394.2 874.9 394.4 894.0 394.0 C 889.0 393.5 869.8 393.8 860.7 393.5 C 902.3 393.1 906.5 393.0 909.9 393.0 C 906.7 392.9 903.5 392.9 900.2 392.8 C 901.0 392.7 901.8 392.6 902.6 392.6 C 920.9 392.5 942.4 392.5 941.3 392.4 C 940.5 392.3 923.7 392.2 906.1 392.2 C 908.0 392.0 909.8 391.8 911.7 391.5 C 932.3 391.4 955.7 390.6 976.4 390.9 C 973.0 390.5 974.7 390.5 979.0 390.3 C 972.5 390.0 963.3 390.0 956.4 389.8 C 958.7 389.6 963.0 389.7 964.4 389.5 C 960.9 389.4 955.4 389.4 953.7 389.1 C 963.5 389.0 974.0 388.9 984.3 388.8 C 986.4 388.3 979.8 388.7 980.4 388.4 C 990.2 388.2 1003.9 388.4 1011.0 388.0 C 1002.8 387.7 986.7 388.0 981.7 387.7 C 984.9 387.6 988.2 387.5 991.5 387.3 C 998.2 387.3 1001.4 387.2 993.9 387.0 C 989.9 386.9 990.0 386.9 991.0 386.8 C 995.6 386.5 1011.4 386.6 1011.0 385.9 C 1007.0 385.9 991.1 386.0 987.1 385.5 C 990.1 385.1 998.2 385.3 999.0 384.9 C 981.4 385.1 982.0 384.9 977.6 385.2 C 979.6 385.3 984.6 385.1 984.4 385.4 C 973.6 385.4 962.7 385.4 951.5 385.4 C 951.5 385.4 951.5 385.4 951.5 385.4 C 951.5 385.4 951.5 385.4 951.5 385.4 C 951.5 385.4 951.5 385.4 951.5 385.4 C 952.5 385.1 952.2 384.6 951.2 384.4 C 955.9 384.4 960.8 384.3 969.7 384.4 C 967.3 383.7 959.2 383.8 951.7 384.0 C 951.8 383.9 951.8 383.8 951.9 383.7 C 964.0 383.7 982.6 383.5 995.0 383.2 C 989.3 383.0 968.4 383.0 954.2 383.2 C 954.6 383.0 955.1 382.9 955.5 382.8 C 937.6 382.9 916.6 382.4 896.5 382.6 C 906.2 381.8 917.5 382.5 930.1 382.3 C 935.8 382.2 941.1 382.0 946.7 381.7 C 962.6 381.9 1009.8 382.0 1015.2 381.7 C 1021.1 381.4 973.3 381.4 973.0 381.2 C 972.7 381.0 995.0 380.8 984.5 380.8 C 979.0 380.9 967.0 380.9 958.4 381.0 C 958.1 380.6 957.8 380.3 957.5 379.9 C 965.0 379.9 974.0 379.7 974.4 380.4 C 978.1 380.3 986.0 380.6 987.1 380.2 C 985.9 380.2 984.0 380.2 984.0 380.1 C 985.8 380.0 988.4 380.1 988.7 379.9 C 979.6 379.8 967.0 379.6 957.0 379.7 C 956.2 379.5 955.3 379.3 954.4 379.1 C 954.6 379.1 962.4 378.9 969.1 378.8 C 976.1 378.7 961.5 378.5 949.9 378.6 C 948.0 378.4 946.2 378.2 944.3 378.0 C 948.3 378.0 953.0 378.0 958.5 378.0 C 964.9 377.8 964.7 377.4 971.1 377.2 C 959.3 377.0 945.0 377.0 933.6 377.1 C 929.5 376.8 925.3 376.4 921.0 376.1 C 930.5 375.9 939.3 375.6 944.5 375.4 C 948.7 375.4 953.1 375.5 954.6 375.2 C 950.7 375.1 960.9 375.0 959.4 374.5 C 953.8 375.0 942.7 374.8 938.6 375.4 C 929.9 375.4 920.3 375.3 911.8 375.4 C 910.7 375.3 909.6 375.2 908.5 375.2 C 915.7 375.1 922.6 375.1 930.2 374.8 C 926.8 374.2 905.6 374.2 890.2 374.6 C 859.0 374.1 827.4 376.4 796.1 376.7 C 794.8 376.7 793.0 376.7 791.0 376.6 C 788.7 376.4 786.5 376.2 784.2 376.1 C 791.6 376.0 798.3 375.9 803.8 375.8 C 781.7 375.3 835.4 375.4 838.9 375.0 C 803.1 374.2 736.0 374.8 694.6 374.2 C 704.6 374.2 707.8 374.1 697.1 374.0 C 694.2 373.9 691.3 373.9 688.3 373.8 C 730.4 373.4 774.2 374.4 807.7 373.4 C 787.8 373.4 757.6 373.7 749.3 373.1 C 755.1 373.1 763.6 373.2 764.8 373.0 C 754.6 372.5 720.3 373.1 710.2 372.6 C 759.4 372.3 826.1 372.7 862.3 371.8 C 807.5 372.1 733.7 371.6 686.9 372.3 C 695.0 372.4 695.1 372.5 690.8 372.8 C 676.3 372.9 661.7 373.0 646.8 373.2 C 643.7 373.0 644.7 373.0 652.0 372.8 C 657.9 372.7 661.4 372.7 663.3 372.5 C 659.3 372.4 612.9 372.4 649.8 372.3 C 686.5 372.1 750.1 371.8 712.9 371.6 C 675.7 371.5 661.0 371.1 681.3 371.0 C 701.7 370.8 766.0 370.2 744.4 370.1 C 722.9 370.1 677.6 369.7 652.1 369.8 C 626.4 369.9 669.4 371.4 631.7 371.5 C 593.9 371.5 625.4 370.9 618.2 371.0 C 606.7 371.0 585.7 371.0 565.8 370.9 C 551.8 370.9 533.8 370.9 524.8 370.6 C 525.4 370.4 568.0 370.6 551.2 370.3 C 509.8 370.3 463.6 370.2 482.6 370.8 C 457.0 370.7 438.2 370.8 422.2 370.9 C 397.3 370.3 368.5 370.4 365.3 370.2 C 361.5 370.0 293.7 371.3 268.3 369.5 C 266.3 369.6 220.7 370.0 216.7 370.5 C 173.2 370.0 179.4 369.5 136.5 369.7 C 100.7 369.9 89.7 370.2 83.7 370.3 C 46.0 370.6 46.3 370.0 27.8 372.4 C 22.2 373.1 13.6 373.1 10.7 374.3 C 4.9 376.7 2.1 379.7 4.0 383.6 C 4.0 383.6 4.0 383.6 4.0 383.6 Z M 946.6 386.2 C 953.3 386.4 965.3 386.3 972.3 386.5 C 964.3 387.0 954.4 386.8 944.2 386.6 C 945.0 386.5 945.8 386.3 946.6 386.2 C 946.6 386.2 946.6 386.2 946.6 386.2 Z M 895.1 378.8 C 899.5 378.8 904.9 379.2 910.0 379.1 C 914.7 379.1 919.6 379.2 926.9 378.9 C 926.2 378.7 914.3 378.4 905.1 378.5 C 905.1 378.4 905.1 378.2 905.1 378.1 C 909.6 377.9 914.9 377.8 921.2 377.8 C 923.3 377.8 925.5 377.8 927.7 377.9 C 927.9 378.1 924.5 378.3 923.2 378.2 C 924.8 378.6 930.4 378.8 937.6 378.9 C 938.5 379.0 939.4 379.0 940.3 379.1 C 941.3 379.5 935.8 379.7 941.9 379.6 C 937.6 380.0 926.5 379.7 919.5 379.8 C 927.3 378.9 898.0 379.5 890.8 379.1 C 892.2 379.0 893.6 378.9 895.1 378.8 Z M 839.0 395.7 C 835.0 395.7 831.1 395.7 827.0 395.7 C 832.8 395.7 837.3 395.6 841.4 395.6 C 840.6 395.6 839.8 395.7 839.0 395.7 Z M 510.3 399.6 C 534.2 398.5 584.4 399.5 587.7 398.9 C 592.9 398.9 598.0 399.0 603.3 399.1 C 569.9 399.2 534.2 399.3 510.3 399.6 C 510.3 399.6 510.3 399.6 510.3 399.6 Z M 594.8 372.8 C 596.8 372.8 596.0 372.9 591.1 373.0 C 565.4 373.3 550.1 373.6 566.4 373.6 C 580.2 373.6 610.5 373.7 601.6 373.9 C 589.8 374.0 578.0 374.1 565.9 374.1 C 556.6 374.0 547.5 373.5 538.3 373.0 C 558.2 372.9 577.3 372.9 594.8 372.8 C 594.8 372.8 594.8 372.8 594.8 372.8 Z M 527.2 372.3 C 534.3 372.3 542.8 372.4 551.4 372.4 C 543.9 372.5 536.5 372.5 528.8 372.5 C 528.3 372.4 527.7 372.4 527.2 372.3 Z M 518.0 371.8 C 532.6 371.7 547.1 371.8 532.5 372.0 C 529.2 372.0 525.9 372.0 522.5 372.0 C 521.0 372.0 519.6 371.9 518.0 371.8 Z M 509.1 371.5 C 509.3 371.6 511.7 371.8 516.6 371.8 C 506.7 371.8 487.0 372.0 487.9 371.6 C 494.5 371.6 501.7 371.5 509.1 371.5 C 509.1 371.5 509.1 371.5 509.1 371.5 Z M 494.4 400.2 C 500.8 400.3 506.3 400.4 496.2 400.5 C 492.3 400.5 488.5 400.6 484.5 400.6 C 487.8 400.5 491.0 400.4 494.4 400.2 Z M 829.4 372.9 C 826.6 373.0 816.2 372.9 810.2 373.1 C 809.6 374.3 833.2 373.4 829.4 372.9 C 829.4 372.9 829.4 372.9 829.4 372.9 Z M 868.4 372.4 C 865.7 372.4 855.3 372.4 849.2 372.5 C 848.6 373.8 872.2 372.9 868.4 372.4 C 868.4 372.4 868.4 372.4 868.4 372.4 Z M 268.2 369.5 C 268.2 369.5 268.2 369.5 268.3 369.5 C 268.2 369.5 268.2 369.5 268.2 369.5 C 268.2 369.5 268.2 369.5 268.2 369.5 Z M 268.2 369.5 " fill="#EDEDED"></path></g></g></g></g></svg>