<?xml version="1.0" encoding="UTF-8" standalone="no"?><svg xmlns="http://www.w3.org/2000/svg" xmlns:xlink="http://www.w3.org/1999/xlink" clip-rule="evenodd" stroke-miterlimit="4.00" viewBox="0 0 1920 1080"><desc>SVG generated by Keynote</desc><defs></defs><g transform="matrix(1.00, 0.00, -0.00, -1.00, 0.0, 1080.0)"><path d="M 0.0 1080.0 L 1920.0 1080.0 L 1920.0 0.0 L 0.0 0.0 Z M 0.0 1080.0 " fill="#FEFFFF"></path><image xlink:href="../../D99FD912-0A90-4C35-B8AE-42005B1CDF7E/assets/BB970AE6C94E3F9DDEF7F4E8E8E5B9CD.png" width="906.00" height="322.00" transform="matrix(1.00, 0.00, -0.00, -1.00, 143.0, 353.0)"></image><image xlink:href="../../D99FD912-0A90-4C35-B8AE-42005B1CDF7E/assets/5A9BE551D8A0E7B06129D968FC312C20.png" width="531.00" height="150.00" transform="matrix(1.00, 0.00, -0.00, -1.00, 215.2, 581.2)" opacity="0.75"></image><image xlink:href="../../D28839AE-AF74-42FE-9175-3690820A477D/assets/8A70A800DFE6045869C5C277B878B13D.png" width="258.00" height="137.00" transform="matrix(1.13, 0.00, -0.00, -1.12, 335.0, 660.0)"></image><g opacity="0.37"><g><clipPath id="clip-274"><path d="M 708.0 212.0 L 1267.0 212.0 L 1267.0 506.0 L 708.0 506.0 Z M 708.0 212.0 "></path></clipPath><g clip-path="url(#clip-274)"><image xlink:href="../../D99FD912-0A90-4C35-B8AE-42005B1CDF7E/assets/3D606FBD45F228542677E3DAD75A1BB4.png" width="557.00" height="150.00" transform="matrix(1.00, 0.00, -0.00, -1.00, 709.1, 363.4)" opacity="0.75"></image><image xlink:href="../../D28839AE-AF74-42FE-9175-3690820A477D/assets/995E3908DCE47C67D2B743DB57FC0FD0.png" width="225.00" height="100.00" transform="matrix(1.41, 0.00, -0.00, -1.41, 829.0, 429.0)"></image></g></g></g><g opacity="0.37"><g><clipPath id="clip-275"><path d="M 709.0 735.0 L 1294.0 735.0 L 1294.0 993.0 L 709.0 993.0 Z M 709.0 735.0 "></path></clipPath><g clip-path="url(#clip-275)"><image xlink:href="../../D99FD912-0A90-4C35-B8AE-42005B1CDF7E/assets/09ABF267E221836AAC48363B6C847800.png" width="582.00" height="150.00" transform="matrix(1.00, 0.00, -0.00, -1.00, 710.8, 886.5)" opacity="0.75"></image><image xlink:href="../../D28839AE-AF74-42FE-9175-3690820A477D/assets/BE4A473FFC0FB541261C97546482937E.png" width="342.00" height="104.00" transform="matrix(1.00, 0.00, -0.00, -1.00, 831.0, 916.0)"></image></g></g></g><g opacity="0.37"><g><clipPath id="clip-276"><path d="M 1320.0 312.0 L 1626.0 312.0 L 1626.0 405.0 L 1320.0 405.0 Z M 1320.0 312.0 "></path></clipPath><g clip-path="url(#clip-276)"><image xlink:href="../../D28839AE-AF74-42FE-9175-3690820A477D/assets/E87589F767B205C5B2D8869B1FFB9FBB.png" width="304.00" height="90.00" transform="matrix(1.00, 0.00, -0.00, -1.00, 1321.0, 404.0)"></image></g></g></g><text xml:space="preserve" font-family="Helvetica-Light" font-size="50.0" fill="#000000" transform="matrix(1.00, 0.00, -0.00, -1.00, 1188.0, 340.0)">+</text><path d="M 0.0 0.0 L 80.0 0.0 L 81.5 0.0 " fill="none" stroke="#A9A9A9" stroke-width="3.00" stroke-linecap="round" stroke-dasharray="0.0, 9.0" transform="matrix(0.71, -0.71, -0.71, -0.71, 678.5, 491.1)"></path><path d="M 730.4 429.9 L 744.4 425.2 L 739.7 439.2 Z M 730.4 429.9 " fill="#A9A9A9"></path><path d="M 0.0 0.0 L 80.0 0.0 L 81.5 0.0 " fill="none" stroke="#A9A9A9" stroke-width="3.00" stroke-linecap="round" stroke-dasharray="0.0, 9.0" transform="matrix(0.71, 0.71, 0.71, -0.71, 672.5, 675.4)"></path><path d="M 733.7 727.3 L 738.4 741.3 L 724.4 736.6 Z M 733.7 727.3 " fill="#A9A9A9"></path><g opacity="0.47"><g><clipPath id="clip-277"><path d="M 79.0 513.0 L 255.0 513.0 L 255.0 613.0 L 79.0 613.0 Z M 79.0 513.0 "></path></clipPath><g clip-path="url(#clip-277)"><image xlink:href="../../D28839AE-AF74-42FE-9175-3690820A477D/assets/B33BC9647A8864636F0568DA8B7F317B.png" width="300.00" height="169.00" transform="matrix(0.58, 0.00, -0.00, -0.57, 80.0, 611.0)"></image></g></g></g><g opacity="0.47"><g><clipPath id="clip-278"><path d="M 124.0 751.0 L 209.0 751.0 L 209.0 690.0 L 124.0 690.0 Z M 124.1 751.2 "></path></clipPath><g clip-path="url(#clip-278)"><g><clipPath id="clip-279"><path d="M 123.0 688.0 L 211.0 688.0 L 211.0 753.0 L 123.0 753.0 Z M 123.0 688.0 "></path></clipPath><g clip-path="url(#clip-279)"><image xlink:href="../../72D0EAD3-E874-40A1-B9A8-CFB741D0859A/assets/E22F4878CC6F752CA7A9C70AD8314AAF.png" width="240.00" height="245.00" transform="matrix(0.35, 0.00, -0.00, -0.36, 124.0, 751.0)"></image></g></g></g></g></g><g opacity="0.47"><g><clipPath id="clip-280"><path d="M 159.0 585.0 L 175.0 585.0 L 175.0 669.0 L 159.0 669.0 Z M 159.0 585.0 "></path></clipPath><g clip-path="url(#clip-280)"><path d="M 0.0 0.0 L 63.6 0.0 L 65.1 0.0 " fill="none" stroke="#A9A9A9" stroke-width="3.00" stroke-linecap="round" stroke-dasharray="0.0, 9.0" transform="matrix(0.00, -1.00, -1.00, 0.00, 166.8, 665.3)"></path><path d="M 160.2 601.7 L 166.8 588.5 L 173.4 601.7 Z M 160.2 601.7 " fill="#A9A9A9"></path></g></g></g><g opacity="0.47"><g><clipPath id="clip-281"><path d="M 263.0 551.0 L 328.0 551.0 L 328.0 567.0 L 263.0 567.0 Z M 263.0 551.0 "></path></clipPath><g clip-path="url(#clip-281)"><path d="M 0.0 0.0 L 44.2 0.0 L 45.7 0.0 " fill="none" stroke="#A9A9A9" stroke-width="3.00" stroke-linecap="round" stroke-dasharray="0.0, 9.0" transform="matrix(1.00, 0.00, 0.00, -1.00, 266.5, 559.1)"></path><path d="M 310.7 552.5 L 323.9 559.1 L 310.7 565.7 Z M 310.7 552.5 " fill="#A9A9A9"></path></g></g></g><g><clipPath id="clip-282"><path d="M 109.3 498.0 L 224.2 498.0 L 224.2 516.0 L 109.3 516.0 Z M 109.3 498.0 "></path></clipPath><g clip-path="url(#clip-282)"><text xml:space="preserve" font-family="Helvetica-Light" font-size="10.0" fill="#52575F" transform="matrix(1.00, 0.00, -0.00, -1.00, 128.0, 498.0)">1</text><text xml:space="preserve" font-family="Helvetica-Light" font-size="10.0" fill="#52575F" transform="matrix(1.00, 0.00, -0.00, -1.00, 133.6, 498.0)">1</text><text xml:space="preserve" font-family="Helvetica-Light" font-size="10.0" fill="#52575F" transform="matrix(1.00, 0.00, -0.00, -1.00, 139.1, 498.0)"> </text><text xml:space="preserve" font-family="Helvetica-Light" font-size="10.0" fill="#52575F" transform="matrix(1.00, 0.00, -0.00, -1.00, 141.9, 498.0)">m</text><text xml:space="preserve" font-family="Helvetica-Light" font-size="10.0" fill="#52575F" transform="matrix(1.00, 0.00, -0.00, -1.00, 150.2, 498.0)">i</text><text xml:space="preserve" font-family="Helvetica-Light" font-size="10.0" fill="#52575F" transform="matrix(1.00, 0.00, -0.00, -1.00, 152.4, 498.0)">l</text><text xml:space="preserve" font-family="Helvetica-Light" font-size="10.0" fill="#52575F" transform="matrix(1.00, 0.00, -0.00, -1.00, 154.7, 498.0)">l</text><text xml:space="preserve" font-family="Helvetica-Light" font-size="10.0" fill="#52575F" transform="matrix(1.00, 0.00, -0.00, -1.00, 156.9, 498.0)">i</text><text xml:space="preserve" font-family="Helvetica-Light" font-size="10.0" fill="#52575F" transform="matrix(1.00, 0.00, -0.00, -1.00, 159.1, 498.0)">o</text><text xml:space="preserve" font-family="Helvetica-Light" font-size="10.0" fill="#52575F" transform="matrix(1.00, 0.00, -0.00, -1.00, 164.7, 498.0)">n</text><text xml:space="preserve" font-family="Helvetica-Light" font-size="10.0" fill="#52575F" transform="matrix(1.00, 0.00, -0.00, -1.00, 170.2, 498.0)"> </text><text xml:space="preserve" font-family="Helvetica-Light" font-size="10.0" fill="#52575F" transform="matrix(1.00, 0.00, -0.00, -1.00, 173.0, 498.0)">a</text><text xml:space="preserve" font-family="Helvetica-Light" font-size="10.0" fill="#52575F" transform="matrix(1.00, 0.00, -0.00, -1.00, 178.6, 498.0)">r</text><text xml:space="preserve" font-family="Helvetica-Light" font-size="10.0" fill="#52575F" transform="matrix(1.00, 0.00, -0.00, -1.00, 182.1, 498.0)">t</text><text xml:space="preserve" font-family="Helvetica-Light" font-size="10.0" fill="#52575F" transform="matrix(1.00, 0.00, -0.00, -1.00, 184.9, 498.0)">i</text><text xml:space="preserve" font-family="Helvetica-Light" font-size="10.0" fill="#52575F" transform="matrix(1.00, 0.00, -0.00, -1.00, 187.1, 498.0)">c</text><text xml:space="preserve" font-family="Helvetica-Light" font-size="10.0" fill="#52575F" transform="matrix(1.00, 0.00, -0.00, -1.00, 192.6, 498.0)">l</text><text xml:space="preserve" font-family="Helvetica-Light" font-size="10.0" fill="#52575F" transform="matrix(1.00, 0.00, -0.00, -1.00, 194.9, 498.0)">e</text><text xml:space="preserve" font-family="Helvetica-Light" font-size="10.0" fill="#52575F" transform="matrix(1.00, 0.00, -0.00, -1.00, 200.4, 498.0)">s</text></g></g><g><clipPath id="clip-283"><path d="M 111.8 516.0 L 221.7 516.0 L 221.7 498.2 L 111.8 498.2 Z M 111.8 516.0 "></path></clipPath><g clip-path="url(#clip-283)"><path d="M 4.0 4.5 L 113.9 4.5 " fill="none" stroke="#000000" stroke-width="1.00" stroke-dasharray="2.0, 2.0" transform="matrix(1.00, 0.00, 0.00, -1.00, 107.8, 520.0)"></path><path d="M 4.0 31.5 L 113.9 31.5 " fill="none" stroke="#000000" stroke-width="1.00" stroke-dasharray="2.0, 2.0" transform="matrix(1.00, 0.00, 0.00, -1.00, 107.8, 520.0)"></path></g></g><image xlink:href="../../D99FD912-0A90-4C35-B8AE-42005B1CDF7E/assets/EBEA74EA1D4883E520D5228E0159AB56.png" width="152.00" height="45.00" transform="matrix(1.84, 0.00, -0.00, -1.84, 108.0, 436.0)"></image><image xlink:href="../../D99FD912-0A90-4C35-B8AE-42005B1CDF7E/assets/30B8B747BD9DBA196C10077B4FA79DCC.png" width="1032.00" height="461.00" transform="matrix(1.00, 0.00, -0.00, -1.00, 80.5, 485.5)" opacity="0.50"></image><path d="M 90.5 0.0 L 932.1 0.0 C 958.1 0.0 971.2 0.0 985.2 4.4 C 1000.6 10.0 1012.6 22.1 1018.2 37.4 C 1022.6 51.4 1022.6 64.6 1022.6 90.9 L 1022.6 361.7 C 1022.6 387.7 1022.6 400.8 1018.2 414.8 C 1012.6 430.2 1000.6 442.2 985.2 447.8 C 971.2 452.2 958.1 452.2 931.7 452.2 L 90.5 452.2 C 64.6 452.2 51.4 452.2 37.4 447.8 C 22.1 442.2 10.0 430.2 4.4 414.8 C 0.0 400.8 0.0 387.7 0.0 361.3 L 0.0 90.5 C 0.0 64.6 0.0 51.4 4.4 37.4 C 10.0 22.1 22.1 10.0 37.4 4.4 C 51.4 0.0 64.6 0.0 90.9 0.0 Z M 90.5 0.0 " fill="none" stroke="#A9A9A9" stroke-width="3.00" stroke-dasharray="3.0, 3.0" transform="matrix(1.00, 0.00, 0.00, -1.00, 85.0, 483.0)"></path><path d="M 105.4 245.9 C 105.0 246.1 104.1 245.8 103.8 246.0 M 105.4 245.9 C 104.5 244.4 102.7 244.3 100.4 244.1 C 97.8 244.0 100.4 245.4 100.1 246.0 C 96.8 246.6 96.8 245.6 97.3 244.0 C 96.0 245.1 92.2 243.2 93.0 245.1 C 98.4 245.1 89.3 245.6 93.7 246.8 C 94.2 247.1 92.9 247.6 92.4 247.6 C 93.9 248.4 91.4 249.4 93.8 250.0 C 94.1 251.2 93.6 250.7 95.2 251.6 C 95.8 251.8 95.5 251.3 95.5 251.0 C 95.7 249.6 97.3 251.9 98.6 250.9 C 99.7 252.9 100.9 250.6 99.9 249.8 C 101.0 250.0 102.3 252.0 103.5 250.6 C 104.1 251.6 107.2 251.0 105.4 249.8 C 104.0 249.0 105.5 248.4 105.7 248.0 C 105.3 247.6 103.4 248.2 103.1 247.8 C 103.7 247.5 106.1 246.8 103.5 246.9 C 104.3 246.2 103.1 245.8 105.4 245.9 C 105.4 245.9 105.4 245.9 105.4 245.9 Z M 96.4 244.8 C 96.3 244.3 97.2 244.8 96.4 244.8 C 96.4 244.8 96.4 244.8 96.4 244.8 Z M 102.5 251.6 C 102.5 251.1 103.4 251.6 102.5 251.6 C 102.5 251.6 102.5 251.6 102.5 251.6 Z M 95.9 251.1 C 95.9 250.6 96.8 251.1 95.9 251.1 C 95.9 251.1 95.9 251.1 95.9 251.1 Z M 98.7 245.2 C 100.1 245.6 97.5 245.9 97.3 245.4 C 97.6 245.5 98.4 244.7 98.7 245.2 C 98.7 245.2 98.7 245.2 98.7 245.2 Z M 98.9 248.1 C 99.0 247.9 99.6 247.8 99.5 248.4 C 99.2 248.5 98.8 248.3 98.9 248.1 C 98.9 248.1 98.9 248.1 98.9 248.1 Z M 91.9 246.0 C 92.0 245.8 92.6 245.8 92.5 246.3 C 92.1 246.4 91.7 246.2 91.9 246.0 C 91.9 246.0 91.9 246.0 91.9 246.0 Z M 100.3 246.5 C 100.7 246.6 100.8 247.1 100.4 247.1 C 100.2 246.9 99.2 246.8 100.3 246.5 C 100.3 246.5 100.3 246.5 100.3 246.5 Z M 102.6 244.8 C 103.8 245.1 101.3 245.8 101.4 245.6 C 101.0 245.2 101.9 244.4 102.6 244.8 C 102.6 244.8 102.6 244.8 102.6 244.8 Z M 101.0 247.2 C 102.0 247.4 100.6 247.6 101.0 247.2 C 101.0 247.2 101.0 247.2 101.0 247.2 Z M 92.8 249.8 C 93.8 250.0 92.4 250.1 92.8 249.8 C 92.8 249.8 92.8 249.8 92.8 249.8 Z M 98.0 251.3 C 99.0 251.6 97.6 251.7 98.0 251.3 C 98.0 251.3 98.0 251.3 98.0 251.3 Z M 96.1 246.2 C 94.4 246.1 95.9 244.9 96.1 246.2 C 96.1 246.2 96.1 246.2 96.1 246.2 Z M 105.3 244.7 C 103.6 244.7 105.1 243.4 105.3 244.7 C 105.3 244.7 105.3 244.7 105.3 244.7 Z M 184.0 245.2 C 185.6 244.9 179.4 243.2 181.7 245.2 C 182.4 246.8 178.2 246.7 179.3 245.2 C 178.1 245.0 178.1 244.9 177.4 245.7 C 177.2 244.5 174.3 243.9 173.3 244.5 C 172.6 245.5 175.2 244.6 173.6 245.7 C 169.9 246.0 173.8 246.9 172.4 248.2 C 172.3 248.2 172.2 247.6 171.9 247.9 C 171.8 249.2 173.8 250.1 172.9 251.0 C 173.4 250.8 176.1 252.2 175.0 251.1 C 174.6 249.9 177.8 252.5 177.6 250.6 C 178.4 251.5 179.4 250.2 180.2 251.3 C 180.8 251.6 180.8 250.5 180.7 250.3 C 180.7 249.4 181.5 252.3 182.5 250.7 C 182.6 251.2 185.5 251.0 183.4 250.3 C 184.0 250.4 187.3 250.9 185.6 249.1 C 183.2 248.3 188.0 247.3 185.2 247.2 C 183.1 247.0 182.7 247.4 184.3 246.4 C 184.8 246.5 187.2 246.4 185.1 245.6 C 184.7 245.8 183.7 245.6 184.0 245.2 C 184.0 245.2 184.0 245.2 184.0 245.2 Z M 184.4 247.7 C 183.2 247.8 184.3 247.1 184.4 247.7 C 184.4 247.7 184.4 247.7 184.4 247.7 Z M 180.0 251.7 C 178.8 251.8 179.9 251.1 180.0 251.7 C 180.0 251.7 180.0 251.7 180.0 251.7 Z M 180.2 244.7 C 179.5 245.2 179.4 243.4 180.2 244.7 C 180.2 244.7 180.2 244.7 180.2 244.7 Z M 182.0 250.3 C 182.0 250.3 182.2 250.0 182.5 249.9 C 182.4 250.0 182.1 250.3 182.0 250.3 C 182.0 250.3 182.0 250.3 182.0 250.3 Z M 178.1 244.7 C 176.3 245.6 177.8 243.3 178.1 244.7 C 178.1 244.7 178.1 244.7 178.1 244.7 Z M 174.4 246.4 C 174.2 248.3 172.6 246.1 174.4 246.4 C 174.4 246.4 174.4 246.4 174.4 246.4 Z M 177.0 250.5 C 177.3 250.1 177.3 250.7 177.0 250.5 C 177.0 250.5 177.0 250.5 177.0 250.5 Z M 184.9 250.7 C 185.2 250.3 185.2 250.9 184.9 250.7 C 184.9 250.7 184.9 250.7 184.9 250.7 Z M 174.7 250.3 C 174.9 249.6 175.4 250.6 174.7 250.3 C 174.7 250.3 174.7 250.3 174.7 250.3 Z M 179.8 245.4 C 181.5 244.0 181.8 247.6 179.8 245.4 C 179.8 245.4 179.8 245.4 179.8 245.4 Z M 182.8 245.3 C 183.9 245.0 182.6 246.2 182.1 246.0 C 182.1 245.8 182.6 245.4 182.8 245.3 C 182.8 245.3 182.8 245.3 182.8 245.3 Z M 178.1 245.6 C 179.2 244.9 179.1 246.0 178.1 245.6 C 178.1 245.6 178.1 245.6 178.1 245.6 Z M 181.0 244.8 C 181.5 245.0 180.5 245.0 181.0 244.8 C 181.0 244.8 181.0 244.8 181.0 244.8 Z M 175.8 244.1 C 176.4 244.3 175.3 244.3 175.8 244.1 C 175.8 244.1 175.8 244.1 175.8 244.1 Z M 184.2 244.5 C 184.8 244.7 183.7 244.7 184.2 244.5 C 184.2 244.5 184.2 244.5 184.2 244.5 Z M 176.3 245.0 C 176.1 245.7 177.7 247.1 174.8 245.9 C 174.3 245.5 175.5 244.5 176.3 245.0 C 176.3 245.0 176.3 245.0 176.3 245.0 Z M 108.4 246.0 C 103.8 243.9 104.9 247.5 104.7 248.2 C 104.1 249.1 104.7 249.8 105.6 250.4 C 106.6 252.7 107.1 248.1 107.7 250.3 C 109.0 253.4 109.2 247.7 109.7 250.9 C 109.5 251.7 111.3 251.1 111.1 250.9 C 112.0 252.4 113.3 249.7 113.3 249.4 C 113.9 249.8 114.0 252.7 115.9 250.5 C 117.3 249.8 117.9 252.6 117.6 250.6 C 118.6 252.8 118.3 250.0 119.3 250.7 C 120.1 251.9 119.4 248.9 120.7 251.2 C 121.3 249.4 120.1 252.4 123.6 251.1 C 121.9 250.9 125.3 249.6 124.6 250.9 C 123.4 252.2 126.3 250.4 127.9 251.2 C 128.4 250.5 130.3 248.8 130.0 250.7 C 131.7 252.8 131.7 249.4 132.4 251.1 C 133.0 251.8 133.2 250.3 133.6 250.4 C 134.2 251.7 134.7 250.8 136.8 251.2 C 141.3 251.8 137.5 247.8 139.2 247.4 C 139.5 246.8 137.0 242.5 138.0 245.7 C 137.6 244.8 133.9 248.2 135.8 244.6 C 134.3 246.1 136.1 243.2 133.2 244.9 C 137.1 247.4 128.8 245.9 132.5 244.7 C 131.9 243.9 130.3 244.1 131.5 244.7 C 131.9 246.9 128.8 243.7 130.3 246.4 C 127.9 245.6 128.6 248.1 127.9 246.4 C 127.3 243.4 128.0 247.1 126.8 246.3 C 124.0 246.3 126.1 242.9 124.4 245.1 C 121.7 243.6 123.8 246.4 122.9 246.8 C 122.6 248.8 120.0 245.2 122.1 244.9 C 121.0 246.0 121.9 244.0 120.7 245.3 C 121.6 247.1 119.0 243.2 119.4 244.8 C 118.3 245.2 118.9 246.4 118.5 246.4 C 116.8 246.4 117.3 244.6 117.0 246.0 C 116.6 246.7 115.8 244.3 115.6 244.9 C 117.3 245.0 114.2 246.9 114.0 245.9 C 115.0 245.7 113.4 243.4 112.8 244.9 C 113.6 249.0 111.2 243.8 110.5 245.3 C 111.2 247.6 106.7 245.5 108.4 244.5 C 108.3 244.7 108.4 246.0 108.4 246.0 M 115.1 245.2 C 116.5 245.4 113.6 245.7 115.1 245.2 M 115.0 244.6 C 115.7 245.4 113.7 244.0 115.1 244.4 C 115.1 244.4 114.9 244.6 115.0 244.6 M 120.9 244.5 C 120.8 245.2 120.1 244.2 120.9 244.5 M 122.1 246.0 C 123.0 246.6 120.8 246.1 122.1 246.0 M 135.2 245.5 C 133.8 248.9 133.8 243.6 135.2 245.5 M 126.5 244.8 C 124.9 245.3 127.1 243.4 126.5 244.8 M 126.0 245.7 C 125.3 246.2 125.9 244.9 126.0 245.7 M 132.7 245.5 C 132.8 245.6 132.8 245.6 132.7 245.5 C 132.7 245.5 132.7 245.5 132.7 245.5 Z M 136.6 245.6 C 136.6 245.5 136.6 245.5 136.6 245.6 C 136.6 245.6 136.6 245.6 136.6 245.6 Z M 128.9 245.8 C 127.7 245.0 130.9 245.5 128.9 245.8 C 128.9 245.8 128.9 245.8 128.9 245.8 Z M 134.7 250.8 C 134.6 250.9 134.6 250.9 134.7 250.8 C 134.7 250.8 134.7 250.8 134.7 250.8 Z M 114.0 246.8 C 113.9 246.8 113.9 246.8 114.0 246.8 C 114.0 246.8 114.0 246.8 114.0 246.8 Z M 109.5 245.5 C 109.6 245.9 108.8 245.1 109.5 245.5 C 109.5 245.5 109.5 245.5 109.5 245.5 Z M 106.0 249.4 C 105.9 249.5 105.9 249.5 106.0 249.4 C 106.0 249.4 106.0 249.4 106.0 249.4 Z M 112.5 248.6 C 112.4 248.6 112.4 248.6 112.5 248.6 C 112.5 248.6 112.5 248.6 112.5 248.6 Z M 113.1 246.0 C 112.4 244.2 114.8 246.5 113.1 246.0 C 113.1 246.0 113.1 246.0 113.1 246.0 Z M 127.4 250.6 C 127.5 249.8 128.5 250.9 127.4 250.6 C 127.4 250.6 127.4 250.6 127.4 250.6 Z M 122.3 246.7 C 122.4 246.3 122.9 246.9 122.3 246.7 C 122.3 246.7 122.3 246.7 122.3 246.7 Z M 119.8 244.2 C 120.0 243.7 120.5 244.4 119.8 244.2 C 119.8 244.2 119.8 244.2 119.8 244.2 Z M 109.6 245.0 C 109.7 244.8 109.7 244.8 109.6 245.0 C 109.6 245.0 109.6 245.0 109.6 245.0 Z M 111.2 246.4 C 110.1 244.6 112.9 247.3 111.2 246.4 C 111.2 246.4 111.2 246.4 111.2 246.4 Z M 109.3 246.9 C 109.9 247.6 107.9 246.6 109.3 246.9 M 110.4 249.6 C 111.7 248.9 109.2 252.8 110.4 249.6 C 110.4 249.6 110.4 249.6 110.4 249.6 Z M 117.2 250.3 C 117.3 250.4 117.3 250.4 117.2 250.3 C 117.2 250.3 117.2 250.3 117.2 250.3 Z M 116.5 245.2 C 117.7 245.2 115.7 245.6 116.5 245.2 C 116.5 245.2 116.5 245.2 116.5 245.2 Z M 106.3 244.8 C 107.4 244.8 105.5 245.2 106.3 244.8 C 106.3 244.8 106.3 244.8 106.3 244.8 Z M 121.2 248.6 C 123.1 248.3 120.0 249.5 121.2 248.6 C 121.2 248.6 121.2 248.6 121.2 248.6 Z M 128.2 246.5 C 128.3 246.6 128.3 246.6 128.2 246.5 C 128.2 246.5 128.2 246.5 128.2 246.5 Z M 129.6 245.8 C 129.6 245.8 129.6 245.8 129.6 245.8 C 129.6 245.8 129.6 245.8 129.6 245.8 Z M 135.1 247.6 C 135.1 247.7 135.1 247.7 135.1 247.6 C 135.1 247.6 135.1 247.6 135.1 247.6 Z M 130.8 245.0 C 130.8 245.0 130.8 245.0 130.8 245.0 C 130.8 245.0 130.8 245.0 130.8 245.0 Z M 134.6 245.4 C 134.6 245.5 134.6 245.5 134.6 245.4 C 134.6 245.4 134.6 245.4 134.6 245.4 Z M 134.0 243.9 C 134.1 244.0 134.1 244.0 134.0 243.9 C 134.0 243.9 134.0 243.9 134.0 243.9 Z M 125.6 251.6 C 125.7 251.7 125.7 251.7 125.6 251.6 C 125.6 251.6 125.6 251.6 125.6 251.6 Z M 111.7 244.4 C 111.8 244.5 111.8 244.5 111.7 244.4 C 111.7 244.4 111.7 244.4 111.7 244.4 Z M 134.3 246.1 C 134.3 246.2 134.3 246.2 134.3 246.1 C 134.3 246.1 134.3 246.1 134.3 246.1 Z M 125.0 247.5 C 125.0 249.0 124.2 245.5 125.2 247.4 C 125.2 247.5 124.9 247.3 125.0 247.5 M 126.2 250.0 C 126.2 250.1 126.2 250.1 126.2 250.0 C 126.2 250.0 126.2 250.0 126.2 250.0 Z M 122.0 250.9 C 122.0 251.0 122.0 251.0 122.0 250.9 C 122.0 250.9 122.0 250.9 122.0 250.9 Z M 130.1 244.7 C 129.9 243.8 131.1 245.3 129.9 244.7 M 135.1 250.3 C 134.9 249.4 136.1 250.9 134.9 250.3 M 104.9 245.3 C 104.7 246.0 104.1 245.0 104.9 245.3 M 121.1 251.7 C 120.9 252.4 120.3 251.4 121.1 251.7 M 123.0 249.8 C 122.9 249.0 124.1 250.5 122.9 249.9 M 132.2 250.2 C 132.3 250.2 132.3 250.2 132.2 250.2 C 132.2 250.2 132.2 250.2 132.2 250.2 Z M 118.3 245.3 C 118.3 245.3 118.3 245.3 118.3 245.3 C 118.3 245.3 118.3 245.3 118.3 245.3 Z M 123.4 247.1 C 122.7 246.0 124.3 247.9 123.4 247.1 M 116.8 247.3 C 115.8 245.9 118.4 247.8 116.8 247.3 M 137.3 250.6 C 136.1 248.9 138.1 251.6 137.3 250.6 M 131.6 246.3 C 130.5 244.6 132.5 247.2 131.6 246.3 M 119.3 246.1 C 119.3 245.2 120.5 246.6 119.3 246.1 M 107.6 245.2 C 106.5 245.0 109.0 244.5 107.6 245.2 M 129.4 250.3 C 129.5 250.3 129.5 250.3 129.4 250.3 C 129.4 250.3 129.4 250.3 129.4 250.3 Z M 111.1 251.8 C 111.2 251.8 111.2 251.8 111.1 251.8 C 111.1 251.8 111.1 251.8 111.1 251.8 Z M 138.7 245.0 C 138.8 245.0 138.8 245.0 138.7 245.0 C 138.7 245.0 138.7 245.0 138.7 245.0 Z M 130.9 247.1 C 131.0 247.2 131.0 247.2 130.9 247.1 C 130.9 247.1 130.9 247.1 130.9 247.1 Z M 136.6 244.7 C 136.6 244.8 136.6 244.8 136.6 244.7 C 136.6 244.7 136.6 244.7 136.6 244.7 Z M 127.4 248.4 C 127.4 248.5 127.4 248.5 127.4 248.4 C 127.4 248.4 127.4 248.4 127.4 248.4 Z M 126.7 244.0 C 126.7 244.1 126.7 244.1 126.7 244.0 C 126.7 244.0 126.7 244.0 126.7 244.0 Z M 122.8 245.9 C 122.8 245.9 122.8 245.9 122.8 245.9 C 122.8 245.9 122.8 245.9 122.8 245.9 Z M 128.4 244.4 C 130.8 244.1 127.2 245.8 128.4 244.4 C 128.4 244.4 128.4 244.4 128.4 244.4 Z M 124.4 248.8 C 124.4 248.8 124.4 248.8 124.4 248.8 C 124.4 248.8 124.4 248.8 124.4 248.8 Z M 124.1 245.7 C 125.6 244.4 124.9 247.8 124.1 245.7 M 117.6 244.6 C 118.1 244.0 117.8 245.7 117.6 244.6 M 115.0 250.4 C 115.0 250.5 115.0 250.5 115.0 250.4 C 115.0 250.4 115.0 250.4 115.0 250.4 Z M 115.7 250.0 C 115.8 250.0 115.8 250.0 115.7 250.0 C 115.7 250.0 115.7 250.0 115.7 250.0 Z M 116.0 244.4 C 116.1 244.4 116.1 244.4 116.0 244.4 C 116.0 244.4 116.0 244.4 116.0 244.4 Z M 115.8 251.6 C 115.9 251.6 115.9 251.6 115.8 251.6 C 115.8 251.6 115.8 251.6 115.8 251.6 Z M 125.8 244.1 C 125.8 244.2 125.8 244.2 125.8 244.1 C 125.8 244.1 125.8 244.1 125.8 244.1 Z M 137.7 244.1 C 137.7 244.1 137.7 244.1 137.7 244.1 C 137.7 244.1 137.7 244.1 137.7 244.1 Z M 107.9 249.8 C 108.0 249.9 108.0 249.9 107.9 249.8 C 107.9 249.8 107.9 249.8 107.9 249.8 Z M 127.0 245.9 C 127.1 245.9 127.1 245.9 127.0 245.9 C 127.0 245.9 127.0 245.9 127.0 245.9 Z M 113.3 250.1 C 113.4 250.2 113.4 250.2 113.3 250.1 C 113.3 250.1 113.3 250.1 113.3 250.1 Z M 126.2 245.5 C 126.3 245.5 126.3 245.5 126.2 245.5 C 126.2 245.5 126.2 245.5 126.2 245.5 Z M 129.1 250.6 C 129.1 250.7 129.1 250.7 129.1 250.6 C 129.1 250.6 129.1 250.6 129.1 250.6 Z M 131.6 251.6 C 131.6 251.6 131.6 251.6 131.6 251.6 C 131.6 251.6 131.6 251.6 131.6 251.6 Z M 128.9 247.6 C 128.9 247.6 128.9 247.6 128.9 247.6 C 128.9 247.6 128.9 247.6 128.9 247.6 Z M 112.5 248.2 C 107.8 246.7 116.2 247.6 112.5 248.2 M 129.7 247.9 C 126.4 247.6 132.3 246.2 129.7 247.9 C 130.0 247.5 129.7 247.9 129.7 247.9 M 139.9 244.2 C 138.6 245.8 138.6 247.4 139.1 249.1 C 139.8 249.9 139.8 246.7 139.8 249.4 C 138.3 249.9 140.5 253.5 140.4 250.0 C 142.5 249.5 140.8 252.2 142.0 250.8 C 144.2 250.5 143.0 251.6 144.7 251.3 C 145.7 249.4 145.7 252.3 146.1 250.4 C 145.3 252.4 147.9 249.9 147.9 250.8 C 146.4 252.0 153.7 250.8 149.7 250.2 C 151.4 249.3 151.1 251.0 151.6 251.2 C 152.3 250.0 154.3 252.1 155.3 251.0 C 155.1 250.7 154.6 250.6 154.4 250.2 C 154.1 249.5 155.5 250.4 155.4 250.3 C 156.0 249.9 158.7 248.7 155.9 250.8 C 155.7 251.7 158.1 250.4 158.1 251.2 C 160.5 251.3 158.7 249.3 159.7 250.8 C 161.5 250.8 162.7 250.8 162.7 250.5 C 163.7 250.8 164.0 251.9 164.9 250.8 C 167.0 252.9 166.4 246.8 167.2 250.9 C 167.8 249.9 168.4 252.6 168.3 250.0 C 167.6 251.2 171.9 252.0 170.0 250.2 C 170.5 249.6 173.2 252.8 172.9 250.2 C 173.8 248.3 173.7 246.4 171.5 244.6 C 171.8 246.1 169.3 243.1 170.9 245.6 C 172.7 246.5 167.5 246.5 168.6 245.6 C 168.9 242.6 166.1 247.5 165.0 245.3 C 165.9 246.5 161.7 247.1 163.0 244.9 C 162.2 244.7 162.0 245.8 161.1 244.5 C 163.7 244.7 160.2 246.8 160.3 245.4 C 160.8 244.6 157.0 243.9 157.4 245.2 C 158.7 248.3 156.4 244.5 155.8 245.8 C 153.7 246.4 156.1 243.1 154.5 245.4 C 154.1 245.0 151.4 245.0 153.1 244.4 C 153.8 244.7 151.5 247.8 151.2 245.1 C 154.1 243.6 147.8 244.3 148.8 245.1 C 153.3 246.6 144.0 246.8 147.6 245.3 C 145.5 243.9 148.1 244.7 145.6 245.4 C 146.0 246.2 144.0 247.0 144.5 245.3 C 144.1 242.8 143.8 248.7 142.3 245.3 C 142.0 243.8 139.2 246.3 140.3 244.7 C 140.4 244.5 140.0 244.2 139.9 244.2 M 140.8 244.5 C 140.5 245.1 140.3 243.8 140.8 244.5 M 140.4 245.1 C 140.4 245.0 140.4 245.0 140.4 245.1 C 140.4 245.1 140.4 245.1 140.4 245.1 Z M 145.3 245.5 C 145.2 245.4 145.2 245.4 145.3 245.5 C 145.3 245.5 145.3 245.5 145.3 245.5 Z M 149.1 251.8 C 149.1 251.7 149.1 251.7 149.1 251.8 C 149.1 251.8 149.1 251.8 149.1 251.8 Z M 148.5 245.6 C 148.5 245.6 148.5 245.6 148.5 245.6 C 148.5 245.6 148.5 245.6 148.5 245.6 Z M 143.6 245.9 C 143.5 245.9 143.5 245.9 143.6 245.9 C 143.6 245.9 143.6 245.9 143.6 245.9 Z M 148.2 244.7 C 148.5 245.6 147.1 244.0 148.3 244.5 C 148.3 244.6 148.1 244.6 148.2 244.7 M 152.4 244.3 C 152.4 244.4 152.4 244.4 152.4 244.3 M 161.7 251.7 C 161.7 251.8 161.7 251.8 161.7 251.7 M 162.4 244.2 C 162.5 244.3 162.5 244.3 162.4 244.2 M 156.6 245.3 C 157.9 245.1 156.9 245.7 156.6 245.3 M 165.8 244.8 C 164.2 244.2 167.6 244.3 165.8 244.8 M 167.4 244.2 C 167.6 244.3 167.6 244.3 167.4 244.2 M 160.1 244.6 C 160.1 244.6 160.1 244.6 160.1 244.6 C 160.1 244.6 160.1 244.6 160.1 244.6 Z M 156.1 244.9 C 154.4 244.4 157.8 244.0 156.1 244.9 M 145.8 244.6 C 146.8 244.1 145.8 245.8 145.8 244.6 M 143.9 245.1 C 143.9 245.1 143.9 245.1 143.9 245.1 C 143.9 245.1 143.9 245.1 143.9 245.1 Z M 163.2 244.7 C 163.2 244.7 163.2 244.7 163.2 244.7 C 163.2 244.7 163.2 244.7 163.2 244.7 Z M 165.1 244.5 C 165.0 244.6 165.0 244.6 165.1 244.5 C 165.1 244.5 165.1 244.5 165.1 244.5 Z M 168.2 251.5 C 168.1 251.5 168.1 251.5 168.2 251.5 C 168.2 251.5 168.2 251.5 168.2 251.5 Z M 145.3 248.0 C 144.1 247.5 146.6 245.7 146.4 247.4 C 146.5 248.1 145.5 247.8 145.3 248.0 M 154.8 247.0 C 155.1 249.4 153.6 243.8 154.8 247.0 M 167.6 245.8 C 168.9 248.6 166.1 243.8 167.6 245.8 M 170.2 245.3 C 170.9 245.8 165.4 245.6 169.3 244.9 C 169.7 244.4 169.9 245.0 170.2 245.3 M 152.5 245.5 C 152.8 246.8 150.5 244.9 152.5 245.5 M 160.2 249.4 C 160.8 248.5 162.4 247.8 161.7 249.2 C 161.7 251.1 159.5 250.1 160.2 249.4 M 141.2 245.9 C 142.2 243.8 141.1 247.6 141.2 245.9 M 146.1 246.0 C 146.1 246.0 146.1 246.0 146.1 246.0 C 146.1 246.0 146.1 246.0 146.1 246.0 Z M 148.0 245.7 C 148.1 245.9 148.1 245.9 148.0 245.7 M 142.0 244.0 C 142.1 244.2 142.1 244.2 142.0 244.0 M 160.2 247.2 C 160.3 247.4 160.3 247.4 160.2 247.2 M 156.2 245.8 C 158.1 247.9 155.2 246.2 156.2 245.8 M 151.6 249.8 C 152.2 250.8 150.4 249.9 151.6 249.8 M 159.3 245.0 C 160.7 247.0 157.5 246.9 159.3 245.0 M 155.3 245.6 C 155.4 245.6 155.4 245.6 155.3 245.6 C 155.3 245.6 155.3 245.6 155.3 245.6 Z M 160.7 249.6 C 160.7 249.6 160.7 249.6 160.7 249.6 C 160.7 249.6 160.7 249.6 160.7 249.6 Z M 161.3 249.5 C 161.2 249.6 161.2 249.6 161.3 249.5 C 161.3 249.5 161.3 249.5 161.3 249.5 Z M 161.0 244.8 C 160.9 244.9 160.9 244.9 161.0 244.8 C 161.0 244.8 161.0 244.8 161.0 244.8 Z M 143.8 250.5 C 145.1 250.7 142.8 250.8 143.8 250.5 C 143.8 250.5 143.8 250.5 143.8 250.5 Z M 149.7 244.7 C 151.9 246.3 148.2 246.2 149.7 244.7 C 149.7 244.7 149.7 244.7 149.7 244.7 Z M 152.2 247.3 C 152.2 247.4 152.2 247.4 152.2 247.3 C 152.2 247.3 152.2 247.3 152.2 247.3 Z M 158.5 243.8 C 158.5 243.9 158.5 243.9 158.5 243.8 C 158.5 243.8 158.5 243.8 158.5 243.8 Z M 144.5 250.8 C 144.5 250.9 144.5 250.9 144.5 250.8 C 144.5 250.8 144.5 250.8 144.5 250.8 Z M 164.8 245.9 C 164.8 246.0 164.8 246.0 164.8 245.9 C 164.8 245.9 164.8 245.9 164.8 245.9 Z M 157.1 249.9 C 157.6 249.2 157.2 250.5 157.1 249.9 C 157.1 249.9 157.1 249.9 157.1 249.9 Z M 159.1 249.9 C 159.1 249.9 159.1 249.9 159.1 249.9 C 159.1 249.9 159.1 249.9 159.1 249.9 Z M 167.9 244.1 C 168.0 244.0 168.0 244.0 167.9 244.1 C 167.9 244.1 167.9 244.1 167.9 244.1 Z M 164.2 251.8 C 164.2 251.8 164.2 251.8 164.2 251.8 C 164.2 251.8 164.2 251.8 164.2 251.8 Z M 165.8 249.5 C 165.8 249.5 165.8 249.5 165.8 249.5 C 165.8 249.5 165.8 249.5 165.8 249.5 Z M 160.6 245.3 C 162.6 244.9 160.2 246.2 160.6 245.3 C 160.6 245.3 160.6 245.3 160.6 245.3 Z M 170.8 248.8 C 170.8 249.0 170.8 249.0 170.8 248.8 C 170.8 248.8 170.8 248.8 170.8 248.8 Z M 171.8 246.1 C 171.9 246.3 171.9 246.3 171.8 246.1 C 171.8 246.1 171.8 246.1 171.8 246.1 Z M 172.3 244.7 C 172.4 244.8 172.4 244.8 172.3 244.7 C 172.3 244.7 172.3 244.7 172.3 244.7 Z M 148.0 248.6 C 147.9 248.5 147.9 248.5 148.0 248.6 C 148.0 248.6 148.0 248.6 148.0 248.6 Z M 147.2 244.2 C 147.2 244.2 147.2 244.2 147.2 244.2 C 147.2 244.2 147.2 244.2 147.2 244.2 Z M 149.9 244.0 C 149.9 244.0 149.9 244.0 149.9 244.0 C 149.9 244.0 149.9 244.0 149.9 244.0 Z M 147.5 251.3 C 147.5 251.2 147.5 251.2 147.5 251.3 C 147.5 251.3 147.5 251.3 147.5 251.3 Z M 157.6 247.5 C 157.6 247.5 157.6 247.5 157.6 247.5 C 157.6 247.5 157.6 247.5 157.6 247.5 Z M 158.6 249.3 C 158.5 249.2 158.5 249.2 158.6 249.3 C 158.6 249.3 158.6 249.3 158.6 249.3 Z M 156.2 251.7 C 156.2 251.6 156.2 251.6 156.2 251.7 C 156.2 251.7 156.2 251.7 156.2 251.7 Z M 159.3 250.8 C 159.3 250.8 159.3 250.8 159.3 250.8 C 159.3 250.8 159.3 250.8 159.3 250.8 Z M 140.7 250.4 C 140.7 250.5 140.7 250.5 140.7 250.4 C 140.7 250.4 140.7 250.4 140.7 250.4 Z M 140.5 247.1 C 140.4 247.2 140.4 247.2 140.5 247.1 C 140.5 247.1 140.5 247.1 140.5 247.1 Z M 157.9 245.1 C 158.4 244.4 158.9 246.1 157.9 245.1 M 154.1 245.5 C 154.1 245.6 154.1 245.6 154.1 245.5 C 154.1 245.5 154.1 245.5 154.1 245.5 Z M 164.4 245.2 C 164.9 246.5 162.6 244.5 164.4 245.2 C 164.4 245.2 164.4 245.2 164.4 245.2 Z M 162.4 250.8 C 162.4 250.8 162.4 250.8 162.4 250.8 C 162.4 250.8 162.4 250.8 162.4 250.8 Z M 163.4 250.3 C 163.5 250.4 163.5 250.4 163.4 250.3 C 163.4 250.3 163.4 250.3 163.4 250.3 Z M 169.0 246.6 C 169.1 246.8 169.1 246.8 169.0 246.6 M 153.6 244.3 C 154.2 244.9 154.0 244.8 153.6 244.3 M 165.7 245.3 C 165.7 245.3 165.7 245.3 165.7 245.3 C 165.7 245.3 165.7 245.3 165.7 245.3 Z M 170.2 245.9 C 170.2 245.9 170.2 245.9 170.2 245.9 C 170.2 245.9 170.2 245.9 170.2 245.9 Z M 150.8 245.2 C 150.9 246.9 150.4 246.5 150.8 245.2 M 143.2 245.7 C 143.2 245.9 143.2 245.9 143.2 245.7 C 143.2 245.7 143.2 245.7 143.2 245.7 Z M 143.2 245.7 " fill="#C82505"></path><path d="M 184.5 265.1 C 184.4 265.9 182.4 266.5 183.7 265.2 C 183.8 265.1 184.6 264.9 184.5 265.1 Z M 187.6 263.3 C 187.4 263.5 187.2 263.5 187.0 263.5 C 186.3 263.1 188.5 262.8 187.6 263.3 Z M 182.7 265.4 C 182.7 265.5 181.7 266.1 181.8 265.8 C 181.8 265.5 182.7 265.3 182.7 265.4 Z M 189.7 260.4 C 189.9 260.7 188.8 261.3 188.6 261.3 C 187.8 261.2 189.5 259.8 189.7 260.4 Z M 181.2 255.2 C 181.2 255.1 181.2 255.0 181.2 254.9 C 181.2 255.0 181.2 255.1 181.2 255.2 Z M 204.6 252.5 C 204.5 252.6 203.9 252.6 203.9 252.3 C 203.9 251.9 205.2 252.0 204.6 252.5 Z M 180.6 234.6 C 180.6 234.6 180.4 235.1 180.2 234.9 C 180.0 234.7 180.4 234.5 180.6 234.6 Z M 180.2 234.7 C 180.0 234.8 179.9 234.3 180.1 234.4 C 180.4 234.5 180.5 234.5 180.2 234.7 Z M 196.9 239.0 C 197.0 239.0 197.1 239.1 196.9 239.1 C 196.8 239.2 196.6 238.9 196.9 239.0 Z M 196.2 239.1 C 195.9 239.2 195.9 238.7 196.1 238.8 C 196.4 238.8 196.5 238.9 196.2 239.1 Z M 194.0 235.8 C 194.1 235.9 194.2 235.9 194.0 236.0 C 193.9 236.0 193.7 235.7 194.0 235.8 Z M 179.7 243.1 C 179.6 243.0 179.8 242.3 180.0 242.4 C 180.4 242.4 179.9 243.3 179.7 243.1 Z M 179.6 242.3 C 179.4 242.3 179.3 241.9 179.5 242.0 C 179.7 242.1 179.8 242.2 179.6 242.3 Z M 180.1 244.8 C 180.4 244.8 180.4 245.6 180.4 245.7 C 180.3 245.9 180.2 246.2 180.1 246.4 C 180.0 246.5 179.6 244.8 180.1 244.8 Z M 180.4 250.3 C 180.3 250.3 180.2 250.3 180.3 250.0 C 180.5 249.8 180.5 250.3 180.4 250.3 Z M 180.2 247.2 C 180.1 247.2 180.0 247.2 180.1 246.9 C 180.2 246.7 180.3 247.2 180.2 247.2 Z M 196.0 257.6 C 196.2 257.7 195.3 258.0 195.2 258.0 C 195.1 258.0 195.4 257.8 195.2 257.9 C 194.9 257.9 195.1 257.1 196.0 257.6 Z M 189.3 262.2 C 189.2 262.3 189.1 262.2 189.0 262.0 C 189.0 262.0 189.8 261.8 189.3 262.2 Z M 194.4 257.3 C 194.5 257.4 194.2 257.4 194.2 257.4 C 194.1 257.3 194.3 257.2 194.4 257.3 Z M 194.8 256.8 C 194.7 256.9 194.2 256.9 194.1 256.7 C 194.1 256.3 195.4 256.3 194.8 256.8 Z M 197.1 257.3 C 196.9 257.4 196.9 257.4 196.9 257.3 C 197.0 257.1 197.1 257.3 197.1 257.3 Z M 193.3 260.1 C 193.1 260.2 193.1 260.2 193.2 260.0 C 193.2 259.9 193.3 260.1 193.3 260.1 Z M 198.7 255.7 C 198.7 255.7 198.3 256.3 197.9 256.0 C 197.4 255.4 198.6 255.7 198.7 255.7 Z M 201.1 253.4 C 200.9 253.5 200.9 253.3 201.1 253.3 C 201.3 253.2 201.3 253.4 201.1 253.4 Z M 201.6 251.9 C 202.0 251.8 202.3 251.9 201.8 252.2 C 201.3 252.4 201.2 252.0 201.6 251.9 Z M 201.2 252.4 C 201.1 252.3 201.3 252.2 201.4 252.3 C 201.5 252.4 201.2 252.5 201.2 252.4 Z M 199.2 254.5 C 199.1 254.8 198.6 254.7 199.0 254.4 C 199.3 254.1 199.4 254.2 199.2 254.5 Z M 179.8 258.0 C 179.9 258.2 179.5 258.2 179.4 258.0 C 179.3 257.9 179.7 257.8 179.8 258.0 Z M 181.0 246.1 C 180.8 246.3 180.8 246.2 180.9 245.9 C 181.0 245.6 181.2 246.0 181.0 246.1 Z M 181.6 238.6 C 181.5 238.8 181.4 238.7 181.5 238.4 C 181.6 238.1 181.8 238.5 181.6 238.6 Z M 181.0 249.2 C 180.9 249.3 180.3 248.5 180.9 248.0 C 181.4 247.6 181.5 248.9 181.0 249.2 Z M 187.0 256.5 C 187.1 256.7 186.9 256.6 186.9 256.6 C 186.9 256.4 186.9 256.4 187.0 256.5 Z M 181.9 247.5 C 182.0 247.6 181.7 247.6 181.6 247.5 C 181.4 247.3 181.8 247.3 181.9 247.5 Z M 181.2 240.0 C 181.0 240.3 180.6 240.1 180.4 239.9 C 179.9 239.3 180.5 238.9 180.9 238.4 C 181.1 238.1 181.3 239.8 181.2 240.0 Z M 180.9 259.8 C 181.0 259.6 181.1 259.5 181.1 259.3 C 180.9 259.3 181.0 259.1 181.1 259.0 C 181.0 258.3 180.3 257.8 180.2 257.3 C 179.7 256.2 181.1 255.8 181.2 255.2 C 181.2 255.3 181.2 255.5 181.4 255.6 C 181.8 255.9 181.6 253.3 181.6 253.1 C 181.2 250.8 180.9 253.5 180.1 253.5 C 179.8 253.6 180.6 252.0 180.7 251.9 C 181.0 251.2 180.2 251.1 180.5 250.5 C 180.7 250.2 182.4 249.4 182.1 249.1 C 181.9 248.9 182.1 248.2 182.1 248.0 C 182.1 247.5 182.1 246.8 181.5 247.2 C 181.0 247.5 180.6 247.6 181.0 247.0 C 181.3 246.6 182.3 244.0 181.1 244.1 C 181.0 244.1 180.6 244.7 180.6 244.7 C 180.3 244.0 180.8 241.8 180.2 241.2 C 179.1 240.1 180.9 241.6 181.3 241.0 C 181.8 240.0 182.2 239.5 182.0 238.2 C 181.9 237.9 181.9 236.7 181.2 237.2 C 180.8 237.7 180.5 237.3 180.3 238.1 C 179.7 237.2 180.9 236.7 180.6 236.5 C 180.3 236.3 180.1 236.8 180.1 236.2 C 180.2 235.4 180.0 235.7 180.7 235.6 C 180.9 235.6 181.0 234.9 181.0 234.9 C 181.1 234.9 181.1 234.9 181.2 234.9 C 181.1 234.3 179.9 233.4 180.2 233.2 C 180.4 233.0 181.2 233.4 181.5 233.4 C 181.5 233.3 181.5 233.3 181.5 233.2 C 181.4 233.0 181.0 232.3 181.1 232.2 C 181.2 232.2 182.3 232.6 182.0 232.3 C 181.7 232.0 182.1 230.7 182.4 230.6 C 182.7 230.6 184.2 230.2 184.3 230.0 C 184.4 229.7 185.1 230.2 185.4 230.3 C 185.6 230.4 185.8 231.0 185.8 231.1 C 185.9 231.2 186.5 231.5 186.5 231.5 C 186.5 231.5 186.8 231.5 187.2 231.7 C 187.7 231.9 187.8 232.4 188.3 232.9 C 188.7 233.4 189.2 233.2 189.7 233.4 C 190.2 233.7 190.2 234.7 190.6 235.1 C 191.0 235.5 191.4 234.8 191.9 235.1 C 192.5 235.4 192.8 235.7 192.5 235.7 C 192.3 235.7 192.3 236.0 192.5 236.1 C 192.6 236.2 193.2 236.8 193.5 236.8 C 193.8 236.8 192.5 235.3 194.5 236.6 C 195.5 237.3 195.8 238.4 195.6 238.3 C 194.8 237.8 195.8 239.8 196.0 239.5 C 196.2 239.2 197.9 240.3 197.8 239.5 C 197.8 239.2 199.7 240.1 199.9 240.4 C 200.1 240.6 201.0 240.9 200.9 241.6 C 200.9 242.0 202.3 241.9 202.5 242.0 C 202.8 242.1 204.1 243.1 204.3 243.4 C 204.5 243.7 203.8 243.3 203.5 243.1 C 203.2 242.9 202.9 242.4 202.7 242.3 C 202.4 242.2 202.8 242.8 203.1 243.0 C 203.4 243.3 203.3 243.6 203.6 243.9 C 203.8 243.9 203.9 244.1 204.2 244.3 C 204.4 244.3 204.5 244.4 204.5 244.3 C 204.7 244.1 204.5 243.8 204.6 243.8 C 204.7 243.7 205.1 243.7 205.5 244.0 C 205.9 244.3 206.2 244.5 206.7 245.0 C 207.2 245.5 207.4 245.5 207.9 245.6 C 208.3 245.8 208.6 246.1 208.5 246.2 C 208.5 246.4 207.9 246.2 207.8 246.2 C 207.7 246.3 208.1 247.0 208.3 247.1 C 209.3 247.9 207.9 248.3 208.9 249.0 C 209.4 249.5 208.6 249.4 208.0 249.5 C 208.1 249.7 208.1 249.7 207.7 250.1 C 207.8 250.3 207.0 250.5 206.7 250.8 C 206.5 250.9 205.3 252.0 205.9 251.1 C 206.0 251.1 206.0 251.0 206.0 250.9 C 206.0 250.9 206.0 250.9 206.0 250.9 C 206.0 250.9 206.1 250.2 206.1 250.2 C 206.1 250.2 206.0 250.9 206.0 250.9 C 205.7 250.8 205.5 250.7 205.3 250.6 C 205.2 250.7 205.2 250.8 205.2 250.9 C 205.2 250.9 205.1 250.9 205.1 251.0 C 205.1 251.0 205.1 251.0 205.1 251.0 C 205.3 251.2 205.2 251.2 205.0 251.2 C 204.6 251.8 203.3 252.1 202.8 252.2 C 203.4 250.3 201.3 251.6 200.7 252.2 C 200.1 252.8 200.9 254.1 201.3 253.9 C 200.8 254.2 200.5 254.1 200.2 253.8 C 200.2 253.8 199.1 253.3 199.2 253.3 C 197.7 253.5 198.7 254.5 198.5 254.8 C 198.2 255.2 197.9 255.4 197.6 255.7 C 197.3 256.0 197.7 256.1 197.7 256.3 C 197.6 257.1 196.1 256.6 195.7 256.7 C 196.0 256.4 196.3 256.1 196.4 255.8 C 196.2 256.3 195.6 255.8 195.3 255.8 C 194.9 255.9 194.5 256.3 194.1 256.5 C 193.4 256.9 192.9 257.5 192.3 258.0 C 192.5 258.0 194.0 258.1 194.1 258.1 C 193.8 258.2 193.1 258.4 193.6 258.8 C 194.6 259.4 192.6 259.9 192.3 260.1 C 191.4 260.5 191.0 261.9 189.5 261.5 C 189.5 261.5 190.7 260.5 190.6 260.4 C 189.9 259.8 189.3 259.6 188.5 260.3 C 188.3 260.5 187.4 261.8 187.4 261.8 C 187.4 261.7 189.7 262.7 188.3 262.8 C 188.0 262.8 188.3 262.3 187.9 262.3 C 187.4 262.3 186.9 262.8 186.5 263.0 C 186.4 263.1 185.6 263.2 185.6 263.3 C 185.5 263.6 185.7 264.0 185.6 264.3 C 185.4 264.5 184.9 264.5 184.8 264.3 C 184.8 264.2 184.7 264.2 184.7 264.2 C 184.6 264.2 184.6 264.2 184.5 264.0 C 184.4 264.1 184.2 264.2 183.9 264.1 C 183.8 264.1 184.1 263.9 184.4 263.9 C 184.4 263.8 184.3 263.7 184.3 263.5 C 183.9 263.8 183.6 264.1 183.6 264.2 C 183.3 264.9 183.4 265.1 182.1 265.0 C 181.1 264.8 180.4 262.4 180.8 260.9 C 180.7 260.6 180.7 260.3 180.9 259.8 Z M 204.7 245.1 C 204.6 245.1 204.6 245.1 204.6 245.0 C 204.5 245.2 204.4 245.3 204.4 245.4 C 204.6 245.7 204.4 245.1 204.7 245.4 C 205.0 245.6 205.1 245.5 204.7 245.1 Z M 204.4 248.5 C 204.7 248.5 204.7 248.4 204.6 248.2 C 204.5 248.3 204.5 248.4 204.4 248.5 Z M 205.1 249.9 C 205.5 249.5 204.5 249.4 203.9 249.9 C 204.5 250.0 204.9 250.0 205.1 249.9 Z M 204.5 251.1 C 204.4 251.0 204.4 250.9 204.4 250.8 C 204.4 250.6 204.1 251.1 204.0 250.9 C 204.0 250.7 204.3 250.3 203.9 250.3 C 203.8 250.3 203.7 250.4 203.6 250.4 C 203.6 250.4 203.6 250.5 203.6 250.6 C 203.5 250.9 204.1 251.2 204.5 251.1 Z M 202.2 244.9 C 202.4 244.9 202.3 244.8 202.2 244.8 C 202.0 244.7 202.0 244.9 202.2 244.9 Z M 200.5 242.3 C 200.6 242.5 200.8 242.6 200.8 242.3 C 200.7 242.0 200.3 242.0 200.5 242.3 Z M 196.8 246.2 C 196.9 246.1 196.8 246.1 196.7 246.0 C 196.5 245.9 196.6 246.2 196.8 246.2 Z M 196.6 248.9 C 196.5 249.1 196.8 249.4 196.8 249.2 C 196.9 249.0 196.7 248.8 196.6 248.9 Z M 197.0 242.6 C 196.7 242.5 196.8 242.8 197.0 242.8 C 197.2 242.7 197.2 242.6 197.0 242.6 Z M 197.5 246.4 C 197.3 246.1 197.3 246.1 197.2 246.2 C 197.0 246.3 197.1 246.5 197.4 246.6 C 197.7 246.8 197.8 246.7 197.5 246.4 Z M 197.8 248.7 C 197.1 249.1 197.2 249.4 198.0 248.8 C 198.7 248.2 198.2 248.4 197.8 248.7 Z M 199.0 240.4 C 199.1 240.5 199.5 240.6 199.5 240.6 C 199.5 240.6 198.7 239.9 199.0 240.4 Z M 197.5 255.0 C 197.8 254.9 197.8 254.5 197.4 254.7 C 197.0 254.9 197.3 255.1 197.5 255.0 Z M 196.2 253.8 C 196.7 254.2 197.2 254.1 197.2 254.1 C 197.1 254.1 197.0 253.6 197.2 253.4 C 197.5 253.0 198.3 253.2 198.6 252.6 C 198.8 252.0 197.8 252.5 197.6 252.7 C 197.8 252.5 197.8 252.4 197.7 252.2 C 197.5 252.1 197.4 252.2 197.3 252.4 C 197.2 252.7 195.5 253.4 196.2 253.8 Z M 196.2 247.2 C 196.5 247.3 196.8 247.1 196.6 246.9 C 196.3 246.6 196.1 246.4 196.0 246.5 C 195.9 246.5 195.9 247.1 196.2 247.2 Z M 196.0 245.1 C 196.2 245.0 196.2 245.0 195.9 244.9 C 195.5 244.7 195.7 245.3 196.0 245.1 Z M 192.1 236.3 C 191.9 236.4 192.3 236.7 192.4 236.5 C 192.4 236.4 192.3 236.3 192.1 236.3 Z M 192.3 239.8 C 191.7 239.7 192.1 240.2 192.2 240.2 C 192.4 240.2 192.6 239.9 192.3 239.8 Z M 194.3 241.9 C 194.0 241.8 194.3 242.1 194.4 242.1 C 194.6 242.0 194.4 241.9 194.3 241.9 Z M 194.5 243.2 C 194.3 243.1 194.3 243.5 194.7 243.5 C 194.8 243.5 194.7 243.3 194.5 243.2 Z M 193.5 254.4 C 193.5 254.4 193.3 253.9 193.1 254.4 C 192.9 254.8 192.9 254.8 193.5 254.4 Z M 194.4 250.4 C 194.8 250.2 195.0 249.9 194.7 248.7 C 194.3 247.6 194.1 248.1 193.9 248.8 C 193.8 249.4 193.2 247.6 193.0 248.9 C 192.8 249.4 194.1 250.7 194.4 250.4 Z M 192.5 243.3 C 192.9 244.0 193.9 243.8 193.3 243.4 C 192.7 242.9 192.1 242.7 192.5 243.3 Z M 192.4 242.8 C 192.6 242.9 192.5 242.7 192.3 242.6 C 192.1 242.5 192.2 242.8 192.4 242.8 Z M 193.0 259.3 C 194.0 258.3 192.3 258.4 192.3 258.4 C 190.8 258.8 191.9 260.3 193.0 259.3 Z M 181.8 235.5 C 181.8 235.6 181.7 235.6 181.7 235.7 C 181.7 235.7 181.7 235.7 181.8 235.7 C 181.9 235.9 182.2 235.5 182.2 235.5 C 182.0 235.4 181.9 235.4 181.8 235.5 Z M 181.4 242.7 C 181.5 242.4 181.4 242.2 181.2 242.0 C 180.6 242.1 180.6 244.3 181.7 243.4 C 181.9 243.3 182.8 241.9 182.3 241.8 C 182.0 241.7 181.4 243.4 181.4 242.7 Z M 182.3 240.4 C 182.3 241.3 183.2 239.7 182.7 239.9 C 182.5 240.0 182.4 240.2 182.3 240.4 Z M 184.3 234.1 C 183.9 233.0 182.2 233.2 183.0 235.0 C 183.9 236.7 184.7 236.8 184.4 235.9 C 184.2 235.0 185.0 235.8 184.3 234.1 Z M 184.3 243.4 C 183.1 243.2 183.4 243.7 184.3 244.0 C 184.6 244.1 185.0 243.5 184.3 243.4 Z M 184.5 246.0 C 184.4 246.3 184.4 246.3 184.6 246.1 C 184.9 245.9 184.6 245.6 184.5 246.0 Z M 186.0 232.2 C 185.8 231.8 185.3 231.5 185.6 231.5 C 185.9 231.5 185.8 231.4 185.6 231.1 C 185.3 230.8 185.3 231.4 185.3 231.7 C 185.4 232.0 186.2 232.7 186.0 232.2 Z M 190.2 242.2 C 189.9 242.1 190.1 242.4 190.3 242.4 C 190.4 242.4 190.4 242.3 190.2 242.2 Z M 191.5 252.0 C 191.5 252.0 191.4 251.7 191.2 252.0 C 191.1 252.2 191.1 252.2 191.5 252.0 Z M 191.0 259.9 C 191.2 259.7 190.7 259.7 190.8 259.3 C 190.8 259.1 191.0 259.3 191.1 259.4 C 191.0 259.3 190.9 258.4 190.5 259.0 C 190.3 259.3 190.5 260.4 191.0 259.9 Z M 189.8 244.9 C 190.2 245.4 190.5 243.7 190.9 244.0 C 191.2 244.2 191.2 244.1 190.8 243.7 C 190.5 243.3 189.5 244.5 189.8 244.9 Z M 189.6 240.7 C 189.6 241.0 190.4 241.7 190.2 241.3 C 190.1 240.8 189.6 240.5 189.9 240.5 C 190.2 240.5 190.0 240.4 189.8 240.2 C 189.5 239.9 189.5 240.5 189.6 240.7 Z M 189.3 233.7 C 189.4 233.9 189.9 234.1 189.7 233.8 C 189.6 233.6 189.2 233.6 189.3 233.7 Z M 188.8 253.2 C 189.0 252.9 188.9 252.8 188.6 253.1 C 188.2 253.4 188.7 253.5 188.8 253.2 Z M 188.1 234.4 C 188.5 234.8 188.2 234.1 188.5 234.4 C 188.8 234.7 188.9 234.5 188.5 234.1 C 188.2 233.8 187.7 233.9 188.1 234.4 Z M 187.8 259.5 C 187.8 259.4 187.6 259.1 187.5 259.3 C 187.4 259.5 187.7 259.7 187.8 259.5 Z M 186.8 256.9 C 186.9 256.9 187.0 256.9 187.1 256.8 C 188.8 255.6 185.7 256.5 186.8 256.9 Z M 187.0 252.9 C 187.1 253.4 187.4 252.8 187.4 252.8 C 187.2 252.7 187.1 252.7 187.0 252.9 Z M 187.0 248.5 C 186.7 248.4 186.8 248.8 187.0 248.8 C 187.2 248.7 187.1 248.6 187.0 248.5 Z M 186.2 262.8 C 186.4 262.7 186.4 262.5 186.2 262.6 C 186.0 262.6 185.9 262.8 186.2 262.8 Z M 186.0 251.7 C 186.1 251.8 186.2 251.8 186.1 251.6 C 186.0 251.4 185.9 251.7 186.0 251.7 Z M 185.9 238.3 C 186.1 238.4 186.2 238.5 186.3 238.6 C 186.5 238.5 186.6 237.7 186.9 237.7 C 186.9 237.7 186.9 237.7 186.9 237.7 C 187.0 237.7 187.0 237.7 187.0 237.7 C 187.1 237.7 187.3 237.8 187.1 237.9 C 187.2 238.0 187.2 238.1 187.3 238.3 C 187.5 238.0 187.7 237.7 187.5 237.5 C 187.3 237.2 186.7 237.2 186.2 237.2 C 186.1 237.4 186.0 237.6 186.0 237.8 C 186.0 237.8 186.0 237.8 186.0 237.8 C 186.4 237.9 186.5 238.2 186.3 238.2 C 186.1 238.2 186.0 238.1 185.9 238.0 C 185.9 238.1 185.9 238.2 185.9 238.3 Z M 185.4 250.1 C 185.6 250.4 185.7 250.2 185.8 249.7 C 185.9 249.4 185.2 249.7 185.4 250.1 Z M 185.8 262.2 C 185.7 262.1 185.7 262.0 185.6 261.9 C 185.6 262.0 185.5 262.0 185.5 262.1 C 185.5 262.3 185.4 262.6 185.4 262.8 C 185.7 262.8 185.9 262.7 185.8 262.2 Z M 184.5 258.4 C 184.5 258.5 184.5 260.1 184.8 259.8 C 185.4 259.4 186.0 260.1 185.7 258.9 C 185.6 258.3 184.8 257.9 184.7 257.3 C 184.0 254.5 183.9 258.1 183.7 258.8 C 183.7 259.0 184.4 258.2 184.5 258.4 Z M 183.6 254.7 C 183.4 254.5 183.0 255.0 183.1 255.1 C 183.2 255.8 183.9 254.8 183.6 254.7 Z M 183.2 262.6 C 183.2 262.6 183.3 262.6 183.4 262.6 C 183.3 262.6 183.2 262.5 183.2 262.5 C 183.2 262.5 183.2 262.6 183.2 262.6 Z M 182.9 264.6 C 183.7 263.9 182.2 263.9 181.8 264.1 C 181.3 264.3 182.5 264.9 182.9 264.6 Z M 182.3 256.8 C 182.3 256.2 180.7 255.6 180.7 256.6 C 180.8 257.5 182.2 258.0 182.3 256.8 Z M 180.2 250.9 C 180.4 251.1 180.1 251.7 179.8 251.4 C 179.7 251.2 180.1 250.8 180.2 250.9 Z M 179.3 259.7 C 179.4 259.5 179.4 259.7 179.4 259.7 C 179.2 259.9 179.2 259.9 179.3 259.7 Z M 180.5 258.9 C 180.4 259.1 180.3 259.5 180.2 259.7 C 180.1 259.9 180.0 259.3 180.0 259.3 C 180.0 259.0 180.5 258.9 180.5 258.9 Z M 180.6 254.1 C 180.4 254.4 180.4 254.0 180.5 253.8 C 180.5 253.7 180.8 254.0 180.6 254.1 Z M 180.2 255.3 C 180.3 255.1 180.5 255.2 180.5 255.4 C 180.4 255.7 180.2 255.4 180.2 255.3 Z M 181.2 253.3 C 181.3 253.8 181.4 254.5 181.0 254.4 C 180.8 254.4 180.9 252.3 181.2 253.3 Z M 181.2 253.3 " fill="#C82505"></path><path d="M 105.4 134.6 C 105.0 134.8 104.1 134.5 103.8 134.7 M 105.4 134.6 C 104.5 133.1 102.7 133.0 100.4 132.7 C 97.8 132.7 100.4 134.1 100.1 134.7 C 96.8 135.3 96.8 134.2 97.3 132.6 C 96.0 133.7 92.2 131.8 93.0 133.8 C 98.4 133.8 89.3 134.3 93.7 135.4 C 94.2 135.7 92.9 136.2 92.4 136.2 C 93.9 137.1 91.4 138.0 93.8 138.6 C 94.1 139.9 93.6 139.3 95.2 140.3 C 95.8 140.4 95.5 140.0 95.5 139.7 C 95.7 138.2 97.3 140.5 98.6 139.6 C 99.7 141.5 100.9 139.3 99.9 138.5 C 101.0 138.7 102.3 140.7 103.5 139.3 C 104.1 140.2 107.2 139.6 105.4 138.4 C 104.0 137.7 105.5 137.1 105.7 136.6 C 105.3 136.2 103.4 136.8 103.1 136.5 C 103.7 136.2 106.1 135.5 103.5 135.5 C 104.3 134.9 103.1 134.5 105.4 134.6 C 105.4 134.6 105.4 134.6 105.4 134.6 Z M 96.4 133.5 C 96.3 133.0 97.2 133.5 96.4 133.5 C 96.4 133.5 96.4 133.5 96.4 133.5 Z M 102.5 140.3 C 102.5 139.8 103.4 140.3 102.5 140.3 C 102.5 140.3 102.5 140.3 102.5 140.3 Z M 95.9 139.7 C 95.9 139.2 96.8 139.7 95.9 139.7 C 95.9 139.7 95.9 139.7 95.9 139.7 Z M 98.7 133.8 C 100.1 134.2 97.5 134.5 97.3 134.0 C 97.6 134.1 98.4 133.4 98.7 133.8 C 98.7 133.8 98.7 133.8 98.7 133.8 Z M 98.9 136.7 C 99.0 136.6 99.6 136.5 99.5 137.0 C 99.2 137.1 98.8 136.9 98.9 136.7 C 98.9 136.7 98.9 136.7 98.9 136.7 Z M 91.9 134.7 C 92.0 134.5 92.6 134.4 92.5 134.9 C 92.1 135.1 91.7 134.8 91.9 134.7 C 91.9 134.7 91.9 134.7 91.9 134.7 Z M 100.3 135.2 C 100.7 135.2 100.8 135.7 100.4 135.8 C 100.2 135.5 99.2 135.5 100.3 135.2 C 100.3 135.2 100.3 135.2 100.3 135.2 Z M 102.6 133.5 C 103.8 133.7 101.3 134.5 101.4 134.2 C 101.0 133.9 101.9 133.1 102.6 133.5 C 102.6 133.5 102.6 133.5 102.6 133.5 Z M 101.0 135.9 C 102.0 136.1 100.6 136.2 101.0 135.9 C 101.0 135.9 101.0 135.9 101.0 135.9 Z M 92.8 138.4 C 93.8 138.7 92.4 138.8 92.8 138.4 C 92.8 138.4 92.8 138.4 92.8 138.4 Z M 98.0 140.0 C 99.0 140.2 97.6 140.4 98.0 140.0 C 98.0 140.0 98.0 140.0 98.0 140.0 Z M 96.1 134.8 C 94.4 134.8 95.9 133.5 96.1 134.8 C 96.1 134.8 96.1 134.8 96.1 134.8 Z M 105.3 133.3 C 103.6 133.3 105.1 132.1 105.3 133.3 C 105.3 133.3 105.3 133.3 105.3 133.3 Z M 184.0 133.8 C 185.6 133.5 179.4 131.9 181.7 133.8 C 182.4 135.5 178.2 135.4 179.3 133.8 C 178.1 133.6 178.1 133.6 177.4 134.3 C 177.2 133.1 174.3 132.5 173.3 133.1 C 172.6 134.2 175.2 133.3 173.6 134.4 C 169.9 134.7 173.8 135.5 172.4 136.9 C 172.3 136.9 172.2 136.2 171.9 136.6 C 171.8 137.9 173.8 138.7 172.9 139.7 C 173.4 139.5 176.1 140.9 175.0 139.8 C 174.6 138.6 177.8 141.2 177.6 139.2 C 178.4 140.1 179.4 138.9 180.2 140.0 C 180.8 140.2 180.8 139.2 180.7 138.9 C 180.7 138.0 181.5 141.0 182.5 139.4 C 182.6 139.8 185.5 139.7 183.4 138.9 C 184.0 139.1 187.3 139.5 185.6 137.8 C 183.2 136.9 188.0 135.9 185.2 135.8 C 183.1 135.7 182.7 136.0 184.3 135.1 C 184.8 135.2 187.2 135.0 185.1 134.2 C 184.7 134.5 183.7 134.3 184.0 133.8 C 184.0 133.8 184.0 133.8 184.0 133.8 Z M 184.4 136.4 C 183.2 136.5 184.3 135.7 184.4 136.4 C 184.4 136.4 184.4 136.4 184.4 136.4 Z M 180.0 140.4 C 178.8 140.5 179.9 139.7 180.0 140.4 C 180.0 140.4 180.0 140.4 180.0 140.4 Z M 180.2 133.4 C 179.5 133.9 179.4 132.1 180.2 133.4 C 180.2 133.4 180.2 133.4 180.2 133.4 Z M 182.0 138.9 C 182.0 138.9 182.2 138.7 182.5 138.6 C 182.4 138.7 182.1 138.9 182.0 138.9 C 182.0 138.9 182.0 138.9 182.0 138.9 Z M 178.1 133.4 C 176.3 134.2 177.8 131.9 178.1 133.4 C 178.1 133.4 178.1 133.4 178.1 133.4 Z M 174.4 135.1 C 174.2 136.9 172.6 134.7 174.4 135.1 C 174.4 135.1 174.4 135.1 174.4 135.1 Z M 177.0 139.1 C 177.3 138.7 177.3 139.3 177.0 139.1 C 177.0 139.1 177.0 139.1 177.0 139.1 Z M 184.9 139.4 C 185.2 139.0 185.2 139.6 184.9 139.4 C 184.9 139.4 184.9 139.4 184.9 139.4 Z M 174.7 138.9 C 174.9 138.3 175.4 139.3 174.7 138.9 C 174.7 138.9 174.7 138.9 174.7 138.9 Z M 179.8 134.1 C 181.5 132.6 181.8 136.2 179.8 134.1 C 179.8 134.1 179.8 134.1 179.8 134.1 Z M 182.8 133.9 C 183.9 133.6 182.6 134.9 182.1 134.6 C 182.1 134.5 182.6 134.0 182.8 133.9 C 182.8 133.9 182.8 133.9 182.8 133.9 Z M 178.1 134.3 C 179.2 133.5 179.1 134.6 178.1 134.3 C 178.1 134.3 178.1 134.3 178.1 134.3 Z M 181.0 133.5 C 181.5 133.6 180.5 133.6 181.0 133.5 C 181.0 133.5 181.0 133.5 181.0 133.5 Z M 175.8 132.7 C 176.4 132.9 175.3 132.9 175.8 132.7 C 175.8 132.7 175.8 132.7 175.8 132.7 Z M 184.2 133.2 C 184.8 133.4 183.7 133.4 184.2 133.2 C 184.2 133.2 184.2 133.2 184.2 133.2 Z M 176.3 133.7 C 176.1 134.4 177.7 135.8 174.8 134.6 C 174.3 134.1 175.5 133.2 176.3 133.7 C 176.3 133.7 176.3 133.7 176.3 133.7 Z M 108.4 134.6 C 103.8 132.6 104.9 136.2 104.7 136.8 C 104.1 137.8 104.7 138.4 105.6 139.1 C 106.6 141.4 107.1 136.8 107.7 139.0 C 109.0 142.0 109.2 136.4 109.7 139.6 C 109.5 140.4 111.3 139.7 111.1 139.5 C 112.0 141.0 113.3 138.3 113.3 138.0 C 113.9 138.5 114.0 141.3 115.9 139.2 C 117.3 138.4 117.9 141.3 117.6 139.3 C 118.6 141.5 118.3 138.7 119.3 139.4 C 120.1 140.6 119.4 137.5 120.7 139.9 C 121.3 138.0 120.1 141.1 123.6 139.7 C 121.9 139.6 125.3 138.3 124.6 139.5 C 123.4 140.8 126.3 139.0 127.9 139.8 C 128.4 139.2 130.3 137.5 130.0 139.3 C 131.7 141.4 131.7 138.0 132.4 139.7 C 133.0 140.5 133.2 138.9 133.6 139.0 C 134.2 140.3 134.7 139.5 136.8 139.8 C 141.3 140.5 137.5 136.5 139.2 136.1 C 139.5 135.5 137.0 131.2 138.0 134.4 C 137.6 133.5 133.9 136.8 135.8 133.3 C 134.3 134.7 136.1 131.8 133.2 133.5 C 137.1 136.0 128.8 134.5 132.5 133.3 C 131.9 132.6 130.3 132.7 131.5 133.3 C 131.9 135.6 128.8 132.3 130.3 135.1 C 127.9 134.3 128.6 136.8 127.9 135.0 C 127.3 132.1 128.0 135.8 126.8 134.9 C 124.0 134.9 126.1 131.5 124.4 133.8 C 121.7 132.3 123.8 135.1 122.9 135.4 C 122.6 137.5 120.0 133.9 122.1 133.6 C 121.0 134.7 121.9 132.6 120.7 133.9 C 121.6 135.8 119.0 131.9 119.4 133.4 C 118.3 133.9 118.9 135.0 118.5 135.1 C 116.8 135.1 117.3 133.2 117.0 134.6 C 116.6 135.4 115.8 132.9 115.6 133.5 C 117.3 133.6 114.2 135.5 114.0 134.5 C 115.0 134.4 113.4 132.0 112.8 133.5 C 113.6 137.7 111.2 132.4 110.5 133.9 C 111.2 136.2 106.7 134.2 108.4 133.1 C 108.3 133.3 108.4 134.6 108.4 134.6 M 115.1 133.9 C 116.5 134.1 113.6 134.3 115.1 133.9 M 115.0 133.3 C 115.7 134.0 113.7 132.7 115.1 133.0 C 115.1 133.0 114.9 133.2 115.0 133.3 M 120.9 133.2 C 120.8 133.8 120.1 132.8 120.9 133.2 M 122.1 134.6 C 123.0 135.2 120.8 134.7 122.1 134.6 M 135.2 134.1 C 133.8 137.6 133.8 132.2 135.2 134.1 M 126.5 133.5 C 124.9 133.9 127.1 132.0 126.5 133.5 M 126.0 134.3 C 125.3 134.9 125.9 133.5 126.0 134.3 M 132.7 134.2 C 132.8 134.2 132.8 134.2 132.7 134.2 C 132.7 134.2 132.7 134.2 132.7 134.2 Z M 136.6 134.3 C 136.6 134.2 136.6 134.2 136.6 134.3 C 136.6 134.3 136.6 134.3 136.6 134.3 Z M 128.9 134.5 C 127.7 133.7 130.9 134.2 128.9 134.5 C 128.9 134.5 128.9 134.5 128.9 134.5 Z M 134.7 139.4 C 134.6 139.5 134.6 139.5 134.7 139.4 C 134.7 139.4 134.7 139.4 134.7 139.4 Z M 114.0 135.4 C 113.9 135.5 113.9 135.5 114.0 135.4 C 114.0 135.4 114.0 135.4 114.0 135.4 Z M 109.5 134.1 C 109.6 134.6 108.8 133.8 109.5 134.1 C 109.5 134.1 109.5 134.1 109.5 134.1 Z M 106.0 138.1 C 105.9 138.1 105.9 138.1 106.0 138.1 C 106.0 138.1 106.0 138.1 106.0 138.1 Z M 112.5 137.2 C 112.4 137.3 112.4 137.3 112.5 137.2 C 112.5 137.2 112.5 137.2 112.5 137.2 Z M 113.1 134.7 C 112.4 132.8 114.8 135.2 113.1 134.7 C 113.1 134.7 113.1 134.7 113.1 134.7 Z M 127.4 139.2 C 127.5 138.4 128.5 139.5 127.4 139.2 C 127.4 139.2 127.4 139.2 127.4 139.2 Z M 122.3 135.4 C 122.4 134.9 122.9 135.6 122.3 135.4 C 122.3 135.4 122.3 135.4 122.3 135.4 Z M 119.8 132.8 C 120.0 132.4 120.5 133.0 119.8 132.8 C 119.8 132.8 119.8 132.8 119.8 132.8 Z M 109.6 133.6 C 109.7 133.5 109.7 133.5 109.6 133.6 C 109.6 133.6 109.6 133.6 109.6 133.6 Z M 111.2 135.1 C 110.1 133.3 112.9 136.0 111.2 135.1 C 111.2 135.1 111.2 135.1 111.2 135.1 Z M 109.3 135.6 C 109.9 136.2 107.9 135.3 109.3 135.6 M 110.4 138.3 C 111.7 137.5 109.2 141.4 110.4 138.3 C 110.4 138.3 110.4 138.3 110.4 138.3 Z M 117.2 139.0 C 117.3 139.0 117.3 139.0 117.2 139.0 C 117.2 139.0 117.2 139.0 117.2 139.0 Z M 116.5 133.8 C 117.7 133.9 115.7 134.2 116.5 133.8 C 116.5 133.8 116.5 133.8 116.5 133.8 Z M 106.3 133.4 C 107.4 133.5 105.5 133.8 106.3 133.4 C 106.3 133.4 106.3 133.4 106.3 133.4 Z M 121.2 137.2 C 123.1 137.0 120.0 138.2 121.2 137.2 C 121.2 137.2 121.2 137.2 121.2 137.2 Z M 128.2 135.2 C 128.3 135.2 128.3 135.2 128.2 135.2 C 128.2 135.2 128.2 135.2 128.2 135.2 Z M 129.6 134.5 C 129.6 134.5 129.6 134.5 129.6 134.5 C 129.6 134.5 129.6 134.5 129.6 134.5 Z M 135.1 136.3 C 135.1 136.4 135.1 136.4 135.1 136.3 C 135.1 136.3 135.1 136.3 135.1 136.3 Z M 130.8 133.6 C 130.8 133.7 130.8 133.7 130.8 133.6 C 130.8 133.6 130.8 133.6 130.8 133.6 Z M 134.6 134.1 C 134.6 134.1 134.6 134.1 134.6 134.1 C 134.6 134.1 134.6 134.1 134.6 134.1 Z M 134.0 132.6 C 134.1 132.6 134.1 132.6 134.0 132.6 C 134.0 132.6 134.0 132.6 134.0 132.6 Z M 125.6 140.3 C 125.7 140.3 125.7 140.3 125.6 140.3 C 125.6 140.3 125.6 140.3 125.6 140.3 Z M 111.7 133.0 C 111.8 133.2 111.8 133.2 111.7 133.0 C 111.7 133.0 111.7 133.0 111.7 133.0 Z M 134.3 134.8 C 134.3 134.8 134.3 134.8 134.3 134.8 C 134.3 134.8 134.3 134.8 134.3 134.8 Z M 125.0 136.2 C 125.0 137.7 124.2 134.2 125.2 136.1 C 125.2 136.2 124.9 135.9 125.0 136.2 M 126.2 138.7 C 126.2 138.7 126.2 138.7 126.2 138.7 C 126.2 138.7 126.2 138.7 126.2 138.7 Z M 122.0 139.6 C 122.0 139.6 122.0 139.6 122.0 139.6 C 122.0 139.6 122.0 139.6 122.0 139.6 Z M 130.1 133.3 C 129.9 132.5 131.1 134.0 129.9 133.4 M 135.1 138.9 C 134.9 138.1 136.1 139.6 134.9 139.0 M 104.9 134.0 C 104.7 134.6 104.1 133.6 104.9 134.0 M 121.1 140.4 C 120.9 141.0 120.3 140.0 121.1 140.4 M 123.0 138.5 C 122.9 137.6 124.1 139.1 122.9 138.5 M 132.2 138.9 C 132.3 138.9 132.3 138.9 132.2 138.9 C 132.2 138.9 132.2 138.9 132.2 138.9 Z M 118.3 134.0 C 118.3 134.0 118.3 134.0 118.3 134.0 C 118.3 134.0 118.3 134.0 118.3 134.0 Z M 123.4 135.8 C 122.7 134.6 124.3 136.5 123.4 135.8 M 116.8 136.0 C 115.8 134.6 118.4 136.5 116.8 136.0 M 137.3 139.3 C 136.1 137.5 138.1 140.2 137.3 139.3 M 131.6 134.9 C 130.5 133.2 132.5 135.9 131.6 134.9 M 119.3 134.7 C 119.3 133.8 120.5 135.2 119.3 134.7 M 107.6 133.8 C 106.5 133.7 109.0 133.1 107.6 133.8 M 129.4 138.9 C 129.5 139.0 129.5 139.0 129.4 138.9 C 129.4 138.9 129.4 138.9 129.4 138.9 Z M 111.1 140.4 C 111.2 140.5 111.2 140.5 111.1 140.4 C 111.1 140.4 111.1 140.4 111.1 140.4 Z M 138.7 133.6 C 138.8 133.7 138.8 133.7 138.7 133.6 C 138.7 133.6 138.7 133.6 138.7 133.6 Z M 130.9 135.7 C 131.0 135.9 131.0 135.9 130.9 135.7 C 130.9 135.7 130.9 135.7 130.9 135.7 Z M 136.6 133.4 C 136.6 133.5 136.6 133.5 136.6 133.4 C 136.6 133.4 136.6 133.4 136.6 133.4 Z M 127.4 137.1 C 127.4 137.1 127.4 137.1 127.4 137.1 C 127.4 137.1 127.4 137.1 127.4 137.1 Z M 126.7 132.7 C 126.7 132.7 126.7 132.7 126.7 132.7 C 126.7 132.7 126.7 132.7 126.7 132.7 Z M 122.8 134.6 C 122.8 134.6 122.8 134.6 122.8 134.6 C 122.8 134.6 122.8 134.6 122.8 134.6 Z M 128.4 133.0 C 130.8 132.8 127.2 134.5 128.4 133.0 C 128.4 133.0 128.4 133.0 128.4 133.0 Z M 124.4 137.4 C 124.4 137.5 124.4 137.5 124.4 137.4 C 124.4 137.4 124.4 137.4 124.4 137.4 Z M 124.1 134.3 C 125.6 133.1 124.9 136.4 124.1 134.3 M 117.6 133.3 C 118.1 132.6 117.8 134.3 117.6 133.3 M 115.0 139.1 C 115.0 139.1 115.0 139.1 115.0 139.1 C 115.0 139.1 115.0 139.1 115.0 139.1 Z M 115.7 138.6 C 115.8 138.7 115.8 138.7 115.7 138.6 C 115.7 138.6 115.7 138.6 115.7 138.6 Z M 116.0 133.0 C 116.1 133.0 116.1 133.0 116.0 133.0 C 116.0 133.0 116.0 133.0 116.0 133.0 Z M 115.8 140.3 C 115.9 140.3 115.9 140.3 115.8 140.3 C 115.8 140.3 115.8 140.3 115.8 140.3 Z M 125.8 132.8 C 125.8 132.8 125.8 132.8 125.8 132.8 C 125.8 132.8 125.8 132.8 125.8 132.8 Z M 137.7 132.7 C 137.7 132.8 137.7 132.8 137.7 132.7 C 137.7 132.7 137.7 132.7 137.7 132.7 Z M 107.9 138.5 C 108.0 138.5 108.0 138.5 107.9 138.5 C 107.9 138.5 107.9 138.5 107.9 138.5 Z M 127.0 134.5 C 127.1 134.6 127.1 134.6 127.0 134.5 C 127.0 134.5 127.0 134.5 127.0 134.5 Z M 113.3 138.8 C 113.4 138.9 113.4 138.9 113.3 138.8 C 113.3 138.8 113.3 138.8 113.3 138.8 Z M 126.2 134.2 C 126.3 134.2 126.3 134.2 126.2 134.2 C 126.2 134.2 126.2 134.2 126.2 134.2 Z M 129.1 139.3 C 129.1 139.3 129.1 139.3 129.1 139.3 C 129.1 139.3 129.1 139.3 129.1 139.3 Z M 131.6 140.3 C 131.6 140.3 131.6 140.3 131.6 140.3 C 131.6 140.3 131.6 140.3 131.6 140.3 Z M 128.9 136.2 C 128.9 136.3 128.9 136.3 128.9 136.2 C 128.9 136.2 128.9 136.2 128.9 136.2 Z M 112.5 136.9 C 107.8 135.4 116.2 136.2 112.5 136.9 M 129.7 136.6 C 126.4 136.2 132.3 134.9 129.7 136.6 C 130.0 136.1 129.7 136.5 129.7 136.6 M 139.9 132.9 C 138.6 134.5 138.6 136.1 139.1 137.7 C 139.8 138.6 139.8 135.3 139.8 138.1 C 138.3 138.6 140.5 142.2 140.4 138.6 C 142.5 138.1 140.8 140.9 142.0 139.5 C 144.2 139.1 143.0 140.2 144.7 140.0 C 145.7 138.1 145.7 140.9 146.1 139.1 C 145.3 141.1 147.9 138.6 147.9 139.5 C 146.4 140.7 153.7 139.5 149.7 138.9 C 151.4 138.0 151.1 139.6 151.6 139.9 C 152.3 138.7 154.3 140.8 155.3 139.6 C 155.1 139.4 154.6 139.3 154.4 138.9 C 154.1 138.1 155.5 139.1 155.4 139.0 C 156.0 138.6 158.7 137.4 155.9 139.5 C 155.7 140.4 158.1 139.0 158.1 139.9 C 160.5 139.9 158.7 138.0 159.7 139.4 C 161.5 139.4 162.7 139.4 162.7 139.2 C 163.7 139.4 164.0 140.5 164.9 139.5 C 167.0 141.6 166.4 135.4 167.2 139.5 C 167.8 138.6 168.4 141.2 168.3 138.7 C 167.6 139.9 171.9 140.7 170.0 138.8 C 170.5 138.2 173.2 141.4 172.9 138.9 C 173.8 137.0 173.7 135.1 171.5 133.3 C 171.8 134.8 169.3 131.8 170.9 134.3 C 172.7 135.1 167.5 135.2 168.6 134.3 C 168.9 131.3 166.1 136.2 165.0 134.0 C 165.9 135.2 161.7 135.8 163.0 133.5 C 162.2 133.4 162.0 134.4 161.1 133.1 C 163.7 133.3 160.2 135.5 160.3 134.1 C 160.8 133.3 157.0 132.6 157.4 133.8 C 158.7 137.0 156.4 133.2 155.8 134.4 C 153.7 135.1 156.1 131.8 154.5 134.1 C 154.1 133.7 151.4 133.7 153.1 133.0 C 153.8 133.3 151.5 136.4 151.2 133.8 C 154.1 132.3 147.8 133.0 148.8 133.8 C 153.3 135.2 144.0 135.4 147.6 134.0 C 145.5 132.5 148.1 133.4 145.6 134.0 C 146.0 134.9 144.0 135.7 144.5 134.0 C 144.1 131.5 143.8 137.4 142.3 133.9 C 142.0 132.4 139.2 135.0 140.3 133.3 C 140.4 133.2 140.0 132.9 139.9 132.9 M 140.8 133.2 C 140.5 133.7 140.3 132.5 140.8 133.2 M 140.4 133.7 C 140.4 133.7 140.4 133.7 140.4 133.7 C 140.4 133.7 140.4 133.7 140.4 133.7 Z M 145.3 134.1 C 145.2 134.0 145.2 134.0 145.3 134.1 C 145.3 134.1 145.3 134.1 145.3 134.1 Z M 149.1 140.5 C 149.1 140.4 149.1 140.4 149.1 140.5 C 149.1 140.5 149.1 140.5 149.1 140.5 Z M 148.5 134.3 C 148.5 134.3 148.5 134.3 148.5 134.3 C 148.5 134.3 148.5 134.3 148.5 134.3 Z M 143.6 134.5 C 143.5 134.5 143.5 134.5 143.6 134.5 C 143.6 134.5 143.6 134.5 143.6 134.5 Z M 148.2 133.3 C 148.5 134.3 147.1 132.6 148.3 133.2 C 148.3 133.2 148.1 133.2 148.2 133.3 M 152.4 133.0 C 152.4 133.1 152.4 133.1 152.4 133.0 M 161.7 140.4 C 161.7 140.5 161.7 140.5 161.7 140.4 M 162.4 132.9 C 162.5 133.0 162.5 133.0 162.4 132.9 M 156.6 133.9 C 157.9 133.8 156.9 134.4 156.6 133.9 M 165.8 133.4 C 164.2 132.8 167.6 132.9 165.8 133.4 M 167.4 132.9 C 167.6 133.0 167.6 133.0 167.4 132.9 M 160.1 133.2 C 160.1 133.3 160.1 133.3 160.1 133.2 C 160.1 133.2 160.1 133.2 160.1 133.2 Z M 156.1 133.5 C 154.4 133.0 157.8 132.7 156.1 133.5 M 145.8 133.2 C 146.8 132.7 145.8 134.4 145.8 133.2 M 143.9 133.7 C 143.9 133.8 143.9 133.8 143.9 133.7 C 143.9 133.7 143.9 133.7 143.9 133.7 Z M 163.2 133.4 C 163.2 133.4 163.2 133.4 163.2 133.4 C 163.2 133.4 163.2 133.4 163.2 133.4 Z M 165.1 133.2 C 165.0 133.2 165.0 133.2 165.1 133.2 C 165.1 133.2 165.1 133.2 165.1 133.2 Z M 168.2 140.2 C 168.1 140.2 168.1 140.2 168.2 140.2 C 168.2 140.2 168.2 140.2 168.2 140.2 Z M 145.3 136.6 C 144.1 136.2 146.6 134.4 146.4 136.1 C 146.5 136.8 145.5 136.5 145.3 136.6 M 154.8 135.6 C 155.1 138.0 153.6 132.4 154.8 135.6 M 167.6 134.4 C 168.9 137.2 166.1 132.4 167.6 134.4 M 170.2 133.9 C 170.9 134.5 165.4 134.3 169.3 133.5 C 169.7 133.1 169.9 133.6 170.2 133.9 M 152.5 134.1 C 152.8 135.4 150.5 133.5 152.5 134.1 M 160.2 138.0 C 160.8 137.2 162.4 136.5 161.7 137.9 C 161.7 139.7 159.5 138.7 160.2 138.0 M 141.2 134.5 C 142.2 132.4 141.1 136.3 141.2 134.5 M 146.1 134.7 C 146.1 134.6 146.1 134.6 146.1 134.7 C 146.1 134.7 146.1 134.7 146.1 134.7 Z M 148.0 134.4 C 148.1 134.5 148.1 134.5 148.0 134.4 M 142.0 132.7 C 142.1 132.8 142.1 132.8 142.0 132.7 M 160.2 135.9 C 160.3 136.0 160.3 136.0 160.2 135.9 M 156.2 134.5 C 158.1 136.5 155.2 134.9 156.2 134.5 M 151.6 138.5 C 152.2 139.4 150.4 138.5 151.6 138.5 M 159.3 133.7 C 160.7 135.6 157.5 135.5 159.3 133.7 M 155.3 134.3 C 155.4 134.3 155.4 134.3 155.3 134.3 C 155.3 134.3 155.3 134.3 155.3 134.3 Z M 160.7 138.3 C 160.7 138.3 160.7 138.3 160.7 138.3 C 160.7 138.3 160.7 138.3 160.7 138.3 Z M 161.3 138.2 C 161.2 138.2 161.2 138.2 161.3 138.2 C 161.3 138.2 161.3 138.2 161.3 138.2 Z M 161.0 133.5 C 160.9 133.5 160.9 133.5 161.0 133.5 C 161.0 133.5 161.0 133.5 161.0 133.5 Z M 143.8 139.2 C 145.1 139.3 142.8 139.5 143.8 139.2 C 143.8 139.2 143.8 139.2 143.8 139.2 Z M 149.7 133.4 C 151.9 134.9 148.2 134.8 149.7 133.4 C 149.7 133.4 149.7 133.4 149.7 133.4 Z M 152.2 135.9 C 152.2 136.0 152.2 136.0 152.2 135.9 C 152.2 135.9 152.2 135.9 152.2 135.9 Z M 158.5 132.5 C 158.5 132.6 158.5 132.6 158.5 132.5 C 158.5 132.5 158.5 132.5 158.5 132.5 Z M 144.5 139.4 C 144.5 139.5 144.5 139.5 144.5 139.4 C 144.5 139.4 144.5 139.4 144.5 139.4 Z M 164.8 134.5 C 164.8 134.6 164.8 134.6 164.8 134.5 C 164.8 134.5 164.8 134.5 164.8 134.5 Z M 157.1 138.6 C 157.6 137.8 157.2 139.2 157.1 138.6 C 157.1 138.6 157.1 138.6 157.1 138.6 Z M 159.1 138.6 C 159.1 138.6 159.1 138.6 159.1 138.6 C 159.1 138.6 159.1 138.6 159.1 138.6 Z M 167.9 132.7 C 168.0 132.7 168.0 132.7 167.9 132.7 C 167.9 132.7 167.9 132.7 167.9 132.7 Z M 164.2 140.4 C 164.2 140.4 164.2 140.4 164.2 140.4 C 164.2 140.4 164.2 140.4 164.2 140.4 Z M 165.8 138.1 C 165.8 138.2 165.8 138.2 165.8 138.1 C 165.8 138.1 165.8 138.1 165.8 138.1 Z M 160.6 133.9 C 162.6 133.6 160.2 134.8 160.6 133.9 C 160.6 133.9 160.6 133.9 160.6 133.9 Z M 170.8 137.5 C 170.8 137.6 170.8 137.6 170.8 137.5 C 170.8 137.5 170.8 137.5 170.8 137.5 Z M 171.8 134.8 C 171.9 134.9 171.9 134.9 171.8 134.8 C 171.8 134.8 171.8 134.8 171.8 134.8 Z M 172.3 133.4 C 172.4 133.5 172.4 133.5 172.3 133.4 C 172.3 133.4 172.3 133.4 172.3 133.4 Z M 148.0 137.3 C 147.9 137.2 147.9 137.2 148.0 137.3 C 148.0 137.3 148.0 137.3 148.0 137.3 Z M 147.2 132.9 C 147.2 132.8 147.2 132.8 147.2 132.9 C 147.2 132.9 147.2 132.9 147.2 132.9 Z M 149.9 132.7 C 149.9 132.6 149.9 132.6 149.9 132.7 C 149.9 132.7 149.9 132.7 149.9 132.7 Z M 147.5 139.9 C 147.5 139.9 147.5 139.9 147.5 139.9 C 147.5 139.9 147.5 139.9 147.5 139.9 Z M 157.6 136.2 C 157.6 136.1 157.6 136.1 157.6 136.2 C 157.6 136.2 157.6 136.2 157.6 136.2 Z M 158.6 138.0 C 158.5 137.9 158.5 137.9 158.6 138.0 C 158.6 138.0 158.6 138.0 158.6 138.0 Z M 156.2 140.3 C 156.2 140.3 156.2 140.3 156.2 140.3 C 156.2 140.3 156.2 140.3 156.2 140.3 Z M 159.3 139.5 C 159.3 139.5 159.3 139.5 159.3 139.5 C 159.3 139.5 159.3 139.5 159.3 139.5 Z M 140.7 139.1 C 140.7 139.1 140.7 139.1 140.7 139.1 C 140.7 139.1 140.7 139.1 140.7 139.1 Z M 140.5 135.7 C 140.4 135.8 140.4 135.8 140.5 135.7 C 140.5 135.7 140.5 135.7 140.5 135.7 Z M 157.9 133.8 C 158.4 133.0 158.9 134.7 157.9 133.8 M 154.1 134.2 C 154.1 134.2 154.1 134.2 154.1 134.2 C 154.1 134.2 154.1 134.2 154.1 134.2 Z M 164.4 133.9 C 164.9 135.2 162.6 133.2 164.4 133.9 C 164.4 133.9 164.4 133.9 164.4 133.9 Z M 162.4 139.5 C 162.4 139.5 162.4 139.5 162.4 139.5 C 162.4 139.5 162.4 139.5 162.4 139.5 Z M 163.4 138.9 C 163.5 139.0 163.5 139.0 163.4 138.9 C 163.4 138.9 163.4 138.9 163.4 138.9 Z M 169.0 135.3 C 169.1 135.4 169.1 135.4 169.0 135.3 M 153.6 133.0 C 154.2 133.6 154.0 133.5 153.6 133.0 M 165.7 133.9 C 165.7 134.0 165.7 134.0 165.7 133.9 C 165.7 133.9 165.7 133.9 165.7 133.9 Z M 170.2 134.6 C 170.2 134.6 170.2 134.6 170.2 134.6 C 170.2 134.6 170.2 134.6 170.2 134.6 Z M 150.8 133.9 C 150.9 135.5 150.4 135.1 150.8 133.9 M 143.2 134.4 C 143.2 134.5 143.2 134.5 143.2 134.4 C 143.2 134.4 143.2 134.4 143.2 134.4 Z M 143.2 134.4 " fill="#C82505"></path><path d="M 184.5 153.8 C 184.4 154.5 182.4 155.2 183.7 153.9 C 183.8 153.8 184.6 153.5 184.5 153.8 Z M 187.6 151.9 C 187.4 152.1 187.2 152.2 187.0 152.1 C 186.3 151.8 188.5 151.5 187.6 151.9 Z M 182.7 154.0 C 182.7 154.2 181.7 154.8 181.8 154.5 C 181.8 154.2 182.7 154.0 182.7 154.0 Z M 189.7 149.1 C 189.9 149.4 188.8 150.0 188.6 150.0 C 187.8 149.9 189.5 148.5 189.7 149.1 Z M 181.2 143.8 C 181.2 143.7 181.2 143.6 181.2 143.5 C 181.2 143.6 181.2 143.7 181.2 143.8 Z M 204.6 141.1 C 204.5 141.2 203.9 141.2 203.9 141.0 C 203.9 140.6 205.2 140.7 204.6 141.1 Z M 180.6 123.3 C 180.6 123.3 180.4 123.8 180.2 123.6 C 180.0 123.3 180.4 123.1 180.6 123.3 Z M 180.2 123.3 C 180.0 123.4 179.9 122.9 180.1 123.0 C 180.4 123.1 180.5 123.2 180.2 123.3 Z M 196.9 127.6 C 197.0 127.7 197.1 127.7 196.9 127.8 C 196.8 127.8 196.6 127.6 196.9 127.6 Z M 196.2 127.7 C 195.9 127.9 195.9 127.3 196.1 127.4 C 196.4 127.5 196.5 127.6 196.2 127.7 Z M 194.0 124.5 C 194.1 124.5 194.2 124.6 194.0 124.6 C 193.9 124.7 193.7 124.4 194.0 124.5 Z M 179.7 131.7 C 179.6 131.6 179.8 131.0 180.0 131.0 C 180.4 131.1 179.9 132.0 179.7 131.7 Z M 179.6 130.9 C 179.4 131.0 179.3 130.5 179.5 130.6 C 179.7 130.7 179.8 130.8 179.6 130.9 Z M 180.1 133.5 C 180.4 133.5 180.4 134.2 180.4 134.4 C 180.3 134.6 180.2 134.9 180.1 135.1 C 180.0 135.2 179.6 133.5 180.1 133.5 Z M 180.4 139.0 C 180.3 139.0 180.2 138.9 180.3 138.7 C 180.5 138.5 180.5 139.0 180.4 139.0 Z M 180.2 135.9 C 180.1 135.9 180.0 135.8 180.1 135.6 C 180.2 135.3 180.3 135.9 180.2 135.9 Z M 196.0 146.2 C 196.2 146.4 195.3 146.7 195.2 146.7 C 195.1 146.7 195.4 146.5 195.2 146.5 C 194.9 146.6 195.1 145.7 196.0 146.2 Z M 189.3 150.8 C 189.2 150.9 189.1 150.8 189.0 150.6 C 189.0 150.6 189.8 150.5 189.3 150.8 Z M 194.4 145.9 C 194.5 146.0 194.2 146.1 194.2 146.0 C 194.1 146.0 194.3 145.8 194.4 145.9 Z M 194.8 145.5 C 194.7 145.6 194.2 145.6 194.1 145.3 C 194.1 145.0 195.4 145.0 194.8 145.5 Z M 197.1 146.0 C 196.9 146.1 196.9 146.1 196.9 145.9 C 197.0 145.8 197.1 146.0 197.1 146.0 Z M 193.3 148.7 C 193.1 148.9 193.1 148.9 193.2 148.7 C 193.2 148.5 193.3 148.7 193.3 148.7 Z M 198.7 144.4 C 198.7 144.4 198.3 145.0 197.9 144.6 C 197.4 144.1 198.6 144.4 198.7 144.4 Z M 201.1 142.1 C 200.9 142.2 200.9 142.0 201.1 141.9 C 201.3 141.9 201.3 142.0 201.1 142.1 Z M 201.6 140.5 C 202.0 140.5 202.3 140.6 201.8 140.8 C 201.3 141.0 201.2 140.6 201.6 140.5 Z M 201.2 141.1 C 201.1 141.0 201.3 140.9 201.4 141.0 C 201.5 141.1 201.2 141.2 201.2 141.1 Z M 199.2 143.2 C 199.1 143.5 198.6 143.3 199.0 143.1 C 199.3 142.8 199.4 142.9 199.2 143.2 Z M 179.8 146.7 C 179.9 146.8 179.5 146.8 179.4 146.7 C 179.3 146.5 179.7 146.4 179.8 146.7 Z M 181.0 134.8 C 180.8 135.0 180.8 134.8 180.9 134.5 C 181.0 134.2 181.2 134.7 181.0 134.8 Z M 181.6 127.3 C 181.5 127.5 181.4 127.3 181.5 127.0 C 181.6 126.7 181.8 127.1 181.6 127.3 Z M 181.0 137.8 C 180.9 137.9 180.3 137.1 180.9 136.7 C 181.4 136.3 181.5 137.6 181.0 137.8 Z M 187.0 145.2 C 187.1 145.4 186.9 145.3 186.9 145.3 C 186.9 145.0 186.9 145.0 187.0 145.2 Z M 181.9 136.1 C 182.0 136.3 181.7 136.3 181.6 136.1 C 181.4 136.0 181.8 135.9 181.9 136.1 Z M 181.2 128.6 C 181.0 128.9 180.6 128.8 180.4 128.6 C 179.9 128.0 180.5 127.5 180.9 127.1 C 181.1 126.8 181.3 128.5 181.2 128.6 Z M 180.9 148.5 C 181.0 148.3 181.1 148.1 181.1 148.0 C 180.9 147.9 181.0 147.8 181.1 147.6 C 181.0 146.9 180.3 146.4 180.2 146.0 C 179.7 144.9 181.1 144.5 181.2 143.8 C 181.2 144.0 181.2 144.2 181.4 144.3 C 181.8 144.5 181.6 141.9 181.6 141.8 C 181.2 139.5 180.9 142.2 180.1 142.2 C 179.8 142.2 180.6 140.7 180.7 140.6 C 181.0 139.9 180.2 139.8 180.5 139.2 C 180.7 138.9 182.4 138.0 182.1 137.8 C 181.9 137.6 182.1 136.8 182.1 136.6 C 182.1 136.2 182.1 135.5 181.5 135.9 C 181.0 136.1 180.6 136.3 181.0 135.7 C 181.3 135.3 182.3 132.7 181.1 132.8 C 181.0 132.8 180.6 133.3 180.6 133.4 C 180.3 132.7 180.8 130.4 180.2 129.9 C 179.1 128.7 180.9 130.3 181.3 129.7 C 181.8 128.7 182.2 128.1 182.0 126.8 C 181.9 126.5 181.9 125.3 181.2 125.9 C 180.8 126.3 180.5 126.0 180.3 126.7 C 179.7 125.9 180.9 125.4 180.6 125.2 C 180.3 124.9 180.1 125.4 180.1 124.8 C 180.2 124.1 180.0 124.4 180.7 124.3 C 180.9 124.2 181.0 123.5 181.0 123.5 C 181.1 123.6 181.1 123.6 181.2 123.6 C 181.1 122.9 179.9 122.0 180.2 121.8 C 180.4 121.7 181.2 122.0 181.5 122.0 C 181.5 122.0 181.5 121.9 181.5 121.9 C 181.4 121.6 181.0 121.0 181.1 120.9 C 181.2 120.8 182.3 121.3 182.0 121.0 C 181.7 120.7 182.1 119.4 182.4 119.3 C 182.7 119.2 184.2 118.9 184.3 118.6 C 184.4 118.4 185.1 118.9 185.4 119.0 C 185.6 119.0 185.8 119.7 185.8 119.8 C 185.9 119.9 186.5 120.1 186.5 120.1 C 186.5 120.1 186.8 120.1 187.2 120.4 C 187.7 120.6 187.8 121.1 188.3 121.6 C 188.7 122.0 189.2 121.8 189.7 122.1 C 190.2 122.3 190.2 123.4 190.6 123.8 C 191.0 124.1 191.4 123.5 191.9 123.8 C 192.5 124.0 192.8 124.4 192.5 124.4 C 192.3 124.4 192.3 124.7 192.5 124.8 C 192.6 124.9 193.2 125.4 193.5 125.5 C 193.8 125.5 192.5 123.9 194.5 125.3 C 195.5 125.9 195.8 127.1 195.6 126.9 C 194.8 126.5 195.8 128.5 196.0 128.2 C 196.2 127.8 197.9 129.0 197.8 128.1 C 197.8 127.9 199.7 128.8 199.9 129.0 C 200.1 129.3 201.0 129.6 200.9 130.3 C 200.9 130.6 202.3 130.5 202.5 130.6 C 202.8 130.8 204.1 131.7 204.3 132.0 C 204.5 132.4 203.8 132.0 203.5 131.8 C 203.2 131.6 202.9 131.0 202.7 130.9 C 202.4 130.9 202.8 131.4 203.1 131.7 C 203.4 131.9 203.3 132.3 203.6 132.6 C 203.8 132.6 203.9 132.7 204.2 133.0 C 204.4 133.0 204.5 133.0 204.5 132.9 C 204.7 132.7 204.5 132.5 204.6 132.4 C 204.7 132.4 205.1 132.4 205.5 132.6 C 205.9 132.9 206.2 133.2 206.7 133.7 C 207.2 134.2 207.4 134.1 207.9 134.3 C 208.3 134.5 208.6 134.8 208.5 134.9 C 208.5 135.0 207.9 134.8 207.8 134.9 C 207.7 135.0 208.1 135.6 208.3 135.8 C 209.3 136.5 207.9 136.9 208.9 137.7 C 209.4 138.1 208.6 138.0 208.0 138.2 C 208.1 138.3 208.1 138.4 207.7 138.8 C 207.8 138.9 207.0 139.2 206.7 139.4 C 206.5 139.6 205.3 140.6 205.9 139.8 C 206.0 139.7 206.0 139.6 206.0 139.6 C 206.0 139.6 206.0 139.6 206.0 139.6 C 206.0 139.6 206.1 138.8 206.1 138.8 C 206.1 138.8 206.0 139.6 206.0 139.6 C 205.7 139.4 205.5 139.3 205.3 139.3 C 205.2 139.4 205.2 139.4 205.2 139.5 C 205.2 139.6 205.1 139.6 205.1 139.6 C 205.1 139.6 205.1 139.6 205.1 139.6 C 205.3 139.8 205.2 139.8 205.0 139.9 C 204.6 140.5 203.3 140.7 202.8 140.8 C 203.4 139.0 201.3 140.3 200.7 140.8 C 200.1 141.4 200.9 142.8 201.3 142.6 C 200.8 142.9 200.5 142.7 200.2 142.4 C 200.2 142.5 199.1 142.0 199.2 141.9 C 197.7 142.2 198.7 143.2 198.5 143.5 C 198.2 143.8 197.9 144.1 197.6 144.4 C 197.3 144.7 197.7 144.7 197.7 145.0 C 197.6 145.8 196.1 145.2 195.7 145.3 C 196.0 145.1 196.3 144.8 196.4 144.4 C 196.2 145.0 195.6 144.4 195.3 144.5 C 194.9 144.5 194.5 144.9 194.1 145.2 C 193.4 145.6 192.9 146.1 192.3 146.6 C 192.5 146.6 194.0 146.8 194.1 146.7 C 193.8 146.9 193.1 147.1 193.6 147.4 C 194.6 148.0 192.6 148.6 192.3 148.7 C 191.4 149.2 191.0 150.6 189.5 150.1 C 189.5 150.1 190.7 149.1 190.6 149.0 C 189.9 148.4 189.3 148.2 188.5 149.0 C 188.3 149.1 187.4 150.4 187.4 150.5 C 187.4 150.4 189.7 151.4 188.3 151.5 C 188.0 151.5 188.3 150.9 187.9 151.0 C 187.4 151.0 186.9 151.5 186.5 151.7 C 186.4 151.7 185.6 151.9 185.6 152.0 C 185.5 152.3 185.7 152.6 185.6 152.9 C 185.4 153.2 184.9 153.2 184.8 152.9 C 184.8 152.9 184.7 152.9 184.7 152.8 C 184.6 152.9 184.6 152.8 184.5 152.6 C 184.4 152.8 184.2 152.9 183.9 152.8 C 183.8 152.8 184.1 152.5 184.4 152.5 C 184.4 152.4 184.3 152.3 184.3 152.2 C 183.9 152.5 183.6 152.8 183.6 152.8 C 183.3 153.6 183.4 153.8 182.1 153.6 C 181.1 153.5 180.4 151.0 180.8 149.6 C 180.7 149.3 180.7 148.9 180.9 148.5 Z M 204.7 133.8 C 204.6 133.7 204.6 133.7 204.6 133.7 C 204.5 133.8 204.4 133.9 204.4 134.1 C 204.6 134.3 204.4 133.8 204.7 134.0 C 205.0 134.3 205.1 134.1 204.7 133.8 Z M 204.4 137.1 C 204.7 137.2 204.7 137.1 204.6 136.9 C 204.5 137.0 204.5 137.1 204.4 137.1 Z M 205.1 138.5 C 205.5 138.2 204.5 138.0 203.9 138.6 C 204.5 138.6 204.9 138.6 205.1 138.5 Z M 204.5 139.7 C 204.4 139.7 204.4 139.5 204.4 139.5 C 204.4 139.3 204.1 139.7 204.0 139.5 C 204.0 139.4 204.3 138.9 203.9 139.0 C 203.8 139.0 203.7 139.0 203.6 139.0 C 203.6 139.1 203.6 139.1 203.6 139.2 C 203.5 139.5 204.1 139.8 204.5 139.7 Z M 202.2 133.6 C 202.4 133.6 202.3 133.5 202.2 133.4 C 202.0 133.4 202.0 133.6 202.2 133.6 Z M 200.5 130.9 C 200.6 131.2 200.8 131.3 200.8 130.9 C 200.7 130.7 200.3 130.6 200.5 130.9 Z M 196.8 134.8 C 196.9 134.8 196.8 134.7 196.7 134.7 C 196.5 134.6 196.6 134.9 196.8 134.8 Z M 196.6 137.6 C 196.5 137.8 196.8 138.0 196.8 137.8 C 196.9 137.7 196.7 137.4 196.6 137.6 Z M 197.0 131.3 C 196.7 131.2 196.8 131.4 197.0 131.4 C 197.2 131.4 197.2 131.3 197.0 131.3 Z M 197.5 135.0 C 197.3 134.7 197.3 134.8 197.2 134.9 C 197.0 135.0 197.1 135.2 197.4 135.3 C 197.7 135.4 197.8 135.3 197.5 135.0 Z M 197.8 137.3 C 197.1 137.7 197.2 138.0 198.0 137.4 C 198.7 136.8 198.2 137.1 197.8 137.3 Z M 199.0 129.0 C 199.1 129.1 199.5 129.2 199.5 129.2 C 199.5 129.2 198.7 128.5 199.0 129.0 Z M 197.5 143.6 C 197.8 143.5 197.8 143.2 197.4 143.3 C 197.0 143.5 197.3 143.8 197.5 143.6 Z M 196.2 142.5 C 196.7 142.9 197.2 142.8 197.2 142.8 C 197.1 142.7 197.0 142.2 197.2 142.1 C 197.5 141.7 198.3 141.9 198.6 141.3 C 198.8 140.6 197.8 141.1 197.6 141.3 C 197.8 141.2 197.8 141.1 197.7 140.9 C 197.5 140.8 197.4 140.8 197.3 141.0 C 197.2 141.3 195.5 142.0 196.2 142.5 Z M 196.2 135.9 C 196.5 136.0 196.8 135.8 196.6 135.5 C 196.3 135.2 196.1 135.0 196.0 135.1 C 195.9 135.2 195.9 135.8 196.2 135.9 Z M 196.0 133.8 C 196.2 133.7 196.2 133.6 195.9 133.5 C 195.5 133.4 195.7 133.9 196.0 133.8 Z M 192.1 125.0 C 191.9 125.1 192.3 125.3 192.4 125.2 C 192.4 125.0 192.3 125.0 192.1 125.0 Z M 192.3 128.5 C 191.7 128.4 192.1 128.9 192.2 128.9 C 192.4 128.9 192.6 128.5 192.3 128.5 Z M 194.3 130.5 C 194.0 130.4 194.3 130.8 194.4 130.7 C 194.6 130.7 194.4 130.6 194.3 130.5 Z M 194.5 131.8 C 194.3 131.8 194.3 132.1 194.7 132.1 C 194.8 132.1 194.7 132.0 194.5 131.8 Z M 193.5 143.1 C 193.5 143.1 193.3 142.6 193.1 143.0 C 192.9 143.4 192.9 143.4 193.5 143.1 Z M 194.4 139.1 C 194.8 138.8 195.0 138.5 194.7 137.4 C 194.3 136.3 194.1 136.7 193.9 137.4 C 193.8 138.1 193.2 136.2 193.0 137.6 C 192.8 138.1 194.1 139.3 194.4 139.1 Z M 192.5 132.0 C 192.9 132.7 193.9 132.5 193.3 132.1 C 192.7 131.6 192.1 131.4 192.5 132.0 Z M 192.4 131.5 C 192.6 131.5 192.5 131.4 192.3 131.3 C 192.1 131.2 192.2 131.5 192.4 131.5 Z M 193.0 148.0 C 194.0 147.0 192.3 147.0 192.3 147.0 C 190.8 147.5 191.9 148.9 193.0 148.0 Z M 181.8 124.2 C 181.8 124.2 181.7 124.3 181.7 124.3 C 181.7 124.3 181.7 124.4 181.8 124.4 C 181.9 124.6 182.2 124.1 182.2 124.1 C 182.0 124.0 181.9 124.1 181.8 124.2 Z M 181.4 131.3 C 181.5 131.0 181.4 130.8 181.2 130.6 C 180.6 130.7 180.6 132.9 181.7 132.1 C 181.9 132.0 182.8 130.6 182.3 130.4 C 182.0 130.4 181.4 132.0 181.4 131.3 Z M 182.3 129.1 C 182.3 129.9 183.2 128.4 182.7 128.6 C 182.5 128.7 182.4 128.8 182.3 129.1 Z M 184.3 122.8 C 183.9 121.6 182.2 121.8 183.0 123.6 C 183.9 125.4 184.7 125.5 184.4 124.6 C 184.2 123.7 185.0 124.4 184.3 122.8 Z M 184.3 132.0 C 183.1 131.8 183.4 132.4 184.3 132.7 C 184.6 132.8 185.0 132.2 184.3 132.0 Z M 184.5 134.6 C 184.4 135.0 184.4 135.0 184.6 134.8 C 184.9 134.5 184.6 134.3 184.5 134.6 Z M 186.0 120.9 C 185.8 120.5 185.3 120.2 185.6 120.1 C 185.9 120.1 185.8 120.1 185.6 119.8 C 185.3 119.5 185.3 120.1 185.3 120.3 C 185.4 120.6 186.2 121.3 186.0 120.9 Z M 190.2 130.9 C 189.9 130.8 190.1 131.0 190.3 131.0 C 190.4 131.1 190.4 131.0 190.2 130.9 Z M 191.5 140.7 C 191.5 140.7 191.4 140.4 191.2 140.7 C 191.1 140.9 191.1 140.9 191.5 140.7 Z M 191.0 148.6 C 191.2 148.4 190.7 148.3 190.8 147.9 C 190.8 147.8 191.0 148.0 191.1 148.1 C 191.0 148.0 190.9 147.0 190.5 147.6 C 190.3 147.9 190.5 149.1 191.0 148.6 Z M 189.8 133.6 C 190.2 134.0 190.5 132.3 190.9 132.6 C 191.2 132.9 191.2 132.7 190.8 132.3 C 190.5 132.0 189.5 133.1 189.8 133.6 Z M 189.6 129.4 C 189.6 129.6 190.4 130.4 190.2 129.9 C 190.1 129.5 189.6 129.2 189.9 129.2 C 190.2 129.2 190.0 129.1 189.8 128.8 C 189.5 128.5 189.5 129.1 189.6 129.4 Z M 189.3 122.4 C 189.4 122.5 189.9 122.8 189.7 122.4 C 189.6 122.3 189.2 122.3 189.3 122.4 Z M 188.8 141.8 C 189.0 141.5 188.9 141.4 188.6 141.7 C 188.2 142.0 188.7 142.1 188.8 141.8 Z M 188.1 123.0 C 188.5 123.5 188.2 122.8 188.5 123.0 C 188.8 123.3 188.9 123.2 188.5 122.8 C 188.2 122.4 187.7 122.6 188.1 123.0 Z M 187.8 148.2 C 187.8 148.0 187.6 147.8 187.5 147.9 C 187.4 148.1 187.7 148.4 187.8 148.2 Z M 186.8 145.6 C 186.9 145.6 187.0 145.5 187.1 145.5 C 188.8 144.3 185.7 145.2 186.8 145.6 Z M 187.0 141.6 C 187.1 142.1 187.4 141.4 187.4 141.4 C 187.2 141.3 187.1 141.4 187.0 141.6 Z M 187.0 137.2 C 186.7 137.0 186.8 137.5 187.0 137.4 C 187.2 137.4 187.1 137.2 187.0 137.2 Z M 186.2 151.4 C 186.4 151.3 186.4 151.2 186.2 151.2 C 186.0 151.3 185.9 151.5 186.2 151.4 Z M 186.0 140.4 C 186.1 140.5 186.2 140.5 186.1 140.2 C 186.0 140.0 185.9 140.3 186.0 140.4 Z M 185.9 127.0 C 186.1 127.1 186.2 127.2 186.3 127.3 C 186.5 127.2 186.6 126.3 186.9 126.3 C 186.9 126.3 186.9 126.3 186.9 126.3 C 187.0 126.3 187.0 126.3 187.0 126.3 C 187.1 126.4 187.3 126.5 187.1 126.5 C 187.2 126.6 187.2 126.8 187.3 127.0 C 187.5 126.7 187.7 126.4 187.5 126.2 C 187.3 125.9 186.7 125.8 186.2 125.9 C 186.1 126.0 186.0 126.2 186.0 126.4 C 186.0 126.4 186.0 126.4 186.0 126.4 C 186.4 126.6 186.5 126.8 186.3 126.8 C 186.1 126.8 186.0 126.7 185.9 126.7 C 185.9 126.8 185.9 126.9 185.9 127.0 Z M 185.4 138.7 C 185.6 139.1 185.7 138.8 185.8 138.4 C 185.9 138.1 185.2 138.4 185.4 138.7 Z M 185.8 150.9 C 185.7 150.8 185.7 150.7 185.6 150.6 C 185.6 150.6 185.5 150.7 185.5 150.8 C 185.5 151.0 185.4 151.3 185.4 151.5 C 185.7 151.5 185.9 151.3 185.8 150.9 Z M 184.5 147.1 C 184.5 147.2 184.5 148.8 184.8 148.5 C 185.4 148.0 186.0 148.7 185.7 147.6 C 185.6 147.0 184.8 146.5 184.7 146.0 C 184.0 143.1 183.9 146.7 183.7 147.5 C 183.7 147.6 184.4 146.9 184.5 147.1 Z M 183.6 143.3 C 183.4 143.2 183.0 143.6 183.1 143.8 C 183.2 144.5 183.9 143.5 183.6 143.3 Z M 183.2 151.3 C 183.2 151.3 183.3 151.3 183.4 151.3 C 183.3 151.2 183.2 151.2 183.2 151.1 C 183.2 151.2 183.2 151.2 183.2 151.3 Z M 182.9 153.2 C 183.7 152.5 182.2 152.6 181.8 152.8 C 181.3 153.0 182.5 153.6 182.9 153.2 Z M 182.3 145.4 C 182.3 144.9 180.7 144.2 180.7 145.2 C 180.8 146.2 182.2 146.7 182.3 145.4 Z M 180.2 139.5 C 180.4 139.7 180.1 140.3 179.8 140.0 C 179.7 139.8 180.1 139.4 180.2 139.5 Z M 179.3 148.3 C 179.4 148.2 179.4 148.4 179.4 148.4 C 179.2 148.5 179.2 148.5 179.3 148.3 Z M 180.5 147.5 C 180.4 147.8 180.3 148.1 180.2 148.4 C 180.1 148.5 180.0 148.0 180.0 147.9 C 180.0 147.7 180.5 147.6 180.5 147.5 Z M 180.6 142.8 C 180.4 143.1 180.4 142.7 180.5 142.5 C 180.5 142.3 180.8 142.6 180.6 142.8 Z M 180.2 143.9 C 180.3 143.7 180.5 143.9 180.5 144.1 C 180.4 144.4 180.2 144.1 180.2 143.9 Z M 181.2 142.0 C 181.3 142.5 181.4 143.2 181.0 143.1 C 180.8 143.1 180.9 141.0 181.2 142.0 Z M 181.2 142.0 " fill="#C82505"></path></g></svg>