<?xml version="1.0" encoding="UTF-8" standalone="no"?><svg xmlns="http://www.w3.org/2000/svg" xmlns:xlink="http://www.w3.org/1999/xlink" clip-rule="evenodd" stroke-miterlimit="4.00" viewBox="0 0 1920 1080"><desc>SVG generated by Keynote</desc><defs></defs><g transform="matrix(1.00, 0.00, -0.00, -1.00, 0.0, 1080.0)"><path d="M 0.0 1080.0 L 1920.0 1080.0 L 1920.0 0.0 L 0.0 0.0 Z M 0.0 1080.0 " fill="#FEFFFF"></path><image xlink:href="BCEECBB52BC6707E02D13E4B14FADD68.png" width="662.00" height="238.00" transform="matrix(1.00, 0.00, -0.00, -1.00, 291.0, 523.0)"></image><g opacity="0.15"><g><clipPath id="clip-118"><path d="M 261.0 743.0 L 669.0 743.0 L 669.0 884.0 L 261.0 884.0 Z M 261.0 743.0 "></path></clipPath><g clip-path="url(#clip-118)"><image xlink:href="3EC77F937C8E9C4B34309443EB30A6B0.png" width="405.00" height="137.00" transform="matrix(1.00, 0.00, -0.00, -1.00, 263.0, 882.0)"></image></g></g></g><g opacity="0.15"><g><clipPath id="clip-119"><path d="M 331.0 498.0 L 676.0 498.0 L 676.0 694.0 L 331.0 694.0 Z M 331.0 498.0 "></path></clipPath><g clip-path="url(#clip-119)"><image xlink:href="../../03E86B4A-DD99-4CCA-9F90-5C62FD73758B/assets/B33BC9647A8864636F0568DA8B7F317B.png" width="300.00" height="169.00" transform="matrix(1.14, 0.00, -0.00, -1.14, 333.0, 693.0)"></image></g></g></g><g opacity="0.15"><g><clipPath id="clip-120"><path d="M 1038.0 505.0 L 1357.0 505.0 L 1357.0 648.0 L 1038.0 648.0 Z M 1038.0 505.0 "></path></clipPath><g clip-path="url(#clip-120)"><image xlink:href="../../03E86B4A-DD99-4CCA-9F90-5C62FD73758B/assets/995E3908DCE47C67D2B743DB57FC0FD0.png" width="225.00" height="100.00" transform="matrix(1.41, 0.00, -0.00, -1.41, 1039.0, 647.0)"></image></g></g></g><g opacity="0.15"><g><clipPath id="clip-121"><path d="M 415.0 636.0 L 524.0 636.0 L 524.0 753.0 L 415.0 753.0 Z M 415.0 636.0 "></path></clipPath><g clip-path="url(#clip-121)"><image xlink:href="D1F1E8A39B7BD7E8F68F2962E58ECD44.png" width="99.00" height="59.00" transform="matrix(0.64, -0.76, 0.77, 0.65, 415.0, 711.3)" opacity="0.94"></image></g></g><g><clipPath id="clip-122"><path d="M 483.4 695.8 L 494.2 704.9 L 498.6 659.7 L 454.9 671.9 L 465.8 681.0 L 431.5 721.9 L 449.1 736.7 Z M 483.4 695.8 "></path></clipPath><g clip-path="url(#clip-122)"><g><clipPath id="clip-123"><path d="M 415.0 636.0 L 524.0 636.0 L 524.0 753.0 L 415.0 753.0 Z M 415.0 636.0 "></path></clipPath><g clip-path="url(#clip-123)"><image xlink:href="../../51E28557-A19C-4695-804D-F4BEF26E23DB/assets/D5BAA0E7A80E113D25EB92D00157B4C8.jpeg" width="300.00" height="300.00" transform="matrix(0.56, -0.67, 0.67, 0.56, 420.6, 712.8)"></image><path d="M 420.6 712.8 L 479.0 643.3 L 518.2 676.2 L 459.9 745.8 Z M 420.6 712.8 " fill="#009BFC" fill-opacity="0.50"></path></g></g></g></g></g><image xlink:href="3E30271506566739B74BFA35A8DE4DCF.png" width="302.00" height="200.00" transform="matrix(1.00, 0.00, -0.00, -1.00, 1385.0, 844.0)"></image><g opacity="0.15"><g><clipPath id="clip-124"><path d="M 580.0 427.0 L 694.0 427.0 L 694.0 539.0 L 580.0 539.0 Z M 580.0 427.0 "></path></clipPath><g clip-path="url(#clip-124)"><image xlink:href="../../FCC3CA18-D6B4-4610-9BBC-54F182F2C11C/assets/D1F1E8A39B7BD7E8F68F2962E58ECD44.png" width="99.00" height="59.00" transform="matrix(0.79, -0.61, 0.62, 0.79, 579.6, 488.7)" opacity="0.94"></image></g></g><g><clipPath id="clip-125"><path d="M 650.1 487.7 L 658.8 498.9 L 672.6 455.6 L 627.3 458.5 L 636.0 469.6 L 593.9 502.5 L 608.1 520.6 Z M 650.1 487.7 "></path></clipPath><g clip-path="url(#clip-125)"><g><clipPath id="clip-126"><path d="M 580.0 427.0 L 694.0 427.0 L 694.0 539.0 L 580.0 539.0 Z M 580.0 427.0 "></path></clipPath><g clip-path="url(#clip-126)"><image xlink:href="../../51E28557-A19C-4695-804D-F4BEF26E23DB/assets/D5BAA0E7A80E113D25EB92D00157B4C8.jpeg" width="300.00" height="300.00" transform="matrix(0.69, -0.54, 0.54, 0.69, 585.2, 491.4)"></image><path d="M 585.2 491.4 L 656.8 435.4 L 688.3 475.8 L 616.8 531.7 Z M 585.2 491.4 " fill="#009BFC" fill-opacity="0.50"></path></g></g></g></g></g><g opacity="0.15"><g><clipPath id="clip-127"><path d="M 1026.0 381.0 L 1137.0 381.0 L 1137.0 498.0 L 1026.0 498.0 Z M 1026.0 381.0 "></path></clipPath><g clip-path="url(#clip-127)"><image xlink:href="../../FCC3CA18-D6B4-4610-9BBC-54F182F2C11C/assets/D1F1E8A39B7BD7E8F68F2962E58ECD44.png" width="99.00" height="59.00" transform="matrix(0.67, 0.74, -0.75, 0.67, 1069.6, 381.2)" opacity="0.94"></image></g></g><g><clipPath id="clip-128"><path d="M 1077.4 453.3 L 1066.9 462.8 L 1111.0 473.5 L 1105.0 428.5 L 1094.5 437.9 L 1058.8 398.3 L 1041.7 413.7 Z M 1077.4 453.3 "></path></clipPath><g clip-path="url(#clip-128)"><g><clipPath id="clip-129"><path d="M 1026.0 381.0 L 1137.0 381.0 L 1137.0 498.0 L 1026.0 498.0 Z M 1026.0 381.0 "></path></clipPath><g clip-path="url(#clip-129)"><image xlink:href="../../51E28557-A19C-4695-804D-F4BEF26E23DB/assets/D5BAA0E7A80E113D25EB92D00157B4C8.jpeg" width="300.00" height="300.00" transform="matrix(0.59, 0.65, -0.65, 0.59, 1069.3, 388.8)"></image><path d="M 1069.3 388.8 L 1130.1 456.3 L 1092.0 490.6 L 1031.2 423.1 Z M 1069.3 388.8 " fill="#009BFC" fill-opacity="0.50"></path></g></g></g></g></g><g opacity="0.15"><g><clipPath id="clip-130"><path d="M 1271.0 612.0 L 1386.0 612.0 L 1386.0 721.0 L 1271.0 721.0 Z M 1271.0 612.0 "></path></clipPath><g clip-path="url(#clip-130)"><image xlink:href="../../FCC3CA18-D6B4-4610-9BBC-54F182F2C11C/assets/D1F1E8A39B7BD7E8F68F2962E58ECD44.png" width="99.00" height="59.00" transform="matrix(0.82, 0.57, -0.58, 0.82, 1304.7, 611.5)" opacity="0.94"></image></g></g><g><clipPath id="clip-131"><path d="M 1328.1 680.1 L 1320.0 691.7 L 1365.3 692.2 L 1349.4 649.7 L 1341.3 661.3 L 1297.5 630.7 L 1284.4 649.5 Z M 1328.1 680.1 "></path></clipPath><g clip-path="url(#clip-131)"><g><clipPath id="clip-132"><path d="M 1271.0 612.0 L 1386.0 612.0 L 1386.0 721.0 L 1271.0 721.0 Z M 1271.0 612.0 "></path></clipPath><g clip-path="url(#clip-132)"><image xlink:href="../../51E28557-A19C-4695-804D-F4BEF26E23DB/assets/D5BAA0E7A80E113D25EB92D00157B4C8.jpeg" width="300.00" height="300.00" transform="matrix(0.72, 0.50, -0.50, 0.72, 1305.6, 619.1)"></image><path d="M 1305.6 619.1 L 1380.0 671.2 L 1350.6 713.1 L 1276.3 661.1 Z M 1305.6 619.1 " fill="#009BFC" fill-opacity="0.50"></path></g></g></g></g></g><g opacity="0.15"><g><clipPath id="clip-133"><path d="M 965.0 770.0 L 1270.0 770.0 L 1270.0 818.0 L 965.0 818.0 Z M 965.0 770.0 "></path></clipPath><g clip-path="url(#clip-133)"><image xlink:href="../../03E86B4A-DD99-4CCA-9F90-5C62FD73758B/assets/E0B96AC122F37459DF6AC170F1B1F67C.png" width="302.00" height="44.00" transform="matrix(1.00, 0.00, -0.00, -1.02, 967.0, 816.0)"></image></g></g></g><g opacity="0.15"><g><clipPath id="clip-134"><path d="M 1059.0 894.0 L 1176.0 894.0 L 1176.0 809.0 L 1059.0 809.0 Z M 1059.5 893.7 "></path></clipPath><g clip-path="url(#clip-134)"><g><clipPath id="clip-135"><path d="M 1058.0 808.0 L 1178.0 808.0 L 1178.0 895.0 L 1058.0 895.0 Z M 1058.0 808.0 "></path></clipPath><g clip-path="url(#clip-135)"><image xlink:href="../../72D0EAD3-E874-40A1-B9A8-CFB741D0859A/assets/E22F4878CC6F752CA7A9C70AD8314AAF.png" width="240.00" height="245.00" transform="matrix(0.49, 0.00, -0.00, -0.49, 1059.0, 894.0)"></image></g></g></g></g></g><g opacity="0.15"><g><clipPath id="clip-136"><path d="M 1266.0 777.0 L 1377.0 777.0 L 1377.0 862.0 L 1266.0 862.0 Z M 1266.0 777.0 "></path></clipPath><g clip-path="url(#clip-136)"><image xlink:href="../../FCC3CA18-D6B4-4610-9BBC-54F182F2C11C/assets/D1F1E8A39B7BD7E8F68F2962E58ECD44.png" width="99.00" height="59.00" transform="matrix(0.97, -0.22, 0.23, 0.98, 1266.3, 799.7)" opacity="0.94"></image></g></g><g><clipPath id="clip-137"><path d="M 1331.5 828.8 L 1334.6 842.6 L 1365.4 809.2 L 1323.1 792.6 L 1326.3 806.4 L 1274.3 818.4 L 1279.5 840.8 Z M 1331.5 828.8 "></path></clipPath><g clip-path="url(#clip-137)"><g><clipPath id="clip-138"><path d="M 1266.0 777.0 L 1377.0 777.0 L 1377.0 862.0 L 1266.0 862.0 Z M 1266.0 777.0 "></path></clipPath><g clip-path="url(#clip-138)"><image xlink:href="../../51E28557-A19C-4695-804D-F4BEF26E23DB/assets/D5BAA0E7A80E113D25EB92D00157B4C8.jpeg" width="300.00" height="300.00" transform="matrix(0.85, -0.20, 0.20, 0.85, 1271.1, 804.7)"></image><path d="M 1271.1 804.7 L 1359.6 784.2 L 1371.1 834.1 L 1282.6 854.6 Z M 1271.1 804.7 " fill="#009BFC" fill-opacity="0.50"></path></g></g></g></g></g><g opacity="0.15"><g><clipPath id="clip-139"><path d="M 1322.0 712.0 L 1368.0 712.0 L 1368.0 784.0 L 1322.0 784.0 Z M 1322.0 712.0 "></path></clipPath><g clip-path="url(#clip-139)"><text xml:space="preserve" font-family="Helvetica-Light" font-size="50.0" fill="#000000" transform="matrix(1.00, 0.00, -0.00, -1.00, 1329.0, 730.0)">+</text></g></g></g><g><clipPath id="clip-140"><path d="M 1138.0 425.0 L 1454.4 425.0 L 1454.4 160.4 L 1138.0 160.4 Z M 1138.0 425.0 "></path></clipPath><g clip-path="url(#clip-140)"><g><clipPath id="clip-141"><path d="M 1138.0 359.4 L 1295.7 359.4 L 1295.7 425.0 L 1138.0 425.0 Z M 1138.0 359.4 "></path></clipPath><g clip-path="url(#clip-141)"><text xml:space="preserve" font-family="Helvetica-Bold" font-weight="bold" font-size="18.0" fill="#000000" transform="matrix(1.00, 0.00, -0.00, -1.00, 1189.0, 385.0)">A</text><text xml:space="preserve" font-family="Helvetica-Bold" font-weight="bold" font-size="18.0" fill="#000000" transform="matrix(1.00, 0.00, -0.00, -1.00, 1202.0, 385.0)">r</text><text xml:space="preserve" font-family="Helvetica-Bold" font-weight="bold" font-size="18.0" fill="#000000" transform="matrix(1.00, 0.00, -0.00, -1.00, 1209.0, 385.0)">t</text><text xml:space="preserve" font-family="Helvetica-Bold" font-weight="bold" font-size="18.0" fill="#000000" transform="matrix(1.00, 0.00, -0.00, -1.00, 1215.0, 385.0)">i</text><text xml:space="preserve" font-family="Helvetica-Bold" font-weight="bold" font-size="18.0" fill="#000000" transform="matrix(1.00, 0.00, -0.00, -1.00, 1220.0, 385.0)">c</text><text xml:space="preserve" font-family="Helvetica-Bold" font-weight="bold" font-size="18.0" fill="#000000" transform="matrix(1.00, 0.00, -0.00, -1.00, 1230.0, 385.0)">l</text><text xml:space="preserve" font-family="Helvetica-Bold" font-weight="bold" font-size="18.0" fill="#000000" transform="matrix(1.00, 0.00, -0.00, -1.00, 1235.0, 385.0)">e</text></g></g></g></g><g><clipPath id="clip-142"><path d="M 1138.0 425.0 L 1454.4 425.0 L 1454.4 160.4 L 1138.0 160.4 Z M 1138.0 425.0 "></path></clipPath><g clip-path="url(#clip-142)"><g><clipPath id="clip-143"><path d="M 1296.7 359.4 L 1454.4 359.4 L 1454.4 425.0 L 1296.7 425.0 Z M 1296.7 359.4 "></path></clipPath><g clip-path="url(#clip-143)"><text xml:space="preserve" font-family="Helvetica-Bold" font-weight="bold" font-size="18.0" fill="#000000" transform="matrix(1.00, 0.00, -0.00, -1.00, 1335.0, 385.0)">F</text><text xml:space="preserve" font-family="Helvetica-Bold" font-weight="bold" font-size="18.0" fill="#000000" transform="matrix(1.00, 0.00, -0.00, -1.00, 1346.0, 385.0)">i</text><text xml:space="preserve" font-family="Helvetica-Bold" font-weight="bold" font-size="18.0" fill="#000000" transform="matrix(1.00, 0.00, -0.00, -1.00, 1351.0, 385.0)">r</text><text xml:space="preserve" font-family="Helvetica-Bold" font-weight="bold" font-size="18.0" fill="#000000" transform="matrix(1.00, 0.00, -0.00, -1.00, 1358.0, 385.0)">s</text><text xml:space="preserve" font-family="Helvetica-Bold" font-weight="bold" font-size="18.0" fill="#000000" transform="matrix(1.00, 0.00, -0.00, -1.00, 1368.0, 385.0)">t</text><text xml:space="preserve" font-family="Helvetica-Bold" font-weight="bold" font-size="18.0" fill="#000000" transform="matrix(1.00, 0.00, -0.00, -1.00, 1374.0, 385.0)"> </text><text xml:space="preserve" font-family="Helvetica-Bold" font-weight="bold" font-size="18.0" fill="#000000" transform="matrix(1.00, 0.00, -0.00, -1.00, 1379.0, 385.0)">L</text><text xml:space="preserve" font-family="Helvetica-Bold" font-weight="bold" font-size="18.0" fill="#000000" transform="matrix(1.00, 0.00, -0.00, -1.00, 1390.0, 385.0)">i</text><text xml:space="preserve" font-family="Helvetica-Bold" font-weight="bold" font-size="18.0" fill="#000000" transform="matrix(1.00, 0.00, -0.00, -1.00, 1395.0, 385.0)">n</text><text xml:space="preserve" font-family="Helvetica-Bold" font-weight="bold" font-size="18.0" fill="#000000" transform="matrix(1.00, 0.00, -0.00, -1.00, 1406.0, 385.0)">k</text></g></g></g></g><g><clipPath id="clip-144"><path d="M 1138.0 425.0 L 1454.4 425.0 L 1454.4 160.4 L 1138.0 160.4 Z M 1138.0 425.0 "></path></clipPath><g clip-path="url(#clip-144)"><g><clipPath id="clip-145"><path d="M 1138.0 293.2 L 1295.7 293.2 L 1295.7 358.4 L 1138.0 358.4 Z M 1138.0 293.2 "></path></clipPath><g clip-path="url(#clip-145)"><text xml:space="preserve" font-family="Helvetica-Light" font-size="18.0" fill="#000000" transform="matrix(1.00, 0.00, -0.00, -1.00, 1186.0, 318.0)">b</text><text xml:space="preserve" font-family="Helvetica-Light" font-size="18.0" fill="#000000" transform="matrix(1.00, 0.00, -0.00, -1.00, 1197.0, 318.0)">a</text><text xml:space="preserve" font-family="Helvetica-Light" font-size="18.0" fill="#000000" transform="matrix(1.00, 0.00, -0.00, -1.00, 1207.0, 318.0)">n</text><text xml:space="preserve" font-family="Helvetica-Light" font-size="18.0" fill="#000000" transform="matrix(1.00, 0.00, -0.00, -1.00, 1217.0, 318.0)">a</text><text xml:space="preserve" font-family="Helvetica-Light" font-size="18.0" fill="#000000" transform="matrix(1.00, 0.00, -0.00, -1.00, 1227.0, 318.0)">n</text><text xml:space="preserve" font-family="Helvetica-Light" font-size="18.0" fill="#000000" transform="matrix(1.00, 0.00, -0.00, -1.00, 1237.0, 318.0)">a</text></g></g></g></g><g><clipPath id="clip-146"><path d="M 1138.0 425.0 L 1454.4 425.0 L 1454.4 160.4 L 1138.0 160.4 Z M 1138.0 425.0 "></path></clipPath><g clip-path="url(#clip-146)"><g><clipPath id="clip-147"><path d="M 1296.7 293.2 L 1454.4 293.2 L 1454.4 358.4 L 1296.7 358.4 Z M 1296.7 293.2 "></path></clipPath><g clip-path="url(#clip-147)"><text xml:space="preserve" font-family="Helvetica-Light" font-size="18.0" fill="#000000" transform="matrix(1.00, 0.00, -0.00, -1.00, 1361.0, 318.0)">f</text><text xml:space="preserve" font-family="Helvetica-Light" font-size="18.0" fill="#000000" transform="matrix(1.00, 0.00, -0.00, -1.00, 1366.0, 318.0)">r</text><text xml:space="preserve" font-family="Helvetica-Light" font-size="18.0" fill="#000000" transform="matrix(1.00, 0.00, -0.00, -1.00, 1372.0, 318.0)">u</text><text xml:space="preserve" font-family="Helvetica-Light" font-size="18.0" fill="#000000" transform="matrix(1.00, 0.00, -0.00, -1.00, 1382.0, 318.0)">i</text><text xml:space="preserve" font-family="Helvetica-Light" font-size="18.0" fill="#000000" transform="matrix(1.00, 0.00, -0.00, -1.00, 1386.0, 318.0)">t</text></g></g></g></g><g><clipPath id="clip-148"><path d="M 1138.0 425.0 L 1454.4 425.0 L 1454.4 160.4 L 1138.0 160.4 Z M 1138.0 425.0 "></path></clipPath><g clip-path="url(#clip-148)"><g><clipPath id="clip-149"><path d="M 1138.0 227.1 L 1295.7 227.1 L 1295.7 292.2 L 1138.0 292.2 Z M 1138.0 227.1 "></path></clipPath><g clip-path="url(#clip-149)"><text xml:space="preserve" font-family="Helvetica-Light" font-size="18.0" fill="#000000" transform="matrix(1.00, 0.00, -0.00, -1.00, 1202.0, 252.0)">f</text><text xml:space="preserve" font-family="Helvetica-Light" font-size="18.0" fill="#000000" transform="matrix(1.00, 0.00, -0.00, -1.00, 1207.0, 252.0)">r</text><text xml:space="preserve" font-family="Helvetica-Light" font-size="18.0" fill="#000000" transform="matrix(1.00, 0.00, -0.00, -1.00, 1213.0, 252.0)">u</text><text xml:space="preserve" font-family="Helvetica-Light" font-size="18.0" fill="#000000" transform="matrix(1.00, 0.00, -0.00, -1.00, 1223.0, 252.0)">i</text><text xml:space="preserve" font-family="Helvetica-Light" font-size="18.0" fill="#000000" transform="matrix(1.00, 0.00, -0.00, -1.00, 1227.0, 252.0)">t</text></g></g></g></g><g><clipPath id="clip-150"><path d="M 1138.0 425.0 L 1454.4 425.0 L 1454.4 160.4 L 1138.0 160.4 Z M 1138.0 425.0 "></path></clipPath><g clip-path="url(#clip-150)"><g><clipPath id="clip-151"><path d="M 1296.7 227.1 L 1454.4 227.1 L 1454.4 292.2 L 1296.7 292.2 Z M 1296.7 227.1 "></path></clipPath><g clip-path="url(#clip-151)"><text xml:space="preserve" font-family="Helvetica-Light" font-size="18.0" fill="#000000" transform="matrix(1.00, 0.00, -0.00, -1.00, 1348.0, 252.0)">b</text><text xml:space="preserve" font-family="Helvetica-Light" font-size="18.0" fill="#000000" transform="matrix(1.00, 0.00, -0.00, -1.00, 1359.0, 252.0)">o</text><text xml:space="preserve" font-family="Helvetica-Light" font-size="18.0" fill="#000000" transform="matrix(1.00, 0.00, -0.00, -1.00, 1369.0, 252.0)">t</text><text xml:space="preserve" font-family="Helvetica-Light" font-size="18.0" fill="#000000" transform="matrix(1.00, 0.00, -0.00, -1.00, 1374.0, 252.0)">a</text><text xml:space="preserve" font-family="Helvetica-Light" font-size="18.0" fill="#000000" transform="matrix(1.00, 0.00, -0.00, -1.00, 1384.0, 252.0)">n</text><text xml:space="preserve" font-family="Helvetica-Light" font-size="18.0" fill="#000000" transform="matrix(1.00, 0.00, -0.00, -1.00, 1394.0, 252.0)">y</text></g></g></g></g><g><clipPath id="clip-152"><path d="M 1138.0 425.0 L 1454.4 425.0 L 1454.4 160.4 L 1138.0 160.4 Z M 1138.0 425.0 "></path></clipPath><g clip-path="url(#clip-152)"><g><clipPath id="clip-153"><path d="M 1138.0 160.4 L 1295.7 160.4 L 1295.7 226.1 L 1138.0 226.1 Z M 1138.0 160.4 "></path></clipPath><g clip-path="url(#clip-153)"><text xml:space="preserve" font-family="Helvetica-Light" font-size="18.0" fill="#000000" transform="matrix(1.00, 0.00, -0.00, -1.00, 1199.0, 186.0)">t</text><text xml:space="preserve" font-family="Helvetica-Light" font-size="18.0" fill="#000000" transform="matrix(1.00, 0.00, -0.00, -1.00, 1204.0, 186.0)">r</text><text xml:space="preserve" font-family="Helvetica-Light" font-size="18.0" fill="#000000" transform="matrix(1.00, 0.00, -0.00, -1.00, 1210.0, 186.0)">a</text><text xml:space="preserve" font-family="Helvetica-Light" font-size="18.0" fill="#000000" transform="matrix(1.00, 0.00, -0.00, -1.00, 1220.0, 186.0)">i</text><text xml:space="preserve" font-family="Helvetica-Light" font-size="18.0" fill="#000000" transform="matrix(1.00, 0.00, -0.00, -1.00, 1224.0, 186.0)">n</text></g></g></g></g><g><clipPath id="clip-154"><path d="M 1138.0 425.0 L 1454.4 425.0 L 1454.4 160.4 L 1138.0 160.4 Z M 1138.0 425.0 "></path></clipPath><g clip-path="url(#clip-154)"><g><clipPath id="clip-155"><path d="M 1296.7 160.4 L 1454.4 160.4 L 1454.4 226.1 L 1296.7 226.1 Z M 1296.7 160.4 "></path></clipPath><g clip-path="url(#clip-155)"><text xml:space="preserve" font-family="Helvetica-Light" font-size="18.0" fill="#000000" transform="matrix(1.00, 0.00, -0.00, -1.00, 1325.0, 186.0)">r</text><text xml:space="preserve" font-family="Helvetica-Light" font-size="18.0" fill="#000000" transform="matrix(1.00, 0.00, -0.00, -1.00, 1331.0, 186.0)">a</text><text xml:space="preserve" font-family="Helvetica-Light" font-size="18.0" fill="#000000" transform="matrix(1.00, 0.00, -0.00, -1.00, 1341.0, 186.0)">i</text><text xml:space="preserve" font-family="Helvetica-Light" font-size="18.0" fill="#000000" transform="matrix(1.00, 0.00, -0.00, -1.00, 1345.0, 186.0)">l</text><text xml:space="preserve" font-family="Helvetica-Light" font-size="18.0" fill="#000000" transform="matrix(1.00, 0.00, -0.00, -1.00, 1349.0, 186.0)"> </text><text xml:space="preserve" font-family="Helvetica-Light" font-size="18.0" fill="#000000" transform="matrix(1.00, 0.00, -0.00, -1.00, 1354.0, 186.0)">t</text><text xml:space="preserve" font-family="Helvetica-Light" font-size="18.0" fill="#000000" transform="matrix(1.00, 0.00, -0.00, -1.00, 1359.0, 186.0)">r</text><text xml:space="preserve" font-family="Helvetica-Light" font-size="18.0" fill="#000000" transform="matrix(1.00, 0.00, -0.00, -1.00, 1365.0, 186.0)">a</text><text xml:space="preserve" font-family="Helvetica-Light" font-size="18.0" fill="#000000" transform="matrix(1.00, 0.00, -0.00, -1.00, 1375.0, 186.0)">n</text><text xml:space="preserve" font-family="Helvetica-Light" font-size="18.0" fill="#000000" transform="matrix(1.00, 0.00, -0.00, -1.00, 1385.0, 186.0)">s</text><text xml:space="preserve" font-family="Helvetica-Light" font-size="18.0" fill="#000000" transform="matrix(1.00, 0.00, -0.00, -1.00, 1394.0, 186.0)">p</text><text xml:space="preserve" font-family="Helvetica-Light" font-size="18.0" fill="#000000" transform="matrix(1.00, 0.00, -0.00, -1.00, 1405.0, 186.0)">o</text><text xml:space="preserve" font-family="Helvetica-Light" font-size="18.0" fill="#000000" transform="matrix(1.00, 0.00, -0.00, -1.00, 1415.0, 186.0)">r</text><text xml:space="preserve" font-family="Helvetica-Light" font-size="18.0" fill="#000000" transform="matrix(1.00, 0.00, -0.00, -1.00, 1421.3, 186.0)">t</text></g></g></g></g><g><clipPath id="clip-156"><path d="M 1138.0 425.0 L 1454.4 425.0 L 1454.4 160.4 L 1138.0 160.4 Z M 1138.0 425.0 "></path></clipPath><g clip-path="url(#clip-156)"><g><clipPath id="clip-157"><path d="M 1295.7 358.9 L 1296.7 358.9 L 1296.7 425.0 L 1295.7 425.0 Z M 1295.7 358.9 "></path></clipPath><g clip-path="url(#clip-157)"><path d="M 159.2 1.0 L 159.2 67.1 " fill="none" stroke="#000000" stroke-width="1.00" stroke-dasharray="2.0, 2.0" transform="matrix(1.00, 0.00, 0.00, -1.00, 1137.0, 426.0)"></path></g></g></g></g><g><clipPath id="clip-158"><path d="M 1138.0 425.0 L 1454.4 425.0 L 1454.4 160.4 L 1138.0 160.4 Z M 1138.0 425.0 "></path></clipPath><g clip-path="url(#clip-158)"><g><clipPath id="clip-159"><path d="M 1295.7 160.4 L 1296.7 160.4 L 1296.7 358.9 L 1295.7 358.9 Z M 1295.7 160.4 "></path></clipPath><g clip-path="url(#clip-159)"><path d="M 159.2 1.0 L 159.2 265.6 " fill="none" stroke="#000000" stroke-width="1.00" stroke-dasharray="2.0, 2.0" transform="matrix(1.00, 0.00, 0.00, -1.00, 1137.0, 426.0)"></path></g></g></g></g><g><clipPath id="clip-160"><path d="M 1138.0 425.0 L 1454.4 425.0 L 1454.4 160.4 L 1138.0 160.4 Z M 1138.0 425.0 "></path></clipPath><g clip-path="url(#clip-160)"><g><clipPath id="clip-161"><path d="M 1138.0 292.2 L 1454.4 292.2 L 1454.4 293.2 L 1138.0 293.2 Z M 1138.0 292.2 "></path></clipPath><g clip-path="url(#clip-161)"><path d="M 1.0 133.3 L 317.4 133.3 " fill="none" stroke="#000000" stroke-width="1.00" stroke-dasharray="2.0, 2.0" transform="matrix(1.00, 0.00, 0.00, -1.00, 1137.0, 426.0)"></path></g></g></g></g><g><clipPath id="clip-162"><path d="M 1138.0 425.0 L 1454.4 425.0 L 1454.4 160.4 L 1138.0 160.4 Z M 1138.0 425.0 "></path></clipPath><g clip-path="url(#clip-162)"><g><clipPath id="clip-163"><path d="M 1138.0 226.1 L 1454.4 226.1 L 1454.4 227.1 L 1138.0 227.1 Z M 1138.0 226.1 "></path></clipPath><g clip-path="url(#clip-163)"><path d="M 1.0 199.4 L 317.4 199.4 " fill="none" stroke="#000000" stroke-width="1.00" stroke-dasharray="2.0, 2.0" transform="matrix(1.00, 0.00, 0.00, -1.00, 1137.0, 426.0)"></path></g></g></g></g><g><clipPath id="clip-164"><path d="M 1138.0 425.0 L 1454.4 425.0 L 1454.4 160.4 L 1138.0 160.4 Z M 1138.0 425.0 "></path></clipPath><g clip-path="url(#clip-164)"><path d="M 1.0 67.1 L 317.4 67.1 " fill="none" stroke="#000000" stroke-width="1.00" transform="matrix(1.00, 0.00, 0.00, -1.00, 1137.0, 426.0)"></path></g></g><g opacity="0.15"><g><clipPath id="clip-165"><path d="M 723.0 273.0 L 1016.0 273.0 L 1016.0 431.0 L 723.0 431.0 Z M 723.0 273.0 "></path></clipPath><g clip-path="url(#clip-165)"><image xlink:href="../../03E86B4A-DD99-4CCA-9F90-5C62FD73758B/assets/8A70A800DFE6045869C5C277B878B13D.png" width="258.00" height="137.00" transform="matrix(1.12, 0.00, -0.00, -1.12, 725.0, 429.0)"></image></g></g></g></g></svg>