<?xml version="1.0" encoding="UTF-8" standalone="no"?><svg xmlns="http://www.w3.org/2000/svg" xmlns:xlink="http://www.w3.org/1999/xlink" clip-rule="evenodd" stroke-miterlimit="4.00" viewBox="0 0 1920 1080"><desc>SVG generated by Keynote</desc><defs></defs><g transform="matrix(1.00, 0.00, -0.00, -1.00, 0.0, 1080.0)"><path d="M 0.0 1080.0 L 1920.0 1080.0 L 1920.0 0.0 L 0.0 0.0 Z M 0.0 1080.0 " fill="#FEFFFF"></path><g opacity="0.20"><g><clipPath id="clip-214"><path d="M 261.0 743.0 L 669.0 743.0 L 669.0 884.0 L 261.0 884.0 Z M 261.0 743.0 "></path></clipPath><g clip-path="url(#clip-214)"><image xlink:href="../../FCC3CA18-D6B4-4610-9BBC-54F182F2C11C/assets/3EC77F937C8E9C4B34309443EB30A6B0.png" width="405.00" height="137.00" transform="matrix(1.00, 0.00, -0.00, -1.00, 263.0, 882.0)"></image></g></g></g><g opacity="0.20"><g><clipPath id="clip-215"><path d="M 331.0 498.0 L 676.0 498.0 L 676.0 694.0 L 331.0 694.0 Z M 331.0 498.0 "></path></clipPath><g clip-path="url(#clip-215)"><image xlink:href="../../03E86B4A-DD99-4CCA-9F90-5C62FD73758B/assets/B33BC9647A8864636F0568DA8B7F317B.png" width="300.00" height="169.00" transform="matrix(1.14, 0.00, -0.00, -1.14, 333.0, 693.0)"></image></g></g></g><image xlink:href="../../03E86B4A-DD99-4CCA-9F90-5C62FD73758B/assets/8A70A800DFE6045869C5C277B878B13D.png" width="258.00" height="137.00" transform="matrix(1.12, 0.00, -0.00, -1.12, 691.0, 468.0)"></image><image xlink:href="../../03E86B4A-DD99-4CCA-9F90-5C62FD73758B/assets/995E3908DCE47C67D2B743DB57FC0FD0.png" width="225.00" height="100.00" transform="matrix(1.41, 0.00, -0.00, -1.41, 1039.0, 647.0)"></image><g opacity="0.20"><g><clipPath id="clip-216"><path d="M 415.0 636.0 L 524.0 636.0 L 524.0 753.0 L 415.0 753.0 Z M 415.0 636.0 "></path></clipPath><g clip-path="url(#clip-216)"><image xlink:href="../../FCC3CA18-D6B4-4610-9BBC-54F182F2C11C/assets/D1F1E8A39B7BD7E8F68F2962E58ECD44.png" width="99.00" height="59.00" transform="matrix(0.64, -0.76, 0.77, 0.65, 415.0, 711.3)" opacity="0.94"></image></g></g><g><clipPath id="clip-217"><path d="M 483.4 695.8 L 494.2 704.9 L 498.6 659.7 L 454.9 671.9 L 465.8 681.0 L 431.5 721.9 L 449.1 736.7 Z M 483.4 695.8 "></path></clipPath><g clip-path="url(#clip-217)"><g><clipPath id="clip-218"><path d="M 415.0 636.0 L 524.0 636.0 L 524.0 753.0 L 415.0 753.0 Z M 415.0 636.0 "></path></clipPath><g clip-path="url(#clip-218)"><image xlink:href="../../51E28557-A19C-4695-804D-F4BEF26E23DB/assets/D5BAA0E7A80E113D25EB92D00157B4C8.jpeg" width="300.00" height="300.00" transform="matrix(0.56, -0.67, 0.67, 0.56, 420.6, 712.8)"></image><path d="M 420.6 712.8 L 479.0 643.3 L 518.2 676.2 L 459.9 745.8 Z M 420.6 712.8 " fill="#009BFC" fill-opacity="0.50"></path></g></g></g></g></g><g opacity="0.12"><g><clipPath id="clip-219"><path d="M 1383.0 642.0 L 1688.0 642.0 L 1688.0 846.0 L 1383.0 846.0 Z M 1383.0 642.0 "></path></clipPath><g clip-path="url(#clip-219)"><image xlink:href="../../FCC3CA18-D6B4-4610-9BBC-54F182F2C11C/assets/3E30271506566739B74BFA35A8DE4DCF.png" width="302.00" height="200.00" transform="matrix(1.00, 0.00, -0.00, -1.00, 1385.0, 844.0)"></image></g></g></g><image xlink:href="../../FCC3CA18-D6B4-4610-9BBC-54F182F2C11C/assets/D1F1E8A39B7BD7E8F68F2962E58ECD44.png" width="99.00" height="59.00" transform="matrix(0.79, -0.61, 0.62, 0.79, 579.6, 488.7)" opacity="0.94"></image><g><clipPath id="clip-220"><path d="M 650.1 487.7 L 658.8 498.9 L 672.6 455.6 L 627.3 458.5 L 636.0 469.6 L 593.9 502.5 L 608.1 520.6 Z M 650.1 487.7 "></path></clipPath><g clip-path="url(#clip-220)"><image xlink:href="../../51E28557-A19C-4695-804D-F4BEF26E23DB/assets/D5BAA0E7A80E113D25EB92D00157B4C8.jpeg" width="300.00" height="300.00" transform="matrix(0.69, -0.54, 0.54, 0.69, 585.2, 491.4)"></image><path d="M 585.2 491.4 L 656.8 435.4 L 688.3 475.8 L 616.8 531.7 Z M 585.2 491.4 " fill="#009BFC" fill-opacity="0.50"></path></g></g><image xlink:href="../../FCC3CA18-D6B4-4610-9BBC-54F182F2C11C/assets/D1F1E8A39B7BD7E8F68F2962E58ECD44.png" width="99.00" height="59.00" transform="matrix(0.67, 0.74, -0.75, 0.67, 1069.6, 381.2)" opacity="0.94"></image><g><clipPath id="clip-221"><path d="M 1077.4 453.3 L 1066.9 462.8 L 1111.0 473.5 L 1105.0 428.5 L 1094.5 437.9 L 1058.8 398.3 L 1041.7 413.7 Z M 1077.4 453.3 "></path></clipPath><g clip-path="url(#clip-221)"><image xlink:href="../../51E28557-A19C-4695-804D-F4BEF26E23DB/assets/D5BAA0E7A80E113D25EB92D00157B4C8.jpeg" width="300.00" height="300.00" transform="matrix(0.59, 0.65, -0.65, 0.59, 1069.3, 388.8)"></image><path d="M 1069.3 388.8 L 1130.1 456.3 L 1092.0 490.6 L 1031.2 423.1 Z M 1069.3 388.8 " fill="#009BFC" fill-opacity="0.50"></path></g></g><image xlink:href="../../FCC3CA18-D6B4-4610-9BBC-54F182F2C11C/assets/D1F1E8A39B7BD7E8F68F2962E58ECD44.png" width="99.00" height="59.00" transform="matrix(0.82, 0.57, -0.58, 0.82, 1304.7, 611.5)" opacity="0.94"></image><g><clipPath id="clip-222"><path d="M 1328.1 680.1 L 1320.0 691.7 L 1365.3 692.2 L 1349.4 649.7 L 1341.3 661.3 L 1297.5 630.7 L 1284.4 649.5 Z M 1328.1 680.1 "></path></clipPath><g clip-path="url(#clip-222)"><image xlink:href="../../51E28557-A19C-4695-804D-F4BEF26E23DB/assets/D5BAA0E7A80E113D25EB92D00157B4C8.jpeg" width="300.00" height="300.00" transform="matrix(0.72, 0.50, -0.50, 0.72, 1305.6, 619.1)"></image><path d="M 1305.6 619.1 L 1380.0 671.2 L 1350.6 713.1 L 1276.3 661.1 Z M 1305.6 619.1 " fill="#009BFC" fill-opacity="0.50"></path></g></g><g opacity="0.12"><g><clipPath id="clip-223"><path d="M 965.0 770.0 L 1270.0 770.0 L 1270.0 818.0 L 965.0 818.0 Z M 965.0 770.0 "></path></clipPath><g clip-path="url(#clip-223)"><image xlink:href="../../03E86B4A-DD99-4CCA-9F90-5C62FD73758B/assets/E0B96AC122F37459DF6AC170F1B1F67C.png" width="302.00" height="44.00" transform="matrix(1.00, 0.00, -0.00, -1.02, 967.0, 816.0)"></image></g></g></g><g opacity="0.12"><g><clipPath id="clip-224"><path d="M 1059.0 894.0 L 1176.0 894.0 L 1176.0 809.0 L 1059.0 809.0 Z M 1059.5 893.7 "></path></clipPath><g clip-path="url(#clip-224)"><g><clipPath id="clip-225"><path d="M 1058.0 808.0 L 1178.0 808.0 L 1178.0 895.0 L 1058.0 895.0 Z M 1058.0 808.0 "></path></clipPath><g clip-path="url(#clip-225)"><image xlink:href="../../72D0EAD3-E874-40A1-B9A8-CFB741D0859A/assets/E22F4878CC6F752CA7A9C70AD8314AAF.png" width="240.00" height="245.00" transform="matrix(0.49, 0.00, -0.00, -0.49, 1059.0, 894.0)"></image></g></g></g></g></g><g opacity="0.12"><g><clipPath id="clip-226"><path d="M 1266.0 777.0 L 1377.0 777.0 L 1377.0 862.0 L 1266.0 862.0 Z M 1266.0 777.0 "></path></clipPath><g clip-path="url(#clip-226)"><image xlink:href="../../FCC3CA18-D6B4-4610-9BBC-54F182F2C11C/assets/D1F1E8A39B7BD7E8F68F2962E58ECD44.png" width="99.00" height="59.00" transform="matrix(0.97, -0.22, 0.23, 0.98, 1266.3, 799.7)" opacity="0.94"></image></g></g><g><clipPath id="clip-227"><path d="M 1331.5 828.8 L 1334.6 842.6 L 1365.4 809.2 L 1323.1 792.6 L 1326.3 806.4 L 1274.3 818.4 L 1279.5 840.8 Z M 1331.5 828.8 "></path></clipPath><g clip-path="url(#clip-227)"><g><clipPath id="clip-228"><path d="M 1266.0 777.0 L 1377.0 777.0 L 1377.0 862.0 L 1266.0 862.0 Z M 1266.0 777.0 "></path></clipPath><g clip-path="url(#clip-228)"><image xlink:href="../../51E28557-A19C-4695-804D-F4BEF26E23DB/assets/D5BAA0E7A80E113D25EB92D00157B4C8.jpeg" width="300.00" height="300.00" transform="matrix(0.85, -0.20, 0.20, 0.85, 1271.1, 804.7)"></image><path d="M 1271.1 804.7 L 1359.6 784.2 L 1371.1 834.1 L 1282.6 854.6 Z M 1271.1 804.7 " fill="#009BFC" fill-opacity="0.50"></path></g></g></g></g></g><g opacity="0.12"><g><clipPath id="clip-229"><path d="M 1322.0 712.0 L 1368.0 712.0 L 1368.0 784.0 L 1322.0 784.0 Z M 1322.0 712.0 "></path></clipPath><g clip-path="url(#clip-229)"><text xml:space="preserve" font-family="Helvetica-Light" font-size="50.0" fill="#000000" transform="matrix(1.00, 0.00, -0.00, -1.00, 1329.0, 730.0)">+</text></g></g></g><image xlink:href="EBEA74EA1D4883E520D5228E0159AB56.png" width="152.00" height="45.00" transform="matrix(1.40, 0.00, -0.00, -1.40, 772.0, 303.0)"></image></g></svg>