<?xml version="1.0" encoding="UTF-8" standalone="no"?><svg xmlns="http://www.w3.org/2000/svg" xmlns:xlink="http://www.w3.org/1999/xlink" clip-rule="evenodd" stroke-miterlimit="4.00" viewBox="0 0 1920 1080"><desc>SVG generated by Keynote</desc><defs></defs><g transform="matrix(1.00, 0.00, -0.00, -1.00, 0.0, 1080.0)"><path d="M 0.0 1080.0 L 1920.0 1080.0 L 1920.0 0.0 L 0.0 0.0 Z M 0.0 1080.0 " fill="#FEFFFF"></path><image xlink:href="../../D28839AE-AF74-42FE-9175-3690820A477D/assets/B33BC9647A8864636F0568DA8B7F317B.png" width="300.00" height="169.00" transform="matrix(1.14, 0.00, -0.00, -1.14, 119.0, 643.0)"></image><g><clipPath id="clip-256"><path d="M 205.0 920.0 L 374.0 920.0 L 374.0 798.0 L 205.0 798.0 Z M 205.2 920.3 "></path></clipPath><g clip-path="url(#clip-256)"><image xlink:href="../../72D0EAD3-E874-40A1-B9A8-CFB741D0859A/assets/E22F4878CC6F752CA7A9C70AD8314AAF.png" width="240.00" height="245.00" transform="matrix(0.70, 0.00, -0.00, -0.70, 205.0, 920.0)"></image></g></g><image xlink:href="../../D28839AE-AF74-42FE-9175-3690820A477D/assets/3F156D545C60100F4879410FDD969E71.png" width="531.00" height="150.00" transform="matrix(1.00, 0.00, -0.00, -1.00, 481.5, 559.0)" opacity="0.75"></image><image xlink:href="../../D28839AE-AF74-42FE-9175-3690820A477D/assets/8A70A800DFE6045869C5C277B878B13D.png" width="258.00" height="137.00" transform="matrix(1.13, 0.00, -0.00, -1.12, 601.0, 638.0)"></image><image xlink:href="../../D28839AE-AF74-42FE-9175-3690820A477D/assets/88C5E7DDCB85311016A553A4C27E3E49.png" width="557.00" height="150.00" transform="matrix(1.00, 0.00, -0.00, -1.00, 846.3, 341.2)" opacity="0.75"></image><image xlink:href="../../D28839AE-AF74-42FE-9175-3690820A477D/assets/995E3908DCE47C67D2B743DB57FC0FD0.png" width="225.00" height="100.00" transform="matrix(1.41, 0.00, -0.00, -1.41, 966.0, 407.0)"></image><image xlink:href="../../D28839AE-AF74-42FE-9175-3690820A477D/assets/0A3FC3FDFE6DF372099F49C1F9AD9CF4.png" width="582.00" height="150.00" transform="matrix(1.00, 0.00, -0.00, -1.00, 831.8, 828.0)" opacity="0.75"></image><image xlink:href="../../D28839AE-AF74-42FE-9175-3690820A477D/assets/BE4A473FFC0FB541261C97546482937E.png" width="342.00" height="104.00" transform="matrix(1.00, 0.00, -0.00, -1.01, 952.0, 858.0)"></image><image xlink:href="../../D28839AE-AF74-42FE-9175-3690820A477D/assets/E87589F767B205C5B2D8869B1FFB9FBB.png" width="304.00" height="90.00" transform="matrix(1.00, 0.00, -0.00, -0.99, 1380.0, 381.0)"></image><text xml:space="preserve" font-family="Helvetica-Light" font-size="50.0" fill="#000000" transform="matrix(1.00, 0.00, -0.00, -1.00, 1321.0, 318.0)">+</text><g><clipPath id="clip-257"><path d="M 1387.4 733.0 L 1866.5 733.0 L 1866.5 1005.4 L 1387.4 1005.4 Z M 1387.4 733.0 "></path></clipPath><g clip-path="url(#clip-257)"><image xlink:href="../../D28839AE-AF74-42FE-9175-3690820A477D/assets/2670EA58489360881A5C4AEAD3BBD2C7.png" width="479.00" height="272.00" transform="matrix(1.00, 0.00, -0.00, -1.00, 1387.4, 1005.4)" opacity="0.70"></image><image xlink:href="../../D28839AE-AF74-42FE-9175-3690820A477D/assets/7D36E4C005055373DB6CCC6B48DB03EA.png" width="470.00" height="262.00" transform="matrix(1.00, 0.00, -0.00, -1.00, 1391.0, 1002.0)"></image><path d="M -0.4 0.2 L 469.6 0.2 L 469.6 262.2 L -0.4 262.2 Z M -0.4 0.2 " fill="none" stroke="#F2F6F5" stroke-width="2.00" transform="matrix(1.00, 0.00, 0.00, -1.00, 1391.4, 1002.2)"></path></g></g><g><clipPath id="clip-258"><path d="M 1436.9 785.2 L 1779.6 785.2 L 1779.6 938.3 L 1436.9 938.3 Z M 1436.9 785.2 "></path></clipPath><g clip-path="url(#clip-258)"><image xlink:href="../../D28839AE-AF74-42FE-9175-3690820A477D/assets/DA82B209B97C29B6F490A91411EF40FD.png" width="341.00" height="151.00" transform="matrix(1.00, 0.00, -0.00, -1.00, 1437.9, 937.3)" opacity="0.50"></image><path d="M 29.9 0.0 L 299.8 0.0 C 308.4 0.0 312.8 0.0 317.4 1.5 C 322.4 3.3 326.4 7.3 328.2 12.3 C 329.7 17.0 329.7 21.3 329.7 30.0 L 329.7 110.2 C 329.7 118.7 329.7 123.1 328.2 127.7 C 326.4 132.7 322.4 136.7 317.4 138.6 C 312.8 140.0 308.4 140.0 299.7 140.0 L 29.9 140.0 C 21.3 140.0 17.0 140.0 12.3 138.6 C 7.3 136.7 3.3 132.7 1.5 127.7 C 0.0 123.1 0.0 118.7 0.0 110.0 L 0.0 29.9 C 0.0 21.3 0.0 17.0 1.5 12.3 C 3.3 7.3 7.3 3.3 12.3 1.5 C 17.0 0.0 21.3 0.0 30.0 0.0 Z M 29.9 0.0 " fill="none" stroke="#4E8F00" stroke-width="5.00" stroke-dasharray="5.0, 5.0" transform="matrix(1.00, 0.00, 0.00, -1.00, 1443.4, 933.8)"></path></g></g><g><clipPath id="clip-259"><path d="M 1414.0 887.0 L 1914.0 887.0 L 1914.0 609.0 L 1414.0 609.0 Z M 1414.2 886.9 "></path></clipPath><g clip-path="url(#clip-259)"><g><clipPath id="clip-260"><path d="M 1414.2 496.1 L 1914.3 496.1 L 1914.3 886.9 L 1414.2 886.9 Z M 1414.2 496.1 "></path></clipPath><g clip-path="url(#clip-260)"><image xlink:href="../../D28839AE-AF74-42FE-9175-3690820A477D/assets/F24C17AACC62FEEA54BF16965AFA416C.png" width="501.00" height="278.00" transform="matrix(1.00, 0.00, -0.00, -1.00, 1414.0, 887.0)"></image></g></g></g></g><g><clipPath id="clip-261"><path d="M 1414.2 496.1 L 1914.3 496.1 L 1914.3 886.9 L 1414.2 886.9 Z M 1414.2 496.1 "></path></clipPath><g clip-path="url(#clip-261)"><image xlink:href="../../D28839AE-AF74-42FE-9175-3690820A477D/assets/FE6DFF444352B2CEE0404CAB67B00FFD.png" width="2084.00" height="469.00" transform="matrix(0.24, 0.00, -0.00, -0.24, 1414.2, 608.5)"></image></g></g><g><clipPath id="clip-262"><path d="M 1470.9 713.8 L 1803.6 713.8 L 1803.6 828.3 L 1470.9 828.3 Z M 1470.9 713.8 "></path></clipPath><g clip-path="url(#clip-262)"><image xlink:href="../../D28839AE-AF74-42FE-9175-3690820A477D/assets/ABACA0AED04AEC19B9E497C910835D5C.png" width="331.00" height="113.00" transform="matrix(1.00, 0.00, -0.00, -1.00, 1471.9, 827.3)" opacity="0.50"></image><path d="M 29.0 0.0 L 290.7 0.0 C 299.0 0.0 303.2 0.0 307.7 1.4 C 312.6 3.2 316.5 7.1 318.3 12.0 C 319.7 16.4 319.7 20.7 319.7 29.1 L 319.7 72.6 C 319.7 80.9 319.7 85.1 318.3 89.6 C 316.5 94.5 312.6 98.4 307.7 100.1 C 303.2 101.6 299.0 101.6 290.6 101.6 L 29.0 101.6 C 20.7 101.6 16.4 101.6 12.0 100.1 C 7.1 98.4 3.2 94.5 1.4 89.6 C 0.0 85.1 0.0 80.9 0.0 72.5 L 0.0 29.0 C 0.0 20.7 0.0 16.4 1.4 12.0 C 3.2 7.1 7.1 3.2 12.0 1.4 C 16.4 0.0 20.7 0.0 29.1 0.0 Z M 29.0 0.0 " fill="none" stroke="#4E8F00" stroke-width="5.00" stroke-dasharray="5.0, 5.0" transform="matrix(1.00, 0.00, 0.00, -1.00, 1477.4, 823.8)"></path></g></g><path d="M 0.0 0.0 L 138.8 0.0 L 140.3 0.0 " fill="none" stroke="#A9A9A9" stroke-width="3.00" stroke-linecap="round" stroke-dasharray="0.0, 9.0" transform="matrix(0.00, -1.00, -1.00, 0.00, 289.7, 750.2)"></path><path d="M 283.1 611.4 L 289.7 598.2 L 296.3 611.4 Z M 283.1 611.4 " fill="#A9A9A9"></path><path d="M 0.0 0.0 L 76.6 0.0 L 78.1 0.0 " fill="none" stroke="#A9A9A9" stroke-width="3.00" stroke-linecap="round" stroke-dasharray="0.0, 9.0" transform="matrix(1.00, 0.00, 0.00, -1.00, 487.3, 540.0)"></path><path d="M 563.9 533.4 L 577.1 540.0 L 563.9 546.6 Z M 563.9 533.4 " fill="#A9A9A9"></path><path d="M 0.0 0.0 L 80.0 0.0 L 81.5 0.0 " fill="none" stroke="#A9A9A9" stroke-width="3.00" stroke-linecap="round" stroke-dasharray="0.0, 9.0" transform="matrix(0.71, -0.71, -0.71, -0.71, 866.8, 468.9)"></path><path d="M 918.6 407.7 L 932.6 403.0 L 928.0 417.0 Z M 918.6 407.7 " fill="#A9A9A9"></path><path d="M 0.0 0.0 L 80.0 0.0 L 81.5 0.0 " fill="none" stroke="#A9A9A9" stroke-width="3.00" stroke-linecap="round" stroke-dasharray="0.0, 9.0" transform="matrix(0.71, 0.71, 0.71, -0.71, 866.8, 653.2)"></path><path d="M 928.0 705.1 L 932.6 719.1 L 918.6 714.4 Z M 928.0 705.1 " fill="#A9A9A9"></path><text xml:space="preserve" font-family="Helvetica-Light" font-size="29.0" fill="#52575F" transform="matrix(1.00, 0.00, -0.00, -1.00, 177.0, 422.0)">1</text><text xml:space="preserve" font-family="Helvetica-Light" font-size="29.0" fill="#52575F" transform="matrix(1.00, 0.00, -0.00, -1.00, 193.1, 422.0)">1</text><text xml:space="preserve" font-family="Helvetica-Light" font-size="29.0" fill="#52575F" transform="matrix(1.00, 0.00, -0.00, -1.00, 209.2, 422.0)"> </text><text xml:space="preserve" font-family="Helvetica-Light" font-size="29.0" fill="#52575F" transform="matrix(1.00, 0.00, -0.00, -1.00, 217.3, 422.0)">m</text><text xml:space="preserve" font-family="Helvetica-Light" font-size="29.0" fill="#52575F" transform="matrix(1.00, 0.00, -0.00, -1.00, 241.5, 422.0)">i</text><text xml:space="preserve" font-family="Helvetica-Light" font-size="29.0" fill="#52575F" transform="matrix(1.00, 0.00, -0.00, -1.00, 247.9, 422.0)">l</text><text xml:space="preserve" font-family="Helvetica-Light" font-size="29.0" fill="#52575F" transform="matrix(1.00, 0.00, -0.00, -1.00, 254.3, 422.0)">l</text><text xml:space="preserve" font-family="Helvetica-Light" font-size="29.0" fill="#52575F" transform="matrix(1.00, 0.00, -0.00, -1.00, 260.8, 422.0)">i</text><text xml:space="preserve" font-family="Helvetica-Light" font-size="29.0" fill="#52575F" transform="matrix(1.00, 0.00, -0.00, -1.00, 267.2, 422.0)">o</text><text xml:space="preserve" font-family="Helvetica-Light" font-size="29.0" fill="#52575F" transform="matrix(1.00, 0.00, -0.00, -1.00, 283.3, 422.0)">n</text><text xml:space="preserve" font-family="Helvetica-Light" font-size="29.0" fill="#52575F" transform="matrix(1.00, 0.00, -0.00, -1.00, 299.5, 422.0)"> </text><text xml:space="preserve" font-family="Helvetica-Light" font-size="29.0" fill="#52575F" transform="matrix(1.00, 0.00, -0.00, -1.00, 307.5, 422.0)">a</text><text xml:space="preserve" font-family="Helvetica-Light" font-size="29.0" fill="#52575F" transform="matrix(1.00, 0.00, -0.00, -1.00, 323.7, 422.0)">r</text><text xml:space="preserve" font-family="Helvetica-Light" font-size="29.0" fill="#52575F" transform="matrix(1.00, 0.00, -0.00, -1.00, 333.8, 422.0)">t</text><text xml:space="preserve" font-family="Helvetica-Light" font-size="29.0" fill="#52575F" transform="matrix(1.00, 0.00, -0.00, -1.00, 341.9, 422.0)">i</text><text xml:space="preserve" font-family="Helvetica-Light" font-size="29.0" fill="#52575F" transform="matrix(1.00, 0.00, -0.00, -1.00, 348.3, 422.0)">c</text><text xml:space="preserve" font-family="Helvetica-Light" font-size="29.0" fill="#52575F" transform="matrix(1.00, 0.00, -0.00, -1.00, 364.5, 422.0)">l</text><text xml:space="preserve" font-family="Helvetica-Light" font-size="29.0" fill="#52575F" transform="matrix(1.00, 0.00, -0.00, -1.00, 370.9, 422.0)">e</text><text xml:space="preserve" font-family="Helvetica-Light" font-size="29.0" fill="#52575F" transform="matrix(1.00, 0.00, -0.00, -1.00, 387.0, 422.0)">s</text><g><clipPath id="clip-263"><path d="M 177.0 458.5 L 402.5 458.5 L 402.5 415.5 L 177.0 415.5 Z M 177.0 458.5 "></path></clipPath><g clip-path="url(#clip-263)"><path d="M 4.0 4.5 L 229.5 4.5 " fill="none" stroke="#000000" stroke-width="1.00" stroke-dasharray="2.0, 2.0" transform="matrix(1.00, 0.00, 0.00, -1.00, 173.0, 462.5)"></path><path d="M 4.0 54.5 L 229.5 54.5 " fill="none" stroke="#000000" stroke-width="1.00" stroke-dasharray="2.0, 2.0" transform="matrix(1.00, 0.00, 0.00, -1.00, 173.0, 462.5)"></path></g></g></g></svg>