<?xml version="1.0" encoding="UTF-8" standalone="no"?><svg xmlns="http://www.w3.org/2000/svg" xmlns:xlink="http://www.w3.org/1999/xlink" clip-rule="evenodd" stroke-miterlimit="4.00" viewBox="0 0 1024 768"><desc>SVG generated by Keynote</desc><defs></defs><g transform="matrix(1.00, 0.00, -0.00, -1.00, 0.0, 768.0)"><path d="M 0.0 768.0 L 1024.0 768.0 L 1024.0 0.0 L 0.0 0.0 Z M 0.0 768.0 " fill="#FEFFFF"></path><image xlink:href="../../1FCF4BF4-7FF7-4DDD-9C00-0AFE2C6035E8/assets/995E3908DCE47C67D2B743DB57FC0FD0.png" width="225.00" height="100.00" transform="matrix(1.00, 0.00, -0.00, -1.00, 64.0, 707.0)"></image><image xlink:href="C9B22D97D8249C110382E7C8794D53D6.png" width="535.00" height="50.00" transform="matrix(1.00, 0.00, -0.00, -1.00, 2.0, 221.0)"></image><image xlink:href="94E8663A6941D3E6009274239A040DD9.png" width="75.00" height="44.00" transform="matrix(0.99, 0.00, -0.00, -1.00, 60.0, 159.0)"></image><image xlink:href="03AFFF69AD8A2D361C9FC3EA6FE0B8EB.png" width="310.00" height="78.00" transform="matrix(0.24, 0.00, -0.00, -0.24, 59.8, 115.0)"></image><image xlink:href="EE61EEFB5529D5F19C77D5700C10C46B.png" width="523.00" height="43.00" transform="matrix(1.00, 0.00, -0.00, -1.02, 2.0, 527.0)"></image><image xlink:href="../../0B1D45CE-2B5F-4CAB-B4EE-992552A78BD4/assets/94E8663A6941D3E6009274239A040DD9.png" width="75.00" height="44.00" transform="matrix(0.99, 0.00, -0.00, -1.00, 60.0, 479.0)"></image><image xlink:href="A473EA36193C354CE96659D0BE421CB1.png" width="310.00" height="78.00" transform="matrix(0.24, 0.00, -0.00, -0.24, 59.8, 435.4)"></image><image xlink:href="28FDC832FFEA3E4EF97680E99033F8DA.png" width="306.00" height="67.00" transform="matrix(1.00, 0.00, -0.00, -1.00, 632.0, 536.9)" opacity="0.50"></image><g><clipPath id="clip-188"><path d="M 635.0 535.9 L 935.0 535.9 L 935.0 474.9 L 635.0 474.9 Z M 635.0 535.9 "></path></clipPath><g clip-path="url(#clip-188)"><image xlink:href="BF3B3AD179BCF3F9DC8641406A1304C5.jpeg" width="540.00" height="540.00" transform="matrix(1.00, 0.00, -0.00, -1.00, 635.0, 535.9)"></image><path d="M 635.0 535.9 L 935.0 535.9 L 935.0 474.9 L 635.0 474.9 Z M 635.0 535.9 " fill="#FF2A05" fill-opacity="0.50"></path></g></g><g><clipPath id="clip-189"><path d="M 628.0 467.9 L 942.0 467.9 L 942.0 542.9 L 628.0 542.9 Z M 628.0 467.9 "></path></clipPath><g clip-path="url(#clip-189)"><text xml:space="preserve" font-family="Helvetica-Light" font-size="44.0" fill="#FEFFFE" transform="matrix(1.00, 0.00, -0.00, -1.00, 639.0, 489.0)">2</text><text xml:space="preserve" font-family="Helvetica-Light" font-size="44.0" fill="#FEFFFE" transform="matrix(1.00, 0.00, -0.00, -1.00, 663.5, 489.0)">1</text><text xml:space="preserve" font-family="Helvetica-Light" font-size="44.0" fill="#FEFFFE" transform="matrix(1.00, 0.00, -0.00, -1.00, 687.9, 489.0)">.</text><text xml:space="preserve" font-family="Helvetica-Light" font-size="44.0" fill="#FEFFFE" transform="matrix(1.00, 0.00, -0.00, -1.00, 700.2, 489.0)">6</text><text xml:space="preserve" font-family="Helvetica-Light" font-size="44.0" fill="#FEFFFE" transform="matrix(1.00, 0.00, -0.00, -1.00, 724.6, 489.0)">0</text><text xml:space="preserve" font-family="Helvetica-Light" font-size="44.0" fill="#FEFFFE" transform="matrix(1.00, 0.00, -0.00, -1.00, 749.1, 489.0)"> </text><text xml:space="preserve" font-family="Helvetica-Light" font-size="44.0" fill="#FEFFFE" transform="matrix(1.00, 0.00, -0.00, -1.00, 761.3, 489.0)">s</text><text xml:space="preserve" font-family="Helvetica-Light" font-size="44.0" fill="#FEFFFE" transform="matrix(1.00, 0.00, -0.00, -1.00, 783.3, 489.0)">e</text><text xml:space="preserve" font-family="Helvetica-Light" font-size="44.0" fill="#FEFFFE" transform="matrix(1.00, 0.00, -0.00, -1.00, 807.8, 489.0)">c</text><text xml:space="preserve" font-family="Helvetica-Light" font-size="44.0" fill="#FEFFFE" transform="matrix(1.00, 0.00, -0.00, -1.00, 832.2, 489.0)">o</text><text xml:space="preserve" font-family="Helvetica-Light" font-size="44.0" fill="#FEFFFE" transform="matrix(1.00, 0.00, -0.00, -1.00, 856.7, 489.0)">n</text><text xml:space="preserve" font-family="Helvetica-Light" font-size="44.0" fill="#FEFFFE" transform="matrix(1.00, 0.00, -0.00, -1.00, 881.2, 489.0)">d</text><text xml:space="preserve" font-family="Helvetica-Light" font-size="44.0" fill="#FEFFFE" transform="matrix(1.00, 0.00, -0.00, -1.00, 908.1, 489.0)">s</text></g></g><image xlink:href="E5A9E649227653AA1D3437F4838984B7.png" width="284.00" height="69.00" transform="matrix(1.00, 0.00, -0.00, -1.00, 637.2, 230.6)" opacity="0.50"></image><g><clipPath id="clip-190"><path d="M 640.2 226.6 L 915.8 226.6 L 915.8 165.6 L 640.2 165.6 Z M 640.2 226.6 "></path></clipPath><g clip-path="url(#clip-190)"><image xlink:href="../../0B1D45CE-2B5F-4CAB-B4EE-992552A78BD4/assets/BF3B3AD179BCF3F9DC8641406A1304C5.jpeg" width="540.00" height="540.00" transform="matrix(0.56, 0.00, -0.00, -0.56, 640.2, 226.6)"></image><path d="M 640.2 226.6 L 915.8 226.6 L 915.8 165.6 L 640.2 165.6 Z M 640.2 226.6 " fill="#00D026" fill-opacity="0.50"></path></g></g><g><clipPath id="clip-191"><path d="M 633.2 158.6 L 922.8 158.6 L 922.8 233.6 L 633.2 233.6 Z M 633.2 158.6 "></path></clipPath><g clip-path="url(#clip-191)"><text xml:space="preserve" font-family="Helvetica-Light" font-size="44.0" fill="#FEFFFE" transform="matrix(1.00, 0.00, -0.00, -1.00, 645.0, 180.0)">0</text><text xml:space="preserve" font-family="Helvetica-Light" font-size="44.0" fill="#FEFFFE" transform="matrix(1.00, 0.00, -0.00, -1.00, 669.5, 180.0)">.</text><text xml:space="preserve" font-family="Helvetica-Light" font-size="44.0" fill="#FEFFFE" transform="matrix(1.00, 0.00, -0.00, -1.00, 681.7, 180.0)">5</text><text xml:space="preserve" font-family="Helvetica-Light" font-size="44.0" fill="#FEFFFE" transform="matrix(1.00, 0.00, -0.00, -1.00, 706.2, 180.0)">3</text><text xml:space="preserve" font-family="Helvetica-Light" font-size="44.0" fill="#FEFFFE" transform="matrix(1.00, 0.00, -0.00, -1.00, 730.6, 180.0)"> </text><text xml:space="preserve" font-family="Helvetica-Light" font-size="44.0" fill="#FEFFFE" transform="matrix(1.00, 0.00, -0.00, -1.00, 742.9, 180.0)">s</text><text xml:space="preserve" font-family="Helvetica-Light" font-size="44.0" fill="#FEFFFE" transform="matrix(1.00, 0.00, -0.00, -1.00, 764.9, 180.0)">e</text><text xml:space="preserve" font-family="Helvetica-Light" font-size="44.0" fill="#FEFFFE" transform="matrix(1.00, 0.00, -0.00, -1.00, 789.3, 180.0)">c</text><text xml:space="preserve" font-family="Helvetica-Light" font-size="44.0" fill="#FEFFFE" transform="matrix(1.00, 0.00, -0.00, -1.00, 813.8, 180.0)">o</text><text xml:space="preserve" font-family="Helvetica-Light" font-size="44.0" fill="#FEFFFE" transform="matrix(1.00, 0.00, -0.00, -1.00, 838.2, 180.0)">n</text><text xml:space="preserve" font-family="Helvetica-Light" font-size="44.0" fill="#FEFFFE" transform="matrix(1.00, 0.00, -0.00, -1.00, 862.7, 180.0)">d</text><text xml:space="preserve" font-family="Helvetica-Light" font-size="44.0" fill="#FEFFFE" transform="matrix(1.00, 0.00, -0.00, -1.00, 889.6, 180.0)">s</text></g></g></g></svg>