<?xml version="1.0" encoding="UTF-8" standalone="no"?><svg xmlns="http://www.w3.org/2000/svg" xmlns:xlink="http://www.w3.org/1999/xlink" clip-rule="evenodd" stroke-miterlimit="4.00" viewBox="0 0 1024 768"><desc>SVG generated by Keynote</desc><defs></defs><g transform="matrix(1.00, 0.00, -0.00, -1.00, 0.0, 768.0)"><path d="M 0.0 768.0 L 1024.0 768.0 L 1024.0 0.0 L 0.0 0.0 Z M 0.0 768.0 " fill="#FEFFFF"></path><image xlink:href="../../1FCF4BF4-7FF7-4DDD-9C00-0AFE2C6035E8/assets/A4542D3012C248C46810A9645617DCE3.png" width="244.00" height="83.00" transform="matrix(1.00, 0.00, -0.00, -1.00, 16.0, 612.0)"></image><image xlink:href="../../1FCF4BF4-7FF7-4DDD-9C00-0AFE2C6035E8/assets/653B5EF954BB6995C072B026426A4EC9.png" width="244.00" height="137.00" transform="matrix(1.00, 0.00, -0.00, -1.00, 66.0, 492.0)"></image><image xlink:href="../../1FCF4BF4-7FF7-4DDD-9C00-0AFE2C6035E8/assets/951D8EF09332935A9F7DD03B8C5DB0BB.png" width="207.00" height="110.00" transform="matrix(1.00, 0.00, -0.00, -1.00, 321.0, 333.0)"></image><image xlink:href="../../1FCF4BF4-7FF7-4DDD-9C00-0AFE2C6035E8/assets/995E3908DCE47C67D2B743DB57FC0FD0.png" width="225.00" height="100.00" transform="matrix(1.00, 0.00, -0.00, -1.00, 569.0, 460.0)"></image><g opacity="0.32"><g><clipPath id="clip-44"><path d="M 110.0 437.0 L 216.0 437.0 L 216.0 552.0 L 110.0 552.0 Z M 110.0 437.0 "></path></clipPath><g clip-path="url(#clip-44)"><image xlink:href="../../1FCF4BF4-7FF7-4DDD-9C00-0AFE2C6035E8/assets/0917A2A2C14B0EF1392EC830DA876933.png" width="99.00" height="70.00" transform="matrix(0.64, -0.76, 0.77, 0.65, 104.5, 507.0)" opacity="0.35"></image></g></g><g><clipPath id="clip-45"><path d="M 173.1 494.8 L 180.8 501.2 L 183.9 469.1 L 152.8 477.8 L 160.5 484.3 L 136.1 513.4 L 148.7 523.9 Z M 173.1 494.8 "></path></clipPath><g clip-path="url(#clip-45)"><g><clipPath id="clip-46"><path d="M 110.0 437.0 L 216.0 437.0 L 216.0 552.0 L 110.0 552.0 Z M 110.0 437.0 "></path></clipPath><g clip-path="url(#clip-46)"><image xlink:href="../../0F274F3A-AE78-4F9E-A533-79FC40367925/assets/D5BAA0E7A80E113D25EB92D00157B4C8.jpeg" width="300.00" height="300.00" transform="matrix(0.64, -0.77, 0.77, 0.64, 128.4, 506.9)"></image><path d="M 128.4 506.9 L 170.0 457.4 L 197.9 480.9 L 156.4 530.3 Z M 128.4 506.9 " fill="#009BFC" fill-opacity="0.50"></path></g></g></g></g></g><g opacity="0.32"><g><clipPath id="clip-47"><path d="M 227.0 289.0 L 337.0 289.0 L 337.0 399.0 L 227.0 399.0 Z M 227.0 289.0 "></path></clipPath><g clip-path="url(#clip-47)"><image xlink:href="../../1FCF4BF4-7FF7-4DDD-9C00-0AFE2C6035E8/assets/0917A2A2C14B0EF1392EC830DA876933.png" width="99.00" height="70.00" transform="matrix(0.78, -0.61, 0.62, 0.79, 221.6, 344.5)" opacity="0.35"></image></g></g><g><clipPath id="clip-48"><path d="M 291.7 346.8 L 297.8 354.7 L 307.6 324.0 L 275.4 326.0 L 281.6 334.0 L 251.7 357.3 L 261.7 370.2 Z M 291.7 346.8 "></path></clipPath><g clip-path="url(#clip-48)"><g><clipPath id="clip-49"><path d="M 227.0 289.0 L 337.0 289.0 L 337.0 399.0 L 227.0 399.0 Z M 227.0 289.0 "></path></clipPath><g clip-path="url(#clip-49)"><image xlink:href="../../0F274F3A-AE78-4F9E-A533-79FC40367925/assets/D5BAA0E7A80E113D25EB92D00157B4C8.jpeg" width="300.00" height="300.00" transform="matrix(0.79, -0.62, 0.62, 0.79, 245.5, 349.4)"></image><path d="M 245.5 349.4 L 296.4 309.6 L 318.8 338.4 L 267.9 378.1 Z M 245.5 349.4 " fill="#009BFC" fill-opacity="0.50"></path></g></g></g></g></g><g opacity="0.32"><g><clipPath id="clip-50"><path d="M 544.0 256.0 L 651.0 256.0 L 651.0 369.0 L 544.0 369.0 Z M 544.0 256.0 "></path></clipPath><g clip-path="url(#clip-50)"><image xlink:href="../../1FCF4BF4-7FF7-4DDD-9C00-0AFE2C6035E8/assets/0917A2A2C14B0EF1392EC830DA876933.png" width="99.00" height="70.00" transform="matrix(0.67, 0.74, -0.75, 0.67, 591.0, 250.5)" opacity="0.35"></image></g></g><g><clipPath id="clip-51"><path d="M 595.5 322.4 L 588.0 329.1 L 619.4 336.7 L 615.1 304.7 L 607.7 311.4 L 582.3 283.2 L 570.1 294.2 Z M 595.5 322.4 "></path></clipPath><g clip-path="url(#clip-51)"><g><clipPath id="clip-52"><path d="M 544.0 256.0 L 651.0 256.0 L 651.0 369.0 L 544.0 369.0 Z M 544.0 256.0 "></path></clipPath><g clip-path="url(#clip-52)"><image xlink:href="../../0F274F3A-AE78-4F9E-A533-79FC40367925/assets/D5BAA0E7A80E113D25EB92D00157B4C8.jpeg" width="300.00" height="300.00" transform="matrix(0.67, 0.74, -0.74, 0.67, 589.7, 276.5)"></image><path d="M 589.7 276.5 L 632.9 324.5 L 605.9 348.9 L 562.6 300.9 Z M 589.7 276.5 " fill="#009BFC" fill-opacity="0.50"></path></g></g></g></g></g><g opacity="0.32"><g><clipPath id="clip-53"><path d="M 718.0 420.0 L 829.0 420.0 L 829.0 528.0 L 718.0 528.0 Z M 718.0 420.0 "></path></clipPath><g clip-path="url(#clip-53)"><image xlink:href="../../1FCF4BF4-7FF7-4DDD-9C00-0AFE2C6035E8/assets/0917A2A2C14B0EF1392EC830DA876933.png" width="99.00" height="70.00" transform="matrix(0.82, 0.57, -0.58, 0.82, 753.6, 414.6)" opacity="0.35"></image></g></g><g><clipPath id="clip-54"><path d="M 773.7 483.6 L 768.0 491.9 L 800.2 492.2 L 788.9 462.0 L 783.1 470.2 L 752.0 448.5 L 742.7 461.9 Z M 773.7 483.6 "></path></clipPath><g clip-path="url(#clip-54)"><g><clipPath id="clip-55"><path d="M 718.0 420.0 L 829.0 420.0 L 829.0 528.0 L 718.0 528.0 Z M 718.0 420.0 "></path></clipPath><g clip-path="url(#clip-55)"><image xlink:href="../../0F274F3A-AE78-4F9E-A533-79FC40367925/assets/D5BAA0E7A80E113D25EB92D00157B4C8.jpeg" width="300.00" height="300.00" transform="matrix(0.82, 0.57, -0.57, 0.82, 757.8, 440.2)"></image><path d="M 757.8 440.2 L 810.7 477.3 L 789.8 507.1 L 736.9 470.1 Z M 757.8 440.2 " fill="#009BFC" fill-opacity="0.50"></path></g></g></g></g></g><image xlink:href="../../1FCF4BF4-7FF7-4DDD-9C00-0AFE2C6035E8/assets/95A044F6AFF0DD6D0C2CD7030F52A73E.png" width="215.00" height="31.00" transform="matrix(1.00, 0.00, -0.00, -1.00, 517.0, 580.0)"></image><g><clipPath id="clip-56"><path d="M 583.0 636.0 L 666.0 636.0 L 666.0 575.0 L 583.0 575.0 Z M 582.7 635.6 "></path></clipPath><g clip-path="url(#clip-56)"><image xlink:href="../../615F7CD4-E262-41F7-8138-806EC6AB1FAB/assets/A9BFEE28444AE3CE1C3AF4671649C348.png" width="174.00" height="178.00" transform="matrix(0.48, 0.00, -0.00, -0.48, 583.0, 636.0)"></image></g></g><g opacity="0.32"><g><clipPath id="clip-57"><path d="M 715.0 536.0 L 823.0 536.0 L 823.0 628.0 L 715.0 628.0 Z M 715.0 536.0 "></path></clipPath><g clip-path="url(#clip-57)"><image xlink:href="../../1FCF4BF4-7FF7-4DDD-9C00-0AFE2C6035E8/assets/0917A2A2C14B0EF1392EC830DA876933.png" width="99.00" height="70.00" transform="matrix(0.97, -0.22, 0.23, 0.98, 712.8, 557.5)" opacity="0.35"></image></g></g><g><clipPath id="clip-58"><path d="M 776.2 589.4 L 778.4 599.2 L 800.3 575.4 L 770.2 563.7 L 772.5 573.4 L 735.5 582.0 L 739.2 597.9 Z M 776.2 589.4 "></path></clipPath><g clip-path="url(#clip-58)"><g><clipPath id="clip-59"><path d="M 715.0 536.0 L 823.0 536.0 L 823.0 628.0 L 715.0 628.0 Z M 715.0 536.0 "></path></clipPath><g clip-path="url(#clip-59)"><image xlink:href="../../0F274F3A-AE78-4F9E-A533-79FC40367925/assets/D5BAA0E7A80E113D25EB92D00157B4C8.jpeg" width="300.00" height="300.00" transform="matrix(0.97, -0.22, 0.22, 0.97, 733.2, 572.2)"></image><path d="M 733.2 572.2 L 796.2 557.7 L 804.3 593.2 L 741.4 607.7 Z M 733.2 572.2 " fill="#009BFC" fill-opacity="0.50"></path></g></g></g></g></g><text xml:space="preserve" font-family="Helvetica-Light" font-size="36.0" fill="#000000" transform="matrix(1.00, 0.00, -0.00, -1.00, 774.0, 519.0)">+</text><image xlink:href="../../1FCF4BF4-7FF7-4DDD-9C00-0AFE2C6035E8/assets/167B2954EB1629972107CF6604093C54.png" width="171.00" height="137.00" transform="matrix(0.99, 0.00, -0.00, -1.00, 825.0, 593.0)"></image></g></svg>