<?xml version="1.0" encoding="UTF-8" standalone="no"?><svg xmlns="http://www.w3.org/2000/svg" xmlns:xlink="http://www.w3.org/1999/xlink" clip-rule="evenodd" stroke-miterlimit="4.00" viewBox="0 0 1920 1080"><desc>SVG generated by Keynote</desc><defs><pattern id="1E0A7648-DCAE-4E15-B533-17FDB84887E2" patternUnits="userSpaceOnUse" width="1152" height="767" viewBox="0 0 1152 767" patternTransform="matrix(1.557292, 0.000000, 0.000000, -1.559322, 0.000000, 1080.000000)"><image xlink:href="../../1962E3A8-81BE-4551-8E24-988FE8CFDEBE/assets/C23029E7B93E8F3F6E796D5111149713.jpeg" width="1152.00" height="767.00"></image></pattern></defs><g transform="matrix(1.00, 0.00, -0.00, -1.00, 0.0, 1080.0)"><g><clipPath id="clip-206"><path d="M 0.0 1080.0 L 1920.0 1080.0 L 1920.0 0.0 L 0.0 0.0 Z M 0.0 1080.0 "></path></clipPath><g clip-path="url(#clip-206)"><path d="M 0.0 0.0 L 1920.0 0.0 L 1920.0 1080.0 L 0.0 1080.0 Z M 0.0 0.0 " fill="url(#1E0A7648-DCAE-4E15-B533-17FDB84887E2)"></path></g></g><text xml:space="preserve" font-family="Helvetica" font-size="65.0" fill="#DCDDE0" transform="matrix(1.00, 0.00, -0.00, -1.00, 931.0, 266.0)">W</text><text xml:space="preserve" font-family="Helvetica" font-size="65.0" fill="#DCDDE0" transform="matrix(1.00, 0.00, -0.00, -1.00, 992.3, 266.0)">h</text><text xml:space="preserve" font-family="Helvetica" font-size="65.0" fill="#DCDDE0" transform="matrix(1.00, 0.00, -0.00, -1.00, 1028.5, 266.0)">e</text><text xml:space="preserve" font-family="Helvetica" font-size="65.0" fill="#DCDDE0" transform="matrix(1.00, 0.00, -0.00, -1.00, 1064.7, 266.0)">r</text><text xml:space="preserve" font-family="Helvetica" font-size="65.0" fill="#DCDDE0" transform="matrix(1.00, 0.00, -0.00, -1.00, 1086.3, 266.0)">e</text><text xml:space="preserve" font-family="Helvetica" font-size="65.0" fill="#DCDDE0" transform="matrix(1.00, 0.00, -0.00, -1.00, 1122.5, 266.0)"> </text><text xml:space="preserve" font-family="Helvetica" font-size="65.0" fill="#DCDDE0" transform="matrix(1.00, 0.00, -0.00, -1.00, 1140.5, 266.0)">d</text><text xml:space="preserve" font-family="Helvetica" font-size="65.0" fill="#DCDDE0" transform="matrix(1.00, 0.00, -0.00, -1.00, 1176.7, 266.0)">o</text><text xml:space="preserve" font-family="Helvetica" font-size="65.0" fill="#DCDDE0" transform="matrix(1.00, 0.00, -0.00, -1.00, 1212.8, 266.0)"> </text><text xml:space="preserve" font-family="Helvetica" font-size="65.0" fill="#DCDDE0" transform="matrix(1.00, 0.00, -0.00, -1.00, 1230.9, 266.0)">ï¬</text><text xml:space="preserve" font-family="Helvetica" font-size="65.0" fill="#DCDDE0" transform="matrix(1.00, 0.00, -0.00, -1.00, 1263.4, 266.0)">r</text><text xml:space="preserve" font-family="Helvetica" font-size="65.0" fill="#DCDDE0" transform="matrix(1.00, 0.00, -0.00, -1.00, 1285.0, 266.0)">s</text><text xml:space="preserve" font-family="Helvetica" font-size="65.0" fill="#DCDDE0" transform="matrix(1.00, 0.00, -0.00, -1.00, 1317.5, 266.0)">t</text><text xml:space="preserve" font-family="Helvetica" font-size="65.0" fill="#DCDDE0" transform="matrix(1.00, 0.00, -0.00, -1.00, 1335.6, 266.0)"> </text><text xml:space="preserve" font-family="Helvetica" font-size="65.0" fill="#DCDDE0" transform="matrix(1.00, 0.00, -0.00, -1.00, 1353.6, 266.0)">l</text><text xml:space="preserve" font-family="Helvetica" font-size="65.0" fill="#DCDDE0" transform="matrix(1.00, 0.00, -0.00, -1.00, 1368.1, 266.0)">i</text><text xml:space="preserve" font-family="Helvetica" font-size="65.0" fill="#DCDDE0" transform="matrix(1.00, 0.00, -0.00, -1.00, 1382.5, 266.0)">n</text><text xml:space="preserve" font-family="Helvetica" font-size="65.0" fill="#DCDDE0" transform="matrix(1.00, 0.00, -0.00, -1.00, 1418.7, 266.0)">k</text><text xml:space="preserve" font-family="Helvetica" font-size="65.0" fill="#DCDDE0" transform="matrix(1.00, 0.00, -0.00, -1.00, 1451.2, 266.0)">s</text><text xml:space="preserve" font-family="Helvetica" font-size="65.0" fill="#DCDDE0" transform="matrix(1.00, 0.00, -0.00, -1.00, 1483.7, 266.0)"> </text><text xml:space="preserve" font-family="Helvetica" font-size="65.0" fill="#DCDDE0" transform="matrix(1.00, 0.00, -0.00, -1.00, 1501.7, 266.0)">a</text><text xml:space="preserve" font-family="Helvetica" font-size="65.0" fill="#DCDDE0" transform="matrix(1.00, 0.00, -0.00, -1.00, 1537.9, 266.0)">c</text><text xml:space="preserve" font-family="Helvetica" font-size="65.0" fill="#DCDDE0" transform="matrix(1.00, 0.00, -0.00, -1.00, 1570.4, 266.0)">c</text><text xml:space="preserve" font-family="Helvetica" font-size="65.0" fill="#DCDDE0" transform="matrix(1.00, 0.00, -0.00, -1.00, 1602.9, 266.0)">u</text><text xml:space="preserve" font-family="Helvetica" font-size="65.0" fill="#DCDDE0" transform="matrix(1.00, 0.00, -0.00, -1.00, 1639.1, 266.0)">m</text><text xml:space="preserve" font-family="Helvetica" font-size="65.0" fill="#DCDDE0" transform="matrix(1.00, 0.00, -0.00, -1.00, 1693.2, 266.0)">u</text><text xml:space="preserve" font-family="Helvetica" font-size="65.0" fill="#DCDDE0" transform="matrix(1.00, 0.00, -0.00, -1.00, 1729.4, 266.0)">l</text><text xml:space="preserve" font-family="Helvetica" font-size="65.0" fill="#DCDDE0" transform="matrix(1.00, 0.00, -0.00, -1.00, 1743.8, 266.0)">a</text><text xml:space="preserve" font-family="Helvetica" font-size="65.0" fill="#DCDDE0" transform="matrix(1.00, 0.00, -0.00, -1.00, 1780.0, 266.0)">t</text><text xml:space="preserve" font-family="Helvetica" font-size="65.0" fill="#DCDDE0" transform="matrix(1.00, 0.00, -0.00, -1.00, 1798.0, 266.0)">e</text><text xml:space="preserve" font-family="Helvetica" font-size="65.0" fill="#DCDDE0" transform="matrix(1.00, 0.00, -0.00, -1.00, 1834.2, 266.0)">?</text></g></svg>