<?xml version="1.0" encoding="UTF-8" standalone="no"?><svg xmlns="http://www.w3.org/2000/svg" xmlns:xlink="http://www.w3.org/1999/xlink" clip-rule="evenodd" stroke-miterlimit="4.00" viewBox="0 0 1920 1080"><desc>SVG generated by Keynote</desc><defs></defs><g transform="matrix(1.00, 0.00, -0.00, -1.00, 0.0, 1080.0)"><path d="M 0.0 1080.0 L 1920.0 1080.0 L 1920.0 0.0 L 0.0 0.0 Z M 0.0 1080.0 " fill="#FEFFFF"></path><image xlink:href="B5352B833DC383B919FAD39296881714.png" width="528.00" height="540.00" transform="matrix(1.74, 0.00, -0.00, -1.73, 86.0, 1051.0)"></image><image xlink:href="59097EE39275BC0DD11911A72DC6C799.png" width="3819.00" height="505.00" transform="matrix(0.24, 0.00, -0.00, -0.24, 86.3, 115.3)"></image><g><clipPath id="clip-198"><path d="M 785.7 211.6 L 1577.4 211.6 L 1577.4 805.3 L 785.7 805.3 Z M 785.7 211.6 "></path></clipPath><g clip-path="url(#clip-198)"><image xlink:href="52322E6275A3FD4A1E87226582B115A5.png" width="721.00" height="541.00" transform="matrix(1.10, 0.00, -0.00, -1.10, 786.0, 805.0)"></image></g></g><g><clipPath id="clip-199"><path d="M 1133.5 275.3 L 1525.3 275.3 L 1525.3 479.0 L 1133.5 479.0 Z M 1133.5 275.3 "></path></clipPath><g clip-path="url(#clip-199)"><image xlink:href="98ED1BA8877FE49D75284ED91CA9AE7B.png" width="392.00" height="203.00" transform="matrix(1.00, 0.00, -0.00, -1.00, 1134.0, 479.0)"></image></g></g></g></svg>