<?xml version="1.0" encoding="UTF-8" standalone="no"?><svg xmlns="http://www.w3.org/2000/svg" xmlns:xlink="http://www.w3.org/1999/xlink" clip-rule="evenodd" stroke-miterlimit="4.00" viewBox="0 0 1920 1080"><desc>SVG generated by Keynote</desc><defs></defs><g transform="matrix(1.00, 0.00, -0.00, -1.00, 0.0, 1080.0)"><path d="M 0.0 1080.0 L 1920.0 1080.0 L 1920.0 0.0 L 0.0 0.0 Z M 0.0 1080.0 " fill="#FEFFFF"></path><image xlink:href="B5352B833DC383B919FAD39296881714.png" width="528.00" height="540.00" transform="matrix(1.73, 0.00, -0.00, -1.73, 293.0, 1068.0)"></image><image xlink:href="DE8F7C3796BBC03396A655642F97A9FF.png" width="3819.00" height="505.00" transform="matrix(0.24, 0.00, -0.00, -0.24, 292.8, 132.2)"></image><g><clipPath id="clip-198"><path d="M 1012.8 228.5 L 1804.5 228.5 L 1804.5 822.1 L 1012.8 822.1 Z M 1012.8 228.5 "></path></clipPath><g clip-path="url(#clip-198)"><image xlink:href="52322E6275A3FD4A1E87226582B115A5.png" width="721.00" height="541.00" transform="matrix(1.10, 0.00, -0.00, -1.10, 1013.0, 822.0)"></image></g></g><g><clipPath id="clip-199"><path d="M 1360.6 292.2 L 1752.4 292.2 L 1752.4 495.9 L 1360.6 495.9 Z M 1360.6 292.2 "></path></clipPath><g clip-path="url(#clip-199)"><image xlink:href="98ED1BA8877FE49D75284ED91CA9AE7B.png" width="392.00" height="203.00" transform="matrix(1.00, 0.00, -0.00, -1.00, 1361.0, 496.0)"></image></g></g></g></svg>