<?xml version="1.0" encoding="UTF-8" standalone="no"?><svg xmlns="http://www.w3.org/2000/svg" xmlns:xlink="http://www.w3.org/1999/xlink" clip-rule="evenodd" stroke-miterlimit="4.00" viewBox="0 0 1920 1080"><desc>SVG generated by Keynote</desc><defs><pattern id="CE673D8A-AAA1-40DB-8550-124DB7366687" patternUnits="userSpaceOnUse" width="540" height="540" viewBox="0 0 540 540" patternTransform="matrix(0.555556, 0.000000, 0.000000, -0.555556, 1102.192000, 320.363200)"><image xlink:href="../../1B9D9AC0-0BF2-4EF5-9788-FAB09C8E13AF/assets/BF3B3AD179BCF3F9DC8641406A1304C5.jpeg" width="540.00" height="540.00"></image></pattern></defs><g transform="matrix(1.00, 0.00, -0.00, -1.00, 0.0, 1080.0)"><path d="M 0.0 1080.0 L 1920.0 1080.0 L 1920.0 0.0 L 0.0 0.0 Z M 0.0 1080.0 " fill="#FEFFFF"></path><image xlink:href="../../D28839AE-AF74-42FE-9175-3690820A477D/assets/995E3908DCE47C67D2B743DB57FC0FD0.png" width="225.00" height="100.00" transform="matrix(1.41, 0.00, -0.00, -1.40, 329.0, 994.0)"></image><image xlink:href="849992000FD2C41B913AEDB837BCFDA1.png" width="752.00" height="70.00" transform="matrix(1.00, 0.00, -0.00, -1.01, 242.0, 311.0)"></image><image xlink:href="71FE6797FCDFF56B04781D598D6F50BE.png" width="105.00" height="62.00" transform="matrix(0.99, 0.00, -0.00, -0.98, 324.0, 223.0)"></image><image xlink:href="7468CB4739307F5F2C33F2679A2EF1EE.png" width="435.00" height="107.00" transform="matrix(0.24, 0.00, -0.00, -0.24, 324.1, 161.7)"></image><image xlink:href="9205B8C52D3F0C25DB54876B881757F2.png" width="727.00" height="61.00" transform="matrix(1.01, 0.00, -0.00, -1.02, 242.0, 742.0)"></image><image xlink:href="../../1B9D9AC0-0BF2-4EF5-9788-FAB09C8E13AF/assets/71FE6797FCDFF56B04781D598D6F50BE.png" width="105.00" height="62.00" transform="matrix(0.99, 0.00, -0.00, -1.00, 324.0, 674.0)"></image><image xlink:href="1EE562DB2B26DDC946A4532F04E27FE4.png" width="435.00" height="107.00" transform="matrix(0.24, 0.00, -0.00, -0.24, 324.1, 612.3)"></image><image xlink:href="280B8F0B02DA4386BC1D9E8664F24797.png" width="450.00" height="97.00" transform="matrix(1.00, 0.00, -0.00, -1.00, 1106.8, 757.4)" opacity="0.50"></image><g><clipPath id="clip-356"><path d="M 1110.8 755.4 L 1553.0 755.4 L 1553.0 666.1 L 1110.8 666.1 Z M 1110.8 755.4 "></path></clipPath><g clip-path="url(#clip-356)"><image xlink:href="BF3B3AD179BCF3F9DC8641406A1304C5.jpeg" width="540.00" height="540.00" transform="matrix(1.00, 0.00, -0.00, -1.00, 1110.8, 755.4)"></image><path d="M 1110.8 755.4 L 1553.0 755.4 L 1553.0 666.1 L 1110.8 666.1 Z M 1110.8 755.4 " fill="#FF2A05" fill-opacity="0.50"></path></g></g><g><clipPath id="clip-357"><path d="M 1100.2 655.5 L 1564.6 655.5 L 1564.6 766.0 L 1100.2 766.0 Z M 1100.2 655.5 "></path></clipPath><g clip-path="url(#clip-357)"><text xml:space="preserve" font-family="Helvetica-Light" font-size="65.0" fill="#FEFFFE" transform="matrix(1.00, 0.00, -0.00, -1.00, 1117.0, 687.0)">1</text><text xml:space="preserve" font-family="Helvetica-Light" font-size="65.0" fill="#FEFFFE" transform="matrix(1.00, 0.00, -0.00, -1.00, 1153.1, 687.0)">1</text><text xml:space="preserve" font-family="Helvetica-Light" font-size="65.0" fill="#FEFFFE" transform="matrix(1.00, 0.00, -0.00, -1.00, 1189.3, 687.0)">.</text><text xml:space="preserve" font-family="Helvetica-Light" font-size="65.0" fill="#FEFFFE" transform="matrix(1.00, 0.00, -0.00, -1.00, 1207.3, 687.0)">5</text><text xml:space="preserve" font-family="Helvetica-Light" font-size="65.0" fill="#FEFFFE" transform="matrix(1.00, 0.00, -0.00, -1.00, 1243.5, 687.0)">9</text><text xml:space="preserve" font-family="Helvetica-Light" font-size="65.0" fill="#FEFFFE" transform="matrix(1.00, 0.00, -0.00, -1.00, 1279.6, 687.0)"> </text><text xml:space="preserve" font-family="Helvetica-Light" font-size="65.0" fill="#FEFFFE" transform="matrix(1.00, 0.00, -0.00, -1.00, 1297.7, 687.0)">s</text><text xml:space="preserve" font-family="Helvetica-Light" font-size="65.0" fill="#FEFFFE" transform="matrix(1.00, 0.00, -0.00, -1.00, 1330.2, 687.0)">e</text><text xml:space="preserve" font-family="Helvetica-Light" font-size="65.0" fill="#FEFFFE" transform="matrix(1.00, 0.00, -0.00, -1.00, 1366.3, 687.0)">c</text><text xml:space="preserve" font-family="Helvetica-Light" font-size="65.0" fill="#FEFFFE" transform="matrix(1.00, 0.00, -0.00, -1.00, 1402.5, 687.0)">o</text><text xml:space="preserve" font-family="Helvetica-Light" font-size="65.0" fill="#FEFFFE" transform="matrix(1.00, 0.00, -0.00, -1.00, 1438.6, 687.0)">n</text><text xml:space="preserve" font-family="Helvetica-Light" font-size="65.0" fill="#FEFFFE" transform="matrix(1.00, 0.00, -0.00, -1.00, 1474.8, 687.0)">d</text><text xml:space="preserve" font-family="Helvetica-Light" font-size="65.0" fill="#FEFFFE" transform="matrix(1.00, 0.00, -0.00, -1.00, 1514.5, 687.0)">s</text></g></g><image xlink:href="0688E19F162C6DDDBC32E10B64D2C7AE.png" width="474.00" height="99.00" transform="matrix(1.00, 0.00, -0.00, -1.00, 1098.2, 325.4)" opacity="0.50"></image><g><clipPath id="clip-358"><path d="M 1102.2 320.4 L 1565.9 320.4 L 1565.9 231.1 L 1102.2 231.1 Z M 1102.2 320.4 "></path></clipPath><g clip-path="url(#clip-358)"><path d="M 1102.2 231.1 L 1565.9 231.1 L 1565.9 320.4 L 1102.2 320.4 Z M 1102.2 231.1 " fill="url(#CE673D8A-AAA1-40DB-8550-124DB7366687)"></path><path d="M 1102.2 320.4 L 1565.9 320.4 L 1565.9 231.1 L 1102.2 231.1 Z M 1102.2 320.4 " fill="#00D026" fill-opacity="0.50"></path></g></g><g><clipPath id="clip-359"><path d="M 1091.6 220.5 L 1577.6 220.5 L 1577.6 331.0 L 1091.6 331.0 Z M 1091.6 220.5 "></path></clipPath><g clip-path="url(#clip-359)"><text xml:space="preserve" font-family="Helvetica-Light" font-size="65.0" fill="#FEFFFE" transform="matrix(1.00, 0.00, -0.00, -1.00, 1108.0, 252.0)">3</text><text xml:space="preserve" font-family="Helvetica-Light" font-size="65.0" fill="#FEFFFE" transform="matrix(1.00, 0.00, -0.00, -1.00, 1144.1, 252.0)">0</text><text xml:space="preserve" font-family="Helvetica-Light" font-size="65.0" fill="#FEFFFE" transform="matrix(1.00, 0.00, -0.00, -1.00, 1180.3, 252.0)"> </text><text xml:space="preserve" font-family="Helvetica-Light" font-size="65.0" fill="#FEFFFE" transform="matrix(1.00, 0.00, -0.00, -1.00, 1198.3, 252.0)">m</text><text xml:space="preserve" font-family="Helvetica-Light" font-size="65.0" fill="#FEFFFE" transform="matrix(1.00, 0.00, -0.00, -1.00, 1252.5, 252.0)">i</text><text xml:space="preserve" font-family="Helvetica-Light" font-size="65.0" fill="#FEFFFE" transform="matrix(1.00, 0.00, -0.00, -1.00, 1266.9, 252.0)">l</text><text xml:space="preserve" font-family="Helvetica-Light" font-size="65.0" fill="#FEFFFE" transform="matrix(1.00, 0.00, -0.00, -1.00, 1281.4, 252.0)">l</text><text xml:space="preserve" font-family="Helvetica-Light" font-size="65.0" fill="#FEFFFE" transform="matrix(1.00, 0.00, -0.00, -1.00, 1295.8, 252.0)">i</text><text xml:space="preserve" font-family="Helvetica-Light" font-size="65.0" fill="#FEFFFE" transform="matrix(1.00, 0.00, -0.00, -1.00, 1310.2, 252.0)">s</text><text xml:space="preserve" font-family="Helvetica-Light" font-size="65.0" fill="#FEFFFE" transform="matrix(1.00, 0.00, -0.00, -1.00, 1342.7, 252.0)">e</text><text xml:space="preserve" font-family="Helvetica-Light" font-size="65.0" fill="#FEFFFE" transform="matrix(1.00, 0.00, -0.00, -1.00, 1378.9, 252.0)">c</text><text xml:space="preserve" font-family="Helvetica-Light" font-size="65.0" fill="#FEFFFE" transform="matrix(1.00, 0.00, -0.00, -1.00, 1415.0, 252.0)">o</text><text xml:space="preserve" font-family="Helvetica-Light" font-size="65.0" fill="#FEFFFE" transform="matrix(1.00, 0.00, -0.00, -1.00, 1451.1, 252.0)">n</text><text xml:space="preserve" font-family="Helvetica-Light" font-size="65.0" fill="#FEFFFE" transform="matrix(1.00, 0.00, -0.00, -1.00, 1487.3, 252.0)">d</text><text xml:space="preserve" font-family="Helvetica-Light" font-size="65.0" fill="#FEFFFE" transform="matrix(1.00, 0.00, -0.00, -1.00, 1527.0, 252.0)">s</text></g></g></g></svg>