<?xml version="1.0" encoding="UTF-8" standalone="no"?><svg xmlns="http://www.w3.org/2000/svg" xmlns:xlink="http://www.w3.org/1999/xlink" clip-rule="evenodd" stroke-miterlimit="4.00" viewBox="0 0 1920 1080"><desc>SVG generated by Keynote</desc><defs></defs><g transform="matrix(1.00, 0.00, -0.00, -1.00, 0.0, 1080.0)"><path d="M 0.0 1080.0 L 1920.0 1080.0 L 1920.0 0.0 L 0.0 0.0 Z M 0.0 1080.0 " fill="#FEFFFF"></path><image xlink:href="4B06223B9816DB8719504E6E3A9A149C.png" width="1080.00" height="676.00" transform="matrix(1.00, 0.00, -0.00, -1.00, 420.0, 878.0)"></image><g><clipPath id="clip-10"><path d="M -1.0 255.0 L 1921.0 255.0 L 1921.0 -5.0 L -1.0 -5.0 Z M -1.1 255.2 "></path></clipPath><g clip-path="url(#clip-10)"><image xlink:href="../../49B0041F-D2B6-45AE-B257-4A439451C92F/assets/9D7CDED7013EAA26559882C68F420EF2.png" width="960.00" height="163.00" transform="matrix(2.00, 0.00, -0.00, -2.01, -1.0, 255.0)"></image></g></g><image xlink:href="../../49B0041F-D2B6-45AE-B257-4A439451C92F/assets/FB4E928EC3F56815E2924D7A5BBAC481.png" width="272.00" height="540.00" transform="matrix(1.68, 0.00, -0.00, -1.67, -1.0, 1079.0)"></image><g><clipPath id="clip-11"><path d="M -2.0 1085.0 L 1922.0 1085.0 L 1922.0 719.0 L -2.0 719.0 Z M -1.6 1084.8 "></path></clipPath><g clip-path="url(#clip-11)"><image xlink:href="../../49B0041F-D2B6-45AE-B257-4A439451C92F/assets/9D7CDED7013EAA26559882C68F420EF2.png" width="960.00" height="163.00" transform="matrix(2.76, 0.00, -0.00, -2.77, -731.0, 1085.0)"></image></g></g><image xlink:href="../../49B0041F-D2B6-45AE-B257-4A439451C92F/assets/FB4E928EC3F56815E2924D7A5BBAC481.png" width="272.00" height="540.00" transform="matrix(1.68, 0.00, -0.00, -1.67, 1465.0, 1043.0)"></image></g></svg>