<?xml version="1.0" encoding="UTF-8" standalone="no"?><svg xmlns="http://www.w3.org/2000/svg" xmlns:xlink="http://www.w3.org/1999/xlink" clip-rule="evenodd" stroke-miterlimit="4.00" viewBox="0 0 1920 1080"><desc>SVG generated by Keynote</desc><defs></defs><g transform="matrix(1.00, 0.00, -0.00, -1.00, 0.0, 1080.0)"><path d="M 0.0 1080.0 L 1920.0 1080.0 L 1920.0 0.0 L 0.0 0.0 Z M 0.0 1080.0 " fill="#FEFFFF"></path><image xlink:href="../../D99FD912-0A90-4C35-B8AE-42005B1CDF7E/assets/45B9F0235775ED1F7E98B7DD449E92AA.png" width="557.00" height="150.00" transform="matrix(1.00, 0.00, -0.00, -1.00, 25.2, 595.1)" opacity="0.75"></image><image xlink:href="../../FF504BC0-BF27-4D31-B50D-488800008DD3/assets/995E3908DCE47C67D2B743DB57FC0FD0.png" width="225.00" height="100.00" transform="matrix(1.41, 0.00, -0.00, -1.41, 145.0, 661.0)"></image><image xlink:href="../../D99FD912-0A90-4C35-B8AE-42005B1CDF7E/assets/AA221FDD04EE284809ECFEFA798498D3.png" width="133.00" height="130.00" transform="matrix(0.99, 0.00, -0.00, -1.01, 1641.0, 656.0)"></image><image xlink:href="../../51E28557-A19C-4695-804D-F4BEF26E23DB/assets/C4DDA9A1426EDCE6550DFCAA930F7C0C.png" width="172.00" height="171.00" transform="matrix(1.00, 0.00, -0.00, -1.00, 699.5, 965.8)" opacity="0.50"></image><path d="M 844.0 940.7 C 876.4 908.5 876.4 856.3 844.0 824.1 C 811.7 791.9 759.2 791.9 726.8 824.1 C 694.4 856.3 694.4 908.5 726.8 940.7 C 759.2 972.9 811.7 972.9 844.0 940.7 Z M 844.0 940.7 " fill="#51A7F9"></path><g><clipPath id="clip-128"><path d="M 702.5 799.9 L 868.3 799.9 L 868.3 964.8 L 702.5 964.8 Z M 702.5 799.9 "></path></clipPath><g clip-path="url(#clip-128)"><text xml:space="preserve" font-family="Helvetica" font-size="27.0" fill="#FEFFFE" transform="matrix(1.00, 0.00, -0.00, -1.00, 740.0, 889.0)">p</text><text xml:space="preserve" font-family="Helvetica" font-size="27.0" fill="#FEFFFE" transform="matrix(1.00, 0.00, -0.00, -1.00, 755.0, 889.0)">a</text><text xml:space="preserve" font-family="Helvetica" font-size="27.0" fill="#FEFFFE" transform="matrix(1.00, 0.00, -0.00, -1.00, 770.0, 889.0)">r</text><text xml:space="preserve" font-family="Helvetica" font-size="27.0" fill="#FEFFFE" transform="matrix(1.00, 0.00, -0.00, -1.00, 779.0, 889.0)">e</text><text xml:space="preserve" font-family="Helvetica" font-size="27.0" fill="#FEFFFE" transform="matrix(1.00, 0.00, -0.00, -1.00, 794.1, 889.0)">n</text><text xml:space="preserve" font-family="Helvetica" font-size="27.0" fill="#FEFFFE" transform="matrix(1.00, 0.00, -0.00, -1.00, 809.1, 889.0)">t</text><text xml:space="preserve" font-family="Helvetica" font-size="27.0" fill="#FEFFFE" transform="matrix(1.00, 0.00, -0.00, -1.00, 816.6, 889.0)">?</text></g></g><path d="M 0.0 0.0 L 52.7 0.0 L 54.2 0.0 " fill="none" stroke="#A9A9A9" stroke-width="3.00" stroke-linecap="round" stroke-dasharray="0.0, 9.0" transform="matrix(0.00, 1.00, 1.00, 0.00, 781.3, 710.5)"></path><path d="M 787.9 763.2 L 781.3 776.4 L 774.7 763.2 Z M 787.9 763.2 " fill="#A9A9A9"></path><image xlink:href="../../51E28557-A19C-4695-804D-F4BEF26E23DB/assets/4D0D08BEAFDF5A7F0809F8384C87EF85.png" width="174.00" height="173.00" transform="matrix(1.00, 0.00, -0.00, -1.00, 695.4, 688.8)" opacity="0.50"></image><path d="M 839.9 660.7 C 872.3 628.5 872.3 576.3 839.9 544.1 C 807.5 511.9 755.0 511.9 722.7 544.1 C 690.3 576.3 690.3 628.5 722.7 660.7 C 755.0 692.9 807.5 692.9 839.9 660.7 Z M 839.9 660.7 " fill="#C39719"></path><g><clipPath id="clip-129"><path d="M 696.8 519.9 L 865.8 519.9 L 865.8 684.8 L 696.8 684.8 Z M 696.8 519.9 "></path></clipPath><g clip-path="url(#clip-129)"><text xml:space="preserve" font-family="Helvetica" font-size="36.0" fill="#FEFFFE" transform="matrix(1.00, 0.00, -0.00, -1.00, 734.0, 589.0)">p</text><text xml:space="preserve" font-family="Helvetica" font-size="36.0" fill="#FEFFFE" transform="matrix(1.00, 0.00, -0.00, -1.00, 754.0, 589.0)">e</text><text xml:space="preserve" font-family="Helvetica" font-size="36.0" fill="#FEFFFE" transform="matrix(1.00, 0.00, -0.00, -1.00, 774.1, 589.0)">n</text><text xml:space="preserve" font-family="Helvetica" font-size="36.0" fill="#FEFFFE" transform="matrix(1.00, 0.00, -0.00, -1.00, 794.1, 589.0)">c</text><text xml:space="preserve" font-family="Helvetica" font-size="36.0" fill="#FEFFFE" transform="matrix(1.00, 0.00, -0.00, -1.00, 812.1, 589.0)">i</text><text xml:space="preserve" font-family="Helvetica" font-size="36.0" fill="#FEFFFE" transform="matrix(1.00, 0.00, -0.00, -1.00, 820.1, 589.0)">l</text></g></g><path d="M 0.0 0.0 L 43.2 0.0 L 44.7 0.0 " fill="none" stroke="#A9A9A9" stroke-width="3.00" stroke-linecap="round" stroke-dasharray="0.0, 9.0" transform="matrix(0.71, -0.71, -0.71, -0.71, 861.3, 514.5)"></path><path d="M 887.2 479.3 L 901.2 474.6 L 896.5 488.6 Z M 887.2 479.3 " fill="#A9A9A9"></path><image xlink:href="../../51E28557-A19C-4695-804D-F4BEF26E23DB/assets/C4DDA9A1426EDCE6550DFCAA930F7C0C.png" width="172.00" height="171.00" transform="matrix(1.00, 0.00, -0.00, -1.00, 899.5, 489.8)" opacity="0.50"></image><path d="M 1044.0 464.7 C 1076.4 432.5 1076.4 380.3 1044.0 348.1 C 1011.7 315.9 959.2 315.9 926.8 348.1 C 894.4 380.3 894.4 432.5 926.8 464.7 C 959.2 496.9 1011.7 496.9 1044.0 464.7 Z M 1044.0 464.7 " fill="#51A7F9"></path><g><clipPath id="clip-130"><path d="M 902.5 323.9 L 1068.3 323.9 L 1068.3 488.8 L 902.5 488.8 Z M 902.5 323.9 "></path></clipPath><g clip-path="url(#clip-130)"><text xml:space="preserve" font-family="Helvetica" font-size="27.0" fill="#FEFFFE" transform="matrix(1.00, 0.00, -0.00, -1.00, 933.0, 413.0)">s</text><text xml:space="preserve" font-family="Helvetica" font-size="27.0" fill="#FEFFFE" transform="matrix(1.00, 0.00, -0.00, -1.00, 946.5, 413.0)">p</text><text xml:space="preserve" font-family="Helvetica" font-size="27.0" fill="#FEFFFE" transform="matrix(1.00, 0.00, -0.00, -1.00, 961.5, 413.0)">e</text><text xml:space="preserve" font-family="Helvetica" font-size="27.0" fill="#FEFFFE" transform="matrix(1.00, 0.00, -0.00, -1.00, 976.5, 413.0)">c</text><text xml:space="preserve" font-family="Helvetica" font-size="27.0" fill="#FEFFFE" transform="matrix(1.00, 0.00, -0.00, -1.00, 990.0, 413.0)">i</text><text xml:space="preserve" font-family="Helvetica" font-size="27.0" fill="#FEFFFE" transform="matrix(1.00, 0.00, -0.00, -1.00, 996.0, 413.0)">ï¬</text><text xml:space="preserve" font-family="Helvetica" font-size="27.0" fill="#FEFFFE" transform="matrix(1.00, 0.00, -0.00, -1.00, 1009.5, 413.0)">c</text><text xml:space="preserve" font-family="Helvetica" font-size="27.0" fill="#FEFFFE" transform="matrix(1.00, 0.00, -0.00, -1.00, 1023.0, 413.0)">?</text></g></g><image xlink:href="../../51E28557-A19C-4695-804D-F4BEF26E23DB/assets/C4DDA9A1426EDCE6550DFCAA930F7C0C.png" width="172.00" height="171.00" transform="matrix(1.00, 0.00, -0.00, -1.00, 923.5, 825.8)" opacity="0.50"></image><path d="M 1068.0 800.7 C 1100.4 768.5 1100.4 716.3 1068.0 684.1 C 1035.7 651.9 983.2 651.9 950.8 684.1 C 918.4 716.3 918.4 768.5 950.8 800.7 C 983.2 832.9 1035.7 832.9 1068.0 800.7 Z M 1068.0 800.7 " fill="#51A7F9"></path><g><clipPath id="clip-131"><path d="M 926.5 659.9 L 1095.1 659.9 L 1095.1 824.8 L 926.5 824.8 Z M 926.5 659.9 "></path></clipPath><g clip-path="url(#clip-131)"><text xml:space="preserve" font-family="Helvetica" font-size="25.0" fill="#FEFFFE" transform="matrix(1.00, 0.00, -0.00, -1.00, 937.0, 748.0)">c</text><text xml:space="preserve" font-family="Helvetica" font-size="25.0" fill="#FEFFFE" transform="matrix(1.00, 0.00, -0.00, -1.00, 949.5, 748.0)">o</text><text xml:space="preserve" font-family="Helvetica" font-size="25.0" fill="#FEFFFE" transform="matrix(1.00, 0.00, -0.00, -1.00, 963.4, 748.0)">m</text><text xml:space="preserve" font-family="Helvetica" font-size="25.0" fill="#FEFFFE" transform="matrix(1.00, 0.00, -0.00, -1.00, 984.2, 748.0)">p</text><text xml:space="preserve" font-family="Helvetica" font-size="25.0" fill="#FEFFFE" transform="matrix(1.00, 0.00, -0.00, -1.00, 998.1, 748.0)">a</text><text xml:space="preserve" font-family="Helvetica" font-size="25.0" fill="#FEFFFE" transform="matrix(1.00, 0.00, -0.00, -1.00, 1012.1, 748.0)">r</text><text xml:space="preserve" font-family="Helvetica" font-size="25.0" fill="#FEFFFE" transform="matrix(1.00, 0.00, -0.00, -1.00, 1020.4, 748.0)">a</text><text xml:space="preserve" font-family="Helvetica" font-size="25.0" fill="#FEFFFE" transform="matrix(1.00, 0.00, -0.00, -1.00, 1034.3, 748.0)">b</text><text xml:space="preserve" font-family="Helvetica" font-size="25.0" fill="#FEFFFE" transform="matrix(1.00, 0.00, -0.00, -1.00, 1048.2, 748.0)">l</text><text xml:space="preserve" font-family="Helvetica" font-size="25.0" fill="#FEFFFE" transform="matrix(1.00, 0.00, -0.00, -1.00, 1053.8, 748.0)">e</text><text xml:space="preserve" font-family="Helvetica" font-size="25.0" fill="#FEFFFE" transform="matrix(1.00, 0.00, -0.00, -1.00, 1067.7, 748.0)">?</text></g></g><path d="M 0.0 0.0 L 48.8 0.0 L 50.3 0.0 " fill="none" stroke="#A9A9A9" stroke-width="3.00" stroke-linecap="round" stroke-dasharray="0.0, 9.0" transform="matrix(-0.71, 0.71, 0.71, 0.71, 918.3, 780.6)"></path><path d="M 888.4 819.7 L 874.4 824.4 L 879.1 810.4 Z M 888.4 819.7 " fill="#A9A9A9"></path><path d="M 0.0 0.0 L 72.6 0.0 L 74.1 0.0 " fill="none" stroke="#A9A9A9" stroke-width="3.00" stroke-linecap="round" stroke-dasharray="0.0, 9.0" transform="matrix(1.00, 0.00, 0.00, -1.00, 1513.1, 590.4)"></path><path d="M 1585.6 583.8 L 1598.8 590.4 L 1585.6 597.0 Z M 1585.6 583.8 " fill="#A9A9A9"></path><g><clipPath id="clip-132"><path d="M 74.0 416.0 L 482.4 416.0 L 482.4 184.9 L 74.0 184.9 Z M 74.0 416.0 "></path></clipPath><g clip-path="url(#clip-132)"><g><clipPath id="clip-133"><path d="M 74.0 300.9 L 262.3 300.9 L 262.3 416.0 L 74.0 416.0 Z M 74.0 300.9 "></path></clipPath><g clip-path="url(#clip-133)"><text xml:space="preserve" font-family="Helvetica-Light" font-size="41.0" fill="#52575F" transform="matrix(1.00, 0.00, -0.00, -1.00, 78.0, 343.0)">d</text><text xml:space="preserve" font-family="Helvetica-Light" font-size="41.0" fill="#52575F" transform="matrix(1.00, 0.00, -0.00, -1.00, 103.1, 343.0)">e</text><text xml:space="preserve" font-family="Helvetica-Light" font-size="41.0" fill="#52575F" transform="matrix(1.00, 0.00, -0.00, -1.00, 125.8, 343.0)">f</text><text xml:space="preserve" font-family="Helvetica-Light" font-size="41.0" fill="#52575F" transform="matrix(1.00, 0.00, -0.00, -1.00, 137.2, 343.0)">a</text><text xml:space="preserve" font-family="Helvetica-Light" font-size="41.0" fill="#52575F" transform="matrix(1.00, 0.00, -0.00, -1.00, 160.0, 343.0)">u</text><text xml:space="preserve" font-family="Helvetica-Light" font-size="41.0" fill="#52575F" transform="matrix(1.00, 0.00, -0.00, -1.00, 182.8, 343.0)">l</text><text xml:space="preserve" font-family="Helvetica-Light" font-size="41.0" fill="#52575F" transform="matrix(1.00, 0.00, -0.00, -1.00, 191.9, 343.0)">t</text></g></g></g></g><g><clipPath id="clip-134"><path d="M 74.0 416.0 L 482.4 416.0 L 482.4 184.9 L 74.0 184.9 Z M 74.0 416.0 "></path></clipPath><g clip-path="url(#clip-134)"><g><clipPath id="clip-135"><path d="M 263.3 300.9 L 482.4 300.9 L 482.4 416.0 L 263.3 416.0 Z M 263.3 300.9 "></path></clipPath><g clip-path="url(#clip-135)"><text xml:space="preserve" font-family="Helvetica-Light" font-size="41.0" fill="#C82505" transform="matrix(1.00, 0.00, -0.00, -1.00, 322.0, 367.0)">1</text><text xml:space="preserve" font-family="Helvetica-Light" font-size="41.0" fill="#C82505" transform="matrix(1.00, 0.00, -0.00, -1.00, 344.8, 367.0)">1</text><text xml:space="preserve" font-family="Helvetica-Light" font-size="41.0" fill="#C82505" transform="matrix(1.00, 0.00, -0.00, -1.00, 367.6, 367.0)">.</text><text xml:space="preserve" font-family="Helvetica-Light" font-size="41.0" fill="#C82505" transform="matrix(1.00, 0.00, -0.00, -1.00, 379.0, 367.0)">5</text><text xml:space="preserve" font-family="Helvetica-Light" font-size="41.0" fill="#C82505" transform="matrix(1.00, 0.00, -0.00, -1.00, 401.8, 367.0)">9</text><text xml:space="preserve" font-family="Helvetica-Light" font-size="41.0" fill="#C82505" transform="matrix(1.00, 0.00, -0.00, -1.00, 424.6, 367.0)"> </text><text xml:space="preserve" font-family="Helvetica-Light" font-size="41.0" fill="#C82505" transform="matrix(1.00, 0.00, -0.00, -1.00, 294.0, 318.0)">s</text><text xml:space="preserve" font-family="Helvetica-Light" font-size="41.0" fill="#C82505" transform="matrix(1.00, 0.00, -0.00, -1.00, 314.5, 318.0)">e</text><text xml:space="preserve" font-family="Helvetica-Light" font-size="41.0" fill="#C82505" transform="matrix(1.00, 0.00, -0.00, -1.00, 337.3, 318.0)">c</text><text xml:space="preserve" font-family="Helvetica-Light" font-size="41.0" fill="#C82505" transform="matrix(1.00, 0.00, -0.00, -1.00, 360.1, 318.0)">o</text><text xml:space="preserve" font-family="Helvetica-Light" font-size="41.0" fill="#C82505" transform="matrix(1.00, 0.00, -0.00, -1.00, 382.9, 318.0)">n</text><text xml:space="preserve" font-family="Helvetica-Light" font-size="41.0" fill="#C82505" transform="matrix(1.00, 0.00, -0.00, -1.00, 405.7, 318.0)">d</text><text xml:space="preserve" font-family="Helvetica-Light" font-size="41.0" fill="#C82505" transform="matrix(1.00, 0.00, -0.00, -1.00, 430.7, 318.0)">s</text></g></g></g></g><g><clipPath id="clip-136"><path d="M 74.0 416.0 L 482.4 416.0 L 482.4 184.9 L 74.0 184.9 Z M 74.0 416.0 "></path></clipPath><g clip-path="url(#clip-136)"><g><clipPath id="clip-137"><path d="M 74.0 184.9 L 262.3 184.9 L 262.3 299.9 L 74.0 299.9 Z M 74.0 184.9 "></path></clipPath><g clip-path="url(#clip-137)"><text xml:space="preserve" font-family="Helvetica-Light" font-size="41.0" fill="#52575F" transform="matrix(1.00, 0.00, -0.00, -1.00, 78.0, 227.0)">i</text><text xml:space="preserve" font-family="Helvetica-Light" font-size="41.0" fill="#52575F" transform="matrix(1.00, 0.00, -0.00, -1.00, 87.1, 227.0)">n</text><text xml:space="preserve" font-family="Helvetica-Light" font-size="41.0" fill="#52575F" transform="matrix(1.00, 0.00, -0.00, -1.00, 109.9, 227.0)">d</text><text xml:space="preserve" font-family="Helvetica-Light" font-size="41.0" fill="#52575F" transform="matrix(1.00, 0.00, -0.00, -1.00, 134.9, 227.0)">e</text><text xml:space="preserve" font-family="Helvetica-Light" font-size="41.0" fill="#52575F" transform="matrix(1.00, 0.00, -0.00, -1.00, 157.7, 227.0)">x</text><text xml:space="preserve" font-family="Helvetica-Light" font-size="41.0" fill="#52575F" transform="matrix(1.00, 0.00, -0.00, -1.00, 178.2, 227.0)"> </text><text xml:space="preserve" font-family="Helvetica-Light" font-size="41.0" fill="#52575F" transform="matrix(1.00, 0.00, -0.00, -1.00, 189.6, 227.0)">t</text><text xml:space="preserve" font-family="Helvetica-Light" font-size="41.0" fill="#52575F" transform="matrix(1.00, 0.00, -0.00, -1.00, 201.0, 227.0)">i</text><text xml:space="preserve" font-family="Helvetica-Light" font-size="41.0" fill="#52575F" transform="matrix(1.00, 0.00, -0.00, -1.00, 210.1, 227.0)">t</text><text xml:space="preserve" font-family="Helvetica-Light" font-size="41.0" fill="#52575F" transform="matrix(1.00, 0.00, -0.00, -1.00, 221.5, 227.0)">l</text><text xml:space="preserve" font-family="Helvetica-Light" font-size="41.0" fill="#52575F" transform="matrix(1.00, 0.00, -0.00, -1.00, 230.6, 227.0)">e</text></g></g></g></g><g><clipPath id="clip-138"><path d="M 74.0 416.0 L 482.4 416.0 L 482.4 184.9 L 74.0 184.9 Z M 74.0 416.0 "></path></clipPath><g clip-path="url(#clip-138)"><g><clipPath id="clip-139"><path d="M 263.3 184.9 L 482.4 184.9 L 482.4 299.9 L 263.3 299.9 Z M 263.3 184.9 "></path></clipPath><g clip-path="url(#clip-139)"><text xml:space="preserve" font-family="Helvetica-Light" font-size="41.0" fill="#008E00" transform="matrix(1.00, 0.00, -0.00, -1.00, 350.0, 256.0)">3</text><text xml:space="preserve" font-family="Helvetica-Light" font-size="41.0" fill="#008E00" transform="matrix(1.00, 0.00, -0.00, -1.00, 372.8, 256.0)">0</text><text xml:space="preserve" font-family="Helvetica-Light" font-size="41.0" fill="#008E00" transform="matrix(1.00, 0.00, -0.00, -1.00, 395.6, 256.0)"> </text><text xml:space="preserve" font-family="Helvetica-Light" font-size="41.0" fill="#008E00" transform="matrix(1.00, 0.00, -0.00, -1.00, 269.0, 207.0)">m</text><text xml:space="preserve" font-family="Helvetica-Light" font-size="41.0" fill="#008E00" transform="matrix(1.00, 0.00, -0.00, -1.00, 303.2, 207.0)">i</text><text xml:space="preserve" font-family="Helvetica-Light" font-size="41.0" fill="#008E00" transform="matrix(1.00, 0.00, -0.00, -1.00, 312.3, 207.0)">l</text><text xml:space="preserve" font-family="Helvetica-Light" font-size="41.0" fill="#008E00" transform="matrix(1.00, 0.00, -0.00, -1.00, 321.4, 207.0)">l</text><text xml:space="preserve" font-family="Helvetica-Light" font-size="41.0" fill="#008E00" transform="matrix(1.00, 0.00, -0.00, -1.00, 330.5, 207.0)">i</text><text xml:space="preserve" font-family="Helvetica-Light" font-size="41.0" fill="#008E00" transform="matrix(1.00, 0.00, -0.00, -1.00, 339.6, 207.0)">s</text><text xml:space="preserve" font-family="Helvetica-Light" font-size="41.0" fill="#008E00" transform="matrix(1.00, 0.00, -0.00, -1.00, 360.1, 207.0)">e</text><text xml:space="preserve" font-family="Helvetica-Light" font-size="41.0" fill="#008E00" transform="matrix(1.00, 0.00, -0.00, -1.00, 382.9, 207.0)">c</text><text xml:space="preserve" font-family="Helvetica-Light" font-size="41.0" fill="#008E00" transform="matrix(1.00, 0.00, -0.00, -1.00, 405.7, 207.0)">o</text><text xml:space="preserve" font-family="Helvetica-Light" font-size="41.0" fill="#008E00" transform="matrix(1.00, 0.00, -0.00, -1.00, 428.4, 207.0)">n</text><text xml:space="preserve" font-family="Helvetica-Light" font-size="41.0" fill="#008E00" transform="matrix(1.00, 0.00, -0.00, -1.00, 451.2, 207.0)">d</text><text xml:space="preserve" font-family="Helvetica-Light" font-size="41.0" fill="#008E00" transform="matrix(1.00, 0.00, -0.00, -1.00, 363.0, 158.0)">s</text></g></g></g></g><g><clipPath id="clip-140"><path d="M 74.0 416.0 L 482.4 416.0 L 482.4 184.9 L 74.0 184.9 Z M 74.0 416.0 "></path></clipPath><g clip-path="url(#clip-140)"><g><clipPath id="clip-141"><path d="M 262.3 184.9 L 263.3 184.9 L 263.3 416.0 L 262.3 416.0 Z M 262.3 184.9 "></path></clipPath><g clip-path="url(#clip-141)"><path d="M 189.8 1.0 L 189.8 232.1 " fill="none" stroke="#000000" stroke-width="1.00" stroke-dasharray="2.0, 2.0" transform="matrix(1.00, 0.00, 0.00, -1.00, 73.0, 417.0)"></path></g></g></g></g><g><clipPath id="clip-142"><path d="M 74.0 416.0 L 482.4 416.0 L 482.4 184.9 L 74.0 184.9 Z M 74.0 416.0 "></path></clipPath><g clip-path="url(#clip-142)"><g><clipPath id="clip-143"><path d="M 74.0 299.9 L 482.4 299.9 L 482.4 300.9 L 74.0 300.9 Z M 74.0 299.9 "></path></clipPath><g clip-path="url(#clip-143)"><path d="M 1.0 116.6 L 409.4 116.6 " fill="none" stroke="#000000" stroke-width="1.00" stroke-dasharray="2.0, 2.0" transform="matrix(1.00, 0.00, 0.00, -1.00, 73.0, 417.0)"></path></g></g></g></g><image xlink:href="../../D99FD912-0A90-4C35-B8AE-42005B1CDF7E/assets/19949814251D0D9B216187C4DD4A6890.png" width="155.00" height="155.00" transform="matrix(0.00, 1.00, 0.99, -0.00, 1132.0, 512.0)"></image><g><clipPath id="clip-144"><path d="M 1266.0 635.0 L 1394.0 635.0 L 1394.0 545.0 L 1266.0 545.0 Z M 1265.7 635.3 "></path></clipPath><g clip-path="url(#clip-144)"><image xlink:href="../../FF504BC0-BF27-4D31-B50D-488800008DD3/assets/E87589F767B205C5B2D8869B1FFB9FBB.png" width="304.00" height="90.00" transform="matrix(1.00, 0.00, -0.00, -1.00, 1266.0, 635.0)"></image></g></g><g><clipPath id="clip-145"><path d="M 1372.0 636.0 L 1500.0 636.0 L 1500.0 546.0 L 1372.0 546.0 Z M 1371.5 636.3 "></path></clipPath><g clip-path="url(#clip-145)"><image xlink:href="../../FF504BC0-BF27-4D31-B50D-488800008DD3/assets/E87589F767B205C5B2D8869B1FFB9FBB.png" width="304.00" height="90.00" transform="matrix(1.00, 0.00, -0.00, -1.00, 1227.0, 636.0)"></image></g></g><path d="M 0.0 0.0 L 72.6 0.0 L 74.1 0.0 " fill="none" stroke="#A9A9A9" stroke-width="3.00" stroke-linecap="round" stroke-dasharray="0.0, 9.0" transform="matrix(1.00, 0.00, 0.00, -1.00, 485.1, 591.4)"></path><path d="M 557.6 584.8 L 570.8 591.4 L 557.6 598.0 Z M 557.6 584.8 " fill="#A9A9A9"></path></g></svg>