<?xml version="1.0" encoding="UTF-8" standalone="no"?><svg xmlns="http://www.w3.org/2000/svg" xmlns:xlink="http://www.w3.org/1999/xlink" clip-rule="evenodd" stroke-miterlimit="4.00" viewBox="0 0 1024 768"><desc>SVG generated by Keynote</desc><defs></defs><g transform="matrix(1.00, 0.00, -0.00, -1.00, 0.0, 768.0)"><path d="M 0.0 768.0 L 1024.0 768.0 L 1024.0 0.0 L 0.0 0.0 Z M 0.0 768.0 " fill="#DCDDE0"></path><image xlink:href="../../0F274F3A-AE78-4F9E-A533-79FC40367925/assets/41C7E11A15B874473DFBC5B635673EF9.png" width="680.00" height="115.00" transform="matrix(1.00, 0.00, -0.00, -1.00, 151.0, 695.5)" opacity="0.70"></image><image xlink:href="../../0F274F3A-AE78-4F9E-A533-79FC40367925/assets/F436709B1C5DBBBD67A0D9864B87D889.png" width="640.00" height="75.00" transform="matrix(1.00, 0.00, -0.00, -1.00, 171.0, 685.0)"></image><text xml:space="preserve" font-family="Helvetica-Light" font-size="36.0" fill="#000000" transform="matrix(1.00, 0.00, -0.00, -1.00, 440.0, 635.0)">b</text><text xml:space="preserve" font-family="Helvetica-Light" font-size="36.0" fill="#000000" transform="matrix(1.00, 0.00, -0.00, -1.00, 462.0, 635.0)">a</text><text xml:space="preserve" font-family="Helvetica-Light" font-size="36.0" fill="#000000" transform="matrix(1.00, 0.00, -0.00, -1.00, 482.0, 635.0)">n</text><text xml:space="preserve" font-family="Helvetica-Light" font-size="36.0" fill="#000000" transform="matrix(1.00, 0.00, -0.00, -1.00, 502.0, 635.0)">a</text><text xml:space="preserve" font-family="Helvetica-Light" font-size="36.0" fill="#000000" transform="matrix(1.00, 0.00, -0.00, -1.00, 522.0, 635.0)">n</text><text xml:space="preserve" font-family="Helvetica-Light" font-size="36.0" fill="#000000" transform="matrix(1.00, 0.00, -0.00, -1.00, 542.1, 635.0)">a</text><image xlink:href="../../0F274F3A-AE78-4F9E-A533-79FC40367925/assets/77372D2D627FD4B5689ED89E68C3F737.png" width="96.00" height="43.00" transform="matrix(1.00, 0.00, -0.00, -1.00, 463.8, 342.5)" opacity="0.50"></image><g><clipPath id="clip-14"><path d="M 466.8 341.5 L 557.2 341.5 L 557.2 304.5 L 466.8 304.5 Z M 466.8 341.5 "></path></clipPath><g clip-path="url(#clip-14)"><image xlink:href="../../0F274F3A-AE78-4F9E-A533-79FC40367925/assets/D5BAA0E7A80E113D25EB92D00157B4C8.jpeg" width="300.00" height="300.00" transform="matrix(1.00, 0.00, -0.00, -1.00, 466.8, 341.5)"></image><path d="M 466.8 341.5 L 557.2 341.5 L 557.2 304.5 L 466.8 304.5 Z M 466.8 341.5 " fill="#FF2A05" fill-opacity="0.50"></path></g></g><g><clipPath id="clip-15"><path d="M 464.8 302.5 L 559.2 302.5 L 559.2 343.5 L 464.8 343.5 Z M 464.8 302.5 "></path></clipPath><g clip-path="url(#clip-15)"><text xml:space="preserve" font-family="Helvetica-Light" font-size="24.0" fill="#FEFFFE" transform="matrix(1.00, 0.00, -0.00, -1.00, 471.0, 314.0)">b</text><text xml:space="preserve" font-family="Helvetica-Light" font-size="24.0" fill="#FEFFFE" transform="matrix(1.00, 0.00, -0.00, -1.00, 485.7, 314.0)">a</text><text xml:space="preserve" font-family="Helvetica-Light" font-size="24.0" fill="#FEFFFE" transform="matrix(1.00, 0.00, -0.00, -1.00, 499.0, 314.0)">n</text><text xml:space="preserve" font-family="Helvetica-Light" font-size="24.0" fill="#FEFFFE" transform="matrix(1.00, 0.00, -0.00, -1.00, 512.4, 314.0)">a</text><text xml:space="preserve" font-family="Helvetica-Light" font-size="24.0" fill="#FEFFFE" transform="matrix(1.00, 0.00, -0.00, -1.00, 525.7, 314.0)">n</text><text xml:space="preserve" font-family="Helvetica-Light" font-size="24.0" fill="#FEFFFE" transform="matrix(1.00, 0.00, -0.00, -1.00, 539.0, 314.0)">a</text></g></g><path d="M 0.0 0.0 L 95.0 0.0 " fill="none" stroke="#000000" stroke-width="1.00" stroke-dasharray="2.0, 2.0" transform="matrix(0.00, 1.00, 1.00, 0.00, 514.7, 340.0)"></path><path d="M 0.0 0.0 L 210.8 0.0 " fill="none" stroke="#000000" stroke-width="1.00" stroke-dasharray="2.0, 2.0" transform="matrix(0.88, 0.48, 0.48, -0.88, 329.3, 203.8)"></path><path d="M 0.0 0.0 L 193.8 0.0 " fill="none" stroke="#000000" stroke-width="1.00" stroke-dasharray="2.0, 2.0" transform="matrix(-0.88, 0.48, 0.48, 0.88, 690.2, 210.8)"></path><path d="M 0.0 0.0 L 78.3 0.0 " fill="none" stroke="#000000" stroke-width="1.00" stroke-dasharray="2.0, 2.0" transform="matrix(1.00, 0.00, 0.00, -1.00, 389.0, 320.4)"></path><path d="M 0.0 0.0 L 57.9 0.0 " fill="none" stroke="#000000" stroke-width="1.00" stroke-dasharray="2.0, 2.0" transform="matrix(1.00, 0.00, 0.00, -1.00, 558.0, 320.4)"></path><path d="M 0.0 0.0 L 195.1 0.0 " fill="none" stroke="#000000" stroke-width="1.00" stroke-dasharray="2.0, 2.0" transform="matrix(-0.55, 0.84, 0.84, 0.55, 622.8, 139.4)"></path><image xlink:href="../../0F274F3A-AE78-4F9E-A533-79FC40367925/assets/63D909037D99680B90327E9F99B899B1.png" width="76.00" height="75.00" transform="matrix(1.00, 0.00, -0.00, -1.00, 476.5, 511.5)" opacity="0.50"></image><g><clipPath id="clip-16"><path d="M 539.6 500.4 C 553.3 486.9 553.3 465.1 539.6 451.6 C 525.9 438.2 503.6 438.2 489.8 451.6 C 476.1 465.1 476.1 486.9 489.8 500.4 C 503.6 513.8 525.9 513.8 539.6 500.4 Z M 539.6 500.4 "></path></clipPath><g clip-path="url(#clip-16)"><image xlink:href="../../0F274F3A-AE78-4F9E-A533-79FC40367925/assets/D5BAA0E7A80E113D25EB92D00157B4C8.jpeg" width="300.00" height="300.00" transform="matrix(1.00, 0.00, -0.00, -1.00, 479.5, 510.5)"></image><path d="M 479.5 510.5 L 549.9 510.5 L 549.9 441.5 L 479.5 441.5 Z M 479.5 510.5 " fill="#009BFC" fill-opacity="0.50"></path></g></g><g><clipPath id="clip-17"><path d="M 479.5 441.5 L 549.9 441.5 L 549.9 510.5 L 479.5 510.5 Z M 479.5 441.5 "></path></clipPath><g clip-path="url(#clip-17)"><text xml:space="preserve" font-family="Helvetica-Light" font-size="24.0" fill="#FEFFFE" transform="matrix(1.00, 0.00, -0.00, -1.00, 495.0, 467.0)">f</text><text xml:space="preserve" font-family="Helvetica-Light" font-size="24.0" fill="#FEFFFE" transform="matrix(1.00, 0.00, -0.00, -1.00, 501.7, 467.0)">r</text><text xml:space="preserve" font-family="Helvetica-Light" font-size="24.0" fill="#FEFFFE" transform="matrix(1.00, 0.00, -0.00, -1.00, 509.7, 467.0)">u</text><text xml:space="preserve" font-family="Helvetica-Light" font-size="24.0" fill="#FEFFFE" transform="matrix(1.00, 0.00, -0.00, -1.00, 523.0, 467.0)">i</text><text xml:space="preserve" font-family="Helvetica-Light" font-size="24.0" fill="#FEFFFE" transform="matrix(1.00, 0.00, -0.00, -1.00, 528.3, 467.0)">t</text></g></g><image xlink:href="../../0F274F3A-AE78-4F9E-A533-79FC40367925/assets/87CB621BD58CB7BC100A9F90DA23AB88.png" width="96.00" height="96.00" transform="matrix(1.00, 0.00, -0.00, -1.00, 615.6, 369.2)" opacity="0.50"></image><g><clipPath id="clip-18"><path d="M 695.8 355.0 C 713.4 337.3 713.4 308.7 695.8 291.0 C 678.1 273.4 649.5 273.4 631.9 291.0 C 614.2 308.7 614.2 337.3 631.9 355.0 C 649.5 372.6 678.1 372.6 695.8 355.0 Z M 695.8 355.0 "></path></clipPath><g clip-path="url(#clip-18)"><image xlink:href="../../0F274F3A-AE78-4F9E-A533-79FC40367925/assets/D5BAA0E7A80E113D25EB92D00157B4C8.jpeg" width="300.00" height="300.00" transform="matrix(1.00, 0.00, -0.00, -1.00, 618.6, 368.2)"></image><path d="M 618.6 368.2 L 709.0 368.2 L 709.0 277.8 L 618.6 277.8 Z M 618.6 368.2 " fill="#009BFC" fill-opacity="0.50"></path></g></g><g><clipPath id="clip-19"><path d="M 618.6 277.8 L 709.0 277.8 L 709.0 368.2 L 618.6 368.2 Z M 618.6 277.8 "></path></clipPath><g clip-path="url(#clip-19)"><text xml:space="preserve" font-family="Helvetica-Light" font-size="24.0" fill="#FEFFFE" transform="matrix(1.00, 0.00, -0.00, -1.00, 633.0, 314.0)">a</text><text xml:space="preserve" font-family="Helvetica-Light" font-size="24.0" fill="#FEFFFE" transform="matrix(1.00, 0.00, -0.00, -1.00, 646.3, 314.0)">p</text><text xml:space="preserve" font-family="Helvetica-Light" font-size="24.0" fill="#FEFFFE" transform="matrix(1.00, 0.00, -0.00, -1.00, 661.0, 314.0)">p</text><text xml:space="preserve" font-family="Helvetica-Light" font-size="24.0" fill="#FEFFFE" transform="matrix(1.00, 0.00, -0.00, -1.00, 675.7, 314.0)">l</text><text xml:space="preserve" font-family="Helvetica-Light" font-size="24.0" fill="#FEFFFE" transform="matrix(1.00, 0.00, -0.00, -1.00, 681.0, 314.0)">e</text></g></g><image xlink:href="../../0F274F3A-AE78-4F9E-A533-79FC40367925/assets/87CB621BD58CB7BC100A9F90DA23AB88.png" width="96.00" height="96.00" transform="matrix(1.00, 0.00, -0.00, -1.00, 290.6, 369.2)" opacity="0.50"></image><g><clipPath id="clip-20"><path d="M 370.8 355.0 C 388.4 337.3 388.4 308.7 370.8 291.0 C 353.1 273.4 324.5 273.4 306.9 291.0 C 289.2 308.7 289.2 337.3 306.9 355.0 C 324.5 372.6 353.1 372.6 370.8 355.0 Z M 370.8 355.0 "></path></clipPath><g clip-path="url(#clip-20)"><image xlink:href="../../0F274F3A-AE78-4F9E-A533-79FC40367925/assets/D5BAA0E7A80E113D25EB92D00157B4C8.jpeg" width="300.00" height="300.00" transform="matrix(1.00, 0.00, -0.00, -1.00, 293.6, 368.2)"></image><path d="M 293.6 368.2 L 384.0 368.2 L 384.0 277.8 L 293.6 277.8 Z M 293.6 368.2 " fill="#009BFC" fill-opacity="0.50"></path></g></g><g><clipPath id="clip-21"><path d="M 293.6 277.8 L 384.0 277.8 L 384.0 368.2 L 293.6 368.2 Z M 293.6 277.8 "></path></clipPath><g clip-path="url(#clip-21)"><text xml:space="preserve" font-family="Helvetica-Light" font-size="20.0" fill="#FEFFFE" transform="matrix(1.00, 0.00, -0.00, -1.00, 307.0, 315.0)">o</text><text xml:space="preserve" font-family="Helvetica-Light" font-size="20.0" fill="#FEFFFE" transform="matrix(1.00, 0.00, -0.00, -1.00, 318.1, 315.0)">r</text><text xml:space="preserve" font-family="Helvetica-Light" font-size="20.0" fill="#FEFFFE" transform="matrix(1.00, 0.00, -0.00, -1.00, 324.8, 315.0)">a</text><text xml:space="preserve" font-family="Helvetica-Light" font-size="20.0" fill="#FEFFFE" transform="matrix(1.00, 0.00, -0.00, -1.00, 335.9, 315.0)">n</text><text xml:space="preserve" font-family="Helvetica-Light" font-size="20.0" fill="#FEFFFE" transform="matrix(1.00, 0.00, -0.00, -1.00, 347.0, 315.0)">g</text><text xml:space="preserve" font-family="Helvetica-Light" font-size="20.0" fill="#FEFFFE" transform="matrix(1.00, 0.00, -0.00, -1.00, 359.2, 315.0)">e</text></g></g><image xlink:href="../../0F274F3A-AE78-4F9E-A533-79FC40367925/assets/87CB621BD58CB7BC100A9F90DA23AB88.png" width="96.00" height="96.00" transform="matrix(1.00, 0.00, -0.00, -1.00, 230.3, 238.2)" opacity="0.50"></image><g><clipPath id="clip-22"><path d="M 310.5 224.0 C 328.1 206.3 328.1 177.7 310.5 160.0 C 292.8 142.4 264.2 142.4 246.6 160.0 C 228.9 177.7 228.9 206.3 246.6 224.0 C 264.2 241.6 292.8 241.6 310.5 224.0 Z M 310.5 224.0 "></path></clipPath><g clip-path="url(#clip-22)"><image xlink:href="../../0F274F3A-AE78-4F9E-A533-79FC40367925/assets/D5BAA0E7A80E113D25EB92D00157B4C8.jpeg" width="300.00" height="300.00" transform="matrix(1.00, 0.00, -0.00, -1.00, 233.3, 237.2)"></image><path d="M 233.3 237.2 L 323.7 237.2 L 323.7 146.8 L 233.3 146.8 Z M 233.3 237.2 " fill="#009BFC" fill-opacity="0.50"></path></g></g><g><clipPath id="clip-23"><path d="M 233.3 146.8 L 323.7 146.8 L 323.7 237.2 L 233.3 237.2 Z M 233.3 146.8 "></path></clipPath><g clip-path="url(#clip-23)"><text xml:space="preserve" font-family="Helvetica-Light" font-size="19.0" fill="#FEFFFE" transform="matrix(1.00, 0.00, -0.00, -1.00, 245.0, 185.0)">p</text><text xml:space="preserve" font-family="Helvetica-Light" font-size="19.0" fill="#FEFFFE" transform="matrix(1.00, 0.00, -0.00, -1.00, 256.6, 185.0)">l</text><text xml:space="preserve" font-family="Helvetica-Light" font-size="19.0" fill="#FEFFFE" transform="matrix(1.00, 0.00, -0.00, -1.00, 260.8, 185.0)">a</text><text xml:space="preserve" font-family="Helvetica-Light" font-size="19.0" fill="#FEFFFE" transform="matrix(1.00, 0.00, -0.00, -1.00, 271.4, 185.0)">n</text><text xml:space="preserve" font-family="Helvetica-Light" font-size="19.0" fill="#FEFFFE" transform="matrix(1.00, 0.00, -0.00, -1.00, 282.0, 185.0)">t</text><text xml:space="preserve" font-family="Helvetica-Light" font-size="19.0" fill="#FEFFFE" transform="matrix(1.00, 0.00, -0.00, -1.00, 287.2, 185.0)">a</text><text xml:space="preserve" font-family="Helvetica-Light" font-size="19.0" fill="#FEFFFE" transform="matrix(1.00, 0.00, -0.00, -1.00, 297.8, 185.0)">i</text><text xml:space="preserve" font-family="Helvetica-Light" font-size="19.0" fill="#FEFFFE" transform="matrix(1.00, 0.00, -0.00, -1.00, 302.0, 185.0)">n</text></g></g><image xlink:href="../../0F274F3A-AE78-4F9E-A533-79FC40367925/assets/87CB621BD58CB7BC100A9F90DA23AB88.png" width="96.00" height="96.00" transform="matrix(1.00, 0.00, -0.00, -1.00, 687.4, 238.2)" opacity="0.50"></image><g><clipPath id="clip-24"><path d="M 767.5 224.0 C 785.2 206.3 785.2 177.7 767.5 160.0 C 749.9 142.4 721.3 142.4 703.6 160.0 C 686.0 177.7 686.0 206.3 703.6 224.0 C 721.3 241.6 749.9 241.6 767.5 224.0 Z M 767.5 224.0 "></path></clipPath><g clip-path="url(#clip-24)"><image xlink:href="../../0F274F3A-AE78-4F9E-A533-79FC40367925/assets/D5BAA0E7A80E113D25EB92D00157B4C8.jpeg" width="300.00" height="300.00" transform="matrix(1.00, 0.00, -0.00, -1.00, 690.4, 237.2)"></image><path d="M 690.4 237.2 L 780.8 237.2 L 780.8 146.8 L 690.4 146.8 Z M 690.4 237.2 " fill="#009BFC" fill-opacity="0.50"></path></g></g><g><clipPath id="clip-25"><path d="M 690.4 146.8 L 780.8 146.8 L 780.8 237.2 L 690.4 237.2 Z M 690.4 146.8 "></path></clipPath><g clip-path="url(#clip-25)"><text xml:space="preserve" font-family="Helvetica-Light" font-size="16.0" fill="#FEFFFE" transform="matrix(1.00, 0.00, -0.00, -1.00, 699.0, 187.0)">P</text><text xml:space="preserve" font-family="Helvetica-Light" font-size="16.0" fill="#FEFFFE" transform="matrix(1.00, 0.00, -0.00, -1.00, 708.8, 187.0)">o</text><text xml:space="preserve" font-family="Helvetica-Light" font-size="16.0" fill="#FEFFFE" transform="matrix(1.00, 0.00, -0.00, -1.00, 717.7, 187.0)">t</text><text xml:space="preserve" font-family="Helvetica-Light" font-size="16.0" fill="#FEFFFE" transform="matrix(1.00, 0.00, -0.00, -1.00, 722.1, 187.0)">a</text><text xml:space="preserve" font-family="Helvetica-Light" font-size="16.0" fill="#FEFFFE" transform="matrix(1.00, 0.00, -0.00, -1.00, 731.0, 187.0)">s</text><text xml:space="preserve" font-family="Helvetica-Light" font-size="16.0" fill="#FEFFFE" transform="matrix(1.00, 0.00, -0.00, -1.00, 739.0, 187.0)">s</text><text xml:space="preserve" font-family="Helvetica-Light" font-size="16.0" fill="#FEFFFE" transform="matrix(1.00, 0.00, -0.00, -1.00, 747.0, 187.0)">i</text><text xml:space="preserve" font-family="Helvetica-Light" font-size="16.0" fill="#FEFFFE" transform="matrix(1.00, 0.00, -0.00, -1.00, 750.6, 187.0)">u</text><text xml:space="preserve" font-family="Helvetica-Light" font-size="16.0" fill="#FEFFFE" transform="matrix(1.00, 0.00, -0.00, -1.00, 759.5, 187.0)">m</text></g></g><image xlink:href="../../0F274F3A-AE78-4F9E-A533-79FC40367925/assets/5C244F166111C9F1CC03219F91F57EDE.png" width="102.00" height="101.00" transform="matrix(1.00, 0.00, -0.00, -1.00, 612.7, 148.8)" opacity="0.50"></image><g><clipPath id="clip-26"><path d="M 697.8 133.9 C 716.6 115.4 716.6 85.3 697.8 66.7 C 679.0 48.2 648.6 48.2 629.8 66.7 C 611.0 85.3 611.0 115.4 629.8 133.9 C 648.6 152.5 679.0 152.5 697.8 133.9 Z M 697.8 133.9 "></path></clipPath><g clip-path="url(#clip-26)"><image xlink:href="../../0F274F3A-AE78-4F9E-A533-79FC40367925/assets/D5BAA0E7A80E113D25EB92D00157B4C8.jpeg" width="300.00" height="300.00" transform="matrix(1.00, 0.00, -0.00, -1.00, 615.7, 147.8)"></image><path d="M 615.7 147.8 L 711.9 147.8 L 711.9 52.8 L 615.7 52.8 Z M 615.7 147.8 " fill="#009BFC" fill-opacity="0.50"></path></g></g><g><clipPath id="clip-27"><path d="M 615.7 52.8 L 711.9 52.8 L 711.9 147.8 L 615.7 147.8 Z M 615.7 52.8 "></path></clipPath><g clip-path="url(#clip-27)"><text xml:space="preserve" font-family="Helvetica-Light" font-size="13.0" fill="#FEFFFE" transform="matrix(1.00, 0.00, -0.00, -1.00, 637.0, 120.0)">E</text><text xml:space="preserve" font-family="Helvetica-Light" font-size="13.0" fill="#FEFFFE" transform="matrix(1.00, 0.00, -0.00, -1.00, 644.9, 120.0)">c</text><text xml:space="preserve" font-family="Helvetica-Light" font-size="13.0" fill="#FEFFFE" transform="matrix(1.00, 0.00, -0.00, -1.00, 652.2, 120.0)">o</text><text xml:space="preserve" font-family="Helvetica-Light" font-size="13.0" fill="#FEFFFE" transform="matrix(1.00, 0.00, -0.00, -1.00, 659.4, 120.0)">n</text><text xml:space="preserve" font-family="Helvetica-Light" font-size="13.0" fill="#FEFFFE" transform="matrix(1.00, 0.00, -0.00, -1.00, 666.6, 120.0)">o</text><text xml:space="preserve" font-family="Helvetica-Light" font-size="13.0" fill="#FEFFFE" transform="matrix(1.00, 0.00, -0.00, -1.00, 673.9, 120.0)">m</text><text xml:space="preserve" font-family="Helvetica-Light" font-size="13.0" fill="#FEFFFE" transform="matrix(1.00, 0.00, -0.00, -1.00, 684.7, 120.0)">y</text><text xml:space="preserve" font-family="Helvetica-Light" font-size="13.0" fill="#FEFFFE" transform="matrix(1.00, 0.00, -0.00, -1.00, 691.2, 120.0)"> </text><text xml:space="preserve" font-family="Helvetica-Light" font-size="13.0" fill="#FEFFFE" transform="matrix(1.00, 0.00, -0.00, -1.00, 648.0, 104.0)">o</text><text xml:space="preserve" font-family="Helvetica-Light" font-size="13.0" fill="#FEFFFE" transform="matrix(1.00, 0.00, -0.00, -1.00, 655.2, 104.0)">f</text><text xml:space="preserve" font-family="Helvetica-Light" font-size="13.0" fill="#FEFFFE" transform="matrix(1.00, 0.00, -0.00, -1.00, 658.8, 104.0)"> </text><text xml:space="preserve" font-family="Helvetica-Light" font-size="13.0" fill="#FEFFFE" transform="matrix(1.00, 0.00, -0.00, -1.00, 662.5, 104.0)">t</text><text xml:space="preserve" font-family="Helvetica-Light" font-size="13.0" fill="#FEFFFE" transform="matrix(1.00, 0.00, -0.00, -1.00, 666.1, 104.0)">h</text><text xml:space="preserve" font-family="Helvetica-Light" font-size="13.0" fill="#FEFFFE" transform="matrix(1.00, 0.00, -0.00, -1.00, 673.3, 104.0)">e</text><text xml:space="preserve" font-family="Helvetica-Light" font-size="13.0" fill="#FEFFFE" transform="matrix(1.00, 0.00, -0.00, -1.00, 680.5, 104.0)"> </text><text xml:space="preserve" font-family="Helvetica-Light" font-size="13.0" fill="#FEFFFE" transform="matrix(1.00, 0.00, -0.00, -1.00, 684.1, 104.0)"> </text><text xml:space="preserve" font-family="Helvetica-Light" font-size="13.0" fill="#FEFFFE" transform="matrix(1.00, 0.00, -0.00, -1.00, 633.0, 88.0)">D</text><text xml:space="preserve" font-family="Helvetica-Light" font-size="13.0" fill="#FEFFFE" transform="matrix(1.00, 0.00, -0.00, -1.00, 642.4, 88.0)">o</text><text xml:space="preserve" font-family="Helvetica-Light" font-size="13.0" fill="#FEFFFE" transform="matrix(1.00, 0.00, -0.00, -1.00, 649.6, 88.0)">m</text><text xml:space="preserve" font-family="Helvetica-Light" font-size="13.0" fill="#FEFFFE" transform="matrix(1.00, 0.00, -0.00, -1.00, 660.4, 88.0)">i</text><text xml:space="preserve" font-family="Helvetica-Light" font-size="13.0" fill="#FEFFFE" transform="matrix(1.00, 0.00, -0.00, -1.00, 663.3, 88.0)">n</text><text xml:space="preserve" font-family="Helvetica-Light" font-size="13.0" fill="#FEFFFE" transform="matrix(1.00, 0.00, -0.00, -1.00, 670.6, 88.0)">i</text><text xml:space="preserve" font-family="Helvetica-Light" font-size="13.0" fill="#FEFFFE" transform="matrix(1.00, 0.00, -0.00, -1.00, 673.4, 88.0)">c</text><text xml:space="preserve" font-family="Helvetica-Light" font-size="13.0" fill="#FEFFFE" transform="matrix(1.00, 0.00, -0.00, -1.00, 680.7, 88.0)">a</text><text xml:space="preserve" font-family="Helvetica-Light" font-size="13.0" fill="#FEFFFE" transform="matrix(1.00, 0.00, -0.00, -1.00, 687.9, 88.0)">n</text><text xml:space="preserve" font-family="Helvetica-Light" font-size="13.0" fill="#FEFFFE" transform="matrix(1.00, 0.00, -0.00, -1.00, 695.1, 88.0)"> </text><text xml:space="preserve" font-family="Helvetica-Light" font-size="13.0" fill="#FEFFFE" transform="matrix(1.00, 0.00, -0.00, -1.00, 638.0, 72.0)">R</text><text xml:space="preserve" font-family="Helvetica-Light" font-size="13.0" fill="#FEFFFE" transform="matrix(1.00, 0.00, -0.00, -1.00, 646.7, 72.0)">e</text><text xml:space="preserve" font-family="Helvetica-Light" font-size="13.0" fill="#FEFFFE" transform="matrix(1.00, 0.00, -0.00, -1.00, 653.9, 72.0)">p</text><text xml:space="preserve" font-family="Helvetica-Light" font-size="13.0" fill="#FEFFFE" transform="matrix(1.00, 0.00, -0.00, -1.00, 661.8, 72.0)">u</text><text xml:space="preserve" font-family="Helvetica-Light" font-size="13.0" fill="#FEFFFE" transform="matrix(1.00, 0.00, -0.00, -1.00, 669.1, 72.0)">b</text><text xml:space="preserve" font-family="Helvetica-Light" font-size="13.0" fill="#FEFFFE" transform="matrix(1.00, 0.00, -0.00, -1.00, 677.0, 72.0)">l</text><text xml:space="preserve" font-family="Helvetica-Light" font-size="13.0" fill="#FEFFFE" transform="matrix(1.00, 0.00, -0.00, -1.00, 679.9, 72.0)">i</text><text xml:space="preserve" font-family="Helvetica-Light" font-size="13.0" fill="#FEFFFE" transform="matrix(1.00, 0.00, -0.00, -1.00, 682.8, 72.0)">c</text></g></g></g></svg>