<?xml version="1.0" encoding="UTF-8" standalone="no"?><svg xmlns="http://www.w3.org/2000/svg" xmlns:xlink="http://www.w3.org/1999/xlink" clip-rule="evenodd" stroke-miterlimit="4.00" viewBox="0 0 1024 768"><desc>SVG generated by Keynote</desc><defs></defs><g transform="matrix(1.00, 0.00, -0.00, -1.00, 0.0, 768.0)"><path d="M 0.0 768.0 L 1024.0 768.0 L 1024.0 0.0 L 0.0 0.0 Z M 0.0 768.0 " fill="#FEFFFF"></path><image xlink:href="../../320CEAB1-D37B-418A-AE08-F0D93EEC6B44/assets/093CC89AFD419E6918701B68CA2309CE.png" width="504.00" height="337.00" transform="matrix(1.00, 0.00, -0.00, -1.00, 524.5, 332.8)" opacity="0.70"></image><image xlink:href="../../320CEAB1-D37B-418A-AE08-F0D93EEC6B44/assets/25C9FF6DA7D7DF3CA05BA9371185B1E5.png" width="494.00" height="327.00" transform="matrix(1.00, 0.00, -0.00, -1.00, 528.0, 330.0)"></image><path d="M -0.5 -0.4 L 493.5 -0.4 L 493.5 327.6 L -0.5 327.6 Z M -0.5 -0.4 " fill="none" stroke="#F2F6F5" stroke-width="2.00" transform="matrix(1.00, 0.00, 0.00, -1.00, 528.5, 329.6)"></path><image xlink:href="../../320CEAB1-D37B-418A-AE08-F0D93EEC6B44/assets/0359822AD2A43B1240CEC86F985CBAC6.png" width="386.00" height="289.00" transform="matrix(1.00, 0.00, -0.00, -1.00, 639.0, 617.0)"></image><image xlink:href="../../320CEAB1-D37B-418A-AE08-F0D93EEC6B44/assets/F34287273D44C8C5D5271ECD3B927079.png" width="1608.00" height="487.00" transform="matrix(0.24, 0.00, -0.00, -0.24, 639.2, 327.4)"></image><image xlink:href="../../320CEAB1-D37B-418A-AE08-F0D93EEC6B44/assets/0CB73F73B9551B85EFD16882A2E9942D.png" width="433.00" height="289.00" transform="matrix(1.00, 0.00, -0.00, -1.00, 206.0, 615.0)"></image><image xlink:href="../../320CEAB1-D37B-418A-AE08-F0D93EEC6B44/assets/33909475E35A273D32DFFB4AEDFB8516.png" width="1802.00" height="487.00" transform="matrix(0.24, 0.00, -0.00, -0.24, 206.3, 325.5)"></image><image xlink:href="../../320CEAB1-D37B-418A-AE08-F0D93EEC6B44/assets/F4CE7F83458B104B148962A3422459A9.png" width="320.00" height="316.00" transform="matrix(1.00, 0.00, -0.00, -1.00, 207.0, 322.0)"></image><image xlink:href="../../320CEAB1-D37B-418A-AE08-F0D93EEC6B44/assets/FACA64730805B5FC7E663665A6BF99E9.png" width="104.00" height="104.00" transform="matrix(0.99, 0.00, -0.00, -0.99, 481.0, 324.0)"></image><text xml:space="preserve" font-family="Noteworthy-Light" font-size="34.0" fill="#FEFFFF" transform="matrix(1.00, 0.00, -0.00, -1.00, 844.0, 427.0)">e</text><text xml:space="preserve" font-family="Noteworthy-Light" font-size="22.7" fill="#FEFFFF" transform="matrix(1.00, 0.00, -0.00, -1.00, 858.4, 441.5)">i</text><text xml:space="preserve" font-family="Noteworthy-Light" font-size="22.7" fill="#FEFFFF" transform="matrix(1.00, 0.00, -0.00, -1.00, 862.4, 441.5)">π</text><text xml:space="preserve" font-family="Noteworthy-Light" font-size="34.0" fill="#FEFFFF" transform="matrix(1.00, 0.00, -0.00, -1.00, 875.3, 427.0)"> </text><text xml:space="preserve" font-family="Noteworthy-Light" font-size="34.0" fill="#FEFFFF" transform="matrix(1.00, 0.00, -0.00, -1.00, 884.3, 427.0)">+</text><text xml:space="preserve" font-family="Noteworthy-Light" font-size="34.0" fill="#FEFFFF" transform="matrix(1.00, 0.00, -0.00, -1.00, 906.4, 427.0)"> </text><text xml:space="preserve" font-family="Noteworthy-Light" font-size="34.0" fill="#FEFFFF" transform="matrix(1.00, 0.00, -0.00, -1.00, 915.4, 427.0)">1</text><text xml:space="preserve" font-family="Noteworthy-Light" font-size="34.0" fill="#FEFFFF" transform="matrix(1.00, 0.00, -0.00, -1.00, 922.7, 427.0)"> </text><text xml:space="preserve" font-family="Noteworthy-Light" font-size="34.0" fill="#FEFFFF" transform="matrix(1.00, 0.00, -0.00, -1.00, 931.6, 427.0)">=</text><text xml:space="preserve" font-family="Noteworthy-Light" font-size="34.0" fill="#FEFFFF" transform="matrix(1.00, 0.00, -0.00, -1.00, 948.3, 427.0)"> </text><text xml:space="preserve" font-family="Noteworthy-Light" font-size="34.0" fill="#FEFFFF" transform="matrix(1.00, 0.00, -0.00, -1.00, 957.3, 427.0)">0</text><image xlink:href="../../320CEAB1-D37B-418A-AE08-F0D93EEC6B44/assets/5119061360D86A07CBE08D5AB0DE6222.png" width="102.00" height="107.00" transform="matrix(0.99, 0.00, -0.00, -0.99, 40.0, 525.0)"></image><text xml:space="preserve" font-family="Helvetica-Light" font-size="41.0" fill="#000000" transform="matrix(1.00, 0.00, -0.00, -1.00, 20.0, 688.0)">A</text><text xml:space="preserve" font-family="Helvetica-Light" font-size="41.0" fill="#000000" transform="matrix(1.00, 0.00, -0.00, -1.00, 47.3, 688.0)">b</text><text xml:space="preserve" font-family="Helvetica-Light" font-size="41.0" fill="#000000" transform="matrix(1.00, 0.00, -0.00, -1.00, 72.4, 688.0)">o</text><text xml:space="preserve" font-family="Helvetica-Light" font-size="41.0" fill="#000000" transform="matrix(1.00, 0.00, -0.00, -1.00, 95.2, 688.0)">u</text><text xml:space="preserve" font-family="Helvetica-Light" font-size="41.0" fill="#000000" transform="matrix(1.00, 0.00, -0.00, -1.00, 118.0, 688.0)">t</text><text xml:space="preserve" font-family="Helvetica-Light" font-size="41.0" fill="#000000" transform="matrix(1.00, 0.00, -0.00, -1.00, 129.4, 688.0)"> </text><text xml:space="preserve" font-family="Helvetica-Light" font-size="41.0" fill="#000000" transform="matrix(1.00, 0.00, -0.00, -1.00, 140.8, 688.0)">m</text><text xml:space="preserve" font-family="Helvetica-Light" font-size="41.0" fill="#000000" transform="matrix(1.00, 0.00, -0.00, -1.00, 174.9, 688.0)">e</text><text xml:space="preserve" font-family="Helvetica-Light" font-size="16.0" fill="#000000" transform="matrix(1.00, 0.00, -0.00, -1.00, 43.0, 378.0)">M</text><text xml:space="preserve" font-family="Helvetica-Light" font-size="16.0" fill="#000000" transform="matrix(1.00, 0.00, -0.00, -1.00, 56.3, 378.0)">a</text><text xml:space="preserve" font-family="Helvetica-Light" font-size="16.0" fill="#000000" transform="matrix(1.00, 0.00, -0.00, -1.00, 65.2, 378.0)">r</text><text xml:space="preserve" font-family="Helvetica-Light" font-size="16.0" fill="#000000" transform="matrix(1.00, 0.00, -0.00, -1.00, 70.6, 378.0)">k</text><text xml:space="preserve" font-family="Helvetica-Light" font-size="16.0" fill="#000000" transform="matrix(1.00, 0.00, -0.00, -1.00, 78.6, 378.0)"> </text><text xml:space="preserve" font-family="Helvetica-Light" font-size="16.0" fill="#000000" transform="matrix(1.00, 0.00, -0.00, -1.00, 83.0, 378.0)">I</text><text xml:space="preserve" font-family="Helvetica-Light" font-size="16.0" fill="#000000" transform="matrix(1.00, 0.00, -0.00, -1.00, 87.4, 378.0)">b</text><text xml:space="preserve" font-family="Helvetica-Light" font-size="16.0" fill="#000000" transform="matrix(1.00, 0.00, -0.00, -1.00, 97.2, 378.0)">r</text><text xml:space="preserve" font-family="Helvetica-Light" font-size="16.0" fill="#000000" transform="matrix(1.00, 0.00, -0.00, -1.00, 102.6, 378.0)">a</text><text xml:space="preserve" font-family="Helvetica-Light" font-size="16.0" fill="#000000" transform="matrix(1.00, 0.00, -0.00, -1.00, 111.4, 378.0)">h</text><text xml:space="preserve" font-family="Helvetica-Light" font-size="16.0" fill="#000000" transform="matrix(1.00, 0.00, -0.00, -1.00, 120.3, 378.0)">i</text><text xml:space="preserve" font-family="Helvetica-Light" font-size="16.0" fill="#000000" transform="matrix(1.00, 0.00, -0.00, -1.00, 123.9, 378.0)">m</text></g></svg>