<?xml version="1.0" encoding="UTF-8" standalone="no"?><svg xmlns="http://www.w3.org/2000/svg" xmlns:xlink="http://www.w3.org/1999/xlink" clip-rule="evenodd" stroke-miterlimit="4.00" viewBox="0 0 1920 1080"><desc>SVG generated by Keynote</desc><defs></defs><g transform="matrix(1.00, 0.00, -0.00, -1.00, 0.0, 1080.0)"><path d="M 0.0 1080.0 L 1920.0 1080.0 L 1920.0 0.0 L 0.0 0.0 Z M 0.0 1080.0 " fill="#FEFFFF"></path><g><clipPath id="clip-78"><path d="M 510.1 413.1 L 995.9 413.1 L 995.9 885.3 L 510.1 885.3 Z M 510.1 413.1 "></path></clipPath><g clip-path="url(#clip-78)"><image xlink:href="../../888894D1-95A4-4E41-BA9D-750E4FF7C803/assets/1EACF7718C0F8B61A845F1FA076E4F8C.png" width="583.00" height="421.00" transform="matrix(0.83, 0.00, -0.00, -0.83, 510.0, 885.0)"></image><image xlink:href="../../583F6A24-71DA-4205-BEAC-CB9933FBF36C/assets/AE2F41AC5F6345905613DCC7130B781B.png" width="2025.00" height="505.00" transform="matrix(0.24, 0.00, -0.00, -0.24, 510.1, 534.1)"></image></g></g><g><clipPath id="clip-79"><path d="M 570.6 633.1 L 903.0 633.1 L 903.0 816.9 L 570.6 816.9 Z M 570.6 633.1 "></path></clipPath><g clip-path="url(#clip-79)"><image xlink:href="../../583F6A24-71DA-4205-BEAC-CB9933FBF36C/assets/452BFE6196C9FB46A0AF6F8A6DE1C534.png" width="330.00" height="182.00" transform="matrix(1.00, 0.00, -0.00, -1.00, 571.6, 815.9)" opacity="0.50"></image><path d="M 28.9 0.0 L 290.5 0.0 C 298.8 0.0 303.0 0.0 307.5 1.4 C 312.4 3.2 316.2 7.1 318.0 12.0 C 319.4 16.4 319.4 20.6 319.4 29.1 L 319.4 141.8 C 319.4 150.1 319.4 154.3 318.0 158.8 C 316.2 163.7 312.4 167.5 307.5 169.3 C 303.0 170.7 298.8 170.7 290.4 170.7 L 28.9 170.7 C 20.6 170.7 16.4 170.7 12.0 169.3 C 7.1 167.5 3.2 163.7 1.4 158.8 C 0.0 154.3 0.0 150.1 0.0 141.7 L 0.0 28.9 C 0.0 20.6 0.0 16.4 1.4 12.0 C 3.2 7.1 7.1 3.2 12.0 1.4 C 16.4 0.0 20.6 0.0 29.1 0.0 Z M 28.9 0.0 " fill="none" stroke="#4E8F00" stroke-width="5.00" stroke-dasharray="5.0, 5.0" transform="matrix(1.00, 0.00, 0.00, -1.00, 577.1, 812.4)"></path></g></g><path d="M 1035.2 600.0 L 1181.9 600.0 L 1181.9 528.0 L 1035.2 528.0 Z M 1035.2 600.0 " fill="#FEFFFF"></path><text xml:space="preserve" font-family="Helvetica-Light" font-size="60.0" fill="#919191" transform="matrix(1.00, 0.00, -0.00, -1.00, 1035.0, 542.0)">w</text><text xml:space="preserve" font-family="Helvetica-Light" font-size="60.0" fill="#919191" transform="matrix(1.00, 0.00, -0.00, -1.00, 1078.3, 542.0)">o</text><text xml:space="preserve" font-family="Helvetica-Light" font-size="60.0" fill="#919191" transform="matrix(1.00, 0.00, -0.00, -1.00, 1111.7, 542.0)">o</text><text xml:space="preserve" font-family="Helvetica-Light" font-size="60.0" fill="#919191" transform="matrix(1.00, 0.00, -0.00, -1.00, 1145.0, 542.0)">d</text><text xml:space="preserve" font-family="Helvetica-Light" font-size="60.0" fill="#919191" transform="matrix(1.00, 0.00, -0.00, -1.00, 1181.7, 542.0)"> </text><text xml:space="preserve" font-family="Helvetica-Light" font-size="60.0" fill="#FF2600" transform="matrix(1.00, 0.00, -0.00, -1.00, 1198.4, 542.0)">P</text><text xml:space="preserve" font-family="Helvetica-Light" font-size="60.0" fill="#919191" transform="matrix(1.00, 0.00, -0.00, -1.00, 1235.0, 542.0)">e</text><text xml:space="preserve" font-family="Helvetica-Light" font-size="60.0" fill="#919191" transform="matrix(1.00, 0.00, -0.00, -1.00, 1268.4, 542.0)">n</text><text xml:space="preserve" font-family="Helvetica-Light" font-size="60.0" fill="#EB5C56" transform="matrix(1.00, 0.00, -0.00, -1.00, 1301.8, 542.0)">c</text><text xml:space="preserve" font-family="Helvetica-Light" font-size="60.0" fill="#919191" transform="matrix(1.00, 0.00, -0.00, -1.00, 1335.1, 542.0)">i</text><text xml:space="preserve" font-family="Helvetica-Light" font-size="60.0" fill="#919191" transform="matrix(1.00, 0.00, -0.00, -1.00, 1348.4, 542.0)">l</text><text xml:space="preserve" font-family="Helvetica-Light" font-size="60.0" fill="#919191" transform="matrix(1.00, 0.00, -0.00, -1.00, 38.0, 537.0)">w</text><text xml:space="preserve" font-family="Helvetica-Light" font-size="60.0" fill="#919191" transform="matrix(1.00, 0.00, -0.00, -1.00, 81.3, 537.0)">o</text><text xml:space="preserve" font-family="Helvetica-Light" font-size="60.0" fill="#919191" transform="matrix(1.00, 0.00, -0.00, -1.00, 114.7, 537.0)">o</text><text xml:space="preserve" font-family="Helvetica-Light" font-size="60.0" fill="#919191" transform="matrix(1.00, 0.00, -0.00, -1.00, 148.0, 537.0)">d</text><text xml:space="preserve" font-family="Helvetica-Light" font-size="60.0" fill="#919191" transform="matrix(1.00, 0.00, -0.00, -1.00, 184.7, 537.0)"> </text><text xml:space="preserve" font-family="Helvetica-Light" font-size="60.0" fill="#919191" transform="matrix(1.00, 0.00, -0.00, -1.00, 201.4, 537.0)">p</text><text xml:space="preserve" font-family="Helvetica-Light" font-size="60.0" fill="#919191" transform="matrix(1.00, 0.00, -0.00, -1.00, 238.0, 537.0)">e</text><text xml:space="preserve" font-family="Helvetica-Light" font-size="60.0" fill="#919191" transform="matrix(1.00, 0.00, -0.00, -1.00, 271.4, 537.0)">n</text><text xml:space="preserve" font-family="Helvetica-Light" font-size="60.0" fill="#919191" transform="matrix(1.00, 0.00, -0.00, -1.00, 304.8, 537.0)">i</text><text xml:space="preserve" font-family="Helvetica-Light" font-size="60.0" fill="#919191" transform="matrix(1.00, 0.00, -0.00, -1.00, 318.1, 537.0)">c</text><text xml:space="preserve" font-family="Helvetica-Light" font-size="60.0" fill="#919191" transform="matrix(1.00, 0.00, -0.00, -1.00, 351.4, 537.0)">l</text><image xlink:href="../../583F6A24-71DA-4205-BEAC-CB9933FBF36C/assets/05E45E5602B54A775819CE63329D821F.png" width="557.00" height="150.00" transform="matrix(1.00, 0.00, -0.00, -1.00, 1364.5, 561.9)" opacity="0.75"></image><image xlink:href="../../FF504BC0-BF27-4D31-B50D-488800008DD3/assets/995E3908DCE47C67D2B743DB57FC0FD0.png" width="225.00" height="100.00" transform="matrix(1.41, 0.00, -0.00, -1.41, 1484.0, 628.0)"></image><image xlink:href="../../583F6A24-71DA-4205-BEAC-CB9933FBF36C/assets/AB8B5306C74579CD8C5EF83924DE0D22.png" width="582.00" height="150.00" transform="matrix(1.00, 0.00, -0.00, -1.00, 462.0, 579.7)" opacity="0.75"></image><image xlink:href="../../FF504BC0-BF27-4D31-B50D-488800008DD3/assets/BE4A473FFC0FB541261C97546482937E.png" width="342.00" height="104.00" transform="matrix(1.00, 0.00, -0.00, -1.00, 582.0, 609.0)"></image><path d="M 0.0 0.0 L 40.7 0.0 L 42.2 0.0 " fill="none" stroke="#A9A9A9" stroke-width="3.00" stroke-linecap="round" stroke-dasharray="0.0, 9.0" transform="matrix(1.00, 0.00, 0.00, -1.00, 1375.2, 563.0)"></path><path d="M 1415.9 556.4 L 1429.1 563.0 L 1415.9 569.6 Z M 1415.9 556.4 " fill="#A9A9A9"></path><image xlink:href="../../583F6A24-71DA-4205-BEAC-CB9933FBF36C/assets/7914B435BA36D2A96508579F14E028D1.png" width="105.00" height="105.00" transform="matrix(1.00, 0.00, -0.00, -1.00, 361.0, 612.0)"></image><path d="M 0.0 0.0 L 338.1 0.0 " fill="none" stroke="#A9A9A9" stroke-width="2.00" stroke-dasharray="2.0, 2.0" transform="matrix(1.00, 0.00, 0.00, -1.00, 32.8, 510.2)"></path><path d="M 0.0 0.0 L 76.6 0.0 L 78.1 0.0 " fill="none" stroke="#A9A9A9" stroke-width="3.00" stroke-linecap="round" stroke-dasharray="0.0, 9.0" transform="matrix(1.00, 0.00, 0.00, -1.00, 464.4, 559.2)"></path><path d="M 541.0 552.6 L 554.2 559.2 L 541.0 565.8 Z M 541.0 552.6 " fill="#A9A9A9"></path><path d="M 0.0 0.0 L 40.7 0.0 L 42.2 0.0 " fill="none" stroke="#A9A9A9" stroke-width="3.00" stroke-linecap="round" stroke-dasharray="0.0, 9.0" transform="matrix(1.00, 0.00, 0.00, -1.00, 943.4, 563.0)"></path><path d="M 984.1 556.4 L 997.3 563.0 L 984.1 569.6 Z M 984.1 556.4 " fill="#A9A9A9"></path><text xml:space="preserve" font-family="Helvetica-Light" font-size="43.0" fill="#A6AAA8" transform="matrix(1.00, 0.00, -0.00, -1.00, 611.0, 425.0)">t</text><text xml:space="preserve" font-family="Helvetica-Light" font-size="43.0" fill="#A6AAA8" transform="matrix(1.00, 0.00, -0.00, -1.00, 623.0, 425.0)">i</text><text xml:space="preserve" font-family="Helvetica-Light" font-size="43.0" fill="#A6AAA8" transform="matrix(1.00, 0.00, -0.00, -1.00, 632.5, 425.0)">t</text><text xml:space="preserve" font-family="Helvetica-Light" font-size="43.0" fill="#A6AAA8" transform="matrix(1.00, 0.00, -0.00, -1.00, 644.5, 425.0)">l</text><text xml:space="preserve" font-family="Helvetica-Light" font-size="43.0" fill="#A6AAA8" transform="matrix(1.00, 0.00, -0.00, -1.00, 654.0, 425.0)">e</text><text xml:space="preserve" font-family="Helvetica-Light" font-size="43.0" fill="#A6AAA8" transform="matrix(1.00, 0.00, -0.00, -1.00, 677.9, 425.0)"> </text><text xml:space="preserve" font-family="Helvetica-Light" font-size="43.0" fill="#A6AAA8" transform="matrix(1.00, 0.00, -0.00, -1.00, 689.9, 425.0)">2</text><text xml:space="preserve" font-family="Helvetica-Light" font-size="43.0" fill="#A6AAA8" transform="matrix(1.00, 0.00, -0.00, -1.00, 713.8, 425.0)">x</text><text xml:space="preserve" font-family="Helvetica-Light" font-size="43.0" fill="#A6AAA8" transform="matrix(1.00, 0.00, -0.00, -1.00, 735.3, 425.0)"> </text><text xml:space="preserve" font-family="Helvetica-Light" font-size="43.0" fill="#A6AAA8" transform="matrix(1.00, 0.00, -0.00, -1.00, 747.2, 425.0)">w</text><text xml:space="preserve" font-family="Helvetica-Light" font-size="43.0" fill="#A6AAA8" transform="matrix(1.00, 0.00, -0.00, -1.00, 778.3, 425.0)">e</text><text xml:space="preserve" font-family="Helvetica-Light" font-size="43.0" fill="#A6AAA8" transform="matrix(1.00, 0.00, -0.00, -1.00, 802.2, 425.0)">i</text><text xml:space="preserve" font-family="Helvetica-Light" font-size="43.0" fill="#A6AAA8" transform="matrix(1.00, 0.00, -0.00, -1.00, 811.7, 425.0)">g</text><text xml:space="preserve" font-family="Helvetica-Light" font-size="43.0" fill="#A6AAA8" transform="matrix(1.00, 0.00, -0.00, -1.00, 838.0, 425.0)">h</text><text xml:space="preserve" font-family="Helvetica-Light" font-size="43.0" fill="#A6AAA8" transform="matrix(1.00, 0.00, -0.00, -1.00, 861.9, 425.0)">t</text><path d="M 1035.6 555.6 C 1035.3 555.7 1034.6 555.5 1034.3 555.7 M 1035.6 555.6 C 1034.8 554.5 1033.5 554.4 1031.8 554.2 C 1029.9 554.2 1031.8 555.2 1031.6 555.7 C 1029.1 556.1 1029.1 555.3 1029.5 554.1 C 1028.5 554.9 1025.7 553.5 1026.3 555.0 C 1030.3 555.0 1023.4 555.3 1026.8 556.2 C 1027.2 556.4 1026.2 556.8 1025.8 556.8 C 1026.9 557.4 1025.0 558.1 1026.8 558.6 C 1027.1 559.5 1026.7 559.1 1027.9 559.9 C 1028.4 560.0 1028.2 559.6 1028.1 559.4 C 1028.3 558.3 1029.5 560.0 1030.4 559.3 C 1031.3 560.8 1032.2 559.1 1031.4 558.5 C 1032.3 558.7 1033.2 560.1 1034.1 559.1 C 1034.6 559.8 1036.9 559.3 1035.5 558.5 C 1034.5 557.9 1035.6 557.5 1035.8 557.1 C 1035.4 556.8 1034.0 557.3 1033.8 557.0 C 1034.3 556.8 1036.1 556.2 1034.2 556.3 C 1034.8 555.8 1033.8 555.5 1035.6 555.6 C 1035.6 555.6 1035.6 555.6 1035.6 555.6 Z M 1028.8 554.8 C 1028.8 554.4 1029.4 554.8 1028.8 554.8 C 1028.8 554.8 1028.8 554.8 1028.8 554.8 Z M 1033.4 559.8 C 1033.4 559.5 1034.0 559.9 1033.4 559.8 C 1033.4 559.8 1033.4 559.8 1033.4 559.8 Z M 1028.4 559.4 C 1028.4 559.1 1029.1 559.5 1028.4 559.4 C 1028.4 559.4 1028.4 559.4 1028.4 559.4 Z M 1030.5 555.0 C 1031.6 555.3 1029.7 555.5 1029.5 555.2 C 1029.7 555.2 1030.3 554.7 1030.5 555.0 C 1030.5 555.0 1030.5 555.0 1030.5 555.0 Z M 1030.7 557.2 C 1030.8 557.1 1031.2 557.0 1031.2 557.4 C 1030.9 557.5 1030.6 557.3 1030.7 557.2 C 1030.7 557.2 1030.7 557.2 1030.7 557.2 Z M 1025.4 555.6 C 1025.5 555.5 1025.9 555.5 1025.9 555.8 C 1025.6 555.9 1025.3 555.8 1025.4 555.6 C 1025.4 555.6 1025.4 555.6 1025.4 555.6 Z M 1031.8 556.0 C 1032.0 556.1 1032.1 556.4 1031.8 556.5 C 1031.7 556.3 1030.9 556.2 1031.8 556.0 C 1031.8 556.0 1031.8 556.0 1031.8 556.0 Z M 1033.4 554.7 C 1034.3 554.9 1032.5 555.5 1032.5 555.3 C 1032.2 555.1 1032.9 554.4 1033.4 554.7 C 1033.4 554.7 1033.4 554.7 1033.4 554.7 Z M 1032.3 556.5 C 1033.0 556.7 1032.0 556.8 1032.3 556.5 C 1032.3 556.5 1032.3 556.5 1032.3 556.5 Z M 1026.1 558.5 C 1026.9 558.6 1025.8 558.7 1026.1 558.5 C 1026.1 558.5 1026.1 558.5 1026.1 558.5 Z M 1030.0 559.6 C 1030.8 559.8 1029.7 559.9 1030.0 559.6 C 1030.0 559.6 1030.0 559.6 1030.0 559.6 Z M 1028.6 555.8 C 1027.3 555.7 1028.4 554.8 1028.6 555.8 C 1028.6 555.8 1028.6 555.8 1028.6 555.8 Z M 1035.5 554.6 C 1034.2 554.6 1035.3 553.7 1035.5 554.6 C 1035.5 554.6 1035.5 554.6 1035.5 554.6 Z M 1183.7 555.0 C 1184.8 554.8 1180.2 553.5 1182.0 555.0 C 1182.5 556.3 1179.4 556.2 1180.2 555.0 C 1179.2 554.9 1179.2 554.8 1178.7 555.4 C 1178.6 554.5 1176.4 554.0 1175.6 554.5 C 1175.2 555.3 1177.1 554.6 1175.8 555.4 C 1173.1 555.7 1176.0 556.3 1175.0 557.3 C 1174.9 557.3 1174.8 556.8 1174.6 557.1 C 1174.5 558.0 1176.0 558.7 1175.3 559.4 C 1175.7 559.2 1177.7 560.3 1176.9 559.5 C 1176.6 558.6 1179.0 560.5 1178.9 559.1 C 1179.5 559.7 1180.2 558.8 1180.8 559.6 C 1181.3 559.8 1181.3 559.0 1181.2 558.8 C 1181.2 558.1 1181.8 560.4 1182.6 559.2 C 1182.6 559.5 1184.8 559.4 1183.2 558.8 C 1183.7 558.9 1186.2 559.3 1184.8 558.0 C 1183.1 557.3 1186.7 556.6 1184.6 556.5 C 1183.0 556.4 1182.7 556.6 1183.9 556.0 C 1184.3 556.0 1186.1 555.9 1184.5 555.3 C 1184.2 555.5 1183.4 555.4 1183.7 555.0 C 1183.7 555.0 1183.7 555.0 1183.7 555.0 Z M 1184.0 556.9 C 1183.1 557.0 1183.9 556.4 1184.0 556.9 C 1184.0 556.9 1184.0 556.9 1184.0 556.9 Z M 1180.7 559.9 C 1179.8 560.0 1180.6 559.4 1180.7 559.9 C 1180.7 559.9 1180.7 559.9 1180.7 559.9 Z M 1180.8 554.7 C 1180.3 555.1 1180.2 553.7 1180.8 554.7 C 1180.8 554.7 1180.8 554.7 1180.8 554.7 Z M 1182.2 558.8 C 1182.1 558.8 1182.4 558.7 1182.5 558.6 C 1182.5 558.7 1182.3 558.8 1182.2 558.8 C 1182.2 558.8 1182.2 558.8 1182.2 558.8 Z M 1179.2 554.7 C 1177.9 555.3 1179.0 553.6 1179.2 554.7 C 1179.2 554.7 1179.2 554.7 1179.2 554.7 Z M 1176.5 556.0 C 1176.3 557.3 1175.1 555.7 1176.5 556.0 C 1176.5 556.0 1176.5 556.0 1176.5 556.0 Z M 1178.4 559.0 C 1178.7 558.7 1178.7 559.1 1178.4 559.0 C 1178.4 559.0 1178.4 559.0 1178.4 559.0 Z M 1184.4 559.2 C 1184.6 558.9 1184.6 559.3 1184.4 559.2 C 1184.4 559.2 1184.4 559.2 1184.4 559.2 Z M 1176.7 558.8 C 1176.8 558.3 1177.2 559.1 1176.7 558.8 C 1176.7 558.8 1176.7 558.8 1176.7 558.8 Z M 1180.5 555.2 C 1181.8 554.1 1182.1 556.8 1180.5 555.2 C 1180.5 555.2 1180.5 555.2 1180.5 555.2 Z M 1182.8 555.1 C 1183.6 554.9 1182.6 555.8 1182.2 555.6 C 1182.3 555.5 1182.6 555.2 1182.8 555.1 C 1182.8 555.1 1182.8 555.1 1182.8 555.1 Z M 1179.2 555.3 C 1180.1 554.8 1180.0 555.6 1179.2 555.3 C 1179.2 555.3 1179.2 555.3 1179.2 555.3 Z M 1181.4 554.7 C 1181.8 554.9 1181.0 554.9 1181.4 554.7 C 1181.4 554.7 1181.4 554.7 1181.4 554.7 Z M 1177.5 554.2 C 1178.0 554.3 1177.2 554.3 1177.5 554.2 C 1177.5 554.2 1177.5 554.2 1177.5 554.2 Z M 1183.8 554.5 C 1184.2 554.7 1183.5 554.7 1183.8 554.5 C 1183.8 554.5 1183.8 554.5 1183.8 554.5 Z M 1177.9 554.9 C 1177.8 555.4 1179.0 556.5 1176.8 555.6 C 1176.4 555.2 1177.3 554.5 1177.9 554.9 C 1177.9 554.9 1177.9 554.9 1177.9 554.9 Z M 1038.8 555.6 C 1034.1 554.1 1035.2 556.8 1035.0 557.3 C 1034.4 558.0 1035.0 558.5 1035.9 559.0 C 1036.9 560.7 1037.4 557.2 1038.1 558.9 C 1039.4 561.2 1039.6 556.9 1040.1 559.3 C 1039.9 559.9 1041.8 559.4 1041.6 559.3 C 1042.6 560.4 1043.9 558.4 1043.9 558.2 C 1044.5 558.5 1044.6 560.6 1046.5 559.0 C 1048.0 558.5 1048.6 560.6 1048.2 559.1 C 1049.3 560.8 1049.0 558.6 1050.1 559.2 C 1050.8 560.1 1050.1 557.8 1051.5 559.5 C 1052.1 558.2 1050.8 560.5 1054.5 559.5 C 1052.7 559.3 1056.2 558.4 1055.5 559.3 C 1054.3 560.3 1057.2 558.9 1058.9 559.5 C 1059.4 559.0 1061.4 557.8 1061.0 559.1 C 1062.8 560.7 1062.8 558.2 1063.5 559.4 C 1064.1 560.0 1064.3 558.8 1064.7 558.9 C 1065.3 559.9 1065.9 559.2 1068.0 559.5 C 1072.7 560.0 1068.7 557.0 1070.5 556.7 C 1070.8 556.2 1068.2 553.0 1069.2 555.4 C 1068.9 554.8 1065.1 557.3 1067.0 554.6 C 1065.5 555.7 1067.3 553.5 1064.3 554.8 C 1068.4 556.7 1059.8 555.5 1063.6 554.6 C 1063.0 554.1 1061.4 554.2 1062.5 554.6 C 1063.0 556.3 1059.8 553.9 1061.4 555.9 C 1058.9 555.4 1059.6 557.2 1058.9 555.9 C 1058.3 553.7 1059.0 556.5 1057.7 555.8 C 1054.8 555.8 1057.1 553.3 1055.3 555.0 C 1052.5 553.9 1054.7 555.9 1053.7 556.2 C 1053.4 557.7 1050.8 555.0 1053.0 554.8 C 1051.8 555.7 1052.7 554.1 1051.5 555.1 C 1052.4 556.5 1049.8 553.6 1050.2 554.7 C 1049.0 555.1 1049.6 555.9 1049.2 555.9 C 1047.5 556.0 1048.0 554.6 1047.7 555.6 C 1047.3 556.2 1046.4 554.3 1046.2 554.8 C 1048.0 554.9 1044.7 556.3 1044.6 555.5 C 1045.7 555.4 1044.0 553.7 1043.3 554.8 C 1044.2 557.9 1041.7 554.0 1040.9 555.1 C 1041.7 556.8 1037.0 555.3 1038.8 554.5 C 1038.7 554.6 1038.9 555.6 1038.8 555.6 M 1045.7 555.0 C 1047.2 555.2 1044.1 555.4 1045.7 555.0 M 1045.6 554.6 C 1046.3 555.2 1044.2 554.2 1045.7 554.4 C 1045.7 554.4 1045.5 554.6 1045.6 554.6 M 1051.7 554.5 C 1051.5 555.0 1050.9 554.2 1051.7 554.5 M 1052.9 555.6 C 1053.9 556.1 1051.6 555.7 1052.9 555.6 M 1066.4 555.2 C 1065.0 557.8 1064.9 553.8 1066.4 555.2 M 1057.4 554.7 C 1055.8 555.1 1058.0 553.7 1057.4 554.7 M 1057.0 555.4 C 1056.2 555.8 1056.8 554.8 1057.0 555.4 M 1063.8 555.3 C 1063.9 555.3 1063.9 555.3 1063.8 555.3 C 1063.8 555.3 1063.8 555.3 1063.8 555.3 Z M 1067.8 555.3 C 1067.8 555.3 1067.8 555.3 1067.8 555.3 C 1067.8 555.3 1067.8 555.3 1067.8 555.3 Z M 1059.9 555.5 C 1058.7 554.9 1061.9 555.3 1059.9 555.5 C 1059.9 555.5 1059.9 555.5 1059.9 555.5 Z M 1065.9 559.2 C 1065.8 559.3 1065.8 559.3 1065.9 559.2 C 1065.9 559.2 1065.9 559.2 1065.9 559.2 Z M 1044.5 556.2 C 1044.5 556.2 1044.5 556.2 1044.5 556.2 C 1044.5 556.2 1044.5 556.2 1044.5 556.2 Z M 1040.0 555.2 C 1040.1 555.6 1039.2 555.0 1040.0 555.2 C 1040.0 555.2 1040.0 555.2 1040.0 555.2 Z M 1036.3 558.2 C 1036.3 558.2 1036.3 558.2 1036.3 558.2 C 1036.3 558.2 1036.3 558.2 1036.3 558.2 Z M 1043.0 557.6 C 1043.0 557.6 1043.0 557.6 1043.0 557.6 C 1043.0 557.6 1043.0 557.6 1043.0 557.6 Z M 1043.7 555.7 C 1042.9 554.2 1045.4 556.0 1043.7 555.7 C 1043.7 555.7 1043.7 555.7 1043.7 555.7 Z M 1058.4 559.1 C 1058.4 558.5 1059.4 559.3 1058.4 559.1 C 1058.4 559.1 1058.4 559.1 1058.4 559.1 Z M 1053.1 556.2 C 1053.3 555.8 1053.7 556.3 1053.1 556.2 C 1053.1 556.2 1053.1 556.2 1053.1 556.2 Z M 1050.6 554.2 C 1050.8 553.9 1051.2 554.4 1050.6 554.2 C 1050.6 554.2 1050.6 554.2 1050.6 554.2 Z M 1040.1 554.9 C 1040.2 554.8 1040.2 554.8 1040.1 554.9 C 1040.1 554.9 1040.1 554.9 1040.1 554.9 Z M 1041.7 555.9 C 1040.6 554.6 1043.4 556.6 1041.7 555.9 C 1041.7 555.9 1041.7 555.9 1041.7 555.9 Z M 1039.8 556.3 C 1040.4 556.8 1038.3 556.1 1039.8 556.3 M 1040.9 558.3 C 1042.2 557.8 1039.6 560.7 1040.9 558.3 C 1040.9 558.3 1040.9 558.3 1040.9 558.3 Z M 1047.9 558.9 C 1048.0 558.9 1048.0 558.9 1047.9 558.9 C 1047.9 558.9 1047.9 558.9 1047.9 558.9 Z M 1047.1 555.0 C 1048.4 555.0 1046.4 555.3 1047.1 555.0 C 1047.1 555.0 1047.1 555.0 1047.1 555.0 Z M 1036.6 554.7 C 1037.8 554.8 1035.8 555.0 1036.6 554.7 C 1036.6 554.7 1036.6 554.7 1036.6 554.7 Z M 1051.9 557.6 C 1053.9 557.4 1050.7 558.3 1051.9 557.6 C 1051.9 557.6 1051.9 557.6 1051.9 557.6 Z M 1059.2 556.0 C 1059.3 556.1 1059.3 556.1 1059.2 556.0 C 1059.2 556.0 1059.2 556.0 1059.2 556.0 Z M 1060.6 555.5 C 1060.6 555.5 1060.6 555.5 1060.6 555.5 C 1060.6 555.5 1060.6 555.5 1060.6 555.5 Z M 1066.2 556.9 C 1066.3 556.9 1066.3 556.9 1066.2 556.9 C 1066.2 556.9 1066.2 556.9 1066.2 556.9 Z M 1061.8 554.9 C 1061.9 554.9 1061.9 554.9 1061.8 554.9 C 1061.8 554.9 1061.8 554.9 1061.8 554.9 Z M 1065.7 555.2 C 1065.8 555.3 1065.8 555.3 1065.7 555.2 C 1065.7 555.2 1065.7 555.2 1065.7 555.2 Z M 1065.2 554.1 C 1065.3 554.1 1065.3 554.1 1065.2 554.1 C 1065.2 554.1 1065.2 554.1 1065.2 554.1 Z M 1056.5 559.8 C 1056.6 559.9 1056.6 559.9 1056.5 559.8 C 1056.5 559.8 1056.5 559.8 1056.5 559.8 Z M 1042.2 554.4 C 1042.3 554.5 1042.3 554.5 1042.2 554.4 C 1042.2 554.4 1042.2 554.4 1042.2 554.4 Z M 1065.4 555.7 C 1065.5 555.7 1065.5 555.7 1065.4 555.7 C 1065.4 555.7 1065.4 555.7 1065.4 555.7 Z M 1055.9 556.8 C 1055.9 557.9 1055.0 555.3 1056.1 556.7 C 1056.1 556.8 1055.8 556.6 1055.9 556.8 M 1057.1 558.6 C 1057.1 558.7 1057.1 558.7 1057.1 558.6 C 1057.1 558.6 1057.1 558.6 1057.1 558.6 Z M 1052.8 559.3 C 1052.8 559.4 1052.8 559.4 1052.8 559.3 C 1052.8 559.3 1052.8 559.3 1052.8 559.3 Z M 1061.1 554.6 C 1061.0 554.0 1062.2 555.1 1061.0 554.7 M 1066.3 558.8 C 1066.1 558.2 1067.3 559.3 1066.1 558.9 M 1035.2 555.1 C 1035.1 555.6 1034.4 554.8 1035.2 555.1 M 1051.8 559.9 C 1051.7 560.4 1051.0 559.6 1051.8 559.9 M 1053.9 558.5 C 1053.7 557.9 1054.9 559.0 1053.7 558.5 M 1063.3 558.8 C 1063.4 558.8 1063.4 558.8 1063.3 558.8 C 1063.3 558.8 1063.3 558.8 1063.3 558.8 Z M 1049.0 555.1 C 1049.0 555.1 1049.0 555.1 1049.0 555.1 C 1049.0 555.1 1049.0 555.1 1049.0 555.1 Z M 1054.3 556.5 C 1053.6 555.6 1055.2 557.0 1054.3 556.5 M 1047.4 556.6 C 1046.4 555.6 1049.1 557.0 1047.4 556.6 M 1068.5 559.1 C 1067.4 557.8 1069.4 559.8 1068.5 559.1 M 1062.7 555.9 C 1061.5 554.6 1063.6 556.6 1062.7 555.9 M 1050.1 555.7 C 1050.0 555.0 1051.2 556.1 1050.1 555.7 M 1038.0 555.0 C 1036.9 554.9 1039.4 554.5 1038.0 555.0 M 1060.4 558.8 C 1060.5 558.9 1060.5 558.9 1060.4 558.8 C 1060.4 558.8 1060.4 558.8 1060.4 558.8 Z M 1041.6 560.0 C 1041.7 560.0 1041.7 560.0 1041.6 560.0 C 1041.6 560.0 1041.6 560.0 1041.6 560.0 Z M 1070.0 554.9 C 1070.1 554.9 1070.1 554.9 1070.0 554.9 C 1070.0 554.9 1070.0 554.9 1070.0 554.9 Z M 1062.0 556.4 C 1062.0 556.5 1062.0 556.5 1062.0 556.4 C 1062.0 556.4 1062.0 556.4 1062.0 556.4 Z M 1067.8 554.7 C 1067.8 554.8 1067.8 554.8 1067.8 554.7 C 1067.8 554.7 1067.8 554.7 1067.8 554.7 Z M 1058.3 557.5 C 1058.4 557.5 1058.4 557.5 1058.3 557.5 C 1058.3 557.5 1058.3 557.5 1058.3 557.5 Z M 1057.6 554.2 C 1057.6 554.2 1057.6 554.2 1057.6 554.2 C 1057.6 554.2 1057.6 554.2 1057.6 554.2 Z M 1053.6 555.6 C 1053.6 555.6 1053.6 555.6 1053.6 555.6 C 1053.6 555.6 1053.6 555.6 1053.6 555.6 Z M 1059.4 554.4 C 1061.8 554.2 1058.2 555.5 1059.4 554.4 C 1059.4 554.4 1059.4 554.4 1059.4 554.4 Z M 1055.3 557.7 C 1055.3 557.7 1055.3 557.7 1055.3 557.7 C 1055.3 557.7 1055.3 557.7 1055.3 557.7 Z M 1055.0 555.4 C 1056.5 554.4 1055.8 557.0 1055.0 555.4 M 1048.3 554.6 C 1048.7 554.1 1048.5 555.4 1048.3 554.6 M 1045.6 558.9 C 1045.6 559.0 1045.6 559.0 1045.6 558.9 C 1045.6 558.9 1045.6 558.9 1045.6 558.9 Z M 1046.3 558.6 C 1046.4 558.6 1046.4 558.6 1046.3 558.6 C 1046.3 558.6 1046.3 558.6 1046.3 558.6 Z M 1046.7 554.4 C 1046.7 554.4 1046.7 554.4 1046.7 554.4 C 1046.7 554.4 1046.7 554.4 1046.7 554.4 Z M 1046.4 559.8 C 1046.5 559.9 1046.5 559.9 1046.4 559.8 C 1046.4 559.8 1046.4 559.8 1046.4 559.8 Z M 1056.7 554.2 C 1056.7 554.3 1056.7 554.3 1056.7 554.2 C 1056.7 554.2 1056.7 554.2 1056.7 554.2 Z M 1068.9 554.2 C 1069.0 554.2 1069.0 554.2 1068.9 554.2 C 1068.9 554.2 1068.9 554.2 1068.9 554.2 Z M 1038.3 558.5 C 1038.4 558.5 1038.4 558.5 1038.3 558.5 C 1038.3 558.5 1038.3 558.5 1038.3 558.5 Z M 1058.0 555.5 C 1058.0 555.6 1058.0 555.6 1058.0 555.5 C 1058.0 555.5 1058.0 555.5 1058.0 555.5 Z M 1043.9 558.7 C 1043.9 558.8 1043.9 558.8 1043.9 558.7 C 1043.9 558.7 1043.9 558.7 1043.9 558.7 Z M 1057.2 555.3 C 1057.2 555.3 1057.2 555.3 1057.2 555.3 C 1057.2 555.3 1057.2 555.3 1057.2 555.3 Z M 1060.1 559.1 C 1060.1 559.1 1060.1 559.1 1060.1 559.1 C 1060.1 559.1 1060.1 559.1 1060.1 559.1 Z M 1062.7 559.9 C 1062.7 559.9 1062.7 559.9 1062.7 559.9 C 1062.7 559.9 1062.7 559.9 1062.7 559.9 Z M 1059.9 556.8 C 1059.9 556.8 1059.9 556.8 1059.9 556.8 C 1059.9 556.8 1059.9 556.8 1059.9 556.8 Z M 1043.0 557.3 C 1038.2 556.2 1046.9 556.8 1043.0 557.3 M 1060.7 557.1 C 1057.3 556.8 1063.4 555.8 1060.7 557.1 C 1061.1 556.7 1060.7 557.0 1060.7 557.1 M 1071.2 554.3 C 1069.8 555.5 1069.8 556.7 1070.4 557.9 C 1071.1 558.6 1071.1 556.1 1071.1 558.2 C 1069.6 558.6 1071.8 561.3 1071.8 558.6 C 1073.9 558.3 1072.1 560.3 1073.4 559.3 C 1075.6 559.0 1074.5 559.8 1076.2 559.6 C 1077.2 558.2 1077.2 560.3 1077.6 559.0 C 1076.7 560.5 1079.4 558.6 1079.5 559.2 C 1077.9 560.1 1085.4 559.2 1081.3 558.8 C 1083.0 558.1 1082.7 559.3 1083.3 559.5 C 1084.0 558.7 1086.0 560.2 1087.0 559.4 C 1086.8 559.2 1086.3 559.1 1086.2 558.8 C 1085.9 558.2 1087.3 558.9 1087.2 558.9 C 1087.8 558.6 1090.5 557.7 1087.7 559.2 C 1087.5 559.9 1090.0 558.9 1089.9 559.5 C 1092.4 559.6 1090.5 558.1 1091.6 559.2 C 1093.4 559.2 1094.7 559.2 1094.7 559.0 C 1095.7 559.2 1096.0 560.0 1096.9 559.2 C 1099.1 560.8 1098.5 556.2 1099.3 559.3 C 1099.9 558.6 1100.5 560.6 1100.4 558.7 C 1099.7 559.5 1104.1 560.2 1102.2 558.8 C 1102.7 558.3 1105.5 560.7 1105.1 558.8 C 1106.1 557.4 1105.9 556.0 1103.8 554.6 C 1104.0 555.7 1101.5 553.5 1103.1 555.4 C 1105.0 556.0 1099.7 556.0 1100.8 555.3 C 1101.1 553.1 1098.2 556.8 1097.1 555.1 C 1098.0 556.0 1093.7 556.5 1094.9 554.8 C 1094.1 554.7 1093.9 555.5 1093.1 554.5 C 1095.7 554.6 1092.1 556.3 1092.2 555.2 C 1092.7 554.6 1088.8 554.1 1089.2 555.0 C 1090.5 557.4 1088.2 554.5 1087.5 555.5 C 1085.4 556.0 1087.9 553.5 1086.3 555.2 C 1085.9 554.9 1083.0 554.9 1084.8 554.4 C 1085.5 554.6 1083.1 557.0 1082.8 555.0 C 1085.9 553.9 1079.4 554.4 1080.4 555.0 C 1085.0 556.1 1075.4 556.2 1079.1 555.1 C 1077.0 554.0 1079.7 554.7 1077.1 555.2 C 1077.5 555.8 1075.5 556.4 1075.9 555.1 C 1075.5 553.2 1075.2 557.7 1073.7 555.1 C 1073.4 554.0 1070.5 555.9 1071.7 554.7 C 1071.7 554.5 1071.3 554.3 1071.2 554.3 M 1072.1 554.5 C 1071.8 554.9 1071.6 554.0 1072.1 554.5 M 1071.8 554.9 C 1071.7 554.9 1071.7 554.9 1071.8 554.9 C 1071.8 554.9 1071.8 554.9 1071.8 554.9 Z M 1076.7 555.2 C 1076.7 555.2 1076.7 555.2 1076.7 555.2 C 1076.7 555.2 1076.7 555.2 1076.7 555.2 Z M 1080.7 560.0 C 1080.7 559.9 1080.7 559.9 1080.7 560.0 C 1080.7 560.0 1080.7 560.0 1080.7 560.0 Z M 1080.1 555.3 C 1080.0 555.3 1080.0 555.3 1080.1 555.3 C 1080.1 555.3 1080.1 555.3 1080.1 555.3 Z M 1075.0 555.5 C 1074.9 555.5 1074.9 555.5 1075.0 555.5 C 1075.0 555.5 1075.0 555.5 1075.0 555.5 Z M 1079.8 554.6 C 1080.0 555.4 1078.6 554.1 1079.8 554.5 C 1079.9 554.6 1079.6 554.6 1079.8 554.6 M 1084.1 554.4 C 1084.1 554.4 1084.1 554.4 1084.1 554.4 M 1093.6 559.9 C 1093.7 560.0 1093.7 560.0 1093.6 559.9 M 1094.4 554.3 C 1094.5 554.4 1094.5 554.4 1094.4 554.3 M 1088.4 555.1 C 1089.7 555.0 1088.7 555.4 1088.4 555.1 M 1097.9 554.7 C 1096.2 554.3 1099.7 554.3 1097.9 554.7 M 1099.5 554.3 C 1099.7 554.4 1099.7 554.4 1099.5 554.3 M 1092.0 554.6 C 1092.0 554.6 1092.0 554.6 1092.0 554.6 C 1092.0 554.6 1092.0 554.6 1092.0 554.6 Z M 1087.8 554.8 C 1086.1 554.4 1089.6 554.1 1087.8 554.8 M 1077.3 554.5 C 1078.3 554.2 1077.3 555.5 1077.3 554.5 M 1075.4 554.9 C 1075.4 555.0 1075.4 555.0 1075.4 554.9 C 1075.4 554.9 1075.4 554.9 1075.4 554.9 Z M 1095.2 554.7 C 1095.2 554.7 1095.2 554.7 1095.2 554.7 C 1095.2 554.7 1095.2 554.7 1095.2 554.7 Z M 1097.1 554.5 C 1097.1 554.6 1097.1 554.6 1097.1 554.5 C 1097.1 554.5 1097.1 554.5 1097.1 554.5 Z M 1100.3 559.8 C 1100.3 559.8 1100.3 559.8 1100.3 559.8 C 1100.3 559.8 1100.3 559.8 1100.3 559.8 Z M 1076.8 557.1 C 1075.5 556.8 1078.1 555.4 1077.9 556.7 C 1078.0 557.2 1077.0 557.0 1076.8 557.1 M 1086.6 556.4 C 1086.9 558.2 1085.3 554.0 1086.6 556.4 M 1099.8 555.5 C 1101.0 557.6 1098.1 554.0 1099.8 555.5 M 1102.4 555.1 C 1103.1 555.5 1097.5 555.3 1101.5 554.8 C 1101.8 554.4 1102.1 554.9 1102.4 555.1 M 1084.1 555.2 C 1084.5 556.2 1082.1 554.8 1084.1 555.2 M 1092.1 558.2 C 1092.7 557.5 1094.4 557.0 1093.7 558.1 C 1093.6 559.4 1091.3 558.7 1092.1 558.2 M 1072.5 555.5 C 1073.6 554.0 1072.5 556.9 1072.5 555.5 M 1077.6 555.7 C 1077.6 555.6 1077.6 555.6 1077.6 555.7 C 1077.6 555.7 1077.6 555.7 1077.6 555.7 Z M 1079.6 555.4 C 1079.7 555.5 1079.7 555.5 1079.6 555.4 M 1073.3 554.1 C 1073.4 554.3 1073.4 554.3 1073.3 554.1 M 1092.1 556.5 C 1092.2 556.7 1092.2 556.7 1092.1 556.5 M 1088.0 555.5 C 1089.9 557.1 1087.0 555.8 1088.0 555.5 M 1083.3 558.5 C 1083.9 559.2 1082.1 558.5 1083.3 558.5 M 1091.2 554.9 C 1092.6 556.4 1089.3 556.3 1091.2 554.9 M 1087.0 555.3 C 1087.2 555.3 1087.2 555.3 1087.0 555.3 C 1087.0 555.3 1087.0 555.3 1087.0 555.3 Z M 1092.6 558.3 C 1092.6 558.4 1092.6 558.4 1092.6 558.3 C 1092.6 558.3 1092.6 558.3 1092.6 558.3 Z M 1093.2 558.3 C 1093.1 558.3 1093.1 558.3 1093.2 558.3 C 1093.2 558.3 1093.2 558.3 1093.2 558.3 Z M 1092.9 554.7 C 1092.8 554.8 1092.8 554.8 1092.9 554.7 C 1092.9 554.7 1092.9 554.7 1092.9 554.7 Z M 1075.2 559.0 C 1076.6 559.1 1074.2 559.2 1075.2 559.0 C 1075.2 559.0 1075.2 559.0 1075.2 559.0 Z M 1081.3 554.7 C 1083.6 555.8 1079.7 555.8 1081.3 554.7 C 1081.3 554.7 1081.3 554.7 1081.3 554.7 Z M 1083.9 556.6 C 1083.9 556.7 1083.9 556.7 1083.9 556.6 C 1083.9 556.6 1083.9 556.6 1083.9 556.6 Z M 1090.3 554.0 C 1090.3 554.1 1090.3 554.1 1090.3 554.0 C 1090.3 554.0 1090.3 554.0 1090.3 554.0 Z M 1075.9 559.2 C 1075.9 559.3 1075.9 559.3 1075.9 559.2 C 1075.9 559.2 1075.9 559.2 1075.9 559.2 Z M 1096.8 555.5 C 1096.8 555.6 1096.8 555.6 1096.8 555.5 C 1096.8 555.5 1096.8 555.5 1096.8 555.5 Z M 1088.9 558.6 C 1089.4 558.0 1089.0 559.0 1088.9 558.6 C 1088.9 558.6 1088.9 558.6 1088.9 558.6 Z M 1090.9 558.6 C 1091.0 558.6 1091.0 558.6 1090.9 558.6 C 1090.9 558.6 1090.9 558.6 1090.9 558.6 Z M 1100.0 554.2 C 1100.1 554.2 1100.1 554.2 1100.0 554.2 C 1100.0 554.2 1100.0 554.2 1100.0 554.2 Z M 1096.2 560.0 C 1096.2 560.0 1096.2 560.0 1096.2 560.0 C 1096.2 560.0 1096.2 560.0 1096.2 560.0 Z M 1097.9 558.2 C 1097.9 558.3 1097.9 558.3 1097.9 558.2 C 1097.9 558.2 1097.9 558.2 1097.9 558.2 Z M 1092.5 555.1 C 1094.6 554.8 1092.0 555.8 1092.5 555.1 C 1092.5 555.1 1092.5 555.1 1092.5 555.1 Z M 1103.0 557.8 C 1103.0 557.9 1103.0 557.9 1103.0 557.8 C 1103.0 557.8 1103.0 557.8 1103.0 557.8 Z M 1104.0 555.7 C 1104.1 555.8 1104.1 555.8 1104.0 555.7 C 1104.0 555.7 1104.0 555.7 1104.0 555.7 Z M 1104.6 554.7 C 1104.6 554.8 1104.6 554.8 1104.6 554.7 C 1104.6 554.7 1104.6 554.7 1104.6 554.7 Z M 1079.5 557.6 C 1079.5 557.5 1079.5 557.5 1079.5 557.6 C 1079.5 557.6 1079.5 557.6 1079.5 557.6 Z M 1078.7 554.3 C 1078.7 554.3 1078.7 554.3 1078.7 554.3 C 1078.7 554.3 1078.7 554.3 1078.7 554.3 Z M 1081.5 554.1 C 1081.5 554.1 1081.5 554.1 1081.5 554.1 C 1081.5 554.1 1081.5 554.1 1081.5 554.1 Z M 1079.0 559.6 C 1079.0 559.5 1079.0 559.5 1079.0 559.6 C 1079.0 559.6 1079.0 559.6 1079.0 559.6 Z M 1089.5 556.8 C 1089.4 556.7 1089.4 556.7 1089.5 556.8 C 1089.5 556.8 1089.5 556.8 1089.5 556.8 Z M 1090.4 558.1 C 1090.4 558.0 1090.4 558.0 1090.4 558.1 C 1090.4 558.1 1090.4 558.1 1090.4 558.1 Z M 1088.0 559.9 C 1088.0 559.8 1088.0 559.8 1088.0 559.9 C 1088.0 559.9 1088.0 559.9 1088.0 559.9 Z M 1091.2 559.3 C 1091.2 559.2 1091.2 559.2 1091.2 559.3 C 1091.2 559.3 1091.2 559.3 1091.2 559.3 Z M 1072.0 559.0 C 1072.0 559.0 1072.0 559.0 1072.0 559.0 C 1072.0 559.0 1072.0 559.0 1072.0 559.0 Z M 1071.8 556.4 C 1071.8 556.5 1071.8 556.5 1071.8 556.4 C 1071.8 556.4 1071.8 556.4 1071.8 556.4 Z M 1089.8 555.0 C 1090.2 554.4 1090.7 555.7 1089.8 555.0 M 1085.8 555.3 C 1085.8 555.3 1085.8 555.3 1085.8 555.3 C 1085.8 555.3 1085.8 555.3 1085.8 555.3 Z M 1096.5 555.0 C 1097.0 556.0 1094.6 554.5 1096.5 555.0 C 1096.5 555.0 1096.5 555.0 1096.5 555.0 Z M 1094.4 559.3 C 1094.4 559.3 1094.4 559.3 1094.4 559.3 C 1094.4 559.3 1094.4 559.3 1094.4 559.3 Z M 1095.4 558.8 C 1095.5 558.9 1095.5 558.9 1095.4 558.8 C 1095.4 558.8 1095.4 558.8 1095.4 558.8 Z M 1101.1 556.1 C 1101.2 556.2 1101.2 556.2 1101.1 556.1 M 1085.3 554.4 C 1085.9 554.8 1085.8 554.7 1085.3 554.4 M 1097.8 555.1 C 1097.7 555.1 1097.7 555.1 1097.8 555.1 C 1097.8 555.1 1097.8 555.1 1097.8 555.1 Z M 1102.4 555.6 C 1102.4 555.6 1102.4 555.6 1102.4 555.6 C 1102.4 555.6 1102.4 555.6 1102.4 555.6 Z M 1082.5 555.1 C 1082.6 556.3 1082.0 556.0 1082.5 555.1 M 1074.6 555.4 C 1074.6 555.5 1074.6 555.5 1074.6 555.4 C 1074.6 555.4 1074.6 555.4 1074.6 555.4 Z M 1108.7 554.7 C 1106.6 553.3 1106.5 555.2 1106.6 555.3 C 1106.8 552.7 1104.6 556.3 1105.1 556.8 C 1105.0 557.1 1106.7 561.6 1108.2 558.9 C 1108.6 558.6 1108.8 559.3 1109.1 559.4 C 1111.7 559.3 1107.3 558.0 1110.5 558.0 C 1111.1 558.4 1110.4 560.5 1112.3 559.0 C 1112.4 559.2 1114.5 560.0 1113.7 559.0 C 1114.8 560.0 1115.4 558.9 1116.4 558.6 C 1117.2 559.2 1115.7 560.2 1118.8 559.0 C 1120.1 560.7 1120.6 557.7 1121.8 559.6 C 1122.5 559.7 1123.7 556.5 1121.9 558.3 C 1122.2 558.1 1121.0 556.6 1123.5 557.1 C 1123.1 557.5 1121.8 560.8 1125.6 559.2 C 1126.3 559.3 1127.7 558.5 1128.1 558.8 C 1126.1 559.2 1130.8 560.2 1130.3 559.3 C 1133.4 559.9 1131.6 558.5 1133.8 559.5 C 1135.7 559.6 1133.2 558.1 1135.5 558.9 C 1137.2 558.8 1136.0 559.6 1135.9 559.5 C 1137.3 559.7 1137.9 559.1 1138.4 559.1 C 1138.7 559.3 1139.4 560.0 1139.8 559.2 C 1141.3 557.7 1139.9 556.2 1140.6 554.8 C 1139.4 554.1 1140.1 555.9 1139.3 554.8 C 1138.7 555.7 1139.2 554.7 1136.1 554.9 C 1136.2 555.1 1136.9 555.8 1136.2 555.9 C 1135.0 555.8 1135.8 553.3 1133.8 555.0 C 1136.2 555.6 1130.5 555.8 1132.7 556.3 C 1130.0 556.6 1131.9 556.1 1129.9 555.6 C 1130.0 557.2 1129.8 553.8 1129.0 555.1 C 1128.8 554.4 1125.7 554.7 1128.0 555.7 C 1124.7 556.2 1126.8 555.2 1125.6 554.4 C 1124.1 554.2 1125.5 557.1 1124.6 555.0 C 1122.6 554.1 1124.5 556.0 1123.1 554.4 C 1123.7 555.8 1121.6 554.4 1122.2 556.0 C 1118.9 556.1 1122.6 554.3 1120.3 555.4 C 1121.0 555.4 1120.7 553.4 1119.3 554.7 C 1119.9 557.2 1117.4 552.5 1118.4 555.8 C 1113.8 556.7 1117.7 554.4 1115.1 554.4 C 1114.5 554.4 1115.8 555.5 1115.2 555.5 C 1111.9 555.1 1114.7 554.2 1113.0 555.8 C 1109.7 556.2 1112.0 554.4 1110.4 554.3 C 1110.3 555.1 1109.0 556.4 1108.7 554.7 M 1111.6 555.5 C 1112.3 555.0 1112.0 556.0 1111.6 555.5 M 1105.1 554.7 C 1105.8 554.2 1105.5 555.2 1105.1 554.7 M 1114.3 555.0 C 1115.2 554.5 1114.6 555.8 1114.3 555.0 M 1131.7 555.8 C 1130.5 555.8 1132.3 555.4 1131.7 555.8 M 1107.7 554.6 C 1108.6 554.0 1107.9 555.5 1107.7 554.6 M 1106.5 555.9 C 1106.6 555.9 1106.6 555.9 1106.5 555.9 M 1133.5 554.5 C 1133.5 554.5 1133.5 554.5 1133.5 554.5 M 1128.8 554.4 C 1129.8 554.5 1128.2 554.8 1128.8 554.4 M 1128.6 559.8 C 1129.6 559.8 1128.0 560.1 1128.6 559.8 M 1136.0 554.4 C 1137.0 554.0 1136.3 555.0 1136.0 554.4 M 1138.6 555.6 C 1139.5 555.1 1139.2 556.1 1138.6 555.6 M 1111.0 557.3 C 1111.0 557.4 1111.0 557.4 1111.0 557.3 C 1111.0 557.3 1111.0 557.3 1111.0 557.3 Z M 1119.6 558.7 C 1118.6 558.1 1120.8 559.3 1119.6 558.7 M 1118.0 555.2 C 1118.7 556.3 1116.7 555.1 1118.0 555.2 C 1118.0 555.2 1118.0 555.2 1118.0 555.2 Z M 1116.5 555.6 C 1116.5 555.7 1116.5 555.7 1116.5 555.6 C 1116.5 555.6 1116.5 555.6 1116.5 555.6 Z M 1121.4 555.7 C 1121.3 555.7 1121.3 555.7 1121.4 555.7 C 1121.4 555.7 1121.4 555.7 1121.4 555.7 Z M 1120.4 555.8 C 1120.0 556.0 1119.8 555.6 1120.4 555.8 C 1120.4 555.8 1120.4 555.8 1120.4 555.8 Z M 1127.4 559.3 C 1127.0 559.5 1126.9 559.0 1127.4 559.3 C 1127.4 559.3 1127.4 559.3 1127.4 559.3 Z M 1118.8 556.2 C 1118.7 557.3 1118.1 555.5 1118.8 556.2 C 1118.8 556.2 1118.8 556.2 1118.8 556.2 Z M 1124.0 558.8 C 1124.5 558.5 1124.9 559.8 1124.0 558.8 M 1134.4 554.7 C 1134.9 554.4 1135.4 555.7 1134.4 554.7 M 1124.2 554.3 C 1124.6 554.1 1125.1 555.4 1124.2 554.3 M 1112.1 555.0 C 1112.3 555.1 1112.3 555.1 1112.1 555.0 M 1117.8 559.7 C 1118.5 559.3 1118.2 560.2 1117.8 559.7 M 1108.2 559.4 C 1108.9 558.9 1108.5 559.9 1108.2 559.4 M 1133.0 559.7 C 1133.0 559.4 1134.0 559.8 1133.0 559.7 M 1125.4 556.1 C 1126.3 556.2 1127.2 556.8 1125.3 556.7 C 1125.2 556.5 1125.8 556.3 1125.4 556.1 C 1125.4 556.1 1125.4 556.1 1125.4 556.1 Z M 1128.6 558.6 C 1128.8 558.7 1128.8 558.7 1128.6 558.6 M 1127.0 555.1 C 1127.1 555.2 1127.1 555.2 1127.0 555.1 M 1132.2 555.2 C 1132.4 555.3 1132.4 555.3 1132.2 555.2 M 1132.9 554.9 C 1132.9 554.9 1132.9 554.9 1132.9 554.9 C 1132.9 554.9 1132.9 554.9 1132.9 554.9 Z M 1138.7 554.4 C 1138.6 554.5 1138.6 554.5 1138.7 554.4 C 1138.7 554.4 1138.7 554.4 1138.7 554.4 Z M 1130.6 555.3 C 1130.6 555.4 1130.6 555.4 1130.6 555.3 C 1130.6 555.3 1130.6 555.3 1130.6 555.3 Z M 1135.3 559.5 C 1135.3 559.5 1135.3 559.5 1135.3 559.5 C 1135.3 559.5 1135.3 559.5 1135.3 559.5 Z M 1134.7 558.8 C 1134.7 558.9 1134.7 558.9 1134.7 558.8 C 1134.7 558.8 1134.7 558.8 1134.7 558.8 Z M 1109.2 554.7 C 1110.0 553.9 1109.6 556.6 1109.2 554.7 M 1137.3 558.8 C 1138.0 559.6 1135.9 559.0 1137.3 558.8 C 1137.3 558.8 1137.3 558.8 1137.3 558.8 Z M 1129.9 556.2 C 1130.0 556.4 1130.0 556.4 1129.9 556.2 M 1133.2 555.0 C 1133.3 555.1 1133.3 555.1 1133.2 555.0 M 1118.0 554.2 C 1118.0 554.3 1118.0 554.3 1118.0 554.2 M 1137.3 555.2 C 1139.7 555.5 1136.2 556.7 1137.3 555.2 M 1116.8 555.2 C 1116.8 555.1 1116.8 555.1 1116.8 555.2 M 1122.4 557.2 C 1124.0 557.2 1121.8 557.8 1122.4 557.2 M 1126.5 555.9 C 1126.5 555.9 1126.5 555.9 1126.5 555.9 C 1126.5 555.9 1126.5 555.9 1126.5 555.9 Z M 1124.1 555.9 C 1122.9 556.0 1123.8 555.6 1124.1 555.9 C 1124.1 555.9 1124.1 555.9 1124.1 555.9 Z M 1110.3 555.7 C 1111.9 555.8 1108.7 556.1 1110.3 555.7 C 1110.3 555.7 1110.3 555.7 1110.3 555.7 Z M 1136.2 557.7 C 1136.1 557.8 1136.1 557.8 1136.2 557.7 C 1136.2 557.7 1136.2 557.7 1136.2 557.7 Z M 1130.3 554.6 C 1129.6 554.8 1129.9 554.2 1130.3 554.6 C 1130.3 554.6 1130.3 554.6 1130.3 554.6 Z M 1139.5 554.4 C 1138.8 554.7 1139.2 554.1 1139.5 554.4 C 1139.5 554.4 1139.5 554.4 1139.5 554.4 Z M 1108.5 555.5 C 1114.1 557.3 1100.9 555.0 1108.5 555.5 C 1108.5 555.5 1108.5 555.5 1108.5 555.5 Z M 1125.1 555.1 C 1125.0 555.2 1125.0 555.2 1125.1 555.1 C 1125.1 555.1 1125.1 555.1 1125.1 555.1 Z M 1114.6 554.4 C 1114.6 554.4 1114.6 554.4 1114.6 554.4 C 1114.6 554.4 1114.6 554.4 1114.6 554.4 Z M 1112.8 555.4 C 1112.8 555.4 1112.8 555.4 1112.8 555.4 C 1112.8 555.4 1112.8 555.4 1112.8 555.4 Z M 1113.3 559.6 C 1113.3 559.7 1113.3 559.7 1113.3 559.6 C 1113.3 559.6 1113.3 559.6 1113.3 559.6 Z M 1113.9 557.7 C 1113.8 557.8 1113.8 557.8 1113.9 557.7 C 1113.9 557.7 1113.9 557.7 1113.9 557.7 Z M 1110.3 558.4 C 1110.2 558.5 1110.2 558.5 1110.3 558.4 C 1110.3 558.4 1110.3 558.4 1110.3 558.4 Z M 1110.3 559.0 C 1110.3 559.0 1110.3 559.0 1110.3 559.0 C 1110.3 559.0 1110.3 559.0 1110.3 559.0 Z M 1133.2 556.2 C 1133.2 556.3 1133.2 556.3 1133.2 556.2 C 1133.2 556.2 1133.2 556.2 1133.2 556.2 Z M 1131.3 558.0 C 1132.6 557.3 1130.9 558.9 1131.3 558.0 C 1131.3 558.0 1131.3 558.0 1131.3 558.0 Z M 1119.6 557.1 C 1120.8 556.9 1118.8 557.6 1119.6 557.1 C 1119.6 557.1 1119.6 557.1 1119.6 557.1 Z M 1120.9 559.4 C 1120.9 559.4 1120.9 559.4 1120.9 559.4 C 1120.9 559.4 1120.9 559.4 1120.9 559.4 Z M 1112.8 554.3 C 1112.8 554.4 1112.8 554.4 1112.8 554.3 C 1112.8 554.3 1112.8 554.3 1112.8 554.3 Z M 1110.6 555.1 C 1110.5 556.0 1109.9 554.6 1110.6 555.1 M 1121.8 554.5 C 1121.8 554.6 1121.8 554.6 1121.8 554.5 C 1121.8 554.5 1121.8 554.5 1121.8 554.5 Z M 1128.9 555.9 C 1128.9 556.0 1128.9 556.0 1128.9 555.9 C 1128.9 555.9 1128.9 555.9 1128.9 555.9 Z M 1136.0 555.4 C 1136.0 555.5 1136.0 555.5 1136.0 555.4 C 1136.0 555.4 1136.0 555.4 1136.0 555.4 Z M 1126.2 554.7 C 1126.2 554.8 1126.2 554.8 1126.2 554.7 C 1126.2 554.7 1126.2 554.7 1126.2 554.7 Z M 1122.9 555.5 C 1122.9 555.6 1122.9 555.6 1122.9 555.5 C 1122.9 555.5 1122.9 555.5 1122.9 555.5 Z M 1137.5 556.6 C 1137.5 556.7 1137.5 556.7 1137.5 556.6 C 1137.5 556.6 1137.5 556.6 1137.5 556.6 Z M 1127.0 554.5 C 1127.0 554.6 1127.0 554.6 1127.0 554.5 C 1127.0 554.5 1127.0 554.5 1127.0 554.5 Z M 1129.1 557.4 C 1129.0 557.5 1129.0 557.5 1129.1 557.4 C 1129.1 557.4 1129.1 557.4 1129.1 557.4 Z M 1110.9 553.8 C 1110.9 553.8 1110.9 553.8 1110.9 553.8 C 1110.9 553.8 1110.9 553.8 1110.9 553.8 Z M 1137.6 555.4 C 1137.6 555.5 1137.6 555.5 1137.6 555.4 C 1137.6 555.4 1137.6 555.4 1137.6 555.4 Z M 1138.0 554.6 C 1138.0 554.7 1138.0 554.7 1138.0 554.6 C 1138.0 554.6 1138.0 554.6 1138.0 554.6 Z M 1133.0 558.9 C 1130.6 558.4 1135.3 558.7 1133.5 557.7 C 1137.0 557.5 1133.6 558.9 1133.0 558.9 C 1133.0 558.9 1133.0 558.9 1133.0 558.9 Z M 1141.4 554.3 C 1140.0 555.5 1140.0 556.7 1140.6 557.9 C 1141.3 558.6 1141.3 556.1 1141.3 558.2 C 1139.7 558.6 1142.0 561.3 1141.9 558.6 C 1144.0 558.3 1142.3 560.3 1143.5 559.3 C 1145.8 559.0 1144.6 559.8 1146.3 559.6 C 1147.3 558.2 1147.3 560.3 1147.8 559.0 C 1146.9 560.5 1149.6 558.6 1149.7 559.2 C 1148.1 560.1 1155.6 559.2 1151.5 558.8 C 1153.2 558.1 1152.9 559.3 1153.4 559.5 C 1154.1 558.7 1156.2 560.2 1157.2 559.4 C 1157.0 559.2 1156.5 559.1 1156.3 558.8 C 1156.0 558.2 1157.5 558.9 1157.3 558.9 C 1158.0 558.6 1160.7 557.7 1157.8 559.2 C 1157.7 559.9 1160.1 558.9 1160.1 559.5 C 1162.6 559.6 1160.7 558.1 1161.8 559.2 C 1163.6 559.2 1164.8 559.2 1164.8 559.0 C 1165.9 559.2 1166.1 560.0 1167.1 559.2 C 1169.3 560.8 1168.6 556.2 1169.5 559.3 C 1170.1 558.6 1170.7 560.6 1170.6 558.7 C 1169.8 559.5 1174.3 560.2 1172.4 558.8 C 1172.9 558.3 1175.7 560.7 1175.3 558.8 C 1176.3 557.4 1176.1 556.0 1173.9 554.6 C 1174.2 555.7 1171.6 553.5 1173.3 555.4 C 1175.1 556.0 1169.8 556.0 1170.9 555.3 C 1171.2 553.1 1168.4 556.8 1167.2 555.1 C 1168.2 556.0 1163.8 556.5 1165.1 554.8 C 1164.3 554.7 1164.1 555.5 1163.2 554.5 C 1165.8 554.6 1162.2 556.3 1162.4 555.2 C 1162.8 554.6 1159.0 554.1 1159.4 555.0 C 1160.7 557.4 1158.4 554.5 1157.7 555.5 C 1155.6 556.0 1158.0 553.5 1156.4 555.2 C 1156.0 554.9 1153.2 554.9 1155.0 554.4 C 1155.7 554.6 1153.3 557.0 1153.0 555.0 C 1156.0 553.9 1149.5 554.4 1150.5 555.0 C 1155.2 556.1 1145.6 556.2 1149.2 555.1 C 1147.2 554.0 1149.9 554.7 1147.3 555.2 C 1147.6 555.8 1145.6 556.4 1146.1 555.1 C 1145.7 553.2 1145.4 557.7 1143.8 555.1 C 1143.6 554.0 1140.7 555.9 1141.8 554.7 C 1141.9 554.5 1141.5 554.3 1141.4 554.3 M 1142.3 554.5 C 1142.0 554.9 1141.7 554.0 1142.3 554.5 M 1141.9 554.9 C 1141.9 554.9 1141.9 554.9 1141.9 554.9 C 1141.9 554.9 1141.9 554.9 1141.9 554.9 Z M 1146.9 555.2 C 1146.9 555.2 1146.9 555.2 1146.9 555.2 C 1146.9 555.2 1146.9 555.2 1146.9 555.2 Z M 1150.8 560.0 C 1150.8 559.9 1150.8 559.9 1150.8 560.0 C 1150.8 560.0 1150.8 560.0 1150.8 560.0 Z M 1150.2 555.3 C 1150.2 555.3 1150.2 555.3 1150.2 555.3 C 1150.2 555.3 1150.2 555.3 1150.2 555.3 Z M 1145.1 555.5 C 1145.1 555.5 1145.1 555.5 1145.1 555.5 C 1145.1 555.5 1145.1 555.5 1145.1 555.5 Z M 1149.9 554.6 C 1150.2 555.4 1148.8 554.1 1150.0 554.5 C 1150.0 554.6 1149.8 554.6 1149.9 554.6 M 1154.2 554.4 C 1154.3 554.4 1154.3 554.4 1154.2 554.4 M 1163.8 559.9 C 1163.8 560.0 1163.8 560.0 1163.8 559.9 M 1164.6 554.3 C 1164.7 554.4 1164.7 554.4 1164.6 554.3 M 1158.5 555.1 C 1159.9 555.0 1158.9 555.4 1158.5 555.1 M 1168.1 554.7 C 1166.4 554.3 1169.8 554.3 1168.1 554.7 M 1169.7 554.3 C 1169.8 554.4 1169.8 554.4 1169.7 554.3 M 1162.2 554.6 C 1162.1 554.6 1162.1 554.6 1162.2 554.6 C 1162.2 554.6 1162.2 554.6 1162.2 554.6 Z M 1158.0 554.8 C 1156.3 554.4 1159.8 554.1 1158.0 554.8 M 1147.5 554.5 C 1148.4 554.2 1147.5 555.5 1147.5 554.5 M 1145.5 554.9 C 1145.5 555.0 1145.5 555.0 1145.5 554.9 C 1145.5 554.9 1145.5 554.9 1145.5 554.9 Z M 1165.4 554.7 C 1165.3 554.7 1165.3 554.7 1165.4 554.7 C 1165.4 554.7 1165.4 554.7 1165.4 554.7 Z M 1167.3 554.5 C 1167.2 554.6 1167.2 554.6 1167.3 554.5 C 1167.3 554.5 1167.3 554.5 1167.3 554.5 Z M 1170.5 559.8 C 1170.4 559.8 1170.4 559.8 1170.5 559.8 C 1170.5 559.8 1170.5 559.8 1170.5 559.8 Z M 1147.0 557.1 C 1145.7 556.8 1148.3 555.4 1148.0 556.7 C 1148.2 557.2 1147.1 557.0 1147.0 557.1 M 1156.7 556.4 C 1157.1 558.2 1155.5 554.0 1156.7 556.4 M 1169.9 555.5 C 1171.2 557.6 1168.3 554.0 1169.9 555.5 M 1172.5 555.1 C 1173.3 555.5 1167.7 555.3 1171.6 554.8 C 1172.0 554.4 1172.3 554.9 1172.5 555.1 M 1154.3 555.2 C 1154.7 556.2 1152.3 554.8 1154.3 555.2 M 1162.3 558.2 C 1162.9 557.5 1164.5 557.0 1163.8 558.1 C 1163.8 559.4 1161.5 558.7 1162.3 558.2 M 1142.7 555.5 C 1143.8 554.0 1142.7 556.9 1142.7 555.5 M 1147.7 555.7 C 1147.8 555.6 1147.8 555.6 1147.7 555.7 C 1147.7 555.7 1147.7 555.7 1147.7 555.7 Z M 1149.7 555.4 C 1149.8 555.5 1149.8 555.5 1149.7 555.4 M 1143.5 554.1 C 1143.6 554.3 1143.6 554.3 1143.5 554.1 M 1162.2 556.5 C 1162.3 556.7 1162.3 556.7 1162.2 556.5 M 1158.2 555.5 C 1160.1 557.1 1157.1 555.8 1158.2 555.5 M 1153.4 558.5 C 1154.0 559.2 1152.2 558.5 1153.4 558.5 M 1161.4 554.9 C 1162.7 556.4 1159.5 556.3 1161.4 554.9 M 1157.2 555.3 C 1157.3 555.3 1157.3 555.3 1157.2 555.3 C 1157.2 555.3 1157.2 555.3 1157.2 555.3 Z M 1162.8 558.3 C 1162.7 558.4 1162.7 558.4 1162.8 558.3 C 1162.8 558.3 1162.8 558.3 1162.8 558.3 Z M 1163.4 558.3 C 1163.3 558.3 1163.3 558.3 1163.4 558.3 C 1163.4 558.3 1163.4 558.3 1163.4 558.3 Z M 1163.0 554.7 C 1163.0 554.8 1163.0 554.8 1163.0 554.7 C 1163.0 554.7 1163.0 554.7 1163.0 554.7 Z M 1145.4 559.0 C 1146.8 559.1 1144.3 559.2 1145.4 559.0 C 1145.4 559.0 1145.4 559.0 1145.4 559.0 Z M 1151.5 554.7 C 1153.8 555.8 1149.9 555.8 1151.5 554.7 C 1151.5 554.7 1151.5 554.7 1151.5 554.7 Z M 1154.1 556.6 C 1154.1 556.7 1154.1 556.7 1154.1 556.6 C 1154.1 556.6 1154.1 556.6 1154.1 556.6 Z M 1160.5 554.0 C 1160.5 554.1 1160.5 554.1 1160.5 554.0 C 1160.5 554.0 1160.5 554.0 1160.5 554.0 Z M 1146.1 559.2 C 1146.1 559.3 1146.1 559.3 1146.1 559.2 C 1146.1 559.2 1146.1 559.2 1146.1 559.2 Z M 1167.0 555.5 C 1167.0 555.6 1167.0 555.6 1167.0 555.5 C 1167.0 555.5 1167.0 555.5 1167.0 555.5 Z M 1159.1 558.6 C 1159.6 558.0 1159.2 559.0 1159.1 558.6 C 1159.1 558.6 1159.1 558.6 1159.1 558.6 Z M 1161.1 558.6 C 1161.2 558.6 1161.2 558.6 1161.1 558.6 C 1161.1 558.6 1161.1 558.6 1161.1 558.6 Z M 1170.2 554.2 C 1170.2 554.2 1170.2 554.2 1170.2 554.2 C 1170.2 554.2 1170.2 554.2 1170.2 554.2 Z M 1166.3 560.0 C 1166.4 560.0 1166.4 560.0 1166.3 560.0 C 1166.3 560.0 1166.3 560.0 1166.3 560.0 Z M 1168.1 558.2 C 1168.0 558.3 1168.0 558.3 1168.1 558.2 C 1168.1 558.2 1168.1 558.2 1168.1 558.2 Z M 1162.7 555.1 C 1164.7 554.8 1162.2 555.8 1162.7 555.1 C 1162.7 555.1 1162.7 555.1 1162.7 555.1 Z M 1173.1 557.8 C 1173.2 557.9 1173.2 557.9 1173.1 557.8 C 1173.1 557.8 1173.1 557.8 1173.1 557.8 Z M 1174.2 555.7 C 1174.2 555.8 1174.2 555.8 1174.2 555.7 C 1174.2 555.7 1174.2 555.7 1174.2 555.7 Z M 1174.7 554.7 C 1174.8 554.8 1174.8 554.8 1174.7 554.7 C 1174.7 554.7 1174.7 554.7 1174.7 554.7 Z M 1149.7 557.6 C 1149.6 557.5 1149.6 557.5 1149.7 557.6 C 1149.7 557.6 1149.7 557.6 1149.7 557.6 Z M 1148.9 554.3 C 1148.9 554.3 1148.9 554.3 1148.9 554.3 C 1148.9 554.3 1148.9 554.3 1148.9 554.3 Z M 1151.7 554.1 C 1151.6 554.1 1151.6 554.1 1151.7 554.1 C 1151.7 554.1 1151.7 554.1 1151.7 554.1 Z M 1149.2 559.6 C 1149.2 559.5 1149.2 559.5 1149.2 559.6 C 1149.2 559.6 1149.2 559.6 1149.2 559.6 Z M 1159.6 556.8 C 1159.6 556.7 1159.6 556.7 1159.6 556.8 C 1159.6 556.8 1159.6 556.8 1159.6 556.8 Z M 1160.6 558.1 C 1160.5 558.0 1160.5 558.0 1160.6 558.1 C 1160.6 558.1 1160.6 558.1 1160.6 558.1 Z M 1158.2 559.9 C 1158.2 559.8 1158.2 559.8 1158.2 559.9 C 1158.2 559.9 1158.2 559.9 1158.2 559.9 Z M 1161.4 559.3 C 1161.3 559.2 1161.3 559.2 1161.4 559.3 C 1161.4 559.3 1161.4 559.3 1161.4 559.3 Z M 1142.2 559.0 C 1142.2 559.0 1142.2 559.0 1142.2 559.0 C 1142.2 559.0 1142.2 559.0 1142.2 559.0 Z M 1142.0 556.4 C 1141.9 556.5 1141.9 556.5 1142.0 556.4 C 1142.0 556.4 1142.0 556.4 1142.0 556.4 Z M 1159.9 555.0 C 1160.4 554.4 1160.9 555.7 1159.9 555.0 M 1156.0 555.3 C 1155.9 555.3 1155.9 555.3 1156.0 555.3 C 1156.0 555.3 1156.0 555.3 1156.0 555.3 Z M 1166.6 555.0 C 1167.1 556.0 1164.7 554.5 1166.6 555.0 C 1166.6 555.0 1166.6 555.0 1166.6 555.0 Z M 1164.5 559.3 C 1164.5 559.3 1164.5 559.3 1164.5 559.3 C 1164.5 559.3 1164.5 559.3 1164.5 559.3 Z M 1165.6 558.8 C 1165.6 558.9 1165.6 558.9 1165.6 558.8 C 1165.6 558.8 1165.6 558.8 1165.6 558.8 Z M 1171.3 556.1 C 1171.4 556.2 1171.4 556.2 1171.3 556.1 M 1155.5 554.4 C 1156.0 554.8 1155.9 554.7 1155.5 554.4 M 1168.0 555.1 C 1167.9 555.1 1167.9 555.1 1168.0 555.1 C 1168.0 555.1 1168.0 555.1 1168.0 555.1 Z M 1172.6 555.6 C 1172.5 555.6 1172.5 555.6 1172.6 555.6 C 1172.6 555.6 1172.6 555.6 1172.6 555.6 Z M 1152.6 555.1 C 1152.7 556.3 1152.2 556.0 1152.6 555.1 M 1144.7 555.4 C 1144.7 555.5 1144.7 555.5 1144.7 555.4 C 1144.7 555.4 1144.7 555.4 1144.7 555.4 Z M 1144.7 555.4 " fill="#EB5C56"></path><text xml:space="preserve" font-family="Helvetica-Light" font-size="40.0" fill="#A6AAA8" transform="matrix(1.00, 0.00, -0.00, -1.00, 563.0, 304.0)">L</text><text xml:space="preserve" font-family="Helvetica-Light" font-size="40.0" fill="#A6AAA8" transform="matrix(1.00, 0.00, -0.00, -1.00, 585.2, 304.0)">e</text><text xml:space="preserve" font-family="Helvetica-Light" font-size="40.0" fill="#A6AAA8" transform="matrix(1.00, 0.00, -0.00, -1.00, 607.5, 304.0)">v</text><text xml:space="preserve" font-family="Helvetica-Light" font-size="40.0" fill="#A6AAA8" transform="matrix(1.00, 0.00, -0.00, -1.00, 627.5, 304.0)">e</text><text xml:space="preserve" font-family="Helvetica-Light" font-size="40.0" fill="#A6AAA8" transform="matrix(1.00, 0.00, -0.00, -1.00, 649.7, 304.0)">n</text><text xml:space="preserve" font-family="Helvetica-Light" font-size="40.0" fill="#A6AAA8" transform="matrix(1.00, 0.00, -0.00, -1.00, 672.0, 304.0)">s</text><text xml:space="preserve" font-family="Helvetica-Light" font-size="40.0" fill="#A6AAA8" transform="matrix(1.00, 0.00, -0.00, -1.00, 692.0, 304.0)">h</text><text xml:space="preserve" font-family="Helvetica-Light" font-size="40.0" fill="#A6AAA8" transform="matrix(1.00, 0.00, -0.00, -1.00, 714.2, 304.0)">t</text><text xml:space="preserve" font-family="Helvetica-Light" font-size="40.0" fill="#A6AAA8" transform="matrix(1.00, 0.00, -0.00, -1.00, 725.3, 304.0)">e</text><text xml:space="preserve" font-family="Helvetica-Light" font-size="40.0" fill="#A6AAA8" transform="matrix(1.00, 0.00, -0.00, -1.00, 747.6, 304.0)">i</text><text xml:space="preserve" font-family="Helvetica-Light" font-size="40.0" fill="#A6AAA8" transform="matrix(1.00, 0.00, -0.00, -1.00, 756.4, 304.0)">n</text><text xml:space="preserve" font-family="Helvetica-Light" font-size="40.0" fill="#A6AAA8" transform="matrix(1.00, 0.00, -0.00, -1.00, 778.7, 304.0)"> </text><text xml:space="preserve" font-family="Helvetica-Light" font-size="40.0" fill="#A6AAA8" transform="matrix(1.00, 0.00, -0.00, -1.00, 789.8, 304.0)">d</text><text xml:space="preserve" font-family="Helvetica-Light" font-size="40.0" fill="#A6AAA8" transform="matrix(1.00, 0.00, -0.00, -1.00, 814.2, 304.0)">i</text><text xml:space="preserve" font-family="Helvetica-Light" font-size="40.0" fill="#A6AAA8" transform="matrix(1.00, 0.00, -0.00, -1.00, 823.1, 304.0)">s</text><text xml:space="preserve" font-family="Helvetica-Light" font-size="40.0" fill="#A6AAA8" transform="matrix(1.00, 0.00, -0.00, -1.00, 843.1, 304.0)">t</text><text xml:space="preserve" font-family="Helvetica-Light" font-size="40.0" fill="#A6AAA8" transform="matrix(1.00, 0.00, -0.00, -1.00, 854.2, 304.0)">a</text><text xml:space="preserve" font-family="Helvetica-Light" font-size="40.0" fill="#A6AAA8" transform="matrix(1.00, 0.00, -0.00, -1.00, 876.5, 304.0)">n</text><text xml:space="preserve" font-family="Helvetica-Light" font-size="40.0" fill="#A6AAA8" transform="matrix(1.00, 0.00, -0.00, -1.00, 898.7, 304.0)">c</text><text xml:space="preserve" font-family="Helvetica-Light" font-size="40.0" fill="#A6AAA8" transform="matrix(1.00, 0.00, -0.00, -1.00, 921.0, 304.0)">e</text><text xml:space="preserve" font-family="Helvetica-Light" font-size="43.0" fill="#A6AAA8" transform="matrix(1.00, 0.00, -0.00, -1.00, 712.0, 363.0)">+</text></g></svg>