<?xml version="1.0" encoding="UTF-8" standalone="no"?><svg xmlns="http://www.w3.org/2000/svg" xmlns:xlink="http://www.w3.org/1999/xlink" clip-rule="evenodd" stroke-miterlimit="4.00" viewBox="0 0 1920 1080"><desc>SVG generated by Keynote</desc><defs><linearGradient id="gradSh1.0" x1="0.0" y1="0.0" x2="100.0" y2="0.0" gradientUnits="userSpaceOnUse" gradientTransform="matrix(0.00, -10.82, -19.22, 0.00, 960.0, 1081.0)"><stop offset="0.00000" stop-color="#FEFEFE"></stop><stop offset="0.63270" stop-color="#FFFFFF"></stop><stop offset="1.00000" stop-color="#FFFFFF"></stop></linearGradient></defs><g transform="matrix(1.00, 0.00, -0.00, -1.00, 0.0, 1080.0)"><g><clipPath id="clip-0"><path d="M 0.0 1080.0 L 1920.0 1080.0 L 1920.0 0.0 L 0.0 0.0 Z M 0.0 1080.0 "></path></clipPath><g clip-path="url(#clip-0)"><path d="M 0.0 1080.0 L 1920.0 1080.0 L 1920.0 0.0 L 0.0 0.0 Z M 0.0 1080.0 " fill="url(#gradSh1.0)"></path></g></g><g opacity="0.10"><g><clipPath id="clip-1"><path d="M 130.0 605.0 L 666.0 605.0 L 666.0 1038.0 L 130.0 1038.0 Z M 130.0 605.0 "></path></clipPath><g clip-path="url(#clip-1)"><image xlink:href="2211F9750278E6229A13AD121393DB58.png" width="534.00" height="431.00" transform="matrix(1.00, 0.00, -0.00, -1.00, 131.0, 1037.0)"></image></g></g></g><g opacity="0.37"><g><clipPath id="clip-2"><path d="M 587.0 157.0 L 903.0 157.0 L 903.0 413.0 L 587.0 413.0 Z M 587.0 157.0 "></path></clipPath><g clip-path="url(#clip-2)"><image xlink:href="../../49B0041F-D2B6-45AE-B257-4A439451C92F/assets/2211F9750278E6229A13AD121393DB58.png" width="534.00" height="431.00" transform="matrix(0.59, 0.00, -0.00, -0.58, 588.0, 411.0)"></image></g></g></g><g opacity="0.11"><g><clipPath id="clip-3"><path d="M 243.0 387.0 L 425.0 387.0 L 425.0 534.0 L 243.0 534.0 Z M 243.0 387.0 "></path></clipPath><g clip-path="url(#clip-3)"><image xlink:href="../../49B0041F-D2B6-45AE-B257-4A439451C92F/assets/2211F9750278E6229A13AD121393DB58.png" width="534.00" height="431.00" transform="matrix(0.34, 0.00, -0.00, -0.34, 244.0, 533.0)"></image></g></g></g><g opacity="0.75"><g><clipPath id="clip-4"><path d="M 1073.0 647.0 L 1294.0 647.0 L 1294.0 827.0 L 1073.0 827.0 Z M 1073.0 647.0 "></path></clipPath><g clip-path="url(#clip-4)"><image xlink:href="../../49B0041F-D2B6-45AE-B257-4A439451C92F/assets/2211F9750278E6229A13AD121393DB58.png" width="534.00" height="431.00" transform="matrix(0.41, 0.00, -0.00, -0.41, 1074.0, 825.0)"></image></g></g></g><text xml:space="preserve" font-family="Helvetica" font-size="145.0" fill="#164E86" transform="matrix(1.00, 0.00, -0.00, -1.00, 351.0, 570.0)">K</text><text xml:space="preserve" font-family="Helvetica" font-size="145.0" fill="#164E86" transform="matrix(1.00, 0.00, -0.00, -1.00, 447.7, 570.0)">n</text><text xml:space="preserve" font-family="Helvetica" font-size="145.0" fill="#164E86" transform="matrix(1.00, 0.00, -0.00, -1.00, 528.4, 570.0)">o</text><text xml:space="preserve" font-family="Helvetica" font-size="145.0" fill="#164E86" transform="matrix(1.00, 0.00, -0.00, -1.00, 609.1, 570.0)">w</text><text xml:space="preserve" font-family="Helvetica" font-size="145.0" fill="#164E86" transform="matrix(1.00, 0.00, -0.00, -1.00, 713.8, 570.0)">l</text><text xml:space="preserve" font-family="Helvetica" font-size="145.0" fill="#164E86" transform="matrix(1.00, 0.00, -0.00, -1.00, 746.0, 570.0)">e</text><text xml:space="preserve" font-family="Helvetica" font-size="145.0" fill="#164E86" transform="matrix(1.00, 0.00, -0.00, -1.00, 826.7, 570.0)">d</text><text xml:space="preserve" font-family="Helvetica" font-size="145.0" fill="#164E86" transform="matrix(1.00, 0.00, -0.00, -1.00, 907.4, 570.0)">g</text><text xml:space="preserve" font-family="Helvetica" font-size="145.0" fill="#164E86" transform="matrix(1.00, 0.00, -0.00, -1.00, 988.1, 570.0)">e</text><text xml:space="preserve" font-family="Helvetica" font-size="145.0" fill="#164E86" transform="matrix(1.00, 0.00, -0.00, -1.00, 1068.7, 570.0)"> </text><text xml:space="preserve" font-family="Helvetica" font-size="145.0" fill="#164E86" transform="matrix(1.00, 0.00, -0.00, -1.00, 1109.0, 570.0)">S</text><text xml:space="preserve" font-family="Helvetica" font-size="145.0" fill="#164E86" transform="matrix(1.00, 0.00, -0.00, -1.00, 1205.7, 570.0)">e</text><text xml:space="preserve" font-family="Helvetica" font-size="145.0" fill="#164E86" transform="matrix(1.00, 0.00, -0.00, -1.00, 1286.4, 570.0)">a</text><text xml:space="preserve" font-family="Helvetica" font-size="145.0" fill="#164E86" transform="matrix(1.00, 0.00, -0.00, -1.00, 1367.0, 570.0)">r</text><text xml:space="preserve" font-family="Helvetica" font-size="145.0" fill="#164E86" transform="matrix(1.00, 0.00, -0.00, -1.00, 1415.3, 570.0)">c</text><text xml:space="preserve" font-family="Helvetica" font-size="145.0" fill="#164E86" transform="matrix(1.00, 0.00, -0.00, -1.00, 1487.8, 570.0)">h</text><text xml:space="preserve" font-family="Helvetica-Light" font-size="40.0" fill="#A6AAA8" transform="matrix(1.00, 0.00, -0.00, -1.00, 488.0, 480.0)">a</text><text xml:space="preserve" font-family="Helvetica-Light" font-size="40.0" fill="#A6AAA8" transform="matrix(1.00, 0.00, -0.00, -1.00, 510.2, 480.0)"> </text><text xml:space="preserve" font-family="Helvetica-Light" font-size="40.0" fill="#A6AAA8" transform="matrix(1.00, 0.00, -0.00, -1.00, 521.4, 480.0)">g</text><text xml:space="preserve" font-family="Helvetica-Light" font-size="40.0" fill="#A6AAA8" transform="matrix(1.00, 0.00, -0.00, -1.00, 545.8, 480.0)">r</text><text xml:space="preserve" font-family="Helvetica-Light" font-size="40.0" fill="#A6AAA8" transform="matrix(1.00, 0.00, -0.00, -1.00, 559.1, 480.0)">a</text><text xml:space="preserve" font-family="Helvetica-Light" font-size="40.0" fill="#A6AAA8" transform="matrix(1.00, 0.00, -0.00, -1.00, 581.4, 480.0)">p</text><text xml:space="preserve" font-family="Helvetica-Light" font-size="40.0" fill="#A6AAA8" transform="matrix(1.00, 0.00, -0.00, -1.00, 605.8, 480.0)">h</text><text xml:space="preserve" font-family="Helvetica-Light" font-size="40.0" fill="#A6AAA8" transform="matrix(1.00, 0.00, -0.00, -1.00, 628.0, 480.0)">-</text><text xml:space="preserve" font-family="Helvetica-Light" font-size="40.0" fill="#A6AAA8" transform="matrix(1.00, 0.00, -0.00, -1.00, 641.4, 480.0)">b</text><text xml:space="preserve" font-family="Helvetica-Light" font-size="40.0" fill="#A6AAA8" transform="matrix(1.00, 0.00, -0.00, -1.00, 665.8, 480.0)">a</text><text xml:space="preserve" font-family="Helvetica-Light" font-size="40.0" fill="#A6AAA8" transform="matrix(1.00, 0.00, -0.00, -1.00, 688.0, 480.0)">s</text><text xml:space="preserve" font-family="Helvetica-Light" font-size="40.0" fill="#A6AAA8" transform="matrix(1.00, 0.00, -0.00, -1.00, 708.0, 480.0)">e</text><text xml:space="preserve" font-family="Helvetica-Light" font-size="40.0" fill="#A6AAA8" transform="matrix(1.00, 0.00, -0.00, -1.00, 730.3, 480.0)">d</text><text xml:space="preserve" font-family="Helvetica-Light" font-size="40.0" fill="#A6AAA8" transform="matrix(1.00, 0.00, -0.00, -1.00, 754.7, 480.0)"> </text><text xml:space="preserve" font-family="Helvetica-Light" font-size="40.0" fill="#A6AAA8" transform="matrix(1.00, 0.00, -0.00, -1.00, 765.8, 480.0)">s</text><text xml:space="preserve" font-family="Helvetica-Light" font-size="40.0" fill="#A6AAA8" transform="matrix(1.00, 0.00, -0.00, -1.00, 785.8, 480.0)">e</text><text xml:space="preserve" font-family="Helvetica-Light" font-size="40.0" fill="#A6AAA8" transform="matrix(1.00, 0.00, -0.00, -1.00, 808.1, 480.0)">a</text><text xml:space="preserve" font-family="Helvetica-Light" font-size="40.0" fill="#A6AAA8" transform="matrix(1.00, 0.00, -0.00, -1.00, 830.3, 480.0)">r</text><text xml:space="preserve" font-family="Helvetica-Light" font-size="40.0" fill="#A6AAA8" transform="matrix(1.00, 0.00, -0.00, -1.00, 842.9, 480.0)">c</text><text xml:space="preserve" font-family="Helvetica-Light" font-size="40.0" fill="#A6AAA8" transform="matrix(1.00, 0.00, -0.00, -1.00, 865.2, 480.0)">h</text><text xml:space="preserve" font-family="Helvetica-Light" font-size="40.0" fill="#A6AAA8" transform="matrix(1.00, 0.00, -0.00, -1.00, 887.4, 480.0)"> </text><text xml:space="preserve" font-family="Helvetica-Light" font-size="40.0" fill="#A6AAA8" transform="matrix(1.00, 0.00, -0.00, -1.00, 898.5, 480.0)">e</text><text xml:space="preserve" font-family="Helvetica-Light" font-size="40.0" fill="#A6AAA8" transform="matrix(1.00, 0.00, -0.00, -1.00, 920.8, 480.0)">n</text><text xml:space="preserve" font-family="Helvetica-Light" font-size="40.0" fill="#A6AAA8" transform="matrix(1.00, 0.00, -0.00, -1.00, 943.0, 480.0)">g</text><text xml:space="preserve" font-family="Helvetica-Light" font-size="40.0" fill="#A6AAA8" transform="matrix(1.00, 0.00, -0.00, -1.00, 967.4, 480.0)">i</text><text xml:space="preserve" font-family="Helvetica-Light" font-size="40.0" fill="#A6AAA8" transform="matrix(1.00, 0.00, -0.00, -1.00, 976.3, 480.0)">n</text><text xml:space="preserve" font-family="Helvetica-Light" font-size="40.0" fill="#A6AAA8" transform="matrix(1.00, 0.00, -0.00, -1.00, 998.6, 480.0)">e</text><text xml:space="preserve" font-family="Helvetica-Light" font-size="40.0" fill="#A6AAA8" transform="matrix(1.00, 0.00, -0.00, -1.00, 1020.8, 480.0)"> </text><text xml:space="preserve" font-family="Helvetica-Light" font-size="40.0" fill="#A6AAA8" transform="matrix(1.00, 0.00, -0.00, -1.00, 1031.9, 480.0)">p</text><text xml:space="preserve" font-family="Helvetica-Light" font-size="40.0" fill="#A6AAA8" transform="matrix(1.00, 0.00, -0.00, -1.00, 1056.4, 480.0)">o</text><text xml:space="preserve" font-family="Helvetica-Light" font-size="40.0" fill="#A6AAA8" transform="matrix(1.00, 0.00, -0.00, -1.00, 1078.6, 480.0)">w</text><text xml:space="preserve" font-family="Helvetica-Light" font-size="40.0" fill="#A6AAA8" transform="matrix(1.00, 0.00, -0.00, -1.00, 1107.5, 480.0)">e</text><text xml:space="preserve" font-family="Helvetica-Light" font-size="40.0" fill="#A6AAA8" transform="matrix(1.00, 0.00, -0.00, -1.00, 1129.7, 480.0)">r</text><text xml:space="preserve" font-family="Helvetica-Light" font-size="40.0" fill="#A6AAA8" transform="matrix(1.00, 0.00, -0.00, -1.00, 1142.3, 480.0)">e</text><text xml:space="preserve" font-family="Helvetica-Light" font-size="40.0" fill="#A6AAA8" transform="matrix(1.00, 0.00, -0.00, -1.00, 1164.6, 480.0)">d</text><text xml:space="preserve" font-family="Helvetica-Light" font-size="40.0" fill="#A6AAA8" transform="matrix(1.00, 0.00, -0.00, -1.00, 1189.0, 480.0)"> </text><text xml:space="preserve" font-family="Helvetica-Light" font-size="40.0" fill="#A6AAA8" transform="matrix(1.00, 0.00, -0.00, -1.00, 1200.1, 480.0)">b</text><text xml:space="preserve" font-family="Helvetica-Light" font-size="40.0" fill="#A6AAA8" transform="matrix(1.00, 0.00, -0.00, -1.00, 1224.6, 480.0)">y</text><text xml:space="preserve" font-family="Helvetica-Light" font-size="40.0" fill="#A6AAA8" transform="matrix(1.00, 0.00, -0.00, -1.00, 1244.6, 480.0)"> </text><text xml:space="preserve" font-family="Helvetica-Light" font-size="40.0" fill="#A6AAA8" transform="matrix(1.00, 0.00, -0.00, -1.00, 1255.7, 480.0)">W</text><text xml:space="preserve" font-family="Helvetica-Light" font-size="40.0" fill="#A6AAA8" transform="matrix(1.00, 0.00, -0.00, -1.00, 1291.2, 480.0)">i</text><text xml:space="preserve" font-family="Helvetica-Light" font-size="40.0" fill="#A6AAA8" transform="matrix(1.00, 0.00, -0.00, -1.00, 1300.1, 480.0)">k</text><text xml:space="preserve" font-family="Helvetica-Light" font-size="40.0" fill="#A6AAA8" transform="matrix(1.00, 0.00, -0.00, -1.00, 1320.1, 480.0)">i</text><text xml:space="preserve" font-family="Helvetica-Light" font-size="40.0" fill="#A6AAA8" transform="matrix(1.00, 0.00, -0.00, -1.00, 1329.0, 480.0)">p</text><text xml:space="preserve" font-family="Helvetica-Light" font-size="40.0" fill="#A6AAA8" transform="matrix(1.00, 0.00, -0.00, -1.00, 1353.4, 480.0)">e</text><text xml:space="preserve" font-family="Helvetica-Light" font-size="40.0" fill="#A6AAA8" transform="matrix(1.00, 0.00, -0.00, -1.00, 1375.7, 480.0)">d</text><text xml:space="preserve" font-family="Helvetica-Light" font-size="40.0" fill="#A6AAA8" transform="matrix(1.00, 0.00, -0.00, -1.00, 1400.1, 480.0)">i</text><text xml:space="preserve" font-family="Helvetica-Light" font-size="40.0" fill="#A6AAA8" transform="matrix(1.00, 0.00, -0.00, -1.00, 1409.0, 480.0)">a</text><text xml:space="preserve" font-family="Helvetica-Light" font-size="26.0" fill="#A6AAA8" transform="matrix(1.00, 0.00, -0.00, -1.00, 888.0, 372.0)">(</text><text xml:space="preserve" font-family="Helvetica-Light" font-size="26.0" fill="#A6AAA8" transform="matrix(1.00, 0.00, -0.00, -1.00, 896.7, 372.0)">M</text><text xml:space="preserve" font-family="Helvetica-Light" font-size="26.0" fill="#A6AAA8" transform="matrix(1.00, 0.00, -0.00, -1.00, 918.3, 372.0)">a</text><text xml:space="preserve" font-family="Helvetica-Light" font-size="26.0" fill="#A6AAA8" transform="matrix(1.00, 0.00, -0.00, -1.00, 932.8, 372.0)">r</text><text xml:space="preserve" font-family="Helvetica-Light" font-size="26.0" fill="#A6AAA8" transform="matrix(1.00, 0.00, -0.00, -1.00, 941.4, 372.0)">k</text><text xml:space="preserve" font-family="Helvetica-Light" font-size="26.0" fill="#A6AAA8" transform="matrix(1.00, 0.00, -0.00, -1.00, 954.4, 372.0)"> </text><text xml:space="preserve" font-family="Helvetica-Light" font-size="26.0" fill="#A6AAA8" transform="matrix(1.00, 0.00, -0.00, -1.00, 961.7, 372.0)">I</text><text xml:space="preserve" font-family="Helvetica-Light" font-size="26.0" fill="#A6AAA8" transform="matrix(1.00, 0.00, -0.00, -1.00, 968.9, 372.0)">b</text><text xml:space="preserve" font-family="Helvetica-Light" font-size="26.0" fill="#A6AAA8" transform="matrix(1.00, 0.00, -0.00, -1.00, 984.8, 372.0)">r</text><text xml:space="preserve" font-family="Helvetica-Light" font-size="26.0" fill="#A6AAA8" transform="matrix(1.00, 0.00, -0.00, -1.00, 993.4, 372.0)">a</text><text xml:space="preserve" font-family="Helvetica-Light" font-size="26.0" fill="#A6AAA8" transform="matrix(1.00, 0.00, -0.00, -1.00, 1007.9, 372.0)">h</text><text xml:space="preserve" font-family="Helvetica-Light" font-size="26.0" fill="#A6AAA8" transform="matrix(1.00, 0.00, -0.00, -1.00, 1022.3, 372.0)">i</text><text xml:space="preserve" font-family="Helvetica-Light" font-size="26.0" fill="#A6AAA8" transform="matrix(1.00, 0.00, -0.00, -1.00, 1028.1, 372.0)">m</text><text xml:space="preserve" font-family="Helvetica-Light" font-size="26.0" fill="#A6AAA8" transform="matrix(1.00, 0.00, -0.00, -1.00, 1049.8, 372.0)">)</text><g opacity="0.50"><g><clipPath id="clip-5"><path d="M 1324.0 605.0 L 1699.0 605.0 L 1699.0 1080.0 L 1324.0 1080.0 Z M 1324.0 605.0 "></path></clipPath><g clip-path="url(#clip-5)"><image xlink:href="../../49B0041F-D2B6-45AE-B257-4A439451C92F/assets/2211F9750278E6229A13AD121393DB58.png" width="534.00" height="431.00" transform="matrix(0.70, 0.00, -0.00, -0.70, 1326.0, 1028.0)"></image><image xlink:href="F00B8E15C971F83B2CA2EDDBD7253025.png" width="1551.00" height="505.00" transform="matrix(0.24, 0.00, -0.00, -0.24, 1325.8, 727.4)"></image></g></g></g></g></svg>