<?xml version="1.0" encoding="UTF-8" standalone="no"?><svg xmlns="http://www.w3.org/2000/svg" xmlns:xlink="http://www.w3.org/1999/xlink" clip-rule="evenodd" stroke-miterlimit="4.00" viewBox="0 0 1920 1080"><desc>SVG generated by Keynote</desc><defs></defs><g transform="matrix(1.00, 0.00, -0.00, -1.00, 0.0, 1080.0)"><path d="M 0.0 1080.0 L 1920.0 1080.0 L 1920.0 0.0 L 0.0 0.0 Z M 0.0 1080.0 " fill="#FEFFFF"></path><image xlink:href="A89D7F1D9FF1584D60D961FBC940E23B.png" width="437.00" height="438.00" transform="matrix(2.15, 0.00, -0.00, -2.15, 898.0, 1039.0)"></image><image xlink:href="9723FF29EFFB7A7AB5AEB4F6315A3200.png" width="3917.00" height="505.00" transform="matrix(0.24, 0.00, -0.00, -0.24, 898.0, 96.7)"></image><g><clipPath id="clip-0"><path d="M 15.3 815.3 L 155.6 815.3 L 155.6 958.7 L 15.3 958.7 Z M 15.3 815.3 "></path></clipPath><g clip-path="url(#clip-0)"><image xlink:href="../../72D0EAD3-E874-40A1-B9A8-CFB741D0859A/assets/E22F4878CC6F752CA7A9C70AD8314AAF.png" width="240.00" height="245.00" transform="matrix(0.59, 0.00, -0.00, -0.59, 15.0, 959.0)"></image></g></g><g><clipPath id="clip-1"><path d="M 183.4 765.6 L 543.6 765.6 L 543.6 1055.0 L 183.4 1055.0 Z M 183.4 765.6 "></path></clipPath><g clip-path="url(#clip-1)"><image xlink:href="507C7011571F9E4EBE8143419A582E43.png" width="361.00" height="206.00" transform="matrix(1.00, 0.00, -0.00, -1.00, 183.0, 1055.0)"></image><image xlink:href="4261EA15FA5C8581462ED4D211E65ACD.png" width="1501.00" height="348.00" transform="matrix(0.24, 0.00, -0.00, -0.24, 183.4, 849.0)"></image></g></g><g><clipPath id="clip-2"><path d="M 237.0 543.9 L 597.2 543.9 L 597.2 843.5 L 237.0 843.5 Z M 237.0 543.9 "></path></clipPath><g clip-path="url(#clip-2)"><image xlink:href="31570C92B965CAF55A37A673D12DAB81.png" width="361.00" height="214.00" transform="matrix(1.00, 0.00, -0.00, -1.00, 237.0, 843.0)"></image><image xlink:href="37E9E5CBBEC77C37BC229508BFC1B72A.png" width="1501.00" height="360.00" transform="matrix(0.24, 0.00, -0.00, -0.24, 237.0, 630.2)"></image></g></g><g><clipPath id="clip-3"><path d="M 409.3 702.9 L 769.4 702.9 L 769.4 998.3 L 409.3 998.3 Z M 409.3 702.9 "></path></clipPath><g clip-path="url(#clip-3)"><image xlink:href="C2D9812F62B3BB2FC4A62CAA7BB4DC3F.png" width="361.00" height="210.00" transform="matrix(1.00, 0.00, -0.00, -1.00, 409.0, 998.0)"></image><image xlink:href="7BBE7FC0B0CB35751206E58C55FACB4D.png" width="1501.00" height="355.00" transform="matrix(0.24, 0.00, -0.00, -0.24, 409.3, 788.0)"></image></g></g><g><clipPath id="clip-4"><path d="M 377.3 417.5 L 737.4 417.5 L 737.4 705.5 L 377.3 705.5 Z M 377.3 417.5 "></path></clipPath><g clip-path="url(#clip-4)"><image xlink:href="6E55E0C65C65CA9917E0F8A60DD7757F.png" width="361.00" height="205.00" transform="matrix(1.00, 0.00, -0.00, -1.00, 377.0, 706.0)"></image><image xlink:href="4918683D5FE3A7F36C09D8B10A2F201D.png" width="1501.00" height="346.00" transform="matrix(0.24, 0.00, -0.00, -0.24, 377.3, 500.5)"></image></g></g><g><clipPath id="clip-5"><path d="M 22.3 462.4 L 382.5 462.4 L 382.5 741.7 L 22.3 741.7 Z M 22.3 462.4 "></path></clipPath><g clip-path="url(#clip-5)"><image xlink:href="BC5AEADE29BD528662586D0B17F36454.png" width="361.00" height="199.00" transform="matrix(1.00, 0.00, -0.00, -1.00, 22.0, 742.0)"></image><image xlink:href="9CE6F89FB632F5973355BE38D25B094D.png" width="1501.00" height="336.00" transform="matrix(0.24, 0.00, -0.00, -0.24, 22.3, 542.9)"></image></g></g></g></svg>